<svg xmlns="http://www.w3.org/2000/svg" viewBox="0 0 128.78 145.28"><defs><style>.cls-1{fill:#ddcdaf;}.cls-2{fill:#fff;}</style></defs><g id="Layer_2" data-name="Layer 2"><g id="Layer_1-2" data-name="Layer 1"><rect class="cls-1" x="19.21" y="18.42" width="90.06" height="91.64" transform="translate(-26.6 64.75) rotate(-45.32)"/><path class="cls-2" d="M64.4,127.9c.13-6.1,3.12-13.07,3.12-13.07,1.64-6.2,3.51-8.86,4.27-9.73a7.57,7.57,0,0,0,.66-.94C75,99.91,80.12,96.37,84.6,93.91a67,67,0,0,1,8.32-3.86,16.94,16.94,0,0,1,2.44-7.39c4-6.39,4-9.3,4-9.3.62-4.73,3.86-3.37,3.86-3.37,2.12-7.46,3.48-8.59,3.48-8.59,3-5.47,4.61-1.87,4.61-1.87l3.61-4c.59-1.1,2.42-.72,3.54-.36a.79.79,0,0,1,.46,1.14,17.51,17.51,0,0,0-2.1,6.26c0,.25-.06.49-.1.74A52.78,52.78,0,0,1,115,70.92a27.83,27.83,0,0,0-1.26,6c6.72-14.2,11.7-13.08,11.7-13.08,2.48-.36,3.14.2,3.06,1"/><path d="M64.7,127.91a33.84,33.84,0,0,1,1.59-8.75c.38-1.24.75-2.3,1-3,.14-.37.26-.66.34-.86l.13-.31v0c1.64-6.16,3.49-8.78,4.21-9.61h0a6.57,6.57,0,0,0,.69-1l-.25-.15.25.15c2.5-4.17,7.59-7.69,12-10.15,2.22-1.22,4.3-2.18,5.81-2.83.76-.33,1.37-.58,1.8-.75l.49-.19.17-.07.18-.06,0-.19a16.47,16.47,0,0,1,2.39-7.25c4-6.42,4.08-9.39,4.08-9.45H99.4l.29,0a4.46,4.46,0,0,1,1.1-2.73,2.09,2.09,0,0,1,1.45-.57,2.67,2.67,0,0,1,.65.09l.19,0,0,0h0l.31.13.09-.32a41.63,41.63,0,0,1,2.52-7,9,9,0,0,1,.67-1.17l.17-.2,0,0h0l0,0,0-.05a8.7,8.7,0,0,1,1.68-2.32,1.76,1.76,0,0,1,1.14-.56,1.29,1.29,0,0,1,.92.48,2.84,2.84,0,0,1,.26.36l.06.12,0,0h0l.19.41,3.94-4.33v0a.94.94,0,0,1,.49-.43,2.18,2.18,0,0,1,.81-.13,6.21,6.21,0,0,1,1.89.35.51.51,0,0,1,.36.48.49.49,0,0,1-.06.23h0a18.16,18.16,0,0,0-2.14,6.37h0q0,.36-.09.72h0a51.88,51.88,0,0,1-1.77,7.54,29,29,0,0,0-1.28,6.11l-.16,1.67.72-1.52c2.89-6.1,5.46-9.34,7.41-11s3.28-1.87,3.76-1.87h.21l0-.12,0,.12h0l0-.12,0,.12h.11a10,10,0,0,1,1.3-.11,2.33,2.33,0,0,1,1.18.23.47.47,0,0,1,.24.45v.09l.58.06v-.15a1.08,1.08,0,0,0-.51-.94,2.74,2.74,0,0,0-1.5-.32,9.49,9.49,0,0,0-1.39.11l0,.29.07-.28a1.28,1.28,0,0,0-.34,0c-.63,0-2.12.24-4.15,2s-4.63,5.09-7.55,11.24l.27.13.29,0a27.91,27.91,0,0,1,1.25-6,52,52,0,0,0,1.79-7.62l-.29,0,.29,0c0-.26.07-.51.1-.76l-.29,0,.29,0a17.25,17.25,0,0,1,2.06-6.16l-.25-.14.25.15a1,1,0,0,0,.15-.53,1.1,1.1,0,0,0-.77-1,7,7,0,0,0-2.07-.38,2.78,2.78,0,0,0-1,.18,1.55,1.55,0,0,0-.78.7l.26.14-.21-.2-3.62,4,.22.19.27-.12a3,3,0,0,0-.44-.65,1.82,1.82,0,0,0-1.36-.69,2.33,2.33,0,0,0-1.53.71,9.31,9.31,0,0,0-1.81,2.48l.26.14-.18-.23c-.09.09-1.45,1.25-3.59,8.74l.29.08.11-.27a3.16,3.16,0,0,0-1.13-.2,2.56,2.56,0,0,0-1.85.73,5,5,0,0,0-1.28,3.07v0h0c0,.11-.19,3-4,9.15A17.18,17.18,0,0,0,92.63,90l.29,0-.1-.28a68.74,68.74,0,0,0-8.36,3.88c-4.5,2.48-9.65,6-12.26,10.36h0a6.15,6.15,0,0,1-.64.9l.23.19-.23-.2c-.79.92-2.67,3.62-4.33,9.85l.29.08-.27-.12s-3,7-3.14,13.18l.59,0Z"/><path d="M99.32,87.41s0-.14,0-.38,0-.58,0-1a13.12,13.12,0,0,1,1-5.56,43.3,43.3,0,0,0,2.14-5.08c.34-1,.65-1.91.87-2.75a9,9,0,0,0,.36-2.1,1.4,1.4,0,0,0-.14-.69l-.51.29a.91.91,0,0,1,.06.4,8.36,8.36,0,0,1-.34,1.95,45,45,0,0,1-3,7.71A13.71,13.71,0,0,0,98.68,86c0,.85,0,1.42,0,1.43l.59,0Z"/><path d="M105.5,82.71v-.17a50.49,50.49,0,0,1,1.65-10.1l-.28-.08.28.1,4.48-12.83-.56-.19-4.48,12.84h0a49.25,49.25,0,0,0-1.67,10.42Z"/><path class="cls-1" d="M116.45,79a4,4,0,0,0-1.2-1.18l0,0h0a2.51,2.51,0,0,0-.91-.16,2.21,2.21,0,0,0-1.5.54,7.45,7.45,0,0,1-1.13.83,18.91,18.91,0,0,0-1.93,1.31,6,6,0,0,0-.8.78,1.36,1.36,0,0,0-.37.85,1,1,0,0,0,0,.17l0,.06,1.54,2.16a1.11,1.11,0,0,0,1.27.41h0l2.59-1.1a3.32,3.32,0,0,1-1.07,2l-10.24,9h0a7.11,7.11,0,0,0-1.1,1,68,68,0,0,0-5.32,6.68c-1.07,1.48-2,2.81-2.55,3.61a2,2,0,0,1,.56.23c.82-1.2,2.38-3.43,4-5.59.92-1.22,1.87-2.43,2.71-3.41a11.75,11.75,0,0,1,2-2h0l10.26-9a3.9,3.9,0,0,0,1.3-2.74,8.28,8.28,0,0,0,1-.82,5,5,0,0,0,.79-1,2.57,2.57,0,0,0,.38-1.31A2.28,2.28,0,0,0,116.45,79Zm-.53,2.22a4.44,4.44,0,0,1-1.08,1.22,5.57,5.57,0,0,1-.47.35l-.13.1,0,0-3,1.27a.51.51,0,0,1-.17,0,.53.53,0,0,1-.43-.22l-1.47-2a.89.89,0,0,1,.25-.48,6.21,6.21,0,0,1,1.17-1c.48-.35,1-.67,1.4-.91a9.93,9.93,0,0,0,1.21-.89,1.76,1.76,0,0,1,1.62-.34l.14,0h0a3.59,3.59,0,0,1,1,1,1.77,1.77,0,0,1,.28.9A2,2,0,0,1,115.92,81.25Z"/><path d="M113.14,77.66a2,2,0,0,0-.29,0c-.86,0-3.48.38-7.1,4.24l.22.2-.19-.23-.84.7c-.77.63-2,1.61-3.13,2.52a33.93,33.93,0,0,1-2.93,2.11l.14.25-.11-.27-6.1,2.62.23.54,6.11-2.63h0c.46-.27,1.11-.73,1.85-1.28,2.21-1.65,5.13-4.11,5.13-4.11h0c3.54-3.77,6-4,6.67-4h.2v0h0v0l.09-.58Z"/><path class="cls-2" d="M64.4,127.9c-.12-6.1-3.11-13.07-3.11-13.07-1.65-6.2-3.51-8.86-4.27-9.73a6.64,6.64,0,0,1-.66-.94c-2.56-4.25-7.68-7.79-12.16-10.25a67,67,0,0,0-8.32-3.86,16.68,16.68,0,0,0-2.44-7.39c-3.94-6.39-4-9.3-4-9.3C28.79,68.63,25.55,70,25.55,70c-2.12-7.46-3.49-8.59-3.49-8.59-3-5.47-4.6-1.87-4.6-1.87l-3.62-4c-.58-1.1-2.41-.72-3.54-.36a.78.78,0,0,0-.45,1.14A17.72,17.72,0,0,1,12,62.6c0,.25.06.49.1.74a52.78,52.78,0,0,0,1.78,7.58,28.43,28.43,0,0,1,1.26,6C8.36,62.77,3.38,63.89,3.38,63.89c-2.48-.36-3.14.2-3,1"/><path d="M64.7,127.89c-.14-6.18-3.14-13.16-3.14-13.18l-.27.12.28-.08c-1.65-6.23-3.54-8.93-4.33-9.85l-.22.2.23-.19a6.15,6.15,0,0,1-.64-.9h0C54,99.67,48.84,96.13,44.35,93.65A68.44,68.44,0,0,0,36,89.77l-.1.28.3,0a17.19,17.19,0,0,0-2.49-7.51,34.32,34.32,0,0,1-3.46-7,12.11,12.11,0,0,1-.46-1.66q0-.27-.06-.39v-.1h0v0a5,5,0,0,0-1.28-3.07,2.56,2.56,0,0,0-1.85-.73,3.1,3.1,0,0,0-1.13.2l.11.27.28-.08c-2.13-7.49-3.49-8.65-3.58-8.74l-.19.23.26-.14a9.32,9.32,0,0,0-1.8-2.48A2.37,2.37,0,0,0,19,58.07a1.86,1.86,0,0,0-1.36.69,3.18,3.18,0,0,0-.43.65l.27.12.22-.19-3.62-4-.22.2.26-.14a1.48,1.48,0,0,0-.78-.7,2.73,2.73,0,0,0-1-.18,7.06,7.06,0,0,0-2.08.38,1.09,1.09,0,0,0-.76,1,1,1,0,0,0,.15.53l.25-.15-.26.14a17.34,17.34,0,0,1,2.07,6.16l.29,0-.29,0c0,.25.05.5.1.76l.29,0-.29,0A52,52,0,0,0,13.55,71a27.91,27.91,0,0,1,1.25,6l.29,0,.27-.13c-2.92-6.15-5.52-9.46-7.55-11.24s-3.52-2-4.16-2a1.17,1.17,0,0,0-.33,0l.06.28.05-.29A9.61,9.61,0,0,0,2,63.49a2.79,2.79,0,0,0-1.5.32,1.07,1.07,0,0,0-.5.94v.16l.59-.06v-.1a.48.48,0,0,1,.24-.44A2.2,2.2,0,0,1,2,64.07a10.14,10.14,0,0,1,1.31.11h.11l0-.12,0,.12h0l0-.12,0,.12h.2c.49,0,1.82.17,3.77,1.87s4.51,4.95,7.41,11l.72,1.52-.17-1.67a28.37,28.37,0,0,0-1.27-6.11,51.88,51.88,0,0,1-1.77-7.54h0c0-.24-.07-.48-.1-.72h0a17.73,17.73,0,0,0-2.14-6.37h0A.49.49,0,0,1,10,56a.51.51,0,0,1,.35-.48,6.27,6.27,0,0,1,1.9-.35,2.1,2.1,0,0,1,.8.13,1,1,0,0,1,.5.43v0l3.94,4.33.19-.41h0a2.2,2.2,0,0,1,.38-.55,1.21,1.21,0,0,1,.87-.44,1.78,1.78,0,0,1,1.15.56,8.93,8.93,0,0,1,1.68,2.32l0,.05.05,0h0c.08.07,1.41,1.47,3.39,8.44l.09.32.3-.13h0a2.61,2.61,0,0,1,.9-.16,2.09,2.09,0,0,1,1.45.57,4.46,4.46,0,0,1,1.1,2.73l.29,0h-.29c0,.06.11,3,4.07,9.45a16.49,16.49,0,0,1,2.4,7.25l0,.19.17.06.17.07a67.87,67.87,0,0,1,8.11,3.77c4.46,2.46,9.54,6,12,10.15l.26-.15-.26.15a7.31,7.31,0,0,0,.7,1h0c.72.83,2.57,3.45,4.21,9.61v0l.13.31c.57,1.4,2.85,7.39,3,12.66l.59,0Z"/><path d="M30.08,87.46s0-.58,0-1.43a13.54,13.54,0,0,0-1.07-5.83,42.85,42.85,0,0,1-2.11-5c-.34-1-.64-1.89-.85-2.71a7.86,7.86,0,0,1-.34-1.95.78.78,0,0,1,.06-.4l-.52-.29a1.52,1.52,0,0,0-.13.69,9,9,0,0,0,.36,2.1,45.29,45.29,0,0,0,3,7.83,13.27,13.27,0,0,1,1,5.56c0,.42,0,.76,0,1s0,.38,0,.38l.59,0Z"/><path class="cls-2" d="M23.6,82.71a48.39,48.39,0,0,0-1.66-10.35L17.46,59.54"/><path d="M23.9,82.71a49,49,0,0,0-1.68-10.42h0L17.73,59.44l-.55.19,4.48,12.83.28-.1-.29.08A59.79,59.79,0,0,1,23.09,80c.1.89.16,1.59.19,2q0,.36,0,.54v.17Z"/><path d="M15.55,78.12l0-.11v.12h0l0-.11v.12h.13c.61,0,3.26.23,7,4.16h0s1.31,1.09,2.83,2.31c.76.61,1.57,1.25,2.31,1.8s1.39,1,1.85,1.28h0l6.12,2.63.23-.54-6.1-2.62-.12.27.15-.25c-.41-.24-1.06-.7-1.79-1.24-1.09-.82-2.37-1.84-3.38-2.66l-1.24-1L23,81.85l-.19.23.22-.2c-3.78-4-6.62-4.35-7.39-4.35h-.2l.08.58Z"/><path class="cls-1" d="M33.63,103.16s-1.28-1.74-2.86-3.67c-.78-1-1.65-2-2.47-2.84a13.33,13.33,0,0,0-2.22-2l-.16.25.2-.22-10.24-9a3.31,3.31,0,0,1-1.12-2.47V83l-.14-.09h0a5.73,5.73,0,0,1-1.11-.9,2.75,2.75,0,0,1-.91-1.79,1.68,1.68,0,0,1,.28-.9,3.53,3.53,0,0,1,1-1l-.17-.24.11.27v0h0v0a2,2,0,0,1,.69-.12,1.69,1.69,0,0,1,1.12.41,9.82,9.82,0,0,0,1.2.89A14.55,14.55,0,0,1,18.7,80.8a4.82,4.82,0,0,1,.72.69.89.89,0,0,1,.24.48v0l.29.07-.24-.17L18.2,84a.55.55,0,0,1-.43.22.47.47,0,0,1-.17,0l-.1.28.11-.27-3-1.29-.23.54,3,1.29h0a1.19,1.19,0,0,0,.37.06,1.1,1.1,0,0,0,.9-.47l1.55-2.16v-.06a.5.5,0,0,0,0-.17,1.36,1.36,0,0,0-.37-.85A6.67,6.67,0,0,0,18.59,80c-.5-.36-1-.69-1.45-.94A7.9,7.9,0,0,1,16,78.2a2.21,2.21,0,0,0-1.5-.54,2.51,2.51,0,0,0-.91.16h0l0,0A4,4,0,0,0,12.36,79,2.21,2.21,0,0,0,12,80.24a2.67,2.67,0,0,0,.38,1.31,6.31,6.31,0,0,0,2,1.9l.15-.25h-.3a3.88,3.88,0,0,0,1.32,2.91l10.26,9h0a13.38,13.38,0,0,1,2.11,1.9c1.2,1.28,2.53,2.9,3.54,4.2.51.64.95,1.21,1.25,1.62l.49.64.47-.35Z"/><path class="cls-2" d="M45.37,76.85C50,74.52,57.31,73.49,65.49,82a.32.32,0,0,1,0,.44C64,83.8,55.91,91.16,50.9,90.11a.26.26,0,0,1-.15-.07l-6.34-5.5A4.66,4.66,0,0,1,45.37,76.85Z"/><circle cx="63.84" cy="69.02" r="5.82"/><path d="M58,69h-.88a6.71,6.71,0,1,0,6.71-6.71A6.71,6.71,0,0,0,57.13,69h1.76a4.93,4.93,0,0,1,5-4.94,4.94,4.94,0,1,1-5,4.94Z"/><path d="M81.23,77.42l.42-.78a14.27,14.27,0,0,0-6.73-1.74,14.12,14.12,0,0,0-4.77.85,15.87,15.87,0,0,0-6.91,5,24.14,24.14,0,0,1-4.88,4.55,13.56,13.56,0,0,1-7.6,2.59h-.35l-2.62-.08,15.46,12.47L82.43,83.72a4.33,4.33,0,0,0,1.5-3.27,4.41,4.41,0,0,0-.58-2.17,4.27,4.27,0,0,0-1.7-1.64l-.42.78-.41.78a2.44,2.44,0,0,1,1,1,2.54,2.54,0,0,1-.54,3.22L63.21,97.93,50.94,88l-.55.69,0,.88h.4a15.28,15.28,0,0,0,8.59-2.91,26.06,26.06,0,0,0,5.26-4.88,14.08,14.08,0,0,1,6.13-4.41,12.05,12.05,0,0,1,10.08.79Z"/><path class="cls-1" d="M43.7,114.37c-3.44,3.43-8.39,4.71-12.26.83-3.53-3.54-2.73-8.46.88-12.06s8.46-4.45,12.18-.71C47.94,105.88,47.36,110.72,43.7,114.37ZM33.41,104.13c-2.89,2.89-4,7.21-1,10.23,3.25,3.25,7.27,2,10.25-1s4-7,.93-10.06C40.34,100.05,36.25,101.3,33.41,104.13Z"/><path class="cls-1" d="M76.86,107.49l4.06-4.26c3.36-3.53,8.15-3.63,12,0s4.27,8.61.84,12.22l-4,4.24Zm12.89,10.38,3-3.1c3.24-3.4,2.44-7.35-.74-10.38-2.83-2.69-6.89-3.69-10.29-.12l-3,3.1Z"/><path class="cls-1" d="M70.85,140.33a6.48,6.48,0,0,1-6.67,4.95c-5.1,0-7.79-4.06-7.79-9.06,0-4.8,2.64-9.16,7.81-9.16,3.84,0,6.09,2.13,6.68,5.1H69.51a5.14,5.14,0,0,0-5.38-3.83c-4.42,0-6.27,4-6.27,7.86S59.69,144,64.23,144a5.21,5.21,0,0,0,5.25-3.68Z"/></g></g></svg>