<svg xmlns="http://www.w3.org/2000/svg" viewBox="0 0 570.9 145.28"><defs><style>.cls-1,.cls-3{fill:#ddcdaf;}.cls-2{fill:#fff;}.cls-3{font-size:67.82px;font-family:GESSTV-Light, GE SS TV;font-weight:300;}</style></defs><g id="Layer_2" data-name="Layer 2"><g id="Layer_1-2" data-name="Layer 1"><rect class="cls-1" x="461.33" y="18.42" width="90.06" height="91.64" transform="translate(104.66 379.14) rotate(-45.32)"/><path class="cls-2" d="M506.52,127.9c.13-6.1,3.11-13.07,3.11-13.07,1.65-6.2,3.51-8.86,4.27-9.73a6.64,6.64,0,0,0,.66-.94c2.56-4.25,7.68-7.79,12.16-10.25A67,67,0,0,1,535,90.05a16.81,16.81,0,0,1,2.44-7.39c3.94-6.39,4-9.3,4-9.3.62-4.73,3.86-3.37,3.86-3.37,2.12-7.46,3.49-8.59,3.49-8.59,3-5.47,4.6-1.87,4.6-1.87l3.62-4c.58-1.1,2.41-.72,3.54-.36a.78.78,0,0,1,.45,1.14A17.72,17.72,0,0,0,559,62.6c0,.25-.05.49-.1.74a51.43,51.43,0,0,1-1.78,7.58,28.43,28.43,0,0,0-1.26,6c6.73-14.2,11.71-13.08,11.71-13.08,2.47-.36,3.14.2,3.06,1"/><path d="M506.81,127.91a33.84,33.84,0,0,1,1.59-8.75c.38-1.24.76-2.3,1-3l.33-.86c.09-.2.13-.31.13-.31v0c1.64-6.16,3.49-8.78,4.21-9.61h0a7.4,7.4,0,0,0,.69-1l-.26-.15.26.15c2.5-4.17,7.58-7.69,12-10.15,2.23-1.22,4.3-2.18,5.81-2.83.76-.33,1.38-.58,1.81-.75l.49-.19.17-.07.17-.06,0-.19a16.49,16.49,0,0,1,2.4-7.25c4-6.42,4.07-9.39,4.07-9.45h-.29l.29,0a4.4,4.4,0,0,1,1.11-2.73,2.06,2.06,0,0,1,1.45-.57,2.75,2.75,0,0,1,.65.09l.19,0,0,0h0l.3.13.09-.32a42.58,42.58,0,0,1,2.52-7,8.74,8.74,0,0,1,.68-1.17c.07-.1.13-.16.16-.2l0,0h0l.05,0,0-.05a8.93,8.93,0,0,1,1.68-2.32,1.78,1.78,0,0,1,1.15-.56,1.29,1.29,0,0,1,.92.48,2,2,0,0,1,.25.36l.07.12v0h0l.18.41,3.94-4.33,0,0a.94.94,0,0,1,.49-.43,2.1,2.1,0,0,1,.8-.13,6.27,6.27,0,0,1,1.9.35.5.5,0,0,1,.35.48.4.4,0,0,1-.06.23h0a17.73,17.73,0,0,0-2.14,6.37h0c0,.24-.06.48-.1.72h0a53.64,53.64,0,0,1-1.76,7.54,27.8,27.8,0,0,0-1.28,6.11l-.17,1.67.73-1.52c2.89-6.1,5.45-9.34,7.4-11s3.28-1.87,3.77-1.87h.21l0-.12,0,.12h0l0-.12,0,.12h.11a10.14,10.14,0,0,1,1.31-.11,2.33,2.33,0,0,1,1.18.23.51.51,0,0,1,.24.45v.09l.59.06v-.15a1.11,1.11,0,0,0-.52-.94,2.73,2.73,0,0,0-1.49-.32,9.51,9.51,0,0,0-1.4.11l0,.29.06-.28a1.17,1.17,0,0,0-.33,0c-.64,0-2.12.24-4.16,2s-4.63,5.09-7.55,11.24l.27.13.29,0a27.91,27.91,0,0,1,1.25-6,52,52,0,0,0,1.79-7.62l-.29,0,.29,0a6.89,6.89,0,0,0,.1-.76l-.29,0,.29,0a17.34,17.34,0,0,1,2.07-6.16l-.26-.14.26.15a1,1,0,0,0,.14-.53,1.09,1.09,0,0,0-.76-1,7.06,7.06,0,0,0-2.08-.38,2.73,2.73,0,0,0-1,.18,1.51,1.51,0,0,0-.78.7l.26.14-.22-.2-3.61,4,.21.19.27-.12a3.18,3.18,0,0,0-.43-.65,1.86,1.86,0,0,0-1.36-.69,2.37,2.37,0,0,0-1.54.71,9.32,9.32,0,0,0-1.8,2.48l.26.14-.19-.23c-.09.09-1.45,1.25-3.58,8.74l.28.08.11-.27a3.08,3.08,0,0,0-1.12-.2,2.57,2.57,0,0,0-1.86.73,5,5,0,0,0-1.28,3.07v0h0c0,.11-.19,3-4,9.15A17.05,17.05,0,0,0,534.75,90l.29,0-.1-.28a68.74,68.74,0,0,0-8.36,3.88c-4.5,2.48-9.65,6-12.27,10.36h0a6.93,6.93,0,0,1-.63.9l.22.19-.22-.2c-.79.92-2.68,3.62-4.33,9.85l.28.08-.27-.12s-3,7-3.14,13.18l.59,0Z"/><path d="M541.43,87.41s0-.14,0-.38,0-.58,0-1a13.27,13.27,0,0,1,1-5.56,44.91,44.91,0,0,0,2.15-5.08c.34-1,.64-1.91.86-2.75a9,9,0,0,0,.36-2.1,1.4,1.4,0,0,0-.13-.69l-.52.29a.86.86,0,0,1,.07.4,8.93,8.93,0,0,1-.34,1.95,45.87,45.87,0,0,1-3,7.71A13.54,13.54,0,0,0,540.8,86c0,.85,0,1.42,0,1.43l.59,0Z"/><path d="M547.61,82.71s0-.06,0-.17a50.49,50.49,0,0,1,1.65-10.1l-.29-.08.28.1,4.48-12.83-.55-.19L548.7,72.28h0A49,49,0,0,0,547,82.71Z"/><path class="cls-1" d="M558.56,79a4,4,0,0,0-1.19-1.18l0,0h0a2.51,2.51,0,0,0-.91-.16,2.21,2.21,0,0,0-1.5.54,7.9,7.9,0,0,1-1.12.83,16.94,16.94,0,0,0-1.93,1.31,6.75,6.75,0,0,0-.81.78,1.36,1.36,0,0,0-.37.85,1,1,0,0,0,0,.17v.06l1.55,2.16a1.1,1.1,0,0,0,.9.47,1.19,1.19,0,0,0,.37-.06h0l2.58-1.1a3.27,3.27,0,0,1-1.07,2l-10.24,9h0a7.61,7.61,0,0,0-1.1,1,69.55,69.55,0,0,0-5.32,6.68c-1.07,1.48-2,2.81-2.54,3.61a2.06,2.06,0,0,1,.55.23c.83-1.2,2.39-3.43,4-5.59.93-1.22,1.87-2.43,2.71-3.41a12.12,12.12,0,0,1,2-2h0l10.26-9a3.86,3.86,0,0,0,1.3-2.74,7.58,7.58,0,0,0,1-.82,5.4,5.4,0,0,0,.8-1,2.67,2.67,0,0,0,.38-1.31A2.21,2.21,0,0,0,558.56,79ZM558,81.25A4.79,4.79,0,0,1,557,82.47l-.47.35-.14.1,0,0-3,1.27a.47.47,0,0,1-.17,0,.52.52,0,0,1-.42-.22l-1.47-2a.93.93,0,0,1,.24-.48,6.3,6.3,0,0,1,1.18-1c.48-.35,1-.67,1.4-.91a9.1,9.1,0,0,0,1.2-.89,1.69,1.69,0,0,1,1.12-.41,1.67,1.67,0,0,1,.5.07l.15,0h0a3.46,3.46,0,0,1,1,1,1.68,1.68,0,0,1,.28.9A2.08,2.08,0,0,1,558,81.25Z"/><path d="M555.26,77.66a2.39,2.39,0,0,0-.3,0c-.85,0-3.48.38-7.09,4.24l.21.2-.19-.23-.84.7c-.77.63-2,1.61-3.13,2.52A32.43,32.43,0,0,1,541,87.18l.15.25-.12-.27-6.1,2.62.23.54,6.12-2.63h0a21.67,21.67,0,0,0,1.85-1.28c2.21-1.65,5.14-4.11,5.14-4.11h0c3.55-3.77,6-4,6.67-4h.2l0-.1,0,.1h0l0-.1,0,.1.1-.58Z"/><path class="cls-2" d="M506.52,127.9c-.13-6.1-3.12-13.07-3.12-13.07-1.64-6.2-3.51-8.86-4.27-9.73a7.57,7.57,0,0,1-.66-.94c-2.56-4.25-7.67-7.79-12.15-10.25A67,67,0,0,0,478,90.05a16.94,16.94,0,0,0-2.44-7.39c-3.94-6.39-4-9.3-4-9.3-.61-4.73-3.86-3.37-3.86-3.37-2.12-7.46-3.48-8.59-3.48-8.59-3-5.47-4.61-1.87-4.61-1.87l-3.61-4c-.58-1.1-2.41-.72-3.54-.36a.79.79,0,0,0-.46,1.14,17.51,17.51,0,0,1,2.1,6.26c0,.25.06.49.1.74a52.78,52.78,0,0,0,1.78,7.58,28.45,28.45,0,0,1,1.27,6c-6.73-14.2-11.71-13.08-11.71-13.08-2.49-.36-3.14.2-3.06,1"/><path d="M506.81,127.89c-.13-6.18-3.13-13.16-3.14-13.18l-.27.12.29-.08c-1.66-6.23-3.54-8.93-4.33-9.85l-.23.2.23-.19a7,7,0,0,1-.64-.9h0c-2.61-4.34-7.76-7.88-12.26-10.36a68.74,68.74,0,0,0-8.36-3.88l-.1.28.29,0a17.05,17.05,0,0,0-2.48-7.51,35.07,35.07,0,0,1-3.47-7,13.3,13.3,0,0,1-.45-1.66q0-.27-.06-.39v-.1h0v0a5,5,0,0,0-1.29-3.07,2.56,2.56,0,0,0-1.85-.73,3.16,3.16,0,0,0-1.13.2l.11.27.29-.08c-2.13-7.49-3.5-8.65-3.58-8.74l-.19.23.26-.14a9.55,9.55,0,0,0-1.8-2.48,2.37,2.37,0,0,0-1.54-.71,1.82,1.82,0,0,0-1.36.69,3,3,0,0,0-.44.65l.27.12.22-.19-3.61-4-.22.2.26-.14a1.55,1.55,0,0,0-.78-.7,2.78,2.78,0,0,0-1-.18,7,7,0,0,0-2.07.38,1.1,1.1,0,0,0-.77,1,1,1,0,0,0,.15.53l.25-.15-.25.14a17.25,17.25,0,0,1,2.06,6.16l.29,0-.29,0c0,.25.06.5.11.76l.28,0-.29,0A53.34,53.34,0,0,0,455.66,71a27.91,27.91,0,0,1,1.25,6l.3,0,.26-.13c-2.92-6.15-5.51-9.46-7.55-11.24s-3.52-2-4.15-2a1.28,1.28,0,0,0-.34,0l.07.28,0-.29a9.49,9.49,0,0,0-1.39-.11,2.74,2.74,0,0,0-1.5.32,1.08,1.08,0,0,0-.51.94v.16l.58-.06v-.1a.45.45,0,0,1,.24-.44,2.18,2.18,0,0,1,1.18-.24,10.28,10.28,0,0,1,1.31.11h.1l0-.12,0,.12h0l0-.12,0,.12h.21c.48,0,1.81.17,3.76,1.87s4.52,4.95,7.41,11l.72,1.52-.16-1.67a28.39,28.39,0,0,0-1.28-6.11,51.88,51.88,0,0,1-1.77-7.54h0q-.06-.36-.09-.72h0a18.16,18.16,0,0,0-2.14-6.37h0a.49.49,0,0,1-.06-.23.51.51,0,0,1,.36-.48,6.21,6.21,0,0,1,1.89-.35,2.18,2.18,0,0,1,.81.13.94.94,0,0,1,.49.43l0,0,3.94,4.33.18-.41h0a2.54,2.54,0,0,1,.38-.55,1.23,1.23,0,0,1,.88-.44,1.76,1.76,0,0,1,1.14.56,8.7,8.7,0,0,1,1.68,2.32l0,.05,0,0h0c.09.07,1.41,1.47,3.39,8.44l.09.32.31-.13h0a2.68,2.68,0,0,1,.9-.16,2.07,2.07,0,0,1,1.45.57,4.46,4.46,0,0,1,1.1,2.73l.29,0h-.29c0,.06.12,3,4.08,9.45a16.47,16.47,0,0,1,2.39,7.25l0,.19.18.06.17.07a68.64,68.64,0,0,1,8.11,3.77c4.45,2.46,9.54,6,12,10.15l.25-.15-.25.15a7.23,7.23,0,0,0,.69,1h0c.72.83,2.57,3.45,4.21,9.61v0l.13.31c.57,1.4,2.86,7.39,3,12.66l.59,0Z"/><path d="M472.19,87.46s.05-.58.05-1.43a13.71,13.71,0,0,0-1.08-5.83,44.65,44.65,0,0,1-2.11-5c-.34-1-.64-1.89-.85-2.71a8.36,8.36,0,0,1-.34-1.95.91.91,0,0,1,.06-.4l-.51-.29a1.4,1.4,0,0,0-.14.69,9,9,0,0,0,.36,2.1,45.29,45.29,0,0,0,3,7.83,13.12,13.12,0,0,1,1,5.56c0,.42,0,.76,0,1s0,.38,0,.38l.58,0Z"/><path class="cls-2" d="M465.72,82.71a48.91,48.91,0,0,0-1.67-10.35l-4.48-12.82"/><path d="M466,82.71a49.25,49.25,0,0,0-1.67-10.42h0l-4.48-12.84-.56.19,4.49,12.83.27-.1-.28.08A59.41,59.41,0,0,1,465.2,80c.11.89.16,1.59.19,2q0,.36,0,.54v.17Z"/><path d="M457.66,78.12v0h0v0h.13c.6,0,3.26.23,6.95,4.16h0s1.3,1.09,2.82,2.31c.76.61,1.58,1.25,2.31,1.8s1.39,1,1.85,1.28h0l6.11,2.63.24-.54L472,87.16l-.11.27.14-.25c-.41-.24-1.06-.7-1.79-1.24-1.09-.82-2.37-1.84-3.37-2.66l-1.25-1-.49-.41-.18.23.21-.2c-3.78-4-6.62-4.35-7.38-4.35h-.2l.07.58Z"/><path class="cls-1" d="M475.75,103.16s-1.28-1.74-2.86-3.67c-.79-1-1.65-2-2.47-2.84a13.34,13.34,0,0,0-2.23-2l-.15.25.19-.22-10.24-9a3.31,3.31,0,0,1-1.12-2.47V83l-.14-.09h0a5.73,5.73,0,0,1-1.11-.9,2.7,2.7,0,0,1-.9-1.79,1.66,1.66,0,0,1,.27-.9,3.66,3.66,0,0,1,1-1l-.17-.24.12.27v0h0v0a1.89,1.89,0,0,1,.68-.12,1.66,1.66,0,0,1,1.12.41,9.93,9.93,0,0,0,1.21.89,16.1,16.1,0,0,1,1.86,1.26,4.7,4.7,0,0,1,.71.69.93.93,0,0,1,.25.48v0l.29.07-.24-.17L460.31,84a.53.53,0,0,1-.43.22.51.51,0,0,1-.17,0l-.1.28.12-.27-3-1.29-.23.54,3,1.29h0a1.11,1.11,0,0,0,1.27-.41l1.54-2.16,0-.06a1,1,0,0,0,0-.17,1.43,1.43,0,0,0-.38-.85A6.67,6.67,0,0,0,460.7,80c-.5-.36-1-.69-1.44-.94a8,8,0,0,1-1.13-.83,2.21,2.21,0,0,0-1.5-.54,2.51,2.51,0,0,0-.91.16h0l0,0a4,4,0,0,0-1.2,1.18,2.28,2.28,0,0,0-.36,1.21,2.67,2.67,0,0,0,.38,1.31,6.22,6.22,0,0,0,1.94,1.9l.15-.25h-.29a3.91,3.91,0,0,0,1.31,2.91l10.26,9h0a13,13,0,0,1,2.11,1.9c1.21,1.28,2.53,2.9,3.55,4.2.51.64.94,1.21,1.25,1.62l.48.64.48-.35Z"/><path class="cls-2" d="M487.48,76.85c4.65-2.33,11.94-3.36,20.12,5.16a.3.3,0,0,1,0,.44C506.16,83.8,498,91.16,493,90.11a.27.27,0,0,1-.14-.07l-6.34-5.5A4.66,4.66,0,0,1,487.48,76.85Z"/><circle cx="505.95" cy="69.02" r="5.82"/><path d="M500.13,69h-.88a6.71,6.71,0,1,0,6.7-6.71,6.71,6.71,0,0,0-6.7,6.71H501a4.95,4.95,0,0,1,8.44-3.5,4.94,4.94,0,0,1,0,7A4.95,4.95,0,0,1,501,69Z"/><path d="M523.35,77.42l.41-.78a13.85,13.85,0,0,0-11.5-.89,15.84,15.84,0,0,0-6.9,5,24.51,24.51,0,0,1-4.89,4.55,13.53,13.53,0,0,1-7.59,2.59h-.35l-2.63-.08,15.46,12.47,19.18-16.51a4.31,4.31,0,0,0-.78-7.08l-.41.78-.42.78a2.53,2.53,0,0,1,1,1,2.64,2.64,0,0,1,.34,1.29,2.49,2.49,0,0,1-.89,1.93L505.33,97.93,493.05,88l-.55.69,0,.88h.41a15.28,15.28,0,0,0,8.59-2.91,26.25,26.25,0,0,0,5.25-4.88,14.2,14.2,0,0,1,6.13-4.41,12.05,12.05,0,0,1,10.08.79Z"/><path class="cls-1" d="M485.81,114.37c-3.43,3.43-8.38,4.71-12.25.83-3.54-3.54-2.74-8.46.87-12.06s8.46-4.45,12.19-.71C490.06,105.88,489.48,110.72,485.81,114.37Zm-10.28-10.24c-2.9,2.89-4,7.21-1,10.23,3.24,3.25,7.26,2,10.24-1s4-7,.93-10.06C482.46,100.05,478.37,101.3,475.53,104.13Z"/><path class="cls-1" d="M519,107.49l4.06-4.26c3.37-3.53,8.16-3.63,12,0s4.27,8.61.84,12.22l-4,4.24Zm12.89,10.38,3-3.1c3.24-3.4,2.44-7.35-.74-10.38-2.83-2.69-6.89-3.69-10.28-.12l-3,3.1Z"/><path class="cls-1" d="M513,140.33a6.49,6.49,0,0,1-6.68,4.95c-5.1,0-7.79-4.06-7.79-9.06,0-4.8,2.64-9.16,7.82-9.16,3.83,0,6.09,2.13,6.67,5.1h-1.37a5.14,5.14,0,0,0-5.38-3.83c-4.41,0-6.27,4-6.27,7.86s1.83,7.82,6.37,7.82a5.22,5.22,0,0,0,5.26-3.68Z"/><text class="cls-3" transform="translate(0 90.05)">عربتلل ةيريخلا ةيعمجلا</text></g></g></svg>