<svg xmlns="http://www.w3.org/2000/svg" xmlns:xlink="http://www.w3.org/1999/xlink" viewBox="0 0 1183.07 513.8"><defs><style>.cls-1{fill:url(#linear-gradient);}.cls-2{fill:url(#linear-gradient-2);}.cls-3{fill:url(#linear-gradient-3);}.cls-4{opacity:0.55;}.cls-5{mask:url(#mask);}.cls-6{opacity:0.7;}.cls-7{opacity:0;}.cls-8{fill:#dbc6a5;}.cls-9{opacity:0.05;}.cls-10{opacity:0.1;}.cls-11{opacity:0.14;}.cls-12{fill:#dbc6a6;}.cls-13{opacity:0.19;}.cls-14{fill:#dbc7a6;}.cls-15{opacity:0.24;}.cls-16{opacity:0.29;}.cls-17{fill:#dcc7a6;}.cls-18{opacity:0.33;}.cls-19{fill:#dcc7a7;}.cls-20{opacity:0.38;}.cls-21{opacity:0.43;}.cls-22{opacity:0.48;}.cls-23{opacity:0.52;}.cls-24{fill:#dcc8a8;}.cls-25{opacity:0.57;}.cls-26{opacity:0.62;}.cls-27{opacity:0.67;}.cls-28{opacity:0.71;}.cls-29{fill:#dcc8a9;}.cls-30{opacity:0.76;}.cls-31{fill:#ddc8a9;}.cls-32{opacity:0.81;}.cls-33{opacity:0.86;}.cls-34{fill:#ddc9a9;}.cls-35{opacity:0.9;}.cls-36{fill:#ddc9aa;}.cls-37{opacity:0.95;}.cls-38{mask:url(#mask-2);}.cls-39{opacity:0.5;}.cls-40{mask:url(#mask-3);}</style><linearGradient id="linear-gradient" x1="49.46" y1="252.32" x2="1009.27" y2="764.91" gradientTransform="translate(104.2 -334.53) rotate(3.67)" gradientUnits="userSpaceOnUse"><stop offset="0"/><stop offset="0.21" stop-color="#606060"/><stop offset="0.31" stop-color="#888"/><stop offset="0.43" stop-color="#555354"/><stop offset="0.52" stop-color="#2f2b2c"/><stop offset="0.74" stop-color="#231f20"/><stop offset="0.75" stop-color="#2a2627"/><stop offset="0.77" stop-color="#3e3a3b"/><stop offset="0.79" stop-color="#5e5c5c"/><stop offset="0.81" stop-color="#8a8989"/><stop offset="0.82" stop-color="#a9a9a9"/><stop offset="0.84" stop-color="#a4a4a4"/><stop offset="0.87" stop-color="#969696"/><stop offset="0.9" stop-color="#7e7e7e"/><stop offset="0.93" stop-color="#5d5d5d"/><stop offset="0.97" stop-color="#323232"/><stop offset="1"/></linearGradient><linearGradient id="linear-gradient-2" x1="10104.11" y1="6629.72" x2="11091.84" y2="7157.22" gradientTransform="translate(-10008.58 -6613.82)" gradientUnits="userSpaceOnUse"><stop offset="0" stop-color="#090909"/><stop offset="0.2" stop-color="#414042"/><stop offset="0.35" stop-color="#151415"/><stop offset="0.52" stop-color="#bcbec0"/><stop offset="0.6" stop-color="#231f20"/><stop offset="0.66" stop-color="#808285"/><stop offset="0.9" stop-color="#231f20"/><stop offset="0.94" stop-color="#1c1919"/><stop offset="0.99" stop-color="#080707"/><stop offset="1"/></linearGradient><linearGradient id="linear-gradient-3" x1="848.45" y1="5281.75" x2="1836.18" y2="5809.25" gradientTransform="translate(-529.55 -5299.69)" xlink:href="#linear-gradient-2"/><mask id="mask" x="2.41" y="-23.77" width="1224.14" height="479.43" maskUnits="userSpaceOnUse"><polygon class="cls-1" points="1177.35 455.66 2.41 412.79 51.61 -23.77 1226.55 19.1 1177.35 455.66"/></mask><mask id="mask-2" x="0" y="69.21" width="1193.58" height="444.59" maskUnits="userSpaceOnUse"><rect class="cls-2" x="16.23" y="69.21" width="1177.36" height="437.46" transform="translate(1209.81 575.87) rotate(180)"/></mask><mask id="mask-3" x="239.6" y="28.23" width="1177.36" height="444.59" maskUnits="userSpaceOnUse"><rect class="cls-3" x="239.6" y="35.36" width="1177.36" height="437.46"/></mask></defs><g id="Layer_2" data-name="Layer 2"><g id="Layer_1-2" data-name="Layer 1"><g class="cls-4"><g class="cls-5"><g class="cls-6"><g class="cls-7"><polygon class="cls-8" points="1182.46 398.53 628.37 199.54 74.28 0.54 74.88 0 628.98 198.99 1183.07 397.99 1182.46 398.53"/></g><g class="cls-9"><path class="cls-8" d="M75.64.55,76.25,0c4.81,1.57,87.89,33.76,87.28,35.44-.46,1.28,40.93,17.28,43,17.71,4.14.84,103.11,34.1,105,32.57,1.21-1,53.07,16.32,54.69,16.17,1-.09,41.33,14.21,42.61,14.75,3.67,1.56,91.62,36.17,90.43,38.67s82.07,35.14,85.89,36.25c1.17.34,44,15.3,45.34,14.93.49-.13,19.15,6.2,19.68,6,1.72-.77,70.59,22.13,72.26,20.95,2.77-2,113.74,34.84,116.74,34.71,1.27-.06,44.49,15.31,45.67,15.92,1.93,1,51.4,19.39,51.45,20.39.07,1.56,63.3,26.4,61.47,27.46-1.37.79,34.23,14.69,34.37,15.26.06.27,14.91,5.71,15.55,5.92,1,.33,28.69,10.08,29.28,9.94.92-.23,28.13,8.67,28.44,7.94s22.12,6.5,22.79,6.34c.36-.09,16.13,5.47,16.68,5.66,2.12.71,37.74,15.45,37.73,15.47l-.63.51s-35-14.53-37.14-15.24c-.54-.18-15.77-5.55-16.11-5.46-.64.15-22-6.83-22.27-6.19s-27.94-8.31-28.89-8.07c-.19,0-7.38-2.44-7.61-2.44-.5,0-21.55-7.46-22.25-7.69s-15.91-5.81-16-6.08c-.14-.59-36.13-14.64-34.75-15.44,1.83-1.05-61.12-25.78-61.19-27.33-.05-1-49.15-19.24-51.07-20.24-1.17-.6-44-15.82-45.2-15.76-3,.13-113.63-36.56-116.39-34.61-1.67,1.18-70.75-21.78-72.47-21-.55.25-20.26-6.44-20.79-6.3-1.3.34-43.82-14.5-45-14.84-3.85-1.12-87.78-34-86.59-36.52s-86.34-36.94-90-38.49c-1.27-.53-41.14-14.67-42.14-14.58-1.6.14-53-17-54.23-16-.94.75-44-13.6-45.31-13.11C265.25,74,208,54.14,206.12,53.76,204,53.32,162,37,162.46,35.8,163.06,34.13,80.42,2.12,75.64.55Z"/></g><g class="cls-10"><path class="cls-8" d="M77,.56l.6-.54c9.63,3.14,87.76,35.92,86.55,39.27-.92,2.55,38,18.82,42.22,19.67,8.29,1.69,104.37,31.62,108.19,28.56C317,85.58,367.46,101,370.7,100.75c2-.18,41.51,13.63,44.07,14.72,7.34,3.11,89.6,38.71,87.21,43.71s75.54,38.45,83.18,40.67c2.35.68,44.32,14.89,46.94,14.17,1-.27,19.25,5.55,20.31,5.07,3.43-1.53,70.68,18.94,74,16.58,5.54-3.91,114,28.92,120,28.66,2.52-.11,44.83,14.77,47.2,16,3.85,2,51.86,20.49,51.95,22.48.15,3.12,57.83,28.1,54.17,30.21-2.75,1.59,29.82,15.52,30.1,16.67.13.53,14.59,5.94,15.86,6.36,2,.65,29.13,10,30.31,9.72,1.85-.45,28,7.21,28.64,5.75.54-1.29,21.57,4.85,22.9,4.53.72-.17,16.16,5.16,17.27,5.53,4.24,1.44,37.45,17.25,37.44,17.29l-.66.48s-32.67-15.62-36.85-17c-1.08-.37-16-5.51-16.67-5.35-1.28.31-21.85-5.69-22.38-4.41-.62,1.48-27.2-6.31-29.1-5.85-.37.1-7.43-2.24-7.88-2.24-1,0-21.62-7.21-23-7.67s-16.17-6-16.3-6.54c-.29-1.18-33.22-15.25-30.45-16.85,3.64-2.1-53.77-27-53.92-30.07-.09-2-47.74-20.32-51.58-22.31-2.34-1.22-44.22-15.95-46.71-15.84-6,.26-114.07-32.48-119.6-28.57C723.78,239,656.34,218.45,652.9,220c-1.11.5-20.4-5.66-21.45-5.38-2.59.68-44.26-13.42-46.57-14.09-7.71-2.24-86.26-36-83.87-41s-79.49-40.42-86.77-43.5c-2.54-1.08-41.58-14.74-43.58-14.56-3.2.29-53.24-15-55.65-13.11-1.88,1.51-43.85-11.31-46.37-10.34-2.88,1.11-59-17.7-62.7-18.47-4.29-.87-43.75-17.46-42.85-20C164.29,36.28,86.57,3.69,77,.56Z"/></g><g class="cls-11"><path class="cls-12" d="M78.38.57,79,0c14.43,4.72,87.63,38.07,85.81,43.09-1.38,3.84,35.1,20.36,41.41,21.65,12.43,2.53,105.64,29.14,111.36,24.55,3.63-2.92,52.71,10.72,57.58,10.28,3.05-.27,41.67,13.06,45.52,14.69,11,4.66,87.58,41.24,84,48.74s69,41.78,80.47,45.1c3.53,1,44.62,14.48,48.55,13.4,1.48-.41,19.34,4.9,20.93,4.19,5.14-2.29,70.76,15.75,75.77,12.21,8.31-5.88,114.19,23,123.2,22.6,3.78-.17,45.18,14.23,48.73,16.07,5.78,3,52.32,21.59,52.46,24.57.23,4.69,52.35,29.81,46.86,33-4.12,2.39,25.43,16.33,25.84,18.06.19.8,14.27,6.18,16.18,6.8,3,1,29.56,9.95,31.33,9.52,2.77-.68,27.92,5.74,28.84,3.55.81-1.94,21,3.2,23,2.72,1.07-.26,16.2,4.84,17.85,5.41,6.37,2.15,37.17,19.05,37.15,19.1l-.68.44c0-.05-30.29-16.69-36.56-18.82-1.61-.54-16.21-5.47-17.23-5.23-1.93.47-21.69-4.55-22.49-2.63-.93,2.22-26.46-4.32-29.3-3.62-.57.14-7.48-2.05-8.16-2.05-1.5,0-21.69-6.95-23.79-7.64s-16.43-6.17-16.63-7c-.42-1.77-30.3-15.86-26.15-18.26,5.47-3.16-46.42-28.17-46.64-32.82-.14-3-46.33-21.41-52.09-24.39-3.51-1.82-44.49-16.08-48.22-15.91-8.94.39-114.52-28.39-122.81-22.54-5,3.55-70.81-14.55-76-12.25-1.66.74-20.53-4.88-22.11-4.46-3.89,1-44.7-12.34-48.16-13.34-11.57-3.36-84.74-37.93-81.15-45.42s-72.63-43.89-83.56-48.52c-3.81-1.61-42-14.79-45-14.52-4.8.43-53.47-13.09-57.09-10.18-2.81,2.25-43.64-9-47.43-7.57-4.31,1.67-59.22-16.07-64.82-17.21-6.45-1.31-43.4-18.22-42.05-21.94C165.52,38.43,92.71,5.26,78.38.57Z"/></g><g class="cls-13"><path class="cls-14" d="M79.74.58l.6-.55c19.25,6.3,87.5,40.23,85.08,46.93-1.84,5.11,32.19,21.9,40.61,23.61C222.59,74,312.92,97.23,320.55,91.12c4.85-3.89,52.53,7.92,59,7.33,4.07-.36,41.85,12.48,47,14.65,14.69,6.22,85.55,43.79,80.78,53.79s62.48,45.09,77.75,49.53c4.71,1.36,44.91,14.06,50.15,12.62,2-.54,19.44,4.26,21.56,3.31,6.85-3.06,70.84,12.55,77.52,7.83,11.08-7.83,114.42,17.08,126.43,16.55,5-.22,45.52,13.69,50.26,16.15,7.71,4,52.79,22.68,53,26.66.3,6.25,46.87,31.51,39.55,35.74-5.5,3.18,21,17.15,21.57,19.45.26,1.07,14,6.42,16.5,7.25,4,1.31,30,9.88,32.36,9.3,3.68-.91,27.81,4.28,29,1.36,1.08-2.59,20.46,1.55,23.13.91,1.42-.34,16.22,4.53,18.43,5.28,8.49,2.88,36.88,20.85,36.85,20.92l-.7.41c0-.06-27.92-17.78-36.27-20.61-2.15-.73-16.44-5.44-17.8-5.11-2.57.61-21.52-3.42-22.59-.86-1.23,3-25.72-2.33-29.51-1.39-.76.18-7.52-1.86-8.43-1.86-2,0-21.76-6.7-24.56-7.61-2.61-.86-16.69-6.36-17-7.46-.57-2.36-27.39-16.48-21.85-19.68,7.29-4.21-39.07-29.36-39.37-35.56-.18-3.94-44.93-22.49-52.6-26.46-4.68-2.43-44.76-16.21-49.74-16-11.91.52-115-24.31-126-16.5-6.68,4.73-70.84-10.94-77.72-7.87-2.22,1-20.67-4.09-22.76-3.54-5.19,1.36-45.15-11.25-49.76-12.59-15.43-4.48-83.21-39.88-78.44-49.87S440.57,119.84,426,113.67c-5.08-2.15-42.45-14.86-46.45-14.5-6.4.58-53.7-11.12-58.52-7.25-3.75,3-43.44-6.75-48.5-4.8-5.74,2.23-59.47-14.42-67-16-8.59-1.75-43-19-41.25-23.93C166.75,40.58,98.86,6.83,79.74.58Z"/></g><g class="cls-15"><path class="cls-14" d="M81.11.59,81.7,0c24.07,7.87,87.37,42.38,84.35,50.76-2.3,6.39,29.28,23.43,39.8,25.58C226.55,80.6,314,100.56,323.54,92.91,329.6,88.05,375.9,98,384,97.3c5.08-.45,42,11.9,48.43,14.62C450.8,119.7,516,158.25,510,170.75s56,48.41,75,53.95c5.89,1.71,45.2,13.66,51.76,11.85,2.46-.67,19.53,3.61,22.18,2.43,8.57-3.83,70.92,9.36,79.27,3.46,13.85-9.79,114.65,11.15,129.66,10.49,6.31-.28,45.87,13.16,51.79,16.22,9.64,5,53.25,23.79,53.49,28.76.37,7.81,41.39,33.21,32.25,38.5-6.88,4,16.61,18,17.31,20.85.31,1.32,13.62,6.64,16.81,7.68,5,1.65,30.42,9.82,33.38,9.1,4.6-1.14,27.7,2.81,29.22-.85,1.35-3.23,19.91-.09,23.25-.89,1.78-.43,16.25,4.22,19,5.16,10.61,3.6,36.58,22.64,36.55,22.73l-.72.38c0-.08-25.54-18.86-36-22.41-2.69-.91-16.66-5.4-18.36-5-3.21.77-21.36-2.28-22.7.92-1.54,3.7-25-.33-29.71.83-1,.23-7.58-1.66-8.71-1.66-2.5,0-21.83-6.44-25.33-7.59-3.26-1.06-16.94-6.54-17.27-7.92-.71-2.95-24.48-17.09-17.56-21.09,9.12-5.26-31.71-30.55-32.08-38.3-.24-4.93-43.53-23.57-53.12-28.54-5.86-3-45-16.34-51.25-16.06-14.89.65-115.4-20.22-129.22-10.46-8.36,5.91-70.88-7.33-79.47-3.49-2.78,1.24-20.81-3.31-23.42-2.62-6.49,1.7-45.58-10.17-51.35-11.84C565.44,219.75,503,183.52,509,171s-58.91-50.82-77.12-58.54C425.54,109.79,389,97.56,384,98c-8,.72-53.92-9.17-59.94-4.33-4.69,3.76-43.25-4.46-49.57-2-7.18,2.78-59.73-12.79-69.08-14.69C194.68,74.79,162.73,57.26,165,51.05,168,42.72,105,8.4,81.11.59Z"/></g><g class="cls-16"><path class="cls-17" d="M82.48.6l.59-.55c28.87,9.44,87.24,44.53,83.61,54.59-2.76,7.67,26.37,25,39,27.54,24.85,5.07,109.42,21.7,120.86,12.53,7.28-5.83,52.18,2.32,61.92,1.44,6.09-.55,42.19,11.33,49.88,14.59,22,9.33,81.51,48.86,74.34,63.86S562.1,226.34,585,233c7.06,2.05,45.49,13.25,53.35,11.08,3-.81,19.63,3,22.8,1.55,10.29-4.6,71,6.17,81-.91,16.62-11.75,114.88,5.22,132.89,4.43,7.57-.33,46.22,12.62,53.32,16.3,11.57,6,53.72,24.88,54,30.85.45,9.37,35.92,34.91,24.94,41.25-8.25,4.77,12.22,18.8,13,22.25.38,1.59,13.31,6.88,17.13,8.13,6,2,30.85,9.75,34.4,8.88,5.53-1.36,27.59,1.35,29.42-3,1.62-3.88,19.35-1.73,23.36-2.7,2.14-.51,16.29,3.91,19.6,5,12.74,4.32,36.3,24.45,36.27,24.55l-.75.35c0-.1-23.16-20-35.69-24.2-3.23-1.09-16.88-5.37-18.92-4.88-3.86.93-21.21-1.13-22.81,2.7-1.85,4.44-24.24,1.66-29.92,3.06-1.14.28-7.62-1.46-9-1.46-3,0-21.9-6.2-26.11-7.57-3.91-1.28-17.19-6.72-17.59-8.38-.85-3.54-21.56-17.7-13.25-22.5,10.93-6.32-24.37-31.75-24.81-41.05-.29-5.91-42.12-24.66-53.63-30.62-7-3.64-45.29-16.46-52.76-16.13-17.87.78-115.85-16.14-132.42-4.42-10,7.09-70.92-3.72-81.23.88-3.33,1.49-20.94-2.52-24.08-1.69-7.79,2-46-9.09-52.94-11.09-23.14-6.72-80.17-43.79-73-58.78s-52.05-54.3-73.9-63.55c-7.62-3.23-43.32-15-49.32-14.44-9.6.86-54.14-7.2-61.38-1.4-5.62,4.51-43-2.18-50.62.76-8.62,3.33-60-11.15-71.21-13.44-12.89-2.62-42.33-20.46-39.64-27.91C169.2,44.87,111.15,10,82.48.6Z"/></g><g class="cls-18"><path class="cls-19" d="M83.84.61l.59-.55c33.69,11,87.11,46.69,82.88,58.41-3.23,9,23.45,26.51,38.18,29.52,29,5.9,110.68,19.22,124,8.52,8.49-6.81,52-.49,63.36-1.51,7.11-.64,42.37,10.75,51.34,14.55,25.7,10.89,79.49,51.41,71.12,68.91s42.9,55,69.63,62.81c8.24,2.39,45.78,12.83,55,10.31,3.45-1,19.71,2.31,23.42.65,12-5.35,71.09,3,82.78-5.28,19.39-13.7,115.11-.69,136.12-1.62,8.83-.39,46.57,12.08,54.85,16.37,13.5,7,54.18,26,54.52,32.95.52,10.93,30.43,36.61,17.63,44-9.63,5.56,7.81,19.61,8.78,23.64.45,1.86,13,7.12,17.44,8.58,7,2.29,31.29,9.68,35.43,8.66,6.45-1.58,27.49-.11,29.62-5.23,1.89-4.53,18.8-3.38,23.47-4.51,2.49-.6,16.32,3.6,20.19,4.91,14.86,5,36,26.24,36,26.36l-.77.32c0-.12-20.78-21-35.4-26-3.76-1.28-17.11-5.34-19.49-4.76-4.49,1.08-21,0-22.91,4.47-2.15,5.17-23.5,3.65-30.13,5.28-1.32.33-7.66-1.26-9.25-1.26-3.5,0-22-5.94-26.88-7.55-4.56-1.49-17.45-6.9-17.91-8.83-1-4.13-18.65-18.32-9-23.92,12.76-7.37-17-32.94-17.53-43.78-.33-6.91-40.72-25.75-54.14-32.7-8.2-4.26-45.55-16.6-54.27-16.21-20.85.91-116.3-12-135.63,1.61-11.71,8.28-71-.1-83,5.27-3.89,1.74-21.08-1.73-24.74-.77-9.08,2.38-46.46-8-54.53-10.35-27-7.83-78.65-45.73-70.29-63.22s-45.19-57.77-70.69-68.57c-8.88-3.77-43.75-15-50.75-14.4-11.2,1-54.37-5.25-62.81,1.52-6.56,5.26-42.84.11-51.69,3.53-10,3.89-60.26-9.51-73.34-12.17-15-3.07-42-21.22-38.83-29.91C170.43,47,117.29,11.55,83.84.61Z"/></g><g class="cls-20"><path class="cls-19" d="M85.21.62,85.8.07c38.5,12.59,87,48.84,82.14,62.24-3.69,10.23,20.54,28.05,37.37,31.48,33.13,6.75,112,16.75,127.2,4.51,9.7-7.77,51.83-3.28,64.81-4.45,8.12-.73,42.53,10.18,52.79,14.52,29.37,12.45,77.46,53.95,67.91,73.95s36.36,58.37,66.91,67.23c9.42,2.73,46.07,12.42,56.56,9.54,3.94-1.09,19.81,1.67,24-.23,13.71-6.12,71.18-.21,84.53-9.65,22.16-15.66,115.34-6.62,139.35-7.68,10.09-.44,46.92,11.54,56.38,16.45,15.43,8,54.65,27.08,55,35,.6,12.49,25,38.31,10.32,46.77-11,6.36,3.42,20.43,4.52,25,.51,2.12,12.67,7.35,17.76,9,8,2.63,31.73,9.62,36.45,8.46,7.37-1.81,27.38-1.58,29.82-7.43,2.16-5.18,18.24-5,23.58-6.32,2.85-.68,16.35,3.29,20.78,4.79,17,5.75,35.72,28,35.67,28.17l-.8.29c0-.14-18.39-22.12-35.1-27.79-4.3-1.45-17.33-5.3-20-4.64-5.14,1.24-20.88,1.14-23,6.25-2.47,5.91-22.77,5.65-30.34,7.51-1.52.37-7.72-1.07-9.53-1.07-4,0-22-5.69-27.65-7.52-5.22-1.71-17.71-7.09-18.23-9.29-1.14-4.73-15.74-18.94-4.66-25.34,14.58-8.42-9.67-34.13-10.26-46.52-.38-7.89-39.31-26.83-54.65-34.78-9.37-4.86-45.82-16.72-55.78-16.28-23.83,1-116.74-8-138.84,7.65-13.38,9.45-71,3.51-84.73,9.65-4.44,2-21.21-.95-25.4.15-10.38,2.72-46.9-6.92-56.12-9.6-30.86-9-77.12-47.68-67.57-67.67s-38.34-61.24-67.48-73.59c-10.15-4.3-44.18-15.09-52.19-14.37-12.8,1.15-54.59-3.28-64.23,4.45-7.5,6-42.65,2.4-52.76,6.31-11.49,4.44-60.51-7.87-75.47-10.92-17.18-3.5-41.61-22-38-31.9C171.66,49.17,123.44,13.12,85.21.62Z"/></g><g class="cls-21"><path class="cls-19" d="M86.58.63l.58-.55c43.31,14.16,86.85,51,81.41,66.07-4.15,11.5,17.63,29.59,36.56,33.44,37.27,7.6,113.21,14.27,130.37.51,10.92-8.75,51.65-6.09,66.25-7.4,9.15-.82,42.71,9.6,54.25,14.49,33,14,75.44,56.48,64.69,79s29.84,61.69,64.2,71.66c10.6,3.08,46.37,12,58.17,8.77,4.43-1.22,19.9,1,24.67-1.11,15.43-6.89,71.26-3.4,86.29-14,24.92-17.61,115.56-12.54,142.57-13.73,11.36-.5,47.26,11,57.91,16.52,17.36,9,55.11,28.18,55.54,37.14.67,14.05,19.48,40,3,49.53-12.37,7.15-1,21.25.25,26.43.58,2.39,12.35,7.59,18.08,9.46,9,2.95,32.16,9.55,37.47,8.24,8.3-2,27.27-3.05,30-9.63,2.43-5.82,17.68-6.67,23.69-8.12,3.21-.77,16.39,3,21.36,4.66,19.11,6.48,35.44,29.84,35.38,30l-.82.26c.06-.16-16-23.21-34.81-29.58-4.84-1.64-17.55-5.27-20.61-4.53-5.78,1.39-20.72,2.28-23.12,8-2.78,6.64-22,7.63-30.55,9.73-1.7.42-7.76-.88-9.8-.88-4.5,0-22.11-5.43-28.42-7.49-5.87-1.92-18-7.28-18.56-9.76-1.27-5.31-12.82-19.54-.36-26.74,16.4-9.48-2.31-35.33-3-49.27-.42-8.88-37.9-27.91-55.16-36.86C943.57,249.41,908,238,896.83,238.51c-26.8,1.18-117.19-3.87-142.05,13.7-15,10.63-71,7.12-86.48,14-5,2.23-21.35-.17-26.06,1.07-11.68,3.06-47.33-5.84-57.71-8.85-34.72-10.07-75.6-49.64-64.86-72.12s-31.47-64.71-64.25-78.6C444,102.9,410.79,92.58,401.79,93.39c-14.4,1.3-54.82-1.32-65.67,7.38-8.43,6.77-42.44,4.69-53.81,9.08-12.93,5-60.78-6.23-77.6-9.65-19.33-3.94-41.26-22.72-37.23-33.89C172.89,51.31,129.58,14.69,86.58.63Z"/></g><g class="cls-22"><path class="cls-19" d="M87.94.64l.59-.55C136.65,15.82,175.24,53.23,169.2,70c-4.61,12.78,14.71,31.12,35.75,35.41,41.41,8.44,114.48,11.79,133.55-3.5C350.62,92.18,390,93,406.19,91.55c10.16-.91,42.88,9,55.7,14.46,36.72,15.55,73.42,59,61.47,84s23.31,65,61.49,76.09c11.78,3.41,46.66,11.6,59.77,8,4.93-1.35,20,.38,25.3-2,17.14-7.66,71.34-6.6,88-18.4,27.69-19.58,115.79-18.46,145.81-19.78,12.61-.56,47.6,10.46,59.43,16.59,19.29,10,55.58,29.27,56,39.22.75,15.63,14,41.72-4.29,52.29-13.74,7.95-5.39,22.08-4,27.83.63,2.66,12,7.83,18.39,9.91,10,3.28,32.59,9.48,38.5,8,9.21-2.27,27.16-4.52,30.21-11.83,2.7-6.47,17.13-8.32,23.8-9.93,3.57-.85,16.42,2.66,22,4.54,21.22,7.19,35.15,31.63,35.09,31.81l-.85.22c.06-.17-13.63-24.29-34.52-31.37-5.38-1.82-17.78-5.23-21.18-4.42-6.42,1.55-20.55,3.42-23.22,9.82-3.08,7.38-21.29,9.62-30.75,12-1.9.47-7.81-.68-10.08-.68-5,0-22.18-5.18-29.19-7.47-6.52-2.13-18.22-7.45-18.88-10.21-1.42-5.9-9.91-20.16,3.94-28.16,18.22-10.53,5-36.52,4.3-52-.48-9.86-36.51-29-55.68-38.93-11.72-6.08-46.35-17-58.8-16.44-29.78,1.31-117.63.21-145.26,19.74-16.72,11.81-71.05,10.73-88.23,18.41-5.56,2.48-21.48.61-26.72,2-13,3.4-47.77-4.76-59.3-8.1-38.58-11.19-74.08-51.59-62.14-76.57s-24.62-68.19-61-83.62c-12.7-5.38-45.06-15.21-55.06-14.31-16,1.44-55.05.64-67.1,10.31-9.38,7.51-42.24,7-54.88,11.85-14.36,5.55-61-4.59-79.73-8.4-21.47-4.38-40.9-23.46-36.42-35.88C174.12,53.46,135.73,16.26,87.94.64Z"/></g><g class="cls-23"><path class="cls-24" d="M89.31.65l.58-.56c52.94,17.31,86.58,55.3,79.94,73.73-5.07,14.06,11.8,32.67,34.94,37.38,45.56,9.29,115.74,9.31,136.72-7.51C354.82,93,392.78,92,410.62,90.4c11.18-1,43.06,8.45,57.16,14.42,40.39,17.11,71.39,61.57,58.25,89.07-13.06,27.34,16.78,68.32,58.78,80.51,13,3.76,47,11.19,61.38,7.22,5.42-1.49,20.09-.27,25.92-2.87C691,270.33,743.53,269,761.9,256c30.47-21.54,116-24.39,149-25.84,13.87-.61,47.95,9.92,61,16.66,21.22,11,56,30.38,56.57,41.32.82,17.19,8.52,43.42-11.6,55.05-15.12,8.74-9.79,22.89-8.27,29.22.7,2.92,11.7,8.06,18.7,10.35,11,3.61,33,9.42,39.53,7.82,10.13-2.49,27.05-6,30.4-14,3-7.12,16.58-10,23.92-11.74,3.93-.94,16.46,2.35,22.54,4.41,23.34,7.92,34.86,33.43,34.79,33.63l-.87.19c.07-.19-11.25-25.38-34.23-33.17-5.91-2-18-5.19-21.74-4.29-7.07,1.7-20.4,4.55-23.33,11.59-3.39,8.12-20.55,11.62-31,14.18-2.08.51-7.86-.49-10.35-.49-5.5,0-22.25-4.92-30-7.44-7.17-2.35-18.47-7.64-19.19-10.67-1.56-6.5-7-20.77,8.23-29.58,20-11.58,12.39-37.71,11.58-54.75-.52-10.85-35.1-30.08-56.19-41-12.89-6.68-46.62-17.11-60.31-16.51-32.76,1.44-118.08,4.3-148.47,25.77-18.39,13-71.08,14.35-90,22.79-6.1,2.73-21.61,1.41-27.37,2.92-14.27,3.74-48.21-3.67-60.89-7.35C542,262.71,511.87,221.48,525,194s-17.76-71.65-57.82-88.62c-14-5.92-45.49-15.28-56.5-14.29-17.6,1.59-55.26,2.6-68.52,13.24-10.32,8.27-42.05,9.25-56,14.63-15.8,6.11-61.3-3-81.85-7.14-23.63-4.82-40.55-24.22-35.62-37.88C175.34,55.61,141.88,17.83,89.31.65Z"/></g><g class="cls-25"><path class="cls-24" d="M90.68.65,91.26.1C149,19,177.71,57.55,170.46,77.66c-5.53,15.34,8.89,34.2,34.13,39.35,49.7,10.12,117,6.83,139.89-11.52C359,93.83,395.59,91,415.06,89.25c12.19-1.1,43.23,7.87,58.61,14.39,44.06,18.67,69.37,64.1,55,94.1-14.25,29.83,10.26,71.65,56.08,84.94,14.12,4.1,47.24,10.78,63,6.46,5.91-1.63,20.19-.93,26.54-3.76,20.57-9.19,71.51-13,91.55-27.15,33.24-23.49,116.25-30.31,152.27-31.89,15.13-.67,48.3,9.38,62.5,16.74,23.14,12,56.5,31.47,57.07,43.41.9,18.75,3,45.12-18.91,57.81-16.49,9.53-14.19,23.71-12.53,30.62.77,3.18,11.38,8.29,19,10.79,12,3.94,33.46,9.35,40.55,7.61,11-2.72,26.94-7.45,30.6-16.22,3.24-7.77,16-11.62,24-13.55,4.28-1,16.49,2,23.12,4.29,25.47,8.63,34.58,35.23,34.5,35.44l-.89.16c.07-.21-8.87-26.46-33.94-35-6.45-2.19-18.22-5.16-22.31-4.18-7.7,1.86-20.23,5.69-23.43,13.37-3.7,8.86-19.81,13.61-31.17,16.4-2.27.56-7.9-.28-10.62-.28-6,0-22.32-4.68-30.74-7.43-7.82-2.56-18.72-7.82-19.52-11.12-1.7-7.09-4.08-21.39,12.54-31,21.87-12.64,19.74-38.91,18.85-57.5-.57-11.83-33.69-31.16-56.7-43.09-14.06-7.28-46.89-17.23-61.82-16.58-35.74,1.57-118.53,8.38-151.68,31.81-20.06,14.18-71.11,18-91.74,27.17-6.66,3-21.74,2.19-28,3.84-15.57,4.08-48.66-2.59-62.49-6.6-46.29-13.43-71-55.5-56.71-85.48s-10.9-75.12-54.61-93.64c-15.23-6.45-45.92-15.33-57.93-14.25-19.2,1.73-55.49,4.56-70,16.16-11.25,9-41.84,11.54-57,17.4-17.23,6.67-61.55-1.31-84-5.88-25.77-5.25-40.19-25-34.81-39.86C176.57,57.76,148,19.4,90.68.65Z"/></g><g class="cls-26"><path class="cls-24" d="M92,.66l.58-.55c62.56,20.46,86.32,59.61,78.47,81.39-6,16.62,6,35.74,33.32,41.31,53.84,11,118.27,4.35,143.06-15.52,15.76-12.64,50.93-17.29,72-19.19,13.21-1.19,43.41,7.3,60.07,14.36,47.73,20.22,67.35,66.64,51.82,99.14-15.45,32.32,3.72,75,53.36,89.36,15.3,4.45,47.53,10.37,64.57,5.69,6.41-1.76,20.28-1.57,27.17-4.65,22.28-9.95,71.59-16.17,93.3-31.51,36-25.45,116.48-36.24,155.5-38,16.4-.72,48.65,8.84,64,16.82,25.07,13,57,32.56,57.58,45.5,1,20.31-2.42,46.82-26.21,60.57-17.87,10.33-18.59,24.53-16.8,32,.83,3.45,11.06,8.53,19.34,11.24,13,4.26,33.89,9.28,41.57,7.39,12-2.94,26.84-8.91,30.8-18.42,3.51-8.41,15.47-13.26,24.14-15.35,4.64-1.11,16.52,1.73,23.71,4.17,27.59,9.35,34.29,37,34.21,37.25l-.92.12c.08-.22-6.49-27.54-33.65-36.74-7-2.37-18.45-5.13-22.87-4.07-8.35,2-20.07,6.83-23.54,15.15-4,9.6-19.07,15.61-31.37,18.63-2.46.61-8-.09-10.9-.09-6.5,0-22.39-4.42-31.51-7.4-8.48-2.77-19-8-19.84-11.59-1.84-7.67-1.17-22,16.83-32.4,23.69-13.69,27.09-40.1,26.13-60.24-.61-12.82-32.28-32.25-57.21-45.16-15.24-7.9-47.15-17.37-63.33-16.66-38.72,1.71-119,12.47-154.89,37.85-21.73,15.36-71.14,21.57-93.49,31.55-7.21,3.22-21.88,3-28.68,4.76-16.87,4.42-49.1-1.51-64.09-5.86-50.14-14.55-69.5-57.44-54-89.92S526.29,123.06,479,103c-16.51-7-46.37-15.4-59.37-14.23-20.8,1.88-55.72,6.52-71.39,19.09C336,117.63,306.55,121.69,290.12,128c-18.67,7.22-61.82.33-86.12-4.63-27.91-5.68-39.83-25.71-34-41.85C177.8,59.9,154.17,21,92,.66Z"/></g><g class="cls-27"><path class="cls-24" d="M93.41.67,94,.12c67.37,22,86.18,61.76,77.73,85.22-6.45,17.89,3.06,37.27,32.51,43.28,58,11.81,119.54,1.87,146.23-19.54C367.43,95.47,401.21,89,423.93,87c14.22-1.28,43.57,6.72,61.52,14.32,51.4,21.78,65.32,69.18,48.6,104.18-16.63,34.81-2.81,78.29,50.65,93.8,16.48,4.78,47.83,10,66.18,4.91,6.9-1.9,20.37-2.22,27.79-5.53,24-10.72,71.67-19.36,95.05-35.89,38.78-27.4,116.71-42.15,158.73-44,17.66-.78,49,8.31,65.56,16.89,27,14,57.43,33.67,58.09,47.6,1.05,21.87-7.9,48.52-33.51,63.32-19.25,11.13-23,25.36-21.07,33.41.9,3.72,10.74,8.77,19.66,11.68,14.05,4.6,34.32,9.22,42.59,7.19,12.9-3.18,26.73-10.38,31-20.62,3.78-9.06,14.91-14.91,24.25-17.16,5-1.2,16.56,1.42,24.3,4,29.71,10.07,34,38.83,33.91,39.07l-.94.09c.08-.24-4.11-28.62-33.36-38.54-7.53-2.55-18.67-5.09-23.43-3.94-9,2.16-19.91,8-23.65,16.92-4.31,10.34-18.33,17.6-31.58,20.86-2.65.65-8,.1-11.17.1-7,0-22.46-4.16-32.28-7.38-9.13-3-19.24-8.18-20.17-12-2-8.26,1.75-22.61,21.14-33.82,25.51-14.74,34.44-41.29,33.4-63-.66-13.81-30.88-33.34-57.72-47.25-16.41-8.5-47.42-17.49-64.85-16.73C890.93,221.3,813.21,236,774.54,263.35c-23.41,16.54-71.18,25.18-95.25,35.93-7.77,3.47-22,3.75-29.34,5.68-18.17,4.76-49.53-.42-65.68-5.11-54-15.67-68-59.39-51.27-94.37s2.82-82.07-48.17-103.67C467.05,94.28,438,86.36,424,87.62c-22.4,2-55.94,8.48-72.82,22-13.12,10.53-41.44,16.11-59.13,23-20.11,7.78-62.08,2-88.24-3.36-30.07-6.13-39.48-26.46-33.21-43.85C179,62.05,160.31,22.55,93.41.67Z"/></g><g class="cls-28"><path class="cls-29" d="M94.78.68l.57-.55c72.19,23.6,86.06,63.91,77,89-6.92,19.18.15,38.82,31.7,45.25,62.13,12.66,120.8-.6,149.4-23.54C371.64,96.3,404,88,428.36,85.8c15.24-1.37,43.75,6.15,63,14.29,55.07,23.33,63.3,71.72,45.38,109.22-17.82,37.29-9.33,81.6,47.94,98.22,17.66,5.13,48.12,9.55,67.78,4.14,7.39-2,20.47-2.86,28.42-6.41,25.71-11.48,71.76-22.56,96.8-40.26,41.55-29.36,116.94-48.08,162-50.06,18.92-.83,49.34,7.77,67.09,17,28.93,15,57.89,34.76,58.61,49.69,1.12,23.43-13.38,50.22-40.83,66.08-20.62,11.92-27.4,26.17-25.32,34.81,1,4,10.41,9,20,12.12,15.05,4.92,34.75,9.15,43.61,7,13.82-3.4,26.62-11.84,31.2-22.81,4-9.71,14.36-16.56,24.37-19,5.35-1.28,16.58,1.11,24.87,3.92,31.84,10.79,33.72,40.62,33.62,40.88l-1,.06c.09-.26-1.73-29.71-33.07-40.33-8.06-2.73-18.89-5.06-24-3.83-9.63,2.32-19.74,9.11-23.75,18.7-4.62,11.08-17.59,19.59-31.78,23.08-2.85.7-8,.3-11.45.3-7.5,0-22.53-3.91-33-7.35-9.78-3.2-19.5-8.37-20.49-12.5-2.13-8.86,4.66-23.23,25.43-35.23,27.34-15.8,41.79-42.49,40.68-65.72-.7-14.8-29.47-34.42-58.23-49.33-17.58-9.11-47.68-17.62-66.36-16.8-44.67,2-119.86,20.64-161.29,49.92-25.08,17.73-71.22,28.8-97,40.32-8.33,3.72-22.15,4.54-30,6.6-19.46,5.1-50,.66-67.27-4.36-57.86-16.79-66.46-61.35-48.55-98.82s9.67-85.54-45-108.68c-19-8.07-47.23-15.52-62.24-14.17-24,2.16-56.17,10.44-74.25,24.94C340.16,122.68,313,129.8,294,137.13c-21.54,8.33-62.33,3.61-90.37-2.11-32.21-6.56-39.12-27.21-32.4-45.83C180.26,64.2,166.46,24.12,94.78.68Z"/></g><g class="cls-30"><path class="cls-31" d="M96.14.69l.58-.55C173.71,25.31,182.64,66.2,173,93c-7.38,20.45-2.76,40.36,30.89,47.21,66.27,13.51,122.06-3.08,152.57-27.54,19.4-15.56,50.4-25.7,76.36-28,16.26-1.46,43.92,5.57,64.43,14.26,58.74,24.89,61.28,74.26,42.16,114.26-19,39.77-15.86,84.92,45.23,102.64C603.46,321.28,633,325,654,319.18c7.88-2.16,20.56-3.51,29-7.29,27.42-12.25,71.84-25.75,98.56-44.63,44.31-31.32,117.16-54,165.18-56.12,20.18-.89,49.69,7.23,68.62,17,30.86,16,58.36,35.86,59.12,51.79,1.19,25-18.86,51.92-48.13,68.84-22,12.71-31.8,27-29.59,36.2,1,4.25,10.1,9.23,20.28,12.57,16.06,5.25,35.19,9.08,44.64,6.76,14.75-3.63,26.52-13.31,31.4-25a36.05,36.05,0,0,1,24.48-20.77c5.7-1.38,16.61.79,25.46,3.78,34,11.51,33.42,42.42,33.32,42.7l-1,0c.1-.27.65-30.8-32.77-42.13-8.6-2.91-19.12-5-24.56-3.71a35.44,35.44,0,0,0-23.85,20.48c-4.93,11.82-16.86,21.59-32,25.31-3,.75-8.1.49-11.72.49-8,0-22.6-3.65-33.82-7.32-10.44-3.42-19.75-8.56-20.81-13-2.27-9.44,7.57-23.84,29.73-36.64,29.15-16.85,49.14-43.68,48-68.46-.76-15.78-28.07-35.5-58.75-51.4C996.06,219,966.86,211,946.94,211.84c-47.65,2.1-120.3,24.72-164.5,56-26.75,18.91-71.25,32.41-98.75,44.69-8.88,4-22.29,5.33-30.66,7.53-20.76,5.44-50.41,1.74-68.86-3.61-61.72-17.91-64.94-63.3-45.84-103.27s16.54-89-41.74-113.7c-20.31-8.61-47.66-15.57-63.67-14.13-25.6,2.3-56.39,12.4-75.68,27.87-15,12-41,20.68-61.27,28.5-23,8.88-62.59,5.24-92.49-.85-34.37-7-38.77-28-31.6-47.83C181.49,66.35,172.6,25.69,96.14.69Z"/></g><g class="cls-32"><path class="cls-31" d="M97.51.7l.57-.55c81.81,26.74,85.8,68.21,75.53,96.7-7.84,21.73-5.68,41.89,30.08,49.18,70.41,14.35,123.33-5.56,155.74-31.55C380,98,409.65,86,437.23,83.5c17.28-1.55,44.1,5,65.89,14.23,62.42,26.44,59.25,76.79,39,119.29-20.2,42.26-22.4,88.24,42.51,107.08,20,5.8,48.71,8.72,71,2.6,8.38-2.31,20.66-4.16,29.66-8.18,29.14-13,71.93-28.94,100.32-49,47.08-33.28,117.39-59.92,168.41-62.17,21.45-.94,50,6.69,70.15,17.12,32.79,17,58.82,37,59.63,53.87,1.27,26.56-24.33,53.63-55.44,71.61-23.37,13.5-36.2,27.81-33.85,37.59,1.09,4.52,9.78,9.47,20.6,13,17.06,5.58,35.62,9,45.67,6.55a45.87,45.87,0,0,0,31.59-27.21c4.59-11,13.24-19.84,24.59-22.57,6.06-1.46,16.65.47,26,3.66,36.08,12.23,33.13,44.22,33,44.51h-1c.11-.29,3-31.88-32.48-43.92-9.14-3.09-19.34-5-25.12-3.59-10.92,2.63-19.43,11.38-24,22.25a46.52,46.52,0,0,1-32.21,27.54c-3.22.79-8.14.68-12,.68-8.5,0-22.67-3.4-34.6-7.3-11.08-3.62-20-8.73-21.13-13.42-2.41-10,10.49-24.45,34-38.06,31-17.9,56.5-44.86,55.24-71.2-.8-16.77-26.67-36.59-59.26-53.48-19.92-10.32-48.22-17.88-69.38-16.95-50.63,2.23-120.75,28.81-167.71,62-28.42,20.09-71.28,36-100.5,49.07-9.44,4.22-22.42,6.11-31.32,8.45-22.06,5.78-50.85,2.83-70.45-2.86C518.55,305.66,520.7,259.44,541,217s23.39-92.48-38.52-118.72c-21.59-9.14-48.11-15.63-65.12-14.1-27.2,2.45-56.61,14.36-77.11,30.8-15.93,12.78-40.84,23-62.32,31.27-24.42,9.44-62.86,6.89-94.63.41-36.51-7.44-38.41-28.71-30.8-49.82C182.72,68.49,178.75,27.26,97.51.7Z"/></g><g class="cls-33"><path class="cls-34" d="M98.88.71l.57-.56c86.62,28.33,85.66,70.38,74.79,100.53-8.3,23-8.59,43.44,29.27,51.15,74.55,15.19,124.59-8,158.91-35.56,21.83-17.5,50.05-31.29,79.25-33.92C460,80.71,485.94,86.77,509,96.54c66.09,28,57.23,79.34,35.73,124.34-21.38,44.75-28.92,91.56,39.81,111.5,21.19,6.15,49,8.32,72.59,1.83,8.87-2.44,20.75-4.81,30.28-9.07,30.86-13.78,72-32.13,102.07-53.37,49.85-35.24,117.62-65.85,171.64-68.23,22.71-1,50.38,6.15,71.68,17.19,34.72,18,59.29,38.06,60.15,56,1.34,28.12-29.82,55.33-62.75,74.36-24.75,14.31-40.6,28.64-38.12,39,1.15,4.78,9.46,9.71,20.92,13.46,18.06,5.91,36,8.95,46.69,6.34,16.58-4.08,26.3-16.25,31.78-29.41,4.87-11.65,12.7-21.49,24.71-24.38,6.42-1.55,16.68.16,26.63,3.54,38.21,12.94,32.85,46,32.74,46.32l-1,0c.11-.31,5.41-33-32.2-45.71-9.67-3.28-19.55-4.95-25.68-3.48-11.56,2.78-19.26,12.52-24.06,24-5.55,13.3-15.38,25.57-32.41,29.76-3.41.84-8.19.89-12.27.89-9,0-22.74-3.15-35.37-7.28-11.74-3.84-20.26-8.92-21.45-13.88-2.55-10.63,13.4-25.07,38.32-39.47,32.81-19,63.85-46.06,62.52-73.95-.85-17.75-25.26-37.67-59.77-55.56-21.1-10.93-48.48-18-70.89-17-53.61,2.36-121.19,32.89-170.92,68-30.09,21.27-71.31,39.63-102.25,53.45-10,4.46-22.56,6.9-32,9.37-23.35,6.12-51.28,3.91-72-2.11-69.43-20.15-61.89-67.21-40.4-112.18,21.41-44.82,30.25-95.95-35.31-123.72C485.51,87.39,459.82,81.38,441.81,83,413,85.59,385,99.32,363.27,116.72c-16.87,13.53-40.64,25.25-63.39,34.05-25.85,10-63.12,8.52-96.76,1.67-38.65-7.88-38-29.46-30-51.81C183.94,70.64,184.89,28.83,98.88.71Z"/></g><g class="cls-35"><path class="cls-36" d="M100.24.72l.57-.56c91.44,29.9,85.53,72.53,74.05,104.36-8.75,24.29-11.49,45,28.47,53.12,78.69,16,125.86-10.52,162.09-39.57,23-18.47,49.86-34.1,80.68-36.87,19.31-1.74,44.44,3.84,68.8,14.16,69.76,29.55,55.21,81.88,32.51,129.38C524.84,272,512,319.61,584.51,340.66c22.37,6.49,49.28,7.91,74.19,1.06,9.36-2.57,20.85-5.45,30.91-10,32.57-14.54,72.09-35.32,103.82-57.75,52.62-37.19,117.85-71.77,174.88-74.27,24-1.06,50.72,5.61,73.2,17.26,36.65,19,59.76,39.15,60.66,58.06,1.42,29.68-35.29,57-70.06,77.12-26.12,15.1-45,29.45-42.37,40.39,1.21,5,9.13,9.94,21.23,13.89,19.06,6.24,36.48,8.89,47.71,6.13,17.51-4.31,26.19-17.71,32-31.6,5.13-12.3,12.14-23.14,24.82-26.19,6.78-1.63,16.71-.15,27.22,3.41,40.33,13.67,32.56,47.81,32.44,48.14l-1.06-.06c.12-.33,7.79-34.05-31.91-47.51-10.2-3.46-19.78-4.91-26.24-3.36-12.2,2.94-19.1,13.66-24.17,25.81-5.85,14-14.64,27.57-32.62,32a56.47,56.47,0,0,1-12.54,1.08c-9.5,0-22.81-2.9-36.14-7.26-12.39-4.05-20.52-9.1-21.77-14.33C986,381.5,1005,367,1031.31,351.83c34.63-20,71.2-47.25,69.79-76.69-.9-18.74-23.85-38.75-60.28-57.63-22.27-11.54-48.75-18.14-72.4-17.1-56.59,2.49-121.64,37-174.13,74.07-31.76,22.45-71.34,43.25-104,57.84C679.74,337,667.6,340,657.65,342.61c-24.65,6.46-51.72,5-73.63-1.36-73.29-21.27-60.37-69.16-37.69-116.63,22.61-47.31,37.11-99.42-32.09-128.74-24.12-10.22-49-15.75-68-14-30.4,2.74-57.07,18.28-80,36.65a248.69,248.69,0,0,1-64.46,36.82c-27.28,10.56-63.37,10.17-98.88,2.93-40.81-8.31-37.69-30.21-29.19-53.8C185.17,72.79,191,30.4,100.24.72Z"/></g><g class="cls-37"><path class="cls-36" d="M101.61.73l.57-.56c96.24,31.47,85.4,74.68,73.31,108.19-9.21,25.56-14.41,46.51,27.67,55.08,82.83,16.88,127.11-13,165.25-43.57,24.24-19.45,49.68-36.9,82.13-39.82,20.32-1.83,44.61,3.27,70.25,14.13,73.43,31.11,53.18,84.41,29.29,134.41-23.76,49.72-42,98.2,34.39,120.36a138.86,138.86,0,0,0,75.8.28A222.37,222.37,0,0,0,691.8,338.4c34.28-15.31,72.17-38.51,105.57-62.12,55.4-39.15,118.08-77.69,178.11-80.33,25.22-1.11,51.07,5.07,74.73,17.33,38.58,20,60.22,40.26,61.17,60.16,1.49,31.24-40.77,58.73-77.36,79.88-27.5,15.89-49.41,30.27-46.64,41.78,1.27,5.31,8.81,10.18,21.54,14.34,20.07,6.56,36.93,8.82,48.74,5.92,18.43-4.54,26.08-19.18,32.18-33.8,5.4-12.95,11.58-24.79,24.93-28,7.13-1.72,16.75-.46,27.81,3.29,42.45,14.38,32.27,49.61,32.14,50l-1.08-.1c.12-.35,10.17-35.14-31.62-49.3-10.74-3.64-20-4.88-26.81-3.24-12.84,3.09-18.93,14.79-24.27,27.58-6.16,14.77-13.9,29.56-32.82,34.21a55,55,0,0,1-12.82,1.28c-10,0-22.88-2.64-36.91-7.23-13-4.26-20.77-9.29-22.1-14.8-2.83-11.8,19.23-26.29,46.92-42.3,36.45-21.06,78.55-48.44,77.07-79.43-.94-19.72-22.45-39.84-60.79-59.71-23.44-12.15-49-18.26-73.91-17.17-59.57,2.62-122.09,41.06-177.34,80.11-33.43,23.63-71.38,46.86-105.75,62.22a217.88,217.88,0,0,1-33.3,11.21,141.91,141.91,0,0,1-75.22-.62c-77.15-22.38-58.85-71.1-35-121.07,23.79-49.8,44-102.89-28.88-133.75-25.39-10.76-49.4-15.82-69.41-14-32,2.88-57.3,20.24-81.41,39.57-18.75,15-40.24,29.83-65.51,39.6-28.73,11.11-63.64,11.8-101,4.19-43-8.76-37.33-31-28.38-55.8C186.4,74.94,197.18,32,101.61.73Z"/></g><path class="cls-36" d="M1044,420.17c-10.5,0-23-2.39-37.68-7.21-13.7-4.47-21-9.46-22.42-15.25-3-12.4,22.14-26.91,51.22-43.71,38.27-22.12,85.9-49.64,84.35-82.17-1-20.72-21-40.93-61.31-61.8-24.61-12.75-49.28-18.39-75.42-17.24-62.55,2.75-122.53,45.15-180.55,86.15-35.1,24.81-71.41,50.47-107.5,66.59-40.56,18.12-76.79,22.13-110.77,12.27-81-23.5-57.33-73.06-32.26-125.52C576.65,180,602.49,125.91,526,93.51c-26.67-11.3-49.85-15.87-70.86-14-33.6,3-57.51,22.2-82.83,42.5-19.69,15.79-40,32.11-66.58,42.38-30.16,11.66-63.9,13.44-103.15,5.44-45.09-9.19-37-31.71-27.57-57.78,12.61-35,28.31-78.52-72-111.33l.56-.56c101.06,33,85.27,76.83,72.58,112-9.67,26.84-17.32,48,26.86,57.05C290,187,331.36,153.77,371.4,121.66,396.86,101.25,420.9,82,455,78.9,476.31,77,499.76,81.59,526.68,93c77.1,32.67,51.16,87,26.07,139.46-24.94,52.2-48.5,101.51,31.68,124.78,34,9.87,68.83,6,109.56-12.2,36-16.08,72.25-41.71,107.32-66.49,58.17-41.11,118.31-83.62,181.34-86.39,26.49-1.17,51.42,4.53,76.26,17.41,40.51,21,60.69,41.35,61.68,62.25,1.57,32.8-46.24,60.43-84.67,82.64-28.87,16.68-53.8,31.09-50.9,43.17,1.34,5.58,8.49,10.42,21.86,14.79,21.08,6.89,37.36,8.75,49.76,5.7,19.35-4.76,26-20.64,32.38-36,5.67-13.59,11-26.43,25-29.8,7.49-1.8,16.78-.77,28.39,3.16,44.57,15.11,32,51.41,31.86,51.78l-1.11-.13c.13-.36,12.55-36.22-31.33-51.09-11.28-3.83-20.23-4.85-27.37-3.13-13.48,3.25-18.78,15.93-24.38,29.36-6.47,15.51-13.16,31.55-33,36.44A54.64,54.64,0,0,1,1044,420.17Z"/></g></g><g class="cls-38"><g class="cls-39"><g class="cls-7"><polygon class="cls-8" points="1115.55 513.8 557.78 337.53 0 161.26 0.55 160.7 558.33 336.97 1116.1 513.24 1115.55 513.8"/></g><g class="cls-9"><path class="cls-8" d="M1.72,158.63s80.9,23.36,83.1,24c1.8.52,48.26,16.29,48.3,17.45,0,1.36,67.69,24.26,70.72,25.11.75.21,21.59,6.67,21.92,6.54.64-.27,28.79,7.81,28.58,6.89s32.72,8.43,33.59,8.12c.69-.24,53.18,16.19,55.15,16.95,4.88,1.87,121.09,42.19,119.25,44.78-.83,1.16,44.23,16.75,44.12,17.68s43.57,15.28,45.27,15.7c3.68.9,75.35,22.63,76.14,22.13.37-.23,17.53,4.88,18.07,4.87l.62.18c.88,0,61.46,19.23,63.64,20.41,1,.52,38.9,12.44,39.82,12.38,1.93-.12,81.52,23.11,83.26,21.62,2.45-2.09,138.6,37.68,142.87,38.37,2.19.36,46.88,15.54,46.55,16.65-.45,1.5,89.58,32,94.53,33.39l-.55.56c-5-1.39-95.78-32.15-95.33-33.67.35-1.14-43.68-16-45.82-16.39-4.23-.69-139.52-40.2-142-38.11-1.74,1.49-81.85-21.9-83.81-21.77-.94.06-39.42-12-40.42-12.57-2.14-1.16-62.3-20.26-63.15-20.26l-.57-.16c-.52,0-17.22-5-17.59-4.74-.8.5-73.11-21.41-76.84-22.33-1.71-.42-46.47-15-46.34-16.06s-45.1-16.57-44.27-17.74c1.84-2.57-113.84-42.7-118.68-44.56-1.95-.75-53.74-17-54.4-16.73-.85.29-33.3-9-33.07-8s-28.45-7.3-29.11-7c-.35.14-21.94-6.55-22.71-6.77-3.06-.86-71.31-24-71.36-25.33,0-1.15-45.95-16.73-47.73-17.25-2.17-.63-82.25-23.77-82.29-23.76Z"/></g><g class="cls-10"><path class="cls-8" d="M2.88,156.55c.08,0,81,21.17,85.33,22.45,3.62,1.05,47.79,17.18,47.88,19.5.09,2.72,64.41,26.1,70.48,27.8,1.49.42,21.84,6.59,22.49,6.32,1.29-.52,27.82,6.24,27.39,4.38-.47-2,30.59,5.85,32.33,5.23,1.38-.48,52.6,15.39,56.55,16.91,9.75,3.75,118,45.13,114.26,50.3-1.66,2.33,40.33,18.29,40.11,20.14-.26,2.07,42,16.32,45.41,17.15,7.37,1.81,76.48,21.8,78.06,20.81.76-.47,17.4,4.18,18.48,4.16,0,0,.61.17.64.17,1.76,0,60.7,18.8,65.06,21.14,2,1.06,39,12.62,40.79,12.5,3.87-.25,81.2,20.35,84.68,17.38C837.73,418.7,970,454,978.53,455.38c4.38.71,46.54,16.14,45.87,18.36-.9,3,84,33.95,93.93,36.72l-.54.57c-10-2.8-95.63-34-94.72-37,.68-2.28-40.85-17.38-45.14-18.08-8.47-1.38-139.9-36.43-144.79-32.26-3.49,3-81.33-17.76-85.24-17.51-1.87.13-39.42-11.61-41.41-12.68-4.29-2.3-62.85-21-64.56-21,0,0-.56-.16-.59-.16-1,0-17.24-4.49-18-4-1.61,1-71.35-19.17-78.8-21-3.43-.85-46.73-15.43-46.47-17.53.23-1.86-41.9-17.87-40.24-20.2,3.68-5.15-104-46.34-113.7-50.06-3.91-1.5-54.44-17.17-55.78-16.7-1.69.59-32.27-7.15-31.81-5.15s-26.58-5-27.91-4.47c-.69.28-21.77-6.11-23.31-6.54-6.13-1.72-71-25.29-71.11-28-.09-2.3-43.74-18.25-47.3-19.29C82.6,178.07,2.51,157.1,2.43,157.12Z"/></g><g class="cls-11"><path class="cls-12" d="M4.05,154.48c.11,0,81,19,87.56,20.89,5.43,1.58,47.32,18.07,47.44,21.55.15,4.08,61.14,27.93,70.24,30.48,2.24.63,22.1,6.52,23.08,6.12,1.93-.78,26.83,4.65,26.19,1.86-.7-3,28.46,3.27,31.08,2.35,2.06-.73,52,14.59,57.94,16.86,14.62,5.62,114.82,48.06,109.28,55.82-2.49,3.49,36.42,19.83,36.08,22.61-.38,3.1,40.48,17.34,45.56,18.59,11.06,2.72,77.62,21,80,19.49,1.13-.7,17.25,3.48,18.89,3.44,0,0,.6.16.65.16,2.65,0,59.93,18.37,66.49,21.89,2.94,1.58,39,12.79,41.76,12.61,5.8-.38,80.88,17.59,86.09,13.13,7.37-6.29,135.74,24.51,148.56,26.61,6.56,1.08,46.19,16.75,45.18,20.08-1.35,4.51,78.49,35.89,93.34,40.05l-.54.57c-15-4.19-95.48-35.83-94.12-40.38,1-3.42-38-18.72-44.45-19.77-12.7-2.08-140.28-32.67-147.62-26.41-5.23,4.48-80.8-13.62-86.67-13.24-2.8.18-39.41-11.19-42.4-12.79-6.43-3.46-63.4-21.73-66-21.73-.05,0-.56-.15-.61-.15-1.56,0-17.26-4-18.36-3.34-2.41,1.5-69.59-16.91-80.75-19.65-5.15-1.27-47-15.84-46.6-19,.34-2.79-38.7-19.18-36.2-22.68,5.51-7.72-94.22-50-108.74-55.55-5.86-2.26-55.14-17.37-57.14-16.67-2.53.89-31.24-5.3-30.55-2.3.65,2.82-24.72-2.73-26.72-1.91-1,.42-21.61-5.68-23.91-6.32-9.19-2.58-70.73-26.63-70.87-30.74-.12-3.45-41.52-19.75-46.86-21.31-6.52-1.9-86.62-20.7-86.74-20.67Z"/></g><g class="cls-13"><path class="cls-14" d="M5.22,152.41c.15,0,81,16.78,89.79,19.34,7.24,2.1,46.85,18.95,47,23.59.19,5.45,57.86,29.77,70,33.17,3,.84,22.36,6.45,23.66,5.91,2.57-1,25.86,3.06,25-.66-.93-4,26.33.69,29.82-.54,2.75-1,51.44,13.79,59.33,16.82,19.51,7.5,111.69,51,104.31,61.35-3.32,4.65,32.51,21.36,32.06,25.07-.51,4.13,38.93,18.37,45.71,20,14.74,3.62,78.75,20.15,81.91,18.17,1.51-.94,17.11,2.77,19.29,2.73.06,0,.61.15.68.15,3.52,0,59.16,17.93,67.9,22.63,3.93,2.11,39.06,12.95,42.74,12.72,7.72-.5,80.55,14.83,87.51,8.89,9.82-8.39,134.31,17.93,151.39,20.72,8.76,1.44,45.84,17.36,44.51,21.8-1.81,6,72.94,37.84,92.74,43.38l-.54.57c-19.94-5.59-95.34-37.67-93.51-43.73,1.37-4.56-35.2-20.06-43.77-21.46-16.93-2.77-140.66-28.9-150.44-20.55-7,6-80.28-9.49-88.1-9-3.74.24-39.41-10.77-43.39-12.9-8.58-4.61-64-22.48-67.38-22.48-.06,0-.56-.14-.62-.14-2.08.05-17.28-3.56-18.75-2.64-3.2,2-67.82-14.65-82.7-18.31-6.87-1.69-47.25-16.25-46.73-20.44.46-3.72-35.5-20.48-32.17-25.15,7.36-10.3-84.4-53.61-103.76-61-7.82-3-55.85-17.58-58.52-16.64-3.37,1.19-30.21-3.45-29.29.55.87,3.76-22.85-.44-25.52.65-1.38.56-21.44-5.24-24.51-6.1-12.25-3.44-70.43-28-70.63-33.44-.16-4.6-39.3-21.27-46.43-23.35C85.13,169.58,5,152.93,4.86,153Z"/></g><g class="cls-15"><path class="cls-14" d="M6.38,150.33c.19-.05,81.06,14.59,92,17.79,9,2.63,46.37,19.85,46.58,25.64.24,6.81,54.58,31.61,69.74,35.86,3.74,1,22.61,6.37,24.25,5.7,3.21-1.31,24.88,1.47,23.81-3.18-1.17-5.06,24.19-1.89,28.55-3.43,3.44-1.21,50.86,13,60.73,16.79,24.38,9.36,108.56,53.93,99.33,66.86-4.16,5.82,28.6,22.91,28,27.53-.63,5.16,37.39,19.4,45.86,21.48,18.43,4.53,79.89,19.32,83.84,16.85,1.88-1.17,17,2.07,19.69,2,.08,0,.62.14.7.14,4.4,0,58.4,17.51,69.32,23.37,4.91,2.64,39.12,13.13,43.72,12.83,9.65-.62,80.22,12.08,88.92,4.65,12.28-10.48,132.88,11.35,154.23,14.85,10.95,1.79,45.5,17.95,43.83,23.51-2.26,7.52,67.4,39.78,92.15,46.71l-.54.57c-24.93-7-95.19-39.5-92.91-47.08,1.71-5.7-32.37-21.4-43.08-23.16-21.17-3.46-141-25.13-153.27-14.69-8.73,7.45-79.74-5.34-89.52-4.71-4.68.3-39.41-10.34-44.38-13C687.26,398.44,633.49,381,629.2,381c-.07,0-.56-.13-.63-.13-2.61.06-17.31-3.09-19.14-1.94-4,2.5-66.06-12.41-84.66-17-8.59-2.11-47.5-16.66-46.86-21.89.57-4.65-32.3-21.79-28.13-27.62,9.19-12.88-74.6-57.25-98.8-66.54-9.77-3.76-56.55-17.78-59.88-16.61-4.22,1.49-29.18-1.6-28,3.4,1.08,4.7-21,1.84-24.33,3.2-1.73.7-21.27-4.8-25.11-5.87-15.31-4.3-70.14-29.3-70.38-36.15-.2-5.75-37.09-22.78-46-25.37-10.85-3.16-91-17.64-91.18-17.59Z"/></g><g class="cls-16"><path class="cls-17" d="M7.55,148.26c.23-.06,81.1,12.4,94.26,16.23,10.85,3.16,45.9,20.74,46.14,27.7.29,8.16,51.31,33.43,69.51,38.53,4.48,1.26,22.86,6.3,24.82,5.5,3.85-1.57,23.9-.12,22.62-5.7-1.4-6.07,22.06-4.47,27.29-6.31,4.13-1.45,50.29,12.19,62.13,16.74,29.25,11.24,105.42,56.86,94.34,72.38-5,7,24.7,24.45,24,30-.76,6.19,35.84,20.43,46,22.92,22.12,5.43,81,18.5,85.77,15.53,2.26-1.41,16.83,1.37,20.1,1.3.09,0,.61.13.71.13,5.29,0,57.64,17.07,70.74,24.11,5.89,3.16,39.18,13.3,44.69,12.94,11.59-.75,79.91,9.31,90.34.41,14.74-12.58,131.45,4.77,157.08,9,13.14,2.15,45.14,18.56,43.14,25.23-2.71,9,61.85,41.73,91.55,50.05l-.53.56c-29.92-8.38-95-41.34-92.31-50.43,2.06-6.84-29.53-22.75-42.39-24.85-25.4-4.15-141.42-21.36-156.09-8.84-10.48,8.95-79.22-1.2-91-.44-5.61.36-39.4-9.92-45.37-13.13-12.87-6.91-65-23.95-70.19-23.95-.09,0-.56-.13-.65-.12-3.13.06-17.32-2.63-19.53-1.25-4.81,3-64.29-10.15-86.62-15.64-10.3-2.53-47.75-17.07-47-23.35.69-5.58-29.1-23.09-24.1-30.09,11-15.45-64.79-60.88-93.82-72-11.73-4.51-57.26-18-61.26-16.58-5.06,1.78-28.15.25-26.77,6.26,1.3,5.63-19.12,4.11-23.13,5.75-2.07.84-21.1-4.37-25.71-5.66C198,226,146.54,200.5,146.25,192.28c-.24-6.9-34.87-24.29-45.56-27.4-13-3.8-93.17-16.11-93.4-16Z"/></g><g class="cls-18"><path class="cls-19" d="M8.71,146.19c.27-.07,81.14,10.2,96.5,14.68,12.66,3.68,45.42,21.62,45.71,29.74.33,9.52,48,35.27,69.26,41.22,5.24,1.47,23.12,6.22,25.4,5.29,4.5-1.83,22.93-1.71,21.43-8.22-1.63-7.08,19.92-7.05,26-9.2,4.81-1.69,49.7,11.39,63.51,16.7,34.13,13.11,102.3,59.8,89.37,77.9-5.81,8.15,20.79,26,20,32.47-.88,7.22,34.3,21.45,46.16,24.36,25.8,6.34,82.16,17.67,87.69,14.22,2.63-1.65,16.69.65,20.5.57.11,0,.62.12.73.12,6.17,0,56.87,16.65,72.16,24.85,6.88,3.7,39.23,13.47,45.67,13.06,13.52-.87,79.58,6.55,91.75-3.84,17.19-14.67,130-1.81,159.92,3.08,15.33,2.51,44.8,19.17,42.46,26.95-3.16,10.52,56.31,43.67,91,53.38l-.53.57c-34.9-9.78-94.89-43.19-91.7-53.79,2.4-8-26.71-24.09-41.71-26.54-29.63-4.85-141.8-17.6-158.92-3-12.22,10.43-78.69,2.93-92.38,3.81-6.55.43-39.4-9.49-46.36-13.23-15-8.07-65.6-24.7-71.6-24.7-.1,0-.57-.11-.67-.11-3.65.08-17.34-2.15-19.92-.54-5.61,3.5-62.52-7.91-88.57-14.31-12-2.95-48-17.48-47.11-24.81.8-6.51-25.9-24.39-20.07-32.56,12.87-18-55-64.51-88.84-77.52-13.69-5.26-58-18.19-62.64-16.54-5.9,2.07-27.12,2.09-25.5,9.1,1.51,6.57-17.26,6.4-21.94,8.31-2.41,1-20.93-3.93-26.3-5.44-21.45-6-69.56-32-69.9-41.54-.29-8-32.66-25.81-45.13-29.44-15.2-4.43-95.36-14.57-95.63-14.5Z"/></g><g class="cls-20"><path class="cls-19" d="M9.88,144.11c.31-.08,81.18,8,98.73,13.13,14.47,4.21,45,22.51,45.28,31.79.38,10.89,44.75,37.11,69,43.91,6,1.67,23.37,6.14,26,5.08,5.14-2.1,21.95-3.3,20.23-10.74-1.86-8.09,17.79-9.63,24.78-12.09,5.49-1.93,49.12,10.59,64.91,16.66,39,15,99.16,62.74,84.39,83.43-6.65,9.31,16.88,27.52,16,34.92-1,8.26,32.75,22.48,46.3,25.81,29.49,7.25,83.3,16.85,89.62,12.9,3-1.88,16.55-.05,20.9-.15.13,0,.63.12.76.12,7,0,56.1,16.21,73.57,25.59,7.86,4.22,39.29,13.64,46.65,13.17,15.45-1,79.25,3.79,93.16-8.08,19.65-16.78,128.6-8.39,162.77-2.8,17.51,2.86,44.45,19.77,41.78,28.65-3.62,12,50.76,45.63,90.36,56.72l-.53.57c-39.89-11.18-94.74-45-91.1-57.14,2.75-9.12-23.88-25.43-41-28.24-33.87-5.54-142.18-13.82-161.74,2.88-14,11.92-78.17,7.07-93.81,8.08-7.48.49-39.4-9.07-47.36-13.35-17.16-9.21-66.15-25.43-73-25.43-.12,0-.57-.11-.69-.1-4.17.09-17.36-1.69-20.3.15-6.42,4-60.76-5.65-90.53-13-13.74-3.38-48.27-17.89-47.24-26.27.91-7.44-22.69-25.7-16-35,14.71-20.61-45.17-68.15-83.88-83-15.63-6-58.66-18.39-64-16.51-6.75,2.37-26.09,3.94-24.25,12,1.73,7.51-15.4,8.68-20.74,10.86-2.76,1.13-20.77-3.49-26.9-5.21-24.51-6.86-69.27-33.29-69.66-44.25-.32-9.2-30.45-27.31-44.69-31.46-17.37-5.06-97.55-13-97.85-13Z"/></g><g class="cls-21"><path class="cls-19" d="M11.05,142c.34-.09,81.21,5.82,101,11.57,16.29,4.74,44.48,23.4,44.85,33.84.43,12.25,41.47,39,68.78,46.59,6.73,1.89,23.62,6.08,26.56,4.88,5.78-2.36,21-4.89,19.05-13.26-2.1-9.1,15.65-12.21,23.51-15,6.18-2.17,48.54,9.8,66.31,16.62,43.88,16.86,96,65.67,79.41,88.95-7.48,10.47,13,29.06,11.95,37.39-1.15,9.29,31.21,23.51,46.44,27.25,33.18,8.15,84.44,16,91.55,11.58,3.38-2.12,16.41-.75,21.3-.86.15,0,.63.1.78.1,7.93,0,55.34,15.78,75,26.34,8.84,4.75,39.35,13.81,47.62,13.28,17.38-1.13,78.94,1,94.59-12.33,22.1-18.87,127.16-15,165.6-8.68,19.71,3.22,44.1,20.38,41.1,30.37-4.07,13.54,45.22,47.57,89.77,60.05l-.53.57c-44.88-12.57-94.59-46.86-90.5-60.49,3.09-10.26-21.05-26.77-40.33-29.93-38.1-6.23-142.55-10.06-164.57,8.73C814.52,433,752.6,430.83,735,432c-8.41.54-39.39-8.65-48.34-13.46-19.31-10.37-66.7-26.17-74.41-26.17-.13,0-.58-.1-.71-.1-4.69.1-17.38-1.21-20.69.86-7.22,4.51-59-3.41-92.48-11.63-15.46-3.8-48.53-18.3-47.37-27.73,1-8.37-19.49-27-12-37.5,16.55-23.18-35.35-71.78-78.9-88.51-17.59-6.76-59.37-18.59-65.38-16.48-7.59,2.67-25.06,5.79-23,14.8,1.94,8.45-13.54,11-19.55,13.42-3.1,1.26-20.6-3.06-27.5-5-27.57-7.72-69-34.62-69.41-46.95C154.9,177.18,127,158.7,111,154c-19.54-5.69-99.73-11.51-100.08-11.42Z"/></g><g class="cls-22"><path class="cls-19" d="M12.21,140c.39-.1,81.26,3.63,103.19,10,18.1,5.27,44,24.3,44.42,35.89.48,13.61,38.19,40.78,68.53,49.28,7.48,2.1,23.88,6,27.14,4.67,6.43-2.62,20-6.48,17.86-15.78-2.33-10.11,13.52-14.79,22.25-17.86,6.87-2.42,48,9,67.7,16.57,48.76,18.74,92.9,68.61,74.44,94.47-8.31,11.64,9.06,30.6,7.92,39.86-1.27,10.32,29.67,24.53,46.6,28.69,36.86,9.06,85.57,15.2,93.47,10.26,3.76-2.35,16.26-1.46,21.71-1.58.16,0,.63.1.79.1,8.81,0,54.58,15.35,76.41,27.07,9.83,5.28,39.4,14,48.6,13.39,19.31-1.25,78.61-1.72,96-16.56,24.56-21,125.74-21.55,168.45-14.57,21.89,3.59,43.75,21,40.41,32.09-4.52,15,39.67,49.51,89.17,63.38l-.52.57c-49.86-14-94.45-48.69-89.89-63.84,3.43-11.41-18.22-28.12-39.65-31.62-42.33-6.93-142.93-6.29-167.39,14.58-17.46,14.91-77.11,15.35-96.67,16.62-9.35.6-39.39-8.23-49.34-13.57-21.45-11.52-67.24-26.92-75.81-26.92-.15,0-.58-.08-.73-.08-5.21.11-17.4-.75-21.08,1.55-8,5-57.22-1.15-94.43-10.29-17.18-4.22-48.78-18.71-47.5-29.18,1.14-9.3-16.29-28.31-8-40,18.39-25.75-25.54-75.41-73.93-94-19.54-7.51-60.07-18.8-66.74-16.45-8.43,3-24,7.64-21.73,17.65,2.16,9.4-11.67,13.25-18.35,16-3.45,1.4-20.43-2.62-28.1-4.77-30.63-8.58-68.69-36-69.17-49.66-.4-11.5-26-30.33-43.82-35.52-21.71-6.33-101.92-10-102.31-9.88Z"/></g><g class="cls-23"><path class="cls-24" d="M13.38,137.89c.42-.11,81.29,1.44,105.42,8.47,19.9,5.79,43.54,25.18,44,37.93.52,15,34.91,42.62,68.28,52,8.23,2.3,24.14,5.92,27.73,4.46,7.06-2.88,19-8.07,16.66-18.3-2.56-11.12,11.39-17.37,21-20.75,7.56-2.66,47.39,8.2,69.1,16.54,53.63,20.6,89.76,71.54,69.45,100-9.14,12.81,5.16,32.14,3.91,42.32-1.4,11.36,28.12,25.57,46.74,30.14,40.55,10,86.71,14.37,95.4,8.94,4.13-2.59,16.12-2.16,22.11-2.29.17,0,.64.08.82.08,9.69,0,53.8,14.92,77.82,27.82,10.81,5.81,39.46,14.15,49.58,13.5,21.24-1.37,78.28-4.48,97.41-20.81,27-23.06,124.31-28.13,171.29-20.44,24.08,3.94,43.41,21.59,39.73,33.8-5,16.55,34.13,51.46,88.58,66.71l-.52.57c-54.85-15.36-94.3-50.53-89.29-67.19,3.78-12.55-15.39-29.46-39-33.31-46.57-7.62-143.31-2.53-170.22,20.44-19.2,16.39-76.58,19.48-98.09,20.87-10.29.67-39.39-7.8-50.33-13.68C657.38,413,613.18,398,603.76,398c-.16,0-.58-.08-.75-.08-5.73.13-17.42-.28-21.47,2.25-8.81,5.52-55.45,1.11-96.39-8.95-18.88-4.64-49-19.12-47.62-30.64,1.26-10.23-13.09-29.62-3.93-42.44,20.22-28.33-15.73-79-69-99.5-21.5-8.26-60.78-19-68.12-16.42-9.27,3.26-23,9.49-20.46,20.5,2.38,10.34-9.81,15.53-17.16,18.53-3.79,1.55-20.26-2.18-28.7-4.54-33.7-9.44-68.39-37.29-68.92-52.36-.45-12.65-23.81-31.85-43.39-37.56-23.88-7-104.11-8.44-104.53-8.33Z"/></g><g class="cls-25"><path class="cls-24" d="M14.55,135.82c.46-.12,81.33-.76,107.65,6.91,21.71,6.32,43.06,26.07,43.55,40,.58,16.34,31.64,44.46,68.05,54.65,9,2.52,24.38,5.85,28.3,4.26,7.71-3.15,18-9.66,15.47-20.81-2.79-12.14,9.26-20,19.74-23.65,8.24-2.9,46.8,7.4,70.49,16.5,58.5,22.47,86.63,74.47,64.47,105.51-10,14,1.25,33.68-.12,44.78-1.52,12.39,26.58,26.59,46.89,31.58,44.24,10.87,87.85,13.55,97.33,7.62,4.51-2.82,16-2.87,22.51-3,.19,0,.64.08.84.08,10.57,0,53,14.48,79.24,28.56,11.8,6.33,39.52,14.32,50.56,13.61,23.17-1.5,78-7.24,98.82-25.05,29.47-25.16,122.88-34.71,174.14-26.33,26.27,4.3,43,22.2,39,35.52-5.42,18.05,28.59,53.4,88,70l-.52.57c-59.84-16.76-94.15-52.37-88.68-70.54,4.11-13.69-12.57-30.8-38.29-35-50.79-8.31-143.68,1.25-173,26.3-21,17.89-76,23.62-99.52,25.14-11.23.73-39.38-7.38-51.33-13.79-25.74-13.83-68.34-28.39-78.62-28.39-.18,0-.59-.07-.76-.07-6.26.13-17.45.19-21.86,3-9.62,6-53.69,3.35-98.35-7.62C458,391.05,429.26,376.58,430.8,364c1.37-11.17-9.89-30.93.1-44.92,22.06-30.9-5.92-82.68-64-105-23.45-9-61.47-19.2-69.48-16.39-10.12,3.56-22,11.34-19.21,23.36,2.6,11.27-7.94,17.81-16,21.08-4.14,1.68-20.09-1.75-29.3-4.32-36.76-10.3-68.1-38.63-68.68-55.06-.49-13.81-21.59-33.37-42.95-39.59C95.27,135.6,15,136.28,14.57,136.4Z"/></g><g class="cls-26"><path class="cls-24" d="M15.71,133.75c.5-.13,81.38-2.95,109.89,5.35,23.52,6.85,42.59,27,43.12,42,.62,17.69,28.36,46.28,67.8,57.33,9.72,2.72,24.64,5.78,28.89,4,8.35-3.4,17.06-11.23,14.28-23.32-3-13.15,7.12-22.54,18.47-26.53,8.93-3.15,46.23,6.59,71.88,16.45,63.38,24.35,83.5,77.41,59.5,111-10.8,15.13-2.66,35.22-4.14,47.25-1.65,13.41,25,27.62,47,33,47.92,11.78,89,12.72,99.25,6.3,4.88-3.06,15.84-3.57,22.91-3.72.21,0,.65.06.86.06,11.46,0,52.28,14.06,80.66,29.3,12.78,6.86,39.58,14.5,51.53,13.73,25.11-1.63,77.64-10,100.24-29.3,31.93-27.25,121.46-41.29,177-32.21,28.46,4.66,42.71,22.81,38.37,37.24-5.88,19.56,23,55.35,87.39,73.37l-.52.58c-64.82-18.16-94-54.21-88.08-73.9,4.46-14.83-9.73-32.14-37.6-36.7-55-9-144.06,5-175.86,32.15-22.7,19.38-75.52,27.76-101,29.41-12.16.79-39.37-7-52.31-13.9-27.89-15-68.9-29.14-80-29.14-.19,0-.59-.06-.78-.05-6.78.14-17.47.65-22.25,3.64-10.42,6.52-51.92,5.61-100.3-6.28-22.32-5.48-49.55-19.94-47.88-33.55,1.49-12.09-6.69-32.23,4.13-47.39,23.91-33.48,3.89-86.31-59-110.48-25.41-9.76-62.18-19.41-70.86-16.36-11,3.86-20.94,13.19-17.94,26.21,2.81,12.21-6.08,20.09-14.77,23.64-4.48,1.82-19.92-1.31-29.9-4.11C195.9,227.8,167.91,199,167.29,181.19c-.53-14.95-19.38-34.87-42.53-41.61-28.22-8.23-108.47-5.38-109-5.26Z"/></g><g class="cls-27"><path class="cls-24" d="M16.88,131.67c.54-.14,81.41-5.14,112.12,3.81,25.33,7.37,42.11,27.84,42.69,44.08.67,19.05,25.08,48.12,67.55,60,10.47,2.93,24.9,5.7,29.47,3.83,9-3.66,16.08-12.82,13.09-25.84-3.26-14.16,5-25.12,17.21-29.42,9.62-3.38,45.65,5.8,73.28,16.41,68.26,26.22,80.37,80.35,54.52,116.55-11.64,16.3-6.57,36.76-8.16,49.71-1.78,14.45,23.48,28.65,47.18,34.47C517.44,418,556,417.18,567,410.27c5.26-3.29,15.7-4.27,23.32-4.44.22,0,.65.06.87.06,12.34,0,51.52,13.62,82.08,30,13.76,7.39,39.63,14.66,52.51,13.84,27-1.75,77.31-12.76,101.66-33.54,34.38-29.36,120-47.87,179.81-38.09,30.66,5,42.36,23.41,37.69,38.95-6.33,21.06,17.49,57.29,86.79,76.71l-.51.57c-69.81-19.56-93.85-56.05-87.48-77.25,4.81-16-6.9-33.48-36.91-38.39-59.26-9.7-144.44,8.78-178.68,38-24.45,20.86-75,31.9-102.38,33.67-13.09.85-39.37-6.53-53.3-14-30-16.13-69.45-29.87-81.44-29.87-.21,0-.6,0-.8,0-7.3.16-17.49,1.13-22.64,4.35-11.22,7-50.15,7.85-102.25-4.94-24-5.91-49.81-20.36-48-35,1.6-13-3.49-33.53,8.17-49.85,25.74-36.06,13.7-89.95-54.05-116-27.36-10.51-62.88-19.61-72.22-16.32-11.81,4.15-19.92,15-16.69,29,3,13.15-4.22,22.38-13.57,26.19-4.83,2-19.76-.87-30.5-3.88-42.88-12-67.51-41.29-68.19-60.46-.57-16.1-17.16-36.39-42.09-43.65-30.39-8.85-110.66-3.85-111.2-3.71Z"/></g><g class="cls-28"><path class="cls-29" d="M18,129.6c.58-.15,81.46-7.33,114.36,2.25,27.14,7.9,41.64,28.73,42.25,46.13.72,20.41,21.81,50,67.32,62.71,11.21,3.14,25.14,5.62,30,3.62,9.64-3.93,15.11-14.41,11.9-28.36-3.49-15.17,2.86-27.7,15.95-32.31,10.31-3.62,45.07,5,74.68,16.37,73.13,28.1,77.23,83.28,49.54,122.08-12.47,17.45-10.48,38.29-12.19,52.17-1.9,15.48,21.94,29.68,47.33,35.91,55.3,13.59,91.25,11.07,103.1,3.66,5.65-3.53,15.57-5,23.73-5.15.24,0,.65.05.9.05,13.21,0,50.74,13.18,83.5,30.77,14.74,7.92,39.68,14.84,53.48,13.95,29-1.87,77-15.51,103.07-37.78,36.84-31.45,118.59-54.45,182.66-44,32.84,5.37,42,24,37,40.67-6.78,22.57,11.95,59.24,86.2,80l-.51.57c-74.79-21-93.7-57.88-86.87-80.6,5.14-17.11-4.08-34.83-36.23-40.08-63.49-10.39-144.82,12.54-181.51,43.86-26.19,22.36-74.47,36-103.8,37.93-14,.92-39.37-6.1-54.3-14.12-32.18-17.28-70-30.61-82.84-30.61-.22,0-.6-.05-.82,0-7.82.17-17.5,1.59-23,5-12,7.52-48.39,10.11-104.21-3.6C433,404.43,408.69,390,410.61,374.29c1.72-14-.29-34.84,12.2-52.33,27.58-38.63,23.51-93.58-49.07-121.47-29.32-11.26-63.59-19.81-73.6-16.29-12.65,4.45-18.88,16.88-15.42,31.9,3.24,14.09-2.36,24.66-12.38,28.75-5.17,2.1-19.59-.43-31.1-3.66-45.94-12.87-67.22-42.62-68-63.17-.6-17.25-14.94-37.89-41.65-45.67C99.08,122.86,18.79,130,18.22,130.18Z"/></g><g class="cls-30"><path class="cls-31" d="M19.21,127.53c.62-.16,81.49-9.53,116.59.69,28.94,8.43,41.16,29.63,41.82,48.18.77,21.77,18.53,51.79,67.07,65.39,12,3.35,25.4,5.55,30.63,3.42,10.27-4.19,14.13-16,10.7-30.88-3.72-16.18.73-30.28,14.7-35.2,11-3.86,44.49,4.2,76.07,16.33,78,30,74.09,86.22,44.55,127.6-13.29,18.62-14.38,39.83-16.2,54.63-2,16.52,20.39,30.71,47.48,37.36,59,14.49,92.38,10.24,105,2.34,6-3.76,15.43-5.68,24.13-5.87.26,0,.66,0,.92,0,14.1,0,50,12.76,84.92,31.52,15.72,8.45,39.74,15,54.45,14.06,30.9-2,76.67-18.27,104.49-42,39.3-33.55,117.17-61,185.5-49.86,35,5.73,41.67,24.63,36.32,42.39-7.23,24.07,6.41,61.18,85.61,83.37l-.51.57c-79.78-22.35-93.55-59.72-86.27-83.95,5.49-18.25-1.25-36.17-35.54-41.78-67.73-11.08-145.2,16.32-184.33,49.72-27.94,23.85-73.94,40.18-105.24,42.2-15,1-39.36-5.68-55.28-14.23-34.32-18.44-70.55-31.35-84.25-31.35-.24,0-.6,0-.84,0-8.34.18-17.52,2.07-23.41,5.75-12.83,8-46.62,12.35-106.16-2.27-27.48-6.75-50.32-21.17-48.26-37.93,1.82-14.88,2.9-36.14,16.23-54.8,29.41-41.2,33.32-97.21-44.11-127-31.27-12-64.29-20-75-16.26-13.5,4.74-17.86,18.73-14.17,34.75,3.46,15-.49,26.95-11.18,31.31-5.51,2.24-19.42,0-31.7-3.44-49-13.73-66.93-44-67.7-65.87-.65-18.4-12.73-39.41-41.22-47.71-34.73-10.12-115-.78-115.65-.62Z"/></g><g class="cls-32"><path class="cls-31" d="M20.38,125.45c.65-.17,81.53-11.72,118.81-.86,30.76,9,40.7,30.52,41.4,50.23.81,23.14,15.25,53.63,66.82,68.08,12.72,3.56,25.66,5.47,31.21,3.21,10.92-4.45,13.15-17.59,9.52-33.4-4-17.19-1.41-32.86,13.43-38.08,11.68-4.11,43.91,3.4,77.46,16.29,82.88,31.84,71,89.15,39.58,133.11-14.12,19.79-18.3,41.37-20.23,57.1-2.15,17.55,18.85,31.73,47.63,38.81,62.67,15.39,93.52,9.41,107,1,6.4-4,15.28-6.38,24.54-6.58.27,0,.66,0,.93,0,15,0,49.22,12.32,86.34,32.26,16.7,9,39.8,15.17,55.43,14.17,32.83-2.12,76.34-21,105.9-46.27,41.75-35.64,115.74-67.61,188.35-55.73,37.22,6.09,41.31,25.23,35.64,44.1-7.69,25.57.85,63.13,85,86.7l-.51.57c-84.77-23.74-93.41-61.55-85.66-87.3,5.83-19.39,1.58-37.51-34.86-43.47-72-11.77-145.58,20.08-187.16,55.57-29.68,25.34-73.41,44.32-106.66,46.47-15.9,1-39.36-5.26-56.28-14.35C627.51,427.54,592.88,415,578.32,415c-.25,0-.61,0-.86,0-8.86.19-17.54,2.53-23.8,6.44-13.62,8.52-44.85,14.61-108.12-.93-29.19-7.17-50.57-21.58-48.38-39.38,1.94-15.82,6.11-37.45,20.26-57.27,31.26-43.78,43.13-100.85-39.13-132.46-33.23-12.76-65-20.22-76.34-16.23-14.33,5-16.82,20.58-12.9,37.6,3.67,16,1.37,29.23-10,33.86-5.86,2.39-19.25.44-32.3-3.21-52.07-14.59-66.64-45.29-67.46-68.57-.69-19.56-10.51-40.92-40.78-49.74-36.91-10.75-117.22.75-117.87.91Z"/></g><g class="cls-33"><path class="cls-34" d="M21.54,123.38c.7-.18,81.57-13.91,121.05-2.41,32.57,9.48,40.23,31.4,41,52.27.86,24.5,12,55.47,66.59,70.77,13.46,3.77,25.9,5.4,31.78,3,11.57-4.71,12.18-19.18,8.33-35.92-4.19-18.2-3.54-35.44,12.17-41,12.37-4.35,43.33,2.6,78.86,16.25C469,220.08,449.11,278.45,415.88,325c-15,20.95-22.21,42.91-24.25,59.57-2.28,18.58,17.3,32.76,47.77,40.25,66.36,16.29,94.66,8.58,108.88-.31a48.56,48.56,0,0,1,24.94-7.3l1,0c15.86,0,48.45,11.9,87.75,33,17.69,9.5,39.85,15.35,56.41,14.29,34.76-2.25,76-23.79,107.32-50.52,44.2-37.73,114.3-74.18,191.18-61.61,39.41,6.45,41,25.84,35,45.82-8.14,27.08-4.69,65.07,84.41,90l-.5.58c-89.75-25.15-93.26-63.4-85.06-90.66,6.18-20.53,4.41-38.85-34.17-45.16-76.19-12.47-146,23.85-190,61.43-31.43,26.83-72.89,48.45-108.09,50.73-16.84,1.09-39.36-4.84-57.27-14.46-38.61-20.74-71.64-32.83-87.06-32.83l-.88,0A47.32,47.32,0,0,0,549,425c-14.43,9-43.09,16.87-110.08.41-30.91-7.59-50.83-22-48.51-40.84,2.05-16.74,9.31-38.75,24.29-59.74,33.1-46.36,52.94-104.48-34.16-137.95-35.18-13.51-65.69-20.42-77.7-16.2-15.18,5.34-15.8,22.43-11.65,40.46,3.89,16.9,3.24,31.5-8.79,36.41-6.2,2.53-19.08.88-32.89-3-55.14-15.45-66.35-46.62-67.22-71.28-.73-20.7-8.3-42.43-40.35-51.77-39.08-11.38-119.41,2.29-120.1,2.46Z"/></g><g class="cls-35"><path class="cls-36" d="M22.71,121.31c.73-.19,81.61-16.11,123.28-4,34.38,10,39.75,32.29,40.53,54.32.91,25.86,8.7,57.31,66.34,73.45,14.21,4,26.16,5.33,32.37,2.8,12.2-5,11.2-20.77,7.13-38.44-4.42-19.21-5.67-38,10.91-43.86,13.06-4.59,42.76,1.8,80.26,16.21,92.63,35.59,64.7,95,29.62,144.16-15.79,22.11-26.12,44.44-28.28,62-2.4,19.62,15.76,33.79,47.93,41.7,70,17.2,95.79,7.76,110.8-1.63,7.15-4.46,15-7.79,25.34-8,.3,0,.67,0,1,0,16.74,0,47.68,11.46,89.17,33.74,18.67,10,39.91,15.52,57.39,14.4,36.69-2.38,75.69-26.55,108.73-54.76,46.66-39.83,112.88-80.77,194-67.5,41.59,6.81,40.61,26.45,34.27,47.54-8.59,28.58-10.23,67,83.82,93.36l-.5.58c-94.74-26.54-93.11-65.24-84.46-94,6.52-21.67,7.24-40.2-33.48-46.85-80.43-13.16-146.34,27.61-192.81,67.28-33.17,28.32-72.35,52.59-109.52,55-17.77,1.16-39.35-4.41-58.26-14.56-40.75-21.89-72.19-33.57-88.46-33.57-.28,0-.61,0-.89,0-9.91.21-17.59,3.47-24.58,7.84-15.23,9.52-41.32,19.11-112,1.74-32.63-8-51.09-22.4-48.64-42.3,2.17-17.67,12.51-40.05,28.33-62.21,34.93-48.93,62.75-108.11-29.19-143.44-37.14-14.26-66.4-20.62-79.08-16.17-16,5.64-14.76,24.28-10.38,43.31,4.1,17.84,5.1,33.79-7.6,39-6.55,2.66-18.91,1.31-33.49-2.77-58.2-16.31-66.06-48-67-74-.77-21.85-6.08-43.95-39.91-53.8-41.25-12-121.6,3.82-122.33,4Z"/></g><g class="cls-37"><path class="cls-36" d="M23.88,119.23c.77-.19,81.64-18.29,125.51-5.52,36.19,10.54,39.28,33.18,40.09,56.38,1,27.21,5.43,59.13,66.1,76.13,15,4.19,26.42,5.25,32.95,2.59,12.85-5.24,10.22-22.36,5.94-41-4.65-20.22-7.8-40.6,9.66-46.74,13.74-4.84,42.17,1,81.64,16.16,97.51,37.46,61.57,98,24.64,149.68-16.61,23.28-30,46-32.29,64.49-2.54,20.65,14.21,34.82,48.07,43.14,73.73,18.11,96.93,6.93,112.73-2.95,7.52-4.7,14.86-8.49,25.74-8.73h1c17.62,0,46.92,11,90.59,34.49,19.65,10.55,40,15.69,58.36,14.5,38.62-2.49,75.37-29.31,110.15-59,49.12-41.93,111.45-87.35,196.87-73.37,43.79,7.16,40.27,27.05,33.59,49.25-9,30.09-15.77,69,83.23,96.69l-.5.58c-99.73-27.94-93-67.07-83.85-97.36,6.86-22.81,10.06-41.54-32.8-48.55-84.66-13.85-146.72,31.39-195.63,73.14-34.92,29.81-71.83,56.73-110.95,59.26-18.7,1.22-39.35-4-59.25-14.68-42.9-23-72.74-34.31-89.87-34.31h-.91c-10.43.23-17.61,3.94-25,8.54-16,10-39.55,21.37-114,3.09-34.35-8.44-51.34-22.82-48.77-43.76,2.28-18.6,15.71-41.36,32.36-64.68C446.1,275.22,481.89,215,385.11,177.8,346,162.78,318,157,304.67,161.65c-16.87,5.94-13.74,26.13-9.13,46.16,4.32,18.78,7,36.07-6.4,41.52-6.89,2.81-18.75,1.75-34.09-2.55-61.26-17.16-65.77-49.28-66.73-76.68-.81-23-3.87-45.45-39.48-55.83-43.42-12.64-123.78,5.35-124.55,5.55Z"/></g><path class="cls-36" d="M1139.07,484.65c-104.71-29.33-92.81-68.91-83.25-100.71,7.21-24,12.9-42.88-32.11-50.24-88.89-14.54-147.1,35.15-198.46,79C788.58,444,754,473.56,712.88,476.22c-19.64,1.28-39.35-3.57-60.25-14.79-45-24.19-73.29-35.05-91.27-35.05h-.93c-10.95.24-17.63,4.41-25.35,9.24-16.84,10.52-37.79,23.61-115.94,4.42-36.07-8.86-51.6-23.23-48.9-45.22,2.4-19.53,18.91-42.66,36.39-67.15C445.24,273.6,489,212.3,387.39,173.26c-41-15.77-67.81-21-81.82-16.11-17.71,6.22-12.7,28-7.86,49,4.53,19.73,8.82,38.36-5.21,44.08-7.24,3-18.58,2.19-34.69-2.33-64.33-18-65.48-50.62-66.49-79.38-.85-24.15-1.65-47-39-57.86-45.58-13.28-126,6.88-126.77,7.09l-.46-.59c.81-.21,81.69-20.49,127.75-7.07,38,11.06,38.8,34.07,39.66,58.42,1,28.58,2.15,61,65.86,78.82,15.7,4.39,26.67,5.17,33.53,2.38,13.48-5.5,9.24-24,4.75-43.48C291.7,185,286.65,163,305,156.6c14.43-5.08,41.59.2,83,16.12,102.38,39.34,58.43,100.89,19.66,155.2-17.45,24.44-33.93,47.53-36.31,67-2.67,21.68,12.66,35.84,48.21,44.58,77.42,19,98.07,6.11,114.66-4.27,7.9-4.93,14.72-9.2,26.15-9.44h1c18.51,0,46.16,10.6,92,35.22,20.64,11.09,40,15.86,59.34,14.62,40.55-2.62,75-32.07,111.56-63.24,51.58-44,110-93.93,199.71-79.26,46,7.52,39.93,27.66,32.92,51-9.5,31.59-21.33,70.9,82.62,100Z"/></g></g><g class="cls-40"><g class="cls-39"><g class="cls-7"><polygon class="cls-8" points="1113.35 283.53 715.21 156.16 317.08 28.79 317.63 28.23 715.77 155.6 1113.9 282.97 1113.35 283.53"/></g><g class="cls-9"><path class="cls-8" d="M316.52,29.62c5,1.39,99.45,33.68,99,35.2C415.17,66,461,81.6,463.12,82c4.24.69,144.77,42.4,147.21,40.31,1.75-1.49,85,23.2,86.92,23.07.47,0,19.68,6,20.16,6.12s21.23,6.8,21.73,7.07c2.18,1.17,65.27,21.43,66.12,21.42.53,0,17.84,5.22,18.21,5,.8-.5,76.15,22.66,79.87,23.58,1.1.27,32.34,10.41,32.6,10.86.53.95,57.16,20.76,55.74,22.1-2.34,2.22,112.25,42.24,116.6,44.65l-.5-.13c-4.92-1.89-120.81-42.34-118.45-44.57,1.41-1.33-54.81-21-55.34-21.94-.25-.45-31-10.41-32-10.68-3.69-.91-78.06-23.77-78.85-23.28-.38.24-18.24-5.17-18.78-5.16l-.65-.19c-.88,0-63.74-20.19-65.93-21.37-.47-.25-20.37-6.66-20.82-6.77s-19.9-6.23-20.38-6.2C694.6,146,612,121.46,610.27,123c-2.45,2.09-143.72-39.84-148-40.53C460.09,82.06,413.67,66.15,414,65c.45-1.5-93.09-33.48-98-34.86Z"/></g><g class="cls-10"><path class="cls-8" d="M315.4,31c10,2.8,99.12,35.45,98.21,38.48-.69,2.28,42.55,18.09,46.83,18.79,8.47,1.38,144.88,38.52,149.77,34.34,3.5-3,84.28,19,88.19,18.74,1-.06,19.69,5.72,20.65,6s21.17,6.78,22.16,7.31c4.36,2.35,65.72,22.14,67.43,22.1,1,0,17.83,4.75,18.56,4.29,1.6-1,74.23,20.34,81.67,22.17,2.21.54,32.58,10.54,33.09,11.45,1.07,1.9,53.47,22.05,50.63,24.74-4.69,4.43,101.38,45.09,110.62,49.34l-.51-.1c-9.82-3.77-117.11-44.86-112.39-49.31,2.82-2.67-49.19-22.68-50.25-24.56-.5-.89-30.37-10.72-32.54-11.25-7.37-1.81-79.06-22.89-80.64-21.9-.75.47-18.06-4.46-19.15-4.43l-.66-.18c-1.76,0-62.87-19.72-67.23-22.06-1-.51-20.34-6.79-21.24-7s-19.92-6.1-20.88-6c-3.86.25-84-21.55-87.52-18.58-4.91,4.2-142-33.14-150.58-34.54-4.37-.71-48.18-16.83-47.51-19,.91-3-87.36-35.35-97.26-38.12Z"/></g><g class="cls-11"><path class="cls-12" d="M314.28,32.39c15,4.19,98.79,37.21,97.42,41.75-1,3.42,39.63,19.4,46.06,20.45,12.7,2.07,145,34.64,152.33,28.38,5.24-4.47,83.6,14.79,89.47,14.41,1.41-.09,19.69,5.43,21.13,5.79s21.11,6.76,22.59,7.55c6.55,3.52,66.18,22.84,68.73,22.79,1.57,0,17.82,4.26,18.92,3.57,2.41-1.5,72.31,18,83.48,20.78,3.3.81,32.81,10.67,33.58,12,1.61,2.85,49.76,23.34,45.5,27.36-7,6.64,90.52,47.94,104.65,54l-.52-.06c-14.73-5.66-113.42-47.37-106.34-54.05,4.23-4-43.57-24.36-45.15-27.17-.76-1.34-29.77-11-33-11.83-11.05-2.72-80.06-22-82.43-20.53-1.12.71-17.88-3.73-19.51-3.7,0,0-.64-.17-.68-.17-2.65,0-62-19.23-68.54-22.75-1.42-.76-20.3-6.91-21.65-7.26s-19.94-6-21.37-5.88c-5.79.38-83.57-18.72-88.79-14.27C602.76,129.91,469.78,97.16,457,95.07c-6.57-1.07-47.75-17.4-46.75-20.73,1.36-4.51-81.64-37.23-96.49-41.39Z"/></g><g class="cls-13"><path class="cls-14" d="M313.16,33.78c19.94,5.59,98.45,39,96.63,45-1.37,4.56,36.71,20.69,45.29,22.1C472,103.68,600.19,131.67,610,123.32c7-6,82.92,10.59,90.74,10.08,1.88-.12,19.7,5.15,21.62,5.62s21,6.75,23,7.81c8.73,4.69,66.63,23.54,70,23.46,2.08,0,17.8,3.78,19.28,2.86,3.2-2,70.39,15.72,85.27,19.38,4.41,1.08,33,10.81,34.07,12.63,2.15,3.8,46.06,24.63,40.39,30C985,244,1074,285.94,1093.07,293.88l-.52,0c-19.65-7.55-109.73-49.89-100.3-58.8,5.65-5.34-37.94-26-40-29.78-1-1.79-29.17-11.35-33.51-12.42-14.75-3.62-81.06-21.12-84.22-19.14-1.51.94-17.71-3-19.89-3-.06,0-.63-.16-.7-.16-3.52,0-61.11-18.76-69.84-23.45-1.89-1-20.25-7-22.06-7.5s-20-5.84-21.87-5.72c-7.72.5-83.09-15.9-90.05-10-9.82,8.38-138.67-19.77-155.75-22.56-8.76-1.44-47.31-18-46-22.42,1.81-6-75.93-39.09-95.73-44.64Z"/></g><g class="cls-15"><path class="cls-14" d="M312,35.17c24.93,7,98.12,40.73,95.84,48.3-1.71,5.7,33.8,22,44.51,23.76,21.17,3.46,145.23,26.88,157.46,16.44,8.73-7.45,82.23,6.39,92,5.76,2.36-.16,19.71,4.85,22.11,5.45s21,6.73,23.45,8.05c10.91,5.86,67.08,24.24,71.34,24.15,2.61-.06,17.8,3.3,19.64,2.15,4-2.51,68.47,13.4,87.08,18,5.51,1.36,33.27,11,34.56,13.22,2.68,4.75,42.35,25.92,35.26,32.62-11.73,11.08,68.78,53.65,92.7,63.43h-.53c-24.55-9.44-106-52.41-94.25-63.55,7.06-6.67-32.31-27.7-35-32.38-1.26-2.23-28.57-11.66-34-13-18.43-4.52-82.06-20.23-86-17.77-1.88,1.18-17.53-2.29-20.25-2.23-.08,0-.64-.15-.72-.15-4.41,0-60.23-18.28-71.15-24.14-2.36-1.27-20.21-7.17-22.47-7.75-2.43-.63-20-5.71-22.36-5.56-9.66.63-82.62-13.08-91.32-5.66-12.28,10.49-137-13.08-158.33-16.57-11-1.79-46.88-18.54-45.21-24.09,2.26-7.52-70.2-41-95-47.9Z"/></g><g class="cls-16"><path class="cls-17" d="M310.92,36.56c29.91,8.38,97.79,42.49,95.06,51.57-2.06,6.85,30.87,23.31,43.73,25.41,25.4,4.16,145.35,23,160,10.49,10.48-9,81.55,2.18,93.28,1.42,2.83-.18,19.72,4.57,22.6,5.29s20.92,6.71,23.88,8.3c13.1,7,67.53,24.93,72.65,24.82,3.13-.07,17.78,2.82,20,1.44,4.81-3,66.55,11.09,88.89,16.58,6.6,1.62,33.5,11.08,35,13.81,3.22,5.7,38.66,27.2,30.14,35.24-14.07,13.3,57.91,56.5,86.73,68.13l-.53,0c-29.47-11.33-102.35-54.92-88.2-68.29,8.47-8-26.7-29.37-29.87-35-1.51-2.68-28-12-34.48-13.58-22.11-5.43-83.06-19.35-87.8-16.39-2.25,1.41-17.35-1.58-20.62-1.51-.1,0-.64-.14-.74-.14-5.28,0-59.35-17.79-72.45-24.83-2.83-1.52-20.17-7.3-22.88-8-2.92-.76-20-5.58-22.86-5.4-11.58.75-82.15-10.26-92.58-1.35-14.73,12.58-135.3-6.39-160.92-10.58-13.14-2.15-46.44-19.11-44.44-25.77,2.72-9-64.48-42.84-94.18-51.16Z"/></g><g class="cls-18"><path class="cls-19" d="M309.8,37.94c34.9,9.78,97.46,44.26,94.27,54.86-2.4,8,28,24.61,43,27.06,29.63,4.85,145.46,19.14,162.58,4.52,12.22-10.43,80.87-2,94.56-2.91,3.3-.21,19.72,4.29,23.08,5.12s20.86,6.7,24.31,8.55c15.28,8.21,68,25.64,74,25.51,3.65-.08,17.78,2.33,20.35.72,5.61-3.5,64.64,8.78,90.69,15.18,7.71,1.89,33.74,11.21,35.54,14.4,3.75,6.65,34.95,28.49,25,37.87-16.43,15.52,47,59.36,80.76,72.83l-.55.07c-34.38-13.21-98.66-57.44-82.15-73,9.88-9.34-21.07-31.05-24.77-37.61-1.76-3.12-27.36-12.28-35-14.15-25.81-6.34-84.06-18.47-89.6-15-2.63,1.64-17.18-.86-21-.78-.12,0-.65-.13-.76-.13-6.17,0-58.47-17.32-73.76-25.53-3.3-1.77-20.13-7.42-23.28-8.24-3.42-.88-20-5.44-23.36-5.23-13.52.88-81.68-7.43-93.85,3-17.19,14.67-133.61.29-163.51-4.59-15.32-2.51-46-19.68-43.67-27.46,3.17-10.53-58.76-44.7-93.41-54.41Z"/></g><g class="cls-20"><path class="cls-19" d="M308.68,39.33c39.89,11.18,97.13,46,93.48,58.13-2.74,9.13,25,25.92,42.19,28.72,33.86,5.54,145.58,15.26,165.14-1.45,14-11.92,80.18-6.22,95.83-7.23,3.77-.25,19.73,4,23.57,5s20.8,6.68,24.74,8.79c17.46,9.38,68.44,26.34,75.26,26.19,4.17-.09,17.76,1.86,20.7,0,6.42-4,62.72,6.46,92.5,13.77,8.81,2.17,34,11.35,36,15,4.29,7.6,31.25,29.78,19.9,40.51-18.77,17.72,36.17,62.2,74.79,77.51l-.55.11c-39.3-15.1-95-59.95-76.11-77.77,11.3-10.68-15.44-32.73-19.67-40.22-2-3.57-26.76-12.6-35.45-14.73C911.53,164.37,856,154,849.64,158c-3,1.88-17-.14-21.36,0-.13,0-.65-.12-.78-.12-7,0-57.59-16.83-75-26.21-3.78-2-20.09-7.55-23.7-8.49-3.9-1-20-5.31-23.85-5.06-15.45,1-81.21-4.62-95.12,7.26-19.65,16.77-131.93,7-166.09,1.39-17.52-2.86-45.57-20.25-42.9-29.13,3.62-12-53.05-46.58-92.65-57.67Z"/></g><g class="cls-21"><path class="cls-19" d="M307.56,40.72c44.87,12.57,96.79,47.77,92.69,61.4-3.08,10.27,22.13,27.23,41.41,30.38,38.1,6.23,145.7,11.38,167.71-7.41,15.72-13.42,79.5-10.43,97.1-11.57,4.25-.27,19.74,3.71,24.06,4.79s20.73,6.66,25.17,9c19.65,10.55,68.89,27,76.56,26.87,4.7-.1,17.75,1.37,21.06-.7,7.22-4.51,60.8,4.15,94.3,12.38,9.92,2.43,34.21,11.48,36.52,15.58,4.82,8.55,27.54,31.07,14.77,43.13-21.11,19.94,25.31,65.05,68.82,82.21l-.56.14c-44.2-17-91.28-62.47-70.06-82.52,12.71-12-9.82-34.39-14.57-42.82-2.27-4-26.16-12.91-35.94-15.31-33.17-8.15-86.06-16.71-93.17-12.26-3.38,2.11-16.83.57-21.73.68-.14,0-.64-.11-.79-.11-7.93,0-56.71-16.36-76.36-26.91-4.25-2.29-20-7.68-24.11-8.73-4.39-1.13-20.05-5.18-24.35-4.9-17.38,1.12-80.73-1.8-96.38,11.56C587.61,144.51,479.47,139.31,441,133c-19.7-3.22-45.14-20.82-42.13-30.81C403,88.68,351.58,53.77,307,41.29Z"/></g><g class="cls-22"><path class="cls-19" d="M306.44,42.11c49.86,14,96.46,49.53,91.91,64.68-3.43,11.41,19.2,28.52,40.63,32,42.33,6.92,145.81,7.5,170.27-13.38,17.46-14.9,78.82-14.63,98.38-15.9,4.71-.3,19.74,3.43,24.54,4.62s20.67,6.64,25.6,9.29c21.83,11.73,69.34,27.74,77.86,27.55,5.22-.11,17.75.89,21.43-1.41,8-5,58.88,1.84,96.1,11,11,2.71,34.44,11.62,37,16.17,5.36,9.5,23.84,32.36,9.66,45.76-23.46,22.16,14.43,67.91,62.84,86.91l-.56.17c-49.12-18.87-87.6-65-64-87.26,14.12-13.34-4.2-36.07-9.48-45.43-2.52-4.47-25.56-13.23-36.42-15.89-36.87-9.06-87.06-15.83-95-10.89-3.76,2.35-16.65,1.3-22.09,1.42-.16,0-.65-.1-.81-.1-8.81,0-55.83-15.88-77.67-27.61-4.72-2.54-20-7.8-24.52-9-4.87-1.26-20.07-5-24.84-4.74-19.31,1.25-80.26,1-97.65,15.87-24.56,21-128.56,20.36-171.26,13.37-21.9-3.58-44.71-21.38-41.37-32.49,4.52-15-41.6-50.32-91.1-64.18Z"/></g><g class="cls-23"><path class="cls-24" d="M305.32,43.5c54.84,15.36,96.13,51.29,91.12,68-3.78,12.55,16.28,29.83,39.86,33.69,46.56,7.61,145.93,3.62,172.83-19.34,19.21-16.4,78.13-18.84,99.65-20.23,5.19-.34,19.75,3.14,25,4.45s20.61,6.62,26,9.54c24,12.89,69.8,28.43,79.17,28.23,5.74-.13,17.73.41,21.78-2.12,8.82-5.51,57-.48,97.9,9.57,12.12,3,34.67,11.75,37.5,16.76,5.89,10.45,20.14,33.65,4.53,48.39-25.81,24.38,3.57,70.76,56.87,91.61l-.57.2c-54-20.76-83.9-67.5-58-92,15.53-14.67,1.43-37.74-4.38-48-2.77-4.91-25-13.53-36.91-16.47-40.55-10-88.06-14.94-96.75-9.5-4.14,2.58-16.48,2-22.47,2.14-.17,0-.65-.09-.83-.09-9.69,0-55-15.4-79-28.3-5.19-2.79-20-7.93-24.93-9.21-5.36-1.38-20.09-4.92-25.34-4.58-21.24,1.37-79.78,3.85-98.91,20.18-27,23.06-126.87,27-173.85,19.36-24.08-3.94-44.27-22-40.6-34.17,5-16.55-35.88-52.19-90.33-67.44Z"/></g><g class="cls-25"><path class="cls-24" d="M304.2,44.88C364,61.65,400,97.94,394.53,116.11c-4.12,13.69,13.37,31.14,39.09,35.35,50.8,8.3,146-.26,175.39-25.31,21-17.89,77.45-23,100.92-24.56,5.66-.36,19.76,2.85,25.52,4.28s20.55,6.61,26.46,9.79c26.2,14.07,70.25,29.14,80.47,28.91,6.26-.13,17.73-.07,22.14-2.83,9.62-6,55.05-2.79,99.71,8.18,13.22,3.25,34.9,11.88,38,17.35,6.43,11.4,16.44,34.93-.59,51-28.15,26.6-7.29,73.62,50.9,96.31l-.57.23c-58.94-22.64-80.22-70-51.92-96.74,17-16,7.06-39.42.72-50.66-3-5.36-24.36-13.84-37.4-17-44.23-10.86-89.06-14.05-98.54-8.13-4.51,2.82-16.3,2.74-22.83,2.88-.19,0-.66-.08-.85-.08-10.58,0-54.07-14.92-80.28-29-5.66-3-19.92-8.06-25.33-9.46-5.85-1.51-20.12-4.79-25.84-4.42-23.18,1.5-79.31,6.67-100.18,24.48C580,151.81,484.31,160.39,433.06,152c-26.27-4.3-43.83-22.53-39.82-35.85,5.42-18-30.16-54.07-89.57-70.71Z"/></g><g class="cls-26"><path class="cls-24" d="M303.08,46.27c64.82,18.16,95.46,54.82,89.54,74.51-4.46,14.83,10.45,32.44,38.31,37,55,9,146.17-4.14,178-31.28,22.7-19.37,76.77-27.24,102.19-28.88,6.13-.4,19.77,2.56,26,4.11s20.48,6.59,26.89,10c28.38,15.24,70.7,29.83,81.78,29.59,6.78-.15,17.71-.56,22.49-3.55,10.42-6.51,53.13-5.1,101.51,6.78,14.32,3.52,35.14,12,38.48,17.94,7,12.35,12.73,36.22-5.71,53.64-30.5,28.81-18.17,76.47,44.92,101l-.58.26C983,292.91,970.35,244.91,1001,216c18.35-17.35,12.67-41.09,5.8-53.27-3.27-5.8-23.75-14.16-37.87-17.63-47.92-11.77-90.07-13.17-100.34-6.75-4.89,3.06-16.12,3.45-23.2,3.6-.21,0-.66-.07-.87-.07-11.45,0-53.19-14.43-81.57-29.68-6.15-3.3-19.89-8.18-25.75-9.7-6.34-1.63-20.13-4.66-26.34-4.26C685.77,99.82,632,107.69,609.43,127c-31.92,27.26-123.51,40.42-179,31.34C402,153.68,387,135.24,391.35,120.8c5.88-19.55-24.44-55.93-88.79-74Z"/></g><g class="cls-27"><path class="cls-24" d="M302,47.66c69.8,19.56,95.13,56.58,88.76,77.78-4.81,16,7.53,33.75,37.53,38.66,59.27,9.69,146.28-8,180.52-37.24C633.22,106,684.86,95.41,712.24,93.64c6.6-.43,19.77,2.28,26.5,4s20.41,6.57,27.31,10.28c30.57,16.41,71.15,30.53,83.08,30.27,7.31-.16,17.7-1,22.85-4.25,11.23-7,51.21-7.42,103.32,5.38,15.42,3.78,35.37,12.15,39,18.52,7.5,13.3,9,37.51-10.84,56.28-32.84,31-29,79.31,39,105.69l-.59.31C973,293.65,969,245,1002,213.83c19.77-18.67,18.3-42.76,10.9-55.87-3.52-6.25-23.15-14.47-38.36-18.21-51.61-12.68-91.06-12.29-102.13-5.38-5.26,3.3-15.94,4.17-23.56,4.34-.23,0-.66-.06-.89-.06-12.34,0-52.31-14-82.88-30.38-6.62-3.55-19.84-8.31-26.16-9.94-6.82-1.76-20.15-4.53-26.83-4.1-27,1.75-78.36,12.32-102.71,33.1C575,156.68,487.54,174.44,427.75,164.66c-30.65-5-43-23.67-38.29-39.21,6.33-21.06-18.72-57.8-88-77.22Z"/></g><g class="cls-28"><path class="cls-29" d="M300.84,49.05c74.79,21,94.8,58.34,88,81.05-5.15,17.12,4.61,35.06,36.76,40.31,63.5,10.39,146.4-11.88,183.08-43.2,26.19-22.36,75.4-35.65,104.74-37.55,7.07-.45,19.78,2,27,3.78S760.73,100,768.13,104c32.74,17.59,71.6,31.24,84.38,31,7.82-.17,17.69-1.52,23.21-5,12-7.52,49.29-9.73,105.11,4,16.53,4.06,35.61,12.29,39.46,19.12,8,14.25,5.33,38.8-16,58.9-35.19,33.24-39.9,82.17,33,110.39l-.6.34c-73.67-28.31-69.15-77.56-33.77-111,21.18-20,23.93-44.43,16-58.48-3.78-6.7-22.55-14.79-38.85-18.79-55.29-13.58-92.06-11.41-103.91-4-5.64,3.53-15.78,4.89-23.94,5.06-.24,0-.66,0-.91,0-13.21,0-51.43-13.48-84.18-31.07-7.09-3.81-19.8-8.44-26.57-10.19-7.31-1.89-20.17-4.4-27.33-3.94-29,1.87-77.89,15.14-104,37.41C572.45,159.11,489.15,181.46,425.1,171c-32.85-5.37-42.53-24.24-37.53-40.89,6.79-22.57-13-59.68-87.25-80.48Z"/></g><g class="cls-30"><path class="cls-31" d="M299.72,50.44c79.78,22.35,94.47,60.1,87.18,84.33-5.49,18.25,1.7,36.36,36,42C490.62,187.81,569.4,161,608.53,127.56c27.94-23.85,74.72-39.85,106-41.87,7.55-.49,19.79,1.7,27.48,3.61a145.31,145.31,0,0,1,28.18,10.78c34.92,18.76,72,31.93,85.68,31.63,8.35-.18,17.68-2,23.57-5.68,12.82-8,47.37-12,106.92,2.58,17.63,4.33,35.84,12.42,39.95,19.71,8.57,15.2,1.62,40.09-21.08,61.53-37.54,35.46-50.77,85,27,115.09l-.6.37c-78.59-30.2-65.46-80.08-27.73-115.72,22.6-21.35,29.55-46.11,21.1-61.1-4-7.14-21.95-15.09-39.33-19.36-59-14.49-93.07-10.53-105.71-2.62-6,3.76-15.6,5.6-24.3,5.79-.26,0-.67,0-.93,0-14.1,0-50.55-13-85.49-31.76a144.8,144.8,0,0,0-27-10.43c-7.79-2-20.18-4.27-27.82-3.78-30.9,2-77.42,18-105.24,41.71-39.29,33.55-118.45,60.49-186.78,49.31-35-5.73-42.1-24.8-36.75-42.57,7.23-24.06-7.28-61.54-86.48-83.73Z"/></g><g class="cls-32"><path class="cls-31" d="M298.6,51.82c84.76,23.75,94.13,61.87,86.39,87.61-5.83,19.4-1.22,37.66,35.21,43.62,72,11.77,146.63-19.64,188.21-55.13,29.68-25.34,74-44.06,107.29-46.21,8-.52,19.79,1.42,28,3.45a142.11,142.11,0,0,1,28.61,11c37.11,19.93,72.5,32.64,87,32.32,8.86-.19,17.67-2.48,23.92-6.39,13.63-8.52,45.45-14.37,108.73,1.18,18.72,4.6,36.06,12.55,40.43,20.29,9.11,16.15-2.08,41.38-26.2,64.16-39.88,37.67-61.64,87.88,21,119.79l-.61.4c-83.5-32.08-61.77-82.59-21.67-120.46,24-22.68,35.17-47.79,26.19-63.71-4.28-7.59-21.35-15.41-39.82-19.94-62.67-15.4-94.06-9.65-107.5-1.25-6.39,4-15.42,6.33-24.67,6.53l-.94,0c-15,0-49.68-12.52-86.8-32.46A141.41,141.41,0,0,0,744,85.94c-8.28-2.14-20.2-4.14-28.32-3.62-32.82,2.13-76.94,20.78-106.5,46C567.4,164,492.38,195.51,419.78,183.64c-37.22-6.09-41.66-25.38-36-44.25,7.69-25.57-1.56-63.42-85.71-87Z"/></g><g class="cls-33"><path class="cls-34" d="M297.48,53.21c89.75,25.14,93.8,63.63,85.61,90.89-6.18,20.53-4.15,39,34.43,45.27,76.2,12.46,146.75-23.52,190.77-61.1C639.72,101.44,681.64,80,716.85,77.74c8.49-.55,19.8,1.13,28.45,3.27a138.65,138.65,0,0,1,29,11.28c39.29,21.1,72.95,33.33,88.29,33a47.55,47.55,0,0,0,24.28-7.1c14.43-9,43.54-16.68,110.53-.22,19.83,4.87,36.3,12.69,40.93,20.89,9.64,17.09-5.79,42.66-31.33,66.78-42.22,39.89-72.5,90.73,15.07,124.49l-.61.43c-88.41-34-58.08-85.11-15.63-125.21,25.42-24,40.8-49.45,31.29-66.31-4.54-8-20.75-15.72-40.31-20.53-66.35-16.29-95.06-8.75-109.29.14a48.88,48.88,0,0,1-25,7.25c-.29,0-.67,0-1,0-15.86,0-48.79-12-88.09-33.14a138.16,138.16,0,0,0-27.8-10.92c-8.78-2.27-20.23-4-28.82-3.46C682.09,80.6,640.38,102,609.08,128.68c-44.2,37.73-115.08,73.86-192,61.29C377.72,183.52,375.9,164,381.91,144,390.05,117,386.07,78.75,297,53.79Z"/></g><g class="cls-35"><path class="cls-36" d="M296.36,54.6c94.74,26.54,93.47,65.39,84.82,94.16-6.52,21.67-7.06,40.27,33.66,46.93,80.43,13.15,146.86-27.4,193.33-67.07C641.35,100.3,680.84,76.16,718,73.76c9-.58,19.81.84,28.94,3.11a135.54,135.54,0,0,1,29.47,11.52c41.47,22.27,73.41,34,89.6,33.68,9.91-.22,17.64-3.45,24.63-7.82,15.23-9.52,41.62-19,112.34-1.62,20.93,5.14,36.53,12.83,41.41,21.48,10.18,18-9.48,43.95-36.44,69.42-44.58,42.1-83.37,93.57,9.09,129.17l-.62.47c-93.32-35.86-54.39-87.62-9.58-130,26.83-25.34,46.42-51.13,36.39-68.92-4.79-8.49-20.15-16-40.79-21.11-70-17.2-96.07-7.87-111.08,1.51-7.15,4.47-15.07,7.77-25.41,8h-1c-16.74,0-47.92-11.56-89.4-33.84a135.06,135.06,0,0,0-28.21-11.16c-9.26-2.39-20.25-3.88-29.32-3.3-36.68,2.38-76,26.43-109,54.63-46.66,39.84-113.4,80.55-194.54,67.28-41.6-6.8-40.79-26.51-34.45-47.61,8.6-28.58,9.89-67.16-84.17-93.5Z"/></g><g class="cls-37"><path class="cls-36" d="M295.24,56c99.72,27.93,93.14,67.15,84,97.43-6.86,22.82-10,41.58,32.88,48.59,84.67,13.84,147-31.28,195.9-73C643,99.17,680,72.31,719.16,69.78a98.79,98.79,0,0,1,29.42,3,133.11,133.11,0,0,1,29.9,11.76c43.66,23.45,73.86,34.74,90.9,34.36,10.43-.22,17.64-3.92,25-8.52,16-10,39.7-21.31,114.13-3,22,5.41,36.77,13,41.91,22.06,10.71,19-13.19,45.24-41.57,72-46.92,44.32-94.24,96.43,3.12,133.87l-.62.5c-98.24-37.74-50.7-90.14-3.54-134.69,28.25-26.68,52-52.8,41.49-71.54-5-8.92-19.55-16.34-41.28-21.68-73.73-18.11-97.07-7-112.87,2.89-7.52,4.7-14.89,8.48-25.78,8.71h-1c-17.62,0-47-11.07-90.7-34.53a132.86,132.86,0,0,0-28.62-11.4,97.11,97.11,0,0,0-29.81-3.13c-38.62,2.49-75.52,29.24-110.3,58.93-49.12,41.93-111.71,87.24-197.12,73.27-43.79-7.16-40.36-27.09-33.68-49.29,9-30.08,15.6-69-83.4-96.77Z"/></g><path class="cls-36" d="M1006.27,338.41c-103.15-39.63-47-92.65,2.52-139.43,29.65-28,57.67-54.48,46.57-74.15-5.28-9.37-18.95-16.65-41.76-22.26-77.41-19-98.06-6.11-114.66,4.26-7.89,4.94-14.71,9.2-26.14,9.45h-1c-18.5,0-46.16-10.6-92-35.22-20.64-11.09-40-15.88-59.34-14.62-40.55,2.62-75,32.06-111.56,63.24-51.57,44-110,93.92-199.71,79.26-46-7.52-39.92-27.66-32.91-51,9.5-31.59,21.32-70.91-82.63-100l.5-.57c104.71,29.33,92.81,68.91,83.24,100.71-7.2,23.95-12.89,42.88,32.11,50.24,88.9,14.53,147.1-35.16,198.46-79C644.6,98,679.23,68.46,720.31,65.81c19.62-1.28,39.34,3.56,60.24,14.79,45.84,24.62,74.31,35.43,92.2,35,11-.24,17.63-4.41,25.36-9.24,16.83-10.52,37.78-23.62,115.94-4.42,23.13,5.68,37,13.09,42.39,22.66,11.25,19.94-16.89,46.53-46.69,74.67-49.26,46.54-105.1,99.28-2.84,138.57Z"/></g></g></g></g></g></svg>