<svg xmlns="http://www.w3.org/2000/svg" viewBox="0 0 111.72 126.03"><defs><style>.cls-1{fill:#fff;}.cls-2{fill:#ddcdaf;}</style></defs><g id="Layer_2" data-name="Layer 2"><g id="Layer_1-2" data-name="Layer 1"><rect x="16.67" y="15.98" width="78.13" height="79.5" transform="translate(-23.08 56.18) rotate(-45.32)"/><path class="cls-1" d="M55.87,111c.11-5.29,2.7-11.34,2.7-11.34,1.43-5.38,3-7.69,3.71-8.45a5.13,5.13,0,0,0,.57-.81c2.22-3.69,6.66-6.75,10.55-8.89a58.75,58.75,0,0,1,7.21-3.35,14.67,14.67,0,0,1,2.12-6.41c3.42-5.54,3.5-8.07,3.5-8.07.54-4.1,3.35-2.92,3.35-2.92,1.84-6.47,3-7.45,3-7.45,2.59-4.75,4-1.62,4-1.62l3.13-3.45c.51-1,2.1-.63,3.08-.31a.68.68,0,0,1,.39,1,15,15,0,0,0-1.82,5.43c0,.21,0,.43-.09.64a45.78,45.78,0,0,1-1.54,6.58,24.68,24.68,0,0,0-1.1,5.24c5.84-12.31,10.16-11.34,10.16-11.34,2.15-.32,2.72.17,2.65.85"/><path d="M56.13,111a29.24,29.24,0,0,1,1.38-7.58c.33-1.08.65-2,.9-2.65l.29-.75.11-.26v0c1.42-5.35,3-7.62,3.65-8.34h0a6.22,6.22,0,0,0,.6-.85l-.22-.13.22.13c2.17-3.61,6.58-6.67,10.45-8.8,1.93-1.06,3.73-1.89,5-2.46.66-.29,1.2-.5,1.57-.65l.42-.17.15,0,.15-.06,0-.16A14.26,14.26,0,0,1,83,71.85c3.43-5.57,3.53-8.14,3.54-8.2h-.26l.25,0a3.88,3.88,0,0,1,1-2.37,1.76,1.76,0,0,1,1.26-.49,2.27,2.27,0,0,1,.57.07l.16,0h0l.26.11.08-.28A36,36,0,0,1,92,54.68a7.3,7.3,0,0,1,.59-1,1.26,1.26,0,0,1,.14-.18l0,0h0l0,0,0,0a7.92,7.92,0,0,1,1.45-2,1.56,1.56,0,0,1,1-.48,1.09,1.09,0,0,1,.79.42,2.21,2.21,0,0,1,.23.31l0,.1v0h0l.16.36,3.41-3.77,0,0a.82.82,0,0,1,.42-.38,1.86,1.86,0,0,1,.7-.12,6,6,0,0,1,1.65.31.44.44,0,0,1,.31.41.42.42,0,0,1-.06.21h0a15.66,15.66,0,0,0-1.86,5.53h0a6.17,6.17,0,0,1-.08.62h0a45.22,45.22,0,0,1-1.53,6.54,23.92,23.92,0,0,0-1.11,5.3l-.14,1.45.62-1.32c2.51-5.3,4.74-8.11,6.43-9.58s2.84-1.63,3.27-1.63h.18l0-.11,0,.11h0l0-.11,0,.11h.1a8.73,8.73,0,0,1,1.13-.09,1.93,1.93,0,0,1,1,.2.39.39,0,0,1,.21.38v.08l.51,0v-.13a.93.93,0,0,0-.44-.81,2.41,2.41,0,0,0-1.3-.28,8.27,8.27,0,0,0-1.21.1l0,.25.06-.25a2.33,2.33,0,0,0-.29,0A5.77,5.77,0,0,0,105,56.91c-1.76,1.55-4,4.41-6.55,9.75l.23.11.26,0A24.07,24.07,0,0,1,100,61.61,46.69,46.69,0,0,0,101.54,55l-.25,0,.25,0c0-.22.07-.44.09-.65l-.25,0,.25,0A15,15,0,0,1,103.42,49l-.22-.12.22.13a.9.9,0,0,0,.13-.47,1,1,0,0,0-.67-.89,5.88,5.88,0,0,0-1.8-.34,2.2,2.2,0,0,0-.89.16,1.34,1.34,0,0,0-.68.61l.22.12L99.55,48l-3.14,3.46.19.17.23-.11a2.65,2.65,0,0,0-.37-.57,1.59,1.59,0,0,0-1.18-.59,2,2,0,0,0-1.34.61,8.1,8.1,0,0,0-1.56,2.15l.22.13-.16-.2c-.08.07-1.26,1.09-3.11,7.58l.25.07.1-.23a2.62,2.62,0,0,0-1-.18,2.27,2.27,0,0,0-1.61.63A4.32,4.32,0,0,0,86,63.61h0v0h0c0,.1-.17,2.6-3.47,7.94a14.86,14.86,0,0,0-2.15,6.52l.25,0-.08-.24a58.09,58.09,0,0,0-7.26,3.36c-3.9,2.16-8.37,5.23-10.63,9h0a4.59,4.59,0,0,1-.55.78l.2.16-.2-.16c-.68.79-2.32,3.13-3.75,8.54l.24.07-.23-.1s-2.61,6.07-2.72,11.43Z"/><path d="M86.16,75.83s0-.12,0-.33,0-.5,0-.86A11.38,11.38,0,0,1,87,69.81a38.9,38.9,0,0,0,1.86-4.4c.29-.84.56-1.66.75-2.39a7.91,7.91,0,0,0,.31-1.82,1.15,1.15,0,0,0-.12-.6l-.44.25a.89.89,0,0,1,0,.35,7.43,7.43,0,0,1-.3,1.69,37.91,37.91,0,0,1-2.57,6.68,11.91,11.91,0,0,0-.93,5.07c0,.73,0,1.23,0,1.23l.51,0Z"/><path d="M91.52,71.76s0-.05,0-.16A43.62,43.62,0,0,1,93,62.84l-.25-.06.24.08,3.89-11.13-.48-.16L92.47,62.7h0a42.15,42.15,0,0,0-1.46,9Z"/><path d="M101,68.56a3.44,3.44,0,0,0-1-1l0,0h0a2.16,2.16,0,0,0-.79-.14,2,2,0,0,0-1.3.47,7.23,7.23,0,0,1-1,.72A15.11,15.11,0,0,0,95.2,69.7a5,5,0,0,0-.7.67,1.23,1.23,0,0,0-.32.74.76.76,0,0,0,0,.15v0l1.34,1.88a1,1,0,0,0,.79.4.89.89,0,0,0,.32,0h0l2.25-1A2.88,2.88,0,0,1,98,74.32l-8.88,7.82h0a6.35,6.35,0,0,0-1,.83,60,60,0,0,0-4.61,5.8c-.93,1.28-1.73,2.43-2.21,3.13a1.57,1.57,0,0,1,.48.2c.72-1,2.07-3,3.48-4.85.8-1.06,1.62-2.11,2.35-3a10.1,10.1,0,0,1,1.77-1.74h0l8.9-7.84a3.32,3.32,0,0,0,1.12-2.37,6.28,6.28,0,0,0,.89-.72,3.78,3.78,0,0,0,.69-.87,2.26,2.26,0,0,0,.33-1.13A2,2,0,0,0,101,68.56Zm-.45,1.93a4.22,4.22,0,0,1-.94,1.06,4.5,4.5,0,0,1-.41.3l-.12.08,0,0-2.6,1.11-.15,0a.47.47,0,0,1-.37-.19l-1.27-1.78a.77.77,0,0,1,.21-.42,5.59,5.59,0,0,1,1-.9c.41-.3.86-.58,1.21-.79a9.15,9.15,0,0,0,1.05-.77,1.42,1.42,0,0,1,1-.35,2.21,2.21,0,0,1,.43.05l.13,0h0a3.21,3.21,0,0,1,.87.86,1.47,1.47,0,0,1,.24.78A1.79,1.79,0,0,1,100.57,70.49Z"/><path d="M98.16,67.37H97.9c-.74,0-3,.32-6.16,3.67l.19.17L91.77,71l-.73.6c-.67.55-1.71,1.4-2.72,2.19a27.79,27.79,0,0,1-2.54,1.83l.13.22-.1-.23-5.3,2.26.2.47L86,76.08h0A18,18,0,0,0,87.64,75c1.91-1.43,4.45-3.56,4.45-3.56h0c3.07-3.27,5.19-3.51,5.78-3.51h.17l0-.09,0,.09h0l0-.09,0,.09.09-.51Z"/><path class="cls-1" d="M55.87,111c-.11-5.29-2.7-11.34-2.7-11.34-1.43-5.38-3.05-7.69-3.7-8.45a5.19,5.19,0,0,1-.58-.81c-2.22-3.69-6.66-6.75-10.54-8.89a59.24,59.24,0,0,0-7.22-3.35A14.67,14.67,0,0,0,29,71.71c-3.42-5.54-3.5-8.07-3.5-8.07-.53-4.1-3.34-2.92-3.34-2.92-1.84-6.47-3-7.45-3-7.45-2.59-4.75-4-1.62-4-1.62L12,48.2c-.51-1-2.09-.63-3.07-.31a.68.68,0,0,0-.4,1,15.34,15.34,0,0,1,1.83,5.43c0,.21,0,.43.08.64A47.21,47.21,0,0,0,12,61.53a23.5,23.5,0,0,1,1.1,5.24C7.26,54.46,2.94,55.43,2.94,55.43c-2.16-.32-2.73.17-2.66.85"/><path d="M56.13,111c-.12-5.36-2.72-11.42-2.72-11.43l-.24.1.25-.07C52,94.14,50.35,91.8,49.66,91l-.19.16.19-.16a6.08,6.08,0,0,1-.55-.78h0c-2.27-3.76-6.74-6.83-10.64-9a58.38,58.38,0,0,0-7.25-3.36l-.09.24.25,0a14.86,14.86,0,0,0-2.15-6.52,30.59,30.59,0,0,1-3-6.06,10.94,10.94,0,0,1-.39-1.44c0-.16,0-.27,0-.34v-.1h0v0h0a4.38,4.38,0,0,0-1.11-2.67,2.27,2.27,0,0,0-1.61-.63,2.62,2.62,0,0,0-1,.18l.1.23.24-.07c-1.85-6.49-3-7.51-3.11-7.58l-.16.2.23-.13A8.09,8.09,0,0,0,17.8,51a2,2,0,0,0-1.33-.61,1.59,1.59,0,0,0-1.18.59,3,3,0,0,0-.38.57l.24.11.18-.17L12.2,48,12,48.2l.23-.12a1.43,1.43,0,0,0-.68-.61,2.28,2.28,0,0,0-.9-.16,5.94,5.94,0,0,0-1.8.34.94.94,0,0,0-.66.89,1,1,0,0,0,.12.47l.22-.13L8.32,49a14.81,14.81,0,0,1,1.79,5.34l.26,0-.26,0c0,.21.05.43.09.65l.25,0-.25,0a46.69,46.69,0,0,0,1.55,6.62,23.5,23.5,0,0,1,1.09,5.19l.25,0,.23-.11c-2.53-5.34-4.78-8.2-6.55-9.75a5.76,5.76,0,0,0-3.6-1.75,2.33,2.33,0,0,0-.29,0l.06.25,0-.25a8.27,8.27,0,0,0-1.21-.1,2.41,2.41,0,0,0-1.3.28,1,1,0,0,0-.44.82v.13l.51-.05v-.08a.43.43,0,0,1,.21-.39,2,2,0,0,1,1-.2,8.86,8.86,0,0,1,1.14.09H3l0-.11,0,.11H3l0-.11,0,.11h.18c.42,0,1.57.15,3.27,1.63s3.91,4.28,6.42,9.58l.63,1.32-.14-1.45a25.11,25.11,0,0,0-1.11-5.3,45.22,45.22,0,0,1-1.53-6.54h0c0-.2-.06-.41-.08-.62h0a15.45,15.45,0,0,0-1.86-5.53h0a.41.41,0,0,1,0-.21A.43.43,0,0,1,9,48.13a5.82,5.82,0,0,1,1.64-.31,1.83,1.83,0,0,1,.7.12.84.84,0,0,1,.43.38v0l3.42,3.77.16-.36h0a1.9,1.9,0,0,1,.33-.48,1.06,1.06,0,0,1,.76-.38,1.52,1.52,0,0,1,1,.48,7.66,7.66,0,0,1,1.46,2l0,0,0,0h0c.08.07,1.22,1.28,2.94,7.33l.08.28.27-.11h0a2.2,2.2,0,0,1,.78-.14,1.74,1.74,0,0,1,1.25.49,3.82,3.82,0,0,1,1,2.37l.25,0h-.25c0,.06.1,2.63,3.54,8.2a14.38,14.38,0,0,1,2.08,6.29v.16l.15.06.15,0a59.8,59.8,0,0,1,7,3.28c3.86,2.13,8.27,5.19,10.44,8.8l.22-.13-.22.13a6.48,6.48,0,0,0,.6.85h0c.63.72,2.23,3,3.66,8.34v0l.11.26c.49,1.22,2.48,6.42,2.57,11Z"/><path d="M26.09,75.87s0-.5,0-1.23a11.76,11.76,0,0,0-.93-5.07,38.71,38.71,0,0,1-1.83-4.33c-.29-.83-.55-1.64-.74-2.35a6.79,6.79,0,0,1-.29-1.69.72.72,0,0,1,.05-.35l-.45-.25a1.26,1.26,0,0,0-.11.6A7.91,7.91,0,0,0,22.14,63a38.86,38.86,0,0,0,2.61,6.79,11.37,11.37,0,0,1,.87,4.83c0,.36,0,.66,0,.86s0,.33,0,.33l.51,0Z"/><path class="cls-1" d="M20.48,71.75a42.1,42.1,0,0,0-1.45-9L15.14,51.65"/><path d="M20.73,71.75a42.44,42.44,0,0,0-1.45-9h0l-3.9-11.13-.48.16,3.89,11.13.24-.08-.24.06A53.91,53.91,0,0,1,20,69.36c.09.77.14,1.38.17,1.78,0,.21,0,.36,0,.46v.16Z"/><path d="M13.49,67.78l0-.1,0,.1h0l0-.1,0,.1h.11c.52,0,2.83.2,6,3.61h0s1.13.95,2.45,2c.66.53,1.37,1.08,2,1.56a18.12,18.12,0,0,0,1.6,1.11h0L31,78.35l.2-.47-5.29-2.26-.1.23.13-.22c-.36-.21-.93-.6-1.56-1.07-.95-.72-2.06-1.6-2.93-2.31l-1.08-.89L20,71l-.16.19L20,71c-3.28-3.49-5.74-3.77-6.4-3.77h-.18l.07.51Z"/><path d="M29.18,89.5S28.07,88,26.7,86.32c-.69-.84-1.44-1.72-2.15-2.47a11.16,11.16,0,0,0-1.92-1.73l-.14.21.17-.19-8.89-7.82a2.86,2.86,0,0,1-1-2.14V72L12.68,72h0a6.2,6.2,0,0,1-1-.79,2.41,2.41,0,0,1-.79-1.55,1.56,1.56,0,0,1,.24-.78,3.13,3.13,0,0,1,.9-.87l-.15-.21L12,68v0h0v0a2,2,0,0,1,.6-.1,1.45,1.45,0,0,1,1,.35,8.24,8.24,0,0,0,1,.77,13.68,13.68,0,0,1,1.62,1.1,4.47,4.47,0,0,1,.62.59.86.86,0,0,1,.21.42v0l.24,0-.2-.14-1.31,1.83a.47.47,0,0,1-.38.19l-.14,0-.09.24.1-.24-2.63-1.12-.2.47,2.64,1.13h0a.84.84,0,0,0,.31,0,1,1,0,0,0,.79-.4l1.34-1.88v0a.77.77,0,0,0,0-.15,1.24,1.24,0,0,0-.33-.74,5.73,5.73,0,0,0-1.11-1c-.44-.32-.89-.6-1.26-.82a6.58,6.58,0,0,1-1-.72,2,2,0,0,0-1.3-.47,2.18,2.18,0,0,0-.8.14h0l0,0a3.61,3.61,0,0,0-1,1,1.87,1.87,0,0,0-.31,1,2.26,2.26,0,0,0,.32,1.13,5.34,5.34,0,0,0,1.69,1.65l.13-.21H12.3a3.35,3.35,0,0,0,1.14,2.52l8.9,7.84h0a10.7,10.7,0,0,1,1.83,1.65c1.05,1.11,2.2,2.51,3.08,3.63l1.09,1.41.42.56.41-.3Z"/><path class="cls-1" d="M39.36,66.67c4-2,10.36-2.92,17.45,4.48a.28.28,0,0,1,0,.38c-1.25,1.17-8.3,7.56-12.66,6.65a.21.21,0,0,1-.12-.07l-5.5-4.77A4,4,0,0,1,39.36,66.67Z"/><circle class="cls-2" cx="55.38" cy="59.88" r="5.05"/><path class="cls-2" d="M50.33,59.88h-.77a5.82,5.82,0,1,0,5.82-5.82,5.82,5.82,0,0,0-5.82,5.82h1.53a4.3,4.3,0,1,1,1.26,3,4.28,4.28,0,0,1-1.26-3Z"/><path class="cls-2" d="M70.47,67.16l.36-.67a12,12,0,0,0-10-.77,13.72,13.72,0,0,0-6,4.29A21.55,21.55,0,0,1,50.63,74,11.74,11.74,0,0,1,44,76.21h-.3l-2.28-.07L54.87,87,71.51,72.63a3.75,3.75,0,0,0,1.3-2.84,3.81,3.81,0,0,0-.5-1.88,3.62,3.62,0,0,0-1.48-1.42l-.36.67-.36.68a2.22,2.22,0,0,1,1.17,2,2.16,2.16,0,0,1-.77,1.68L54.84,85,44.19,76.37l-.48.6,0,.76H44a13.23,13.23,0,0,0,7.45-2.52A22.31,22.31,0,0,0,56.05,71a12.25,12.25,0,0,1,5.32-3.82A10.57,10.57,0,0,1,65,66.51a10.8,10.8,0,0,1,5.11,1.33Z"/><path d="M37.91,99.23c-3,3-7.27,4.08-10.63.71-3.06-3.07-2.37-7.33.76-10.46s7.34-3.86,10.57-.62C41.6,91.85,41.09,96.06,37.91,99.23ZM29,90.34c-2.51,2.5-3.5,6.25-.89,8.87,2.82,2.83,6.31,1.71,8.9-.87s3.43-6.1.8-8.73C35,86.8,31.45,87.88,29,90.34Z"/><path d="M66.68,93.24l3.52-3.7c2.92-3.06,7.07-3.14,10.42,0s3.7,7.48.73,10.61l-3.51,3.68Zm11.18,9,2.57-2.69c2.81-3,2.12-6.38-.64-9-2.46-2.33-6-3.2-8.93-.1l-2.57,2.69Z"/><path d="M61.47,121.74A5.63,5.63,0,0,1,55.68,126c-4.43,0-6.76-3.52-6.76-7.86,0-4.16,2.29-8,6.78-8,3.33,0,5.29,1.85,5.79,4.43H60.3a4.46,4.46,0,0,0-4.66-3.33c-3.84,0-5.44,3.51-5.44,6.83s1.58,6.78,5.52,6.78a4.53,4.53,0,0,0,4.56-3.19Z"/></g></g></svg>