<svg xmlns="http://www.w3.org/2000/svg" xmlns:xlink="http://www.w3.org/1999/xlink" viewBox="0 0 484.62 426.58"><defs><style>.cls-1{fill:none;}.cls-2{clip-path:url(#clip-path);}.cls-3{fill:#f3f1ec;}.cls-4{fill:#fff;}.cls-5{opacity:0.8;}.cls-6{fill:#ddcdaf;}.cls-7{opacity:0.82;}.cls-8{opacity:0.86;}</style><clipPath id="clip-path"><path class="cls-1" d="M425.81,177.49a28.27,28.27,0,0,1,11.33,10.88A29.08,29.08,0,0,1,441,202.9a28.53,28.53,0,0,1-10,21.83L227.27,400.06,108.76,304.49c28.52-4.32,53.83-16.58,75-31.05,26.45-18.12,46.65-39.81,59.23-55.12,18.46-22.48,42.15-40,69.2-49.69a139.57,139.57,0,0,1,47.16-8.42c26.19,0,48.78,7.84,66.48,17.28"/></clipPath></defs><g id="Layer_2" data-name="Layer 2"><g id="Layer_1-2" data-name="Layer 1"><g class="cls-2"><rect class="cls-3" x="47.19" y="134.96" width="437.42" height="291.62"/><g id="School_supplies" data-name="School supplies"><path class="cls-4" d="M261,324.36c1.08,3.11,3.72,7.9,3.13,8.87s-6.76-1.9-10.51-1.33-10.06,3.77-5.55,14.28c3.71,8.64,19.13,24.55,39.41,19,41.56-11.39,10.77-53.85-14.36-49.7C261.76,317.35,259.89,321.26,261,324.36Zm14.51,8.8c3,.57,5.18,2.44,4.9,4.17s-2.94,2.68-5.93,2.11-5.18-2.43-4.9-4.17S272.49,332.6,275.48,333.16Z"/><path d="M302.69,357.38c-3.48,3.48-8.57,6.15-15.19,8a32,32,0,0,1-26.07-4.2c-7.27-4.63-11.85-10.92-13.55-14.89-1.88-4.37-2.09-7.91-.64-10.53,1.67-3,5-3.81,6.32-4,2.06-.31,4.79.38,7,.94,1.5.38,3.19.81,3.4.48.33-.55-.73-3-1.67-5.1-.37-.85-.75-1.72-1.08-2.53a.18.18,0,0,1,.34-.14c.32.8.71,1.68,1.08,2.52,1.29,2.94,2,4.77,1.64,5.44s-1.53.26-3.8-.32-4.86-1.23-6.85-.93c-1.28.2-4.45,1-6.05,3.83-1.39,2.52-1.18,5.95.65,10.2,4,9.25,19.54,24.27,39.19,18.88,15-4.1,22.2-13,19.83-24.38-1.38-6.62-6.05-13.51-12.48-18.45-6.72-5.16-14.45-7.55-21.22-6.57a.2.2,0,0,1-.21-.16.18.18,0,0,1,.16-.2c6.87-1,14.7,1.42,21.49,6.64,6.5,5,11.22,12,12.61,18.66a17.8,17.8,0,0,1-2.78,14.37A19.65,19.65,0,0,1,302.69,357.38Z"/><ellipse cx="257.3" cy="339.76" rx="3.82" ry="3.94" transform="translate(-88.28 90.34) rotate(-17.04)"/><path d="M264.93,354.18a3.87,3.87,0,0,1-1.62,1,4.08,4.08,0,0,1-5-2.77,4.14,4.14,0,0,1,.27-3.13,3.93,3.93,0,0,1,5.42-1.67,4.21,4.21,0,0,1,1,6.6Zm-5.4-5.69a3.69,3.69,0,0,0-.67.92,3.83,3.83,0,0,0-.24,2.86,3.64,3.64,0,1,0,7-2.13,3.77,3.77,0,0,0-1.8-2.24,3.56,3.56,0,0,0-2.78-.29A3.51,3.51,0,0,0,259.53,348.49Z"/><path d="M276,360.9a3.94,3.94,0,0,1-4.68.65,4.2,4.2,0,0,1-2-2.45,4,4,0,1,1,7.66-2.35,4.18,4.18,0,0,1-.26,3.13A4,4,0,0,1,276,360.9Zm-5.4-5.69a3.84,3.84,0,0,0,.89,6,3.58,3.58,0,0,0,4.92-1.51,3.78,3.78,0,0,0,.24-2.86,3.63,3.63,0,0,0-6.05-1.65Z"/><path class="cls-4" d="M288.07,360.44a4,4,0,0,1-1.62,1,3.9,3.9,0,0,1-3.06-.33,4.19,4.19,0,0,1-2-2.44,4,4,0,1,1,7.66-2.35,4.15,4.15,0,0,1-.26,3.13A4.44,4.44,0,0,1,288.07,360.44Zm-5.39-5.69a3.8,3.8,0,0,0-.92,3.78,3.85,3.85,0,0,0,1.8,2.23,3.55,3.55,0,0,0,4.92-1.51,3.81,3.81,0,0,0,.25-2.85,3.71,3.71,0,0,0-4.59-2.53A3.45,3.45,0,0,0,282.68,354.75Z"/><path class="cls-4" d="M239.78,328.25l-.52-5.63,34.56-1.31,5.54,1.24s-5.09,2-5.36,2Z"/><path d="M279.49,322.68l-.06,0c-.86.34-5.13,2-5.4,2l-34.23,3.66a.18.18,0,0,1-.14,0,.17.17,0,0,1-.06-.12l-.52-5.63a.19.19,0,0,1,0-.14.2.2,0,0,1,.13-.06l34.55-1.31h.05l5.54,1.24a.18.18,0,0,1,.14.17A.16.16,0,0,1,279.49,322.68Zm-39.55,5.37,34-3.64c.22,0,2.79-1,4.76-1.81l-4.94-1.11-34.34,1.31Z"/><path d="M247.56,327.56a.16.16,0,0,1-.11.05l-7.65.82a.18.18,0,0,1-.14,0,.17.17,0,0,1-.06-.12l-.52-5.63a.19.19,0,0,1,0-.14.2.2,0,0,1,.13-.06l7.65-.29a.19.19,0,0,1,.19.16l.51,5.1A.25.25,0,0,1,247.56,327.56Zm-7.62.49,7.29-.78-.48-4.75-7.29.28Z"/><path d="M232.65,331.81c4-.4,6.25-1.75,7.18-3.54h0l-.55-5.68h0c-1.27-1.6-3.73-2.53-7.81-2.13-6.05.59-14,7.09-14,7.09S226.6,332.4,232.65,331.81Z"/><path d="M284.7,335.91a.18.18,0,0,1-.22,0L195,285.2a.2.2,0,0,1-.09-.11.24.24,0,0,1,0-.14l9.22-16.25a.18.18,0,0,1,.25-.07l89.47,50.74a.21.21,0,0,1,.08.11.17.17,0,0,1,0,.14l-9.22,16.25ZM195.35,285l89.15,50.56,9-15.93L204.39,269Z"/><path d="M282.81,318.13a.17.17,0,0,1-.22,0,.18.18,0,0,1-.07-.25l2.06-3.44a.18.18,0,1,1,.31.18l-2.05,3.45Z"/><path d="M280.54,316.9a.18.18,0,0,1-.28-.22l2.16-3.44a.17.17,0,0,1,.25-.06.19.19,0,0,1,.06.25l-2.16,3.44Z"/><path d="M278.48,315.68a.18.18,0,0,1-.22,0,.19.19,0,0,1-.07-.25l2.06-3.45a.18.18,0,0,1,.25-.06.19.19,0,0,1,.06.25l-2.05,3.44Z"/><path d="M276.09,315.38a.18.18,0,0,1-.22,0,.17.17,0,0,1-.06-.25l2.49-4a.18.18,0,0,1,.31.19l-2.49,4Z"/><path d="M268.27,309.89a.19.19,0,0,1-.29-.23l2.06-3.44a.18.18,0,0,1,.25-.06.19.19,0,0,1,.06.25l-2.05,3.44Z"/><path d="M265.65,310a.2.2,0,0,1-.23,0,.19.19,0,0,1-.06-.25l2.73-4.45a.18.18,0,0,1,.31.19L265.67,310Z"/><path d="M274.36,313.56a.18.18,0,0,1-.28-.22l2.05-3.45a.19.19,0,0,1,.25-.06.18.18,0,0,1,.07.25l-2.06,3.45Z"/><path d="M272.1,312.33a.2.2,0,0,1-.23,0,.19.19,0,0,1-.06-.26l2.16-3.44a.19.19,0,0,1,.25-.06.19.19,0,0,1,.06.26l-2.16,3.44Z"/><path d="M270.12,310.94a.18.18,0,0,1-.28-.22l2.05-3.45a.19.19,0,0,1,.25-.06.18.18,0,0,1,.07.25l-2.06,3.44Z"/><path d="M264.45,307.78a.17.17,0,0,1-.22,0,.18.18,0,0,1-.06-.25l2.16-3.44a.19.19,0,0,1,.25-.06.19.19,0,0,1,.06.25l-2.16,3.45Z"/><path d="M262.39,306.55a.18.18,0,0,1-.29-.22l2.06-3.44a.18.18,0,1,1,.31.18l-2.05,3.45Z"/><path d="M260.12,305.32a.18.18,0,0,1-.28-.22l2.16-3.45a.18.18,0,0,1,.3.2l-2.15,3.44Z"/><path d="M258.06,304.1a.19.19,0,0,1-.23,0,.19.19,0,0,1-.06-.25l2.06-3.44a.18.18,0,0,1,.25-.06.19.19,0,0,1,.06.25l-2.06,3.44Z"/><path d="M255.67,303.8a.2.2,0,0,1-.23,0,.18.18,0,0,1-.05-.25l2.49-4a.18.18,0,0,1,.31.19l-2.49,4Z"/><path d="M247.85,298.31a.19.19,0,0,1-.23,0,.19.19,0,0,1-.06-.25l2.06-3.44a.17.17,0,0,1,.25-.06.19.19,0,0,1,.06.25l-2.06,3.44A.08.08,0,0,1,247.85,298.31Z"/><path d="M245.23,298.42a.2.2,0,0,1-.23,0,.19.19,0,0,1-.06-.25l2.73-4.45a.18.18,0,0,1,.25-.06.19.19,0,0,1,.06.25l-2.73,4.45Z"/><path d="M253.94,302a.18.18,0,0,1-.22,0,.17.17,0,0,1-.06-.25l2.05-3.45a.19.19,0,0,1,.25-.06.18.18,0,0,1,.07.25L254,301.94Z"/><path d="M251.68,300.75a.18.18,0,0,1-.23,0,.18.18,0,0,1-.06-.25l2.16-3.44a.19.19,0,0,1,.25-.06.19.19,0,0,1,.06.25l-2.16,3.45Z"/><path d="M249.7,299.36a.18.18,0,0,1-.28-.22l2.05-3.45a.19.19,0,0,1,.25-.06.18.18,0,0,1,.07.25l-2.06,3.44Z"/><path d="M244,296.2a.17.17,0,0,1-.22,0,.18.18,0,0,1-.06-.25l2.16-3.44a.18.18,0,0,1,.25-.06.19.19,0,0,1,.06.25l-2.16,3.45Z"/><path d="M242,295a.18.18,0,0,1-.29-.22l2.06-3.44a.18.18,0,0,1,.25-.07.19.19,0,0,1,.06.25L242,294.94Z"/><path d="M239.7,293.74a.18.18,0,0,1-.22,0,.17.17,0,0,1-.06-.25l2.15-3.45a.19.19,0,0,1,.26-.05.18.18,0,0,1,0,.25l-2.15,3.44Z"/><path d="M237.64,292.52a.19.19,0,0,1-.23,0,.19.19,0,0,1-.06-.25l2.06-3.44a.17.17,0,0,1,.25-.06.19.19,0,0,1,.06.25l-2.06,3.44Z"/><path d="M235.25,292.22a.2.2,0,0,1-.23,0A.2.2,0,0,1,235,292l2.5-4a.18.18,0,0,1,.25-.06.19.19,0,0,1,.06.25l-2.5,4Z"/><path d="M227.43,286.73a.19.19,0,0,1-.23,0,.19.19,0,0,1-.06-.25l2.06-3.44a.17.17,0,0,1,.25-.06.19.19,0,0,1,.06.25l-2.06,3.44Z"/><path d="M224.81,286.84a.2.2,0,0,1-.23,0,.19.19,0,0,1-.06-.25l2.73-4.45a.18.18,0,0,1,.25-.06.19.19,0,0,1,.06.25l-2.73,4.45Z"/><path d="M233.52,290.4a.18.18,0,0,1-.22,0,.17.17,0,0,1-.06-.25l2-3.45a.19.19,0,0,1,.25-.06.17.17,0,0,1,.06.25l-2,3.44Z"/><path d="M231.25,289.17a.17.17,0,0,1-.22,0,.18.18,0,0,1-.06-.25l2.16-3.44a.19.19,0,0,1,.25-.06.19.19,0,0,1,.06.25l-2.16,3.45Z"/><path d="M229.28,287.78a.18.18,0,0,1-.22,0,.17.17,0,0,1-.06-.25l2.05-3.45a.19.19,0,0,1,.32.19l-2.06,3.44Z"/><path d="M223.61,284.62a.17.17,0,0,1-.22,0,.18.18,0,0,1-.06-.25l2.15-3.44a.19.19,0,0,1,.26-.06.18.18,0,0,1,0,.25l-2.15,3.44Z"/><path d="M221.55,283.39a.2.2,0,0,1-.23,0,.19.19,0,0,1-.06-.25l2.06-3.45a.18.18,0,0,1,.31.19l-2.06,3.45Z"/><path d="M219.28,282.16a.2.2,0,0,1-.23,0,.19.19,0,0,1-.05-.26l2.15-3.44a.18.18,0,0,1,.25-.05.17.17,0,0,1,.06.25l-2.15,3.44Z"/><path d="M217.22,280.94a.19.19,0,0,1-.23,0,.19.19,0,0,1-.06-.25l2.06-3.44a.18.18,0,0,1,.25-.07.19.19,0,0,1,.06.25l-2.06,3.45Z"/><path d="M214.83,280.64a.18.18,0,0,1-.23,0,.19.19,0,0,1-.06-.25l2.5-4a.17.17,0,0,1,.25-.06.19.19,0,0,1,.06.25l-2.5,4Z"/><path d="M207,275.14a.17.17,0,0,1-.22,0,.19.19,0,0,1-.06-.25l2.05-3.44a.18.18,0,1,1,.32.18L207,275.11Z"/><path d="M204.38,275.26a.18.18,0,0,1-.22,0,.19.19,0,0,1-.06-.26l2.73-4.44a.17.17,0,0,1,.25-.06.19.19,0,0,1,.06.25l-2.73,4.44Z"/><path d="M213.1,278.82a.18.18,0,0,1-.22,0,.19.19,0,0,1-.07-.25l2.06-3.45a.19.19,0,0,1,.25-.06.18.18,0,0,1,.06.25l-2.05,3.44Z"/><path d="M210.83,277.59a.17.17,0,0,1-.22,0,.18.18,0,0,1-.06-.25l2.16-3.44a.18.18,0,0,1,.25-.06.19.19,0,0,1,.06.25l-2.16,3.44Z"/><path d="M208.86,276.2a.18.18,0,0,1-.28-.23l2-3.44a.18.18,0,0,1,.25-.06.17.17,0,0,1,.06.25l-2.05,3.44Z"/><path d="M289.54,322.7a1.62,1.62,0,0,1-1.37.53l-69.77-10a.24.24,0,0,1-.12-.07.17.17,0,0,1,0-.14l1.08-7.43a.18.18,0,0,1,.2-.16l69.77,10a2.1,2.1,0,0,1,1.5,2.2,10.77,10.77,0,0,1-.57,3.9A3,3,0,0,1,289.54,322.7Zm-70.91-9.8,69.59,10c.66.09,1.34-.5,1.66-1.45a10.27,10.27,0,0,0,.55-3.77c0-1-.52-1.76-1.18-1.85l-69.59-10Z"/><path d="M275,319.09a.17.17,0,0,1-.15.05l-29.49-4.22a.19.19,0,0,1-.16-.21.18.18,0,0,1,.21-.15l29.49,4.22a.18.18,0,0,1,.15.21A.14.14,0,0,1,275,319.09Z"/><path d="M238.77,313.9a.18.18,0,0,1-.16.05l-12.8-1.83a.18.18,0,1,1,.06-.36l12.8,1.83a.19.19,0,0,1,.15.21A.16.16,0,0,1,238.77,313.9Z"/><path d="M284,317.62a.18.18,0,0,1-.16.05l-49-7a.19.19,0,0,1,.05-.37l49,7a.18.18,0,0,1,.16.2A.37.37,0,0,1,284,317.62Z"/><path d="M218.55,313.18a.18.18,0,0,1-.18.05l-13.77-3.74a.23.23,0,0,1-.12-.1.2.2,0,0,1,0-.15,5.53,5.53,0,0,0,.44-1.63,10.69,10.69,0,0,0,.12-2.19.17.17,0,0,1,0-.07.18.18,0,0,1,.18-.18h0l14.27.27a.19.19,0,0,1,.18.15,12.17,12.17,0,0,1-1.1,7.55Zm-13.66-4,13.43,3.65a11.71,11.71,0,0,0,1-7l-13.92-.26a12,12,0,0,1-.14,2.12A5.91,5.91,0,0,1,204.89,309.19Z"/><path d="M205.18,307.37a8.06,8.06,0,0,0,0-2l-8.73-.17c-.77,0-1,1.64-.27,1.84l8.43,2.29A8.29,8.29,0,0,0,205.18,307.37Z"/><rect x="216.86" y="258.51" width="0.65" height="3.02" rx="0.32" transform="translate(-120.25 229.73) rotate(-45)"/><g class="cls-5"><path class="cls-6" d="M255.26,302.74a2.18,2.18,0,0,0,.49.81l4.06,4.13,8-8.83-4.5-3.79a1.88,1.88,0,0,0-.86-.42l-.34-.08a2,2,0,0,1-1.47-1.32l0-.08a2,2,0,0,0-.61-.89L227.21,264.6a7.19,7.19,0,0,0-1.44-.92l-.1,0c-1.34,1.61-2.81,3.1-4.18,4.69l.23.39a3.79,3.79,0,0,0,.64.85l30.21,30.69a2,2,0,0,0,1,.56,2,2,0,0,1,1.5,1.36Z"/><path class="cls-6" d="M259.94,307.81a.18.18,0,0,1-.12.05.24.24,0,0,1-.14-.05l-4.06-4.14a2.15,2.15,0,0,1-.53-.88l-.18-.55a1.82,1.82,0,0,0-1.36-1.24,2.22,2.22,0,0,1-1.11-.61L222.23,269.7a4.16,4.16,0,0,1-.67-.89l-.23-.39a.2.2,0,0,1,0-.21c.6-.7,1.23-1.38,1.83-2,.79-.86,1.6-1.74,2.35-2.65a.17.17,0,0,1,.22,0l.1,0a7.06,7.06,0,0,1,1.47.94l32.83,27.67a2.18,2.18,0,0,1,.67,1l0,.09a1.83,1.83,0,0,0,1.34,1.19l.34.08a2.12,2.12,0,0,1,.94.46l4.5,3.79a.2.2,0,0,1,.06.13.15.15,0,0,1,0,.13l-8,8.83Zm-38.23-39.46.17.28a3.45,3.45,0,0,0,.61.81l30.21,30.69a1.8,1.8,0,0,0,.92.51,2.19,2.19,0,0,1,1.64,1.49l.18.55a1.8,1.8,0,0,0,.44.74l3.93,4,7.78-8.54-4.36-3.67a1.85,1.85,0,0,0-.78-.39l-.34-.07a2.18,2.18,0,0,1-1.6-1.44l0-.08a1.85,1.85,0,0,0-.56-.81l-32.83-27.67a6.39,6.39,0,0,0-1.37-.88c-.73.88-1.51,1.73-2.27,2.55C222.88,267,222.28,267.69,221.71,268.35Zm33.55,34.39Z"/></g><path d="M271.61,314.65a3.37,3.37,0,0,1-2.28,1,3.52,3.52,0,0,1-2.54-1l-7.28-6.95a.19.19,0,0,1,0-.26l8.18-8.78a.16.16,0,0,1,.13-.06.21.21,0,0,1,.13,0l7.28,7a3.53,3.53,0,0,1,.2,4.95l-3.74,4Zm-4.56-.27a3.06,3.06,0,0,0,2.26.88,2.93,2.93,0,0,0,2.11-.95l3.75-4a3.17,3.17,0,0,0-.19-4.43L267.83,299l-7.93,8.52Z"/><path class="cls-4" d="M256.05,299.81a.18.18,0,0,1-.25,0,.19.19,0,0,1,0-.26l3.92-4.11a.18.18,0,0,1,.27.25l-3.92,4.11Z"/><path class="cls-4" d="M269.26,312.61a.18.18,0,0,1-.25,0l-5.54-5.35a.19.19,0,0,1,.26-.27l5.53,5.36a.19.19,0,0,1,0,.26Z"/><path d="M216.93,260.27l4.56,8.06c1.37-1.59,2.84-3.08,4.18-4.69l-8.22-3.88Z"/><path d="M254.38,254.83l-10.81,10.81a6.46,6.46,0,0,0,0,9.15l3,3,2.65-2.65-1.84-1.83a4.81,4.81,0,0,1-.29-6.79l7.67-7.68a4.82,4.82,0,0,1,6.79.3l1.83,1.83,3.14-3.14-3-3A6.45,6.45,0,0,0,254.38,254.83Z"/><path class="cls-6" d="M351.61,314.46,301.77,364.3a5.06,5.06,0,0,1-7.23-.38l-60.67-63.78a8.3,8.3,0,0,1,.17-11.62l42.57-42.13a8.77,8.77,0,0,1,12.18-.15l62.31,58.84A6.57,6.57,0,0,1,351.61,314.46Z"/><path d="M351.74,314.59,301.9,364.43a4.8,4.8,0,0,1-3.51,1.39,5.64,5.64,0,0,1-4-1.77l-60.66-63.78a8.54,8.54,0,0,1,.14-11.85l0,0,42.57-42.13a8.91,8.91,0,0,1,12.43-.15L351.22,305a7.28,7.28,0,0,1,2.31,5.13A6.2,6.2,0,0,1,351.74,314.59Zm-117.6-25.91A8.16,8.16,0,0,0,234,300l60.67,63.79a5.3,5.3,0,0,0,3.73,1.66,4.42,4.42,0,0,0,3.24-1.29l49.84-49.84a5.76,5.76,0,0,0,1.68-4.24,6.87,6.87,0,0,0-2.19-4.88l-62.31-58.83a8.54,8.54,0,0,0-11.92.14l-42.57,42.13Z"/><path d="M243.78,260.83h52.88a4.77,4.77,0,0,1,4.77,4.77v4.7a30.91,30.91,0,0,1-30.91,30.91h0a33,33,0,0,1-33-33v-1.15a6.24,6.24,0,0,1,6.24-6.24Z" transform="translate(-119.78 272.86) rotate(-45)"/><path d="M308.18,302.07h0a31.14,31.14,0,0,1,31.14,31.14v11.19a0,0,0,0,1,0,0H285.94a0,0,0,0,1,0,0V324.32A22.24,22.24,0,0,1,308.18,302.07Z" transform="translate(-137 315.74) rotate(-45)"/><path class="cls-6" d="M309.46,304.52h0a28.19,28.19,0,0,1,28.19,28.19v11.52a0,0,0,0,1,0,0H289.32a0,0,0,0,1,0,0V324.65A20.13,20.13,0,0,1,309.46,304.52Z" transform="translate(-137.55 316.67) rotate(-45)"/><path d="M344.73,321.45l-34.16,34.17a.19.19,0,0,1-.26,0l-25.5-25.5a3.83,3.83,0,0,1,0-5.41l28-28a5.3,5.3,0,0,1,7.48,0l24.46,24.47A.16.16,0,0,1,344.73,321.45Zm-34.29,33.78,33.91-33.91L320,297a4.92,4.92,0,0,0-7,0l-28,28a3.47,3.47,0,0,0,0,4.9Z"/><path class="cls-4" d="M355.64,299.61a3.93,3.93,0,0,1-.43,5.47l-.66.62c-3.87,3.86-9.9,4.1-13.47.52l-18.17-18.17a4,4,0,0,1,.22-5.67l4.33-4.33a3.43,3.43,0,0,1,4.47-.46A175.13,175.13,0,0,1,355.64,299.61Z"/><path d="M355.44,305.11l-.11.11-.66.61c-3.92,3.93-10.08,4.16-13.72.52l-18.17-18.17a4.2,4.2,0,0,1,.22-5.93l4.33-4.33a3.63,3.63,0,0,1,4.71-.48,175.69,175.69,0,0,1,23.73,22.05h0A4.1,4.1,0,0,1,355.44,305.11Zm-32.18-22.6a3.82,3.82,0,0,0-.22,5.41l18.17,18.17c3.5,3.5,9.42,3.27,13.21-.52l.66-.62a3.77,3.77,0,0,0,.42-5.22,174.92,174.92,0,0,0-23.68-22,3.25,3.25,0,0,0-4.23.45Zm32.38,17.1Z"/><path d="M337.94,282.3l-10.08,10.08a1.63,1.63,0,0,1-2.51.09l-4.6-6.91a2.05,2.05,0,0,1,.5-2.5l7.23-7.09a2.78,2.78,0,0,1,3.37-.64l6.19,4.11C338.91,280,338.86,281.37,337.94,282.3Z"/><path class="cls-4" d="M289.51,367.48a3.94,3.94,0,0,0,5.48-.43l.61-.66c3.87-3.87,4.1-9.9.53-13.47L278,334.75a4,4,0,0,0-5.67.22L268,339.3a3.43,3.43,0,0,0-.46,4.47A174.53,174.53,0,0,0,289.51,367.48Z"/><path d="M295,367.28a4.1,4.1,0,0,1-5.62.33,175.59,175.59,0,0,1-22-23.73,3.61,3.61,0,0,1,.47-4.71l4.33-4.33a4.21,4.21,0,0,1,5.93-.22l18.17,18.17c3.64,3.64,3.41,9.8-.52,13.73l-.61.65A1.14,1.14,0,0,1,295,367.28Zm-26.93-27.85a3.25,3.25,0,0,0-.44,4.23,174.92,174.92,0,0,0,22,23.68,3.75,3.75,0,0,0,5.21-.42l.62-.66c3.79-3.79,4-9.71.53-13.21l-18.17-18.17a3.85,3.85,0,0,0-5.42.22Z"/><path d="M272.2,349.78l10.08-10.08a1.62,1.62,0,0,0,.09-2.5l-6.9-4.61a2,2,0,0,0-2.5.5l-7.1,7.23a2.78,2.78,0,0,0-.63,3.37l4.11,6.19C269.92,350.75,271.28,350.7,272.2,349.78Z"/><path d="M280.21,225.44,250.9,254.75a2.95,2.95,0,1,1-4.16-4.17L276,221.27a2.95,2.95,0,0,1,4.17,4.17ZM247,250.84a2.58,2.58,0,1,0,3.65,3.65L280,225.18a2.58,2.58,0,0,0-3.65-3.65Z"/><path d="M254.31,238.33l-16.18,16.19a2.75,2.75,0,0,1-3.89-3.89l16.19-16.19a2.75,2.75,0,1,1,3.88,3.89ZM234.5,250.89a2.38,2.38,0,0,0,3.37,3.37l16.19-16.19a2.38,2.38,0,0,0-3.37-3.37Z"/><path d="M259.87,232.77a2.75,2.75,0,1,1,0-3.89A2.75,2.75,0,0,1,259.87,232.77Zm-3.63-3.63a2.38,2.38,0,1,0,3.37,0A2.38,2.38,0,0,0,256.24,229.14Z"/><path d="M296.48,223.3l-1.16-.66-1,1.07a5.66,5.66,0,0,0-.9-.23l-.33-1.42h-1.33l-.31,1.43a5.42,5.42,0,0,0-.9.24l-1-1.06-1.16.67.44,1.39a5.79,5.79,0,0,0-.65.66l-1.39-.43-.66,1.16,1.07,1a5.4,5.4,0,0,0-.23.9l-1.42.32v1.34L287,230a5.44,5.44,0,0,0,.25.9l-1.07,1,.67,1.15,1.39-.44a5.14,5.14,0,0,0,.66.66l-.42,1.39,1.16.66,1-1.07a6,6,0,0,0,.9.23l.33,1.42h1.33l.32-1.43a5.58,5.58,0,0,0,.89-.24l1,1.06,1.15-.67-.44-1.39a5.79,5.79,0,0,0,.65-.66l1.4.43.66-1.16-1.08-1a6.61,6.61,0,0,0,.24-.9l1.41-.32v-1.34L298,228a5.42,5.42,0,0,0-.24-.9l1.06-1-.67-1.15-1.39.44a5.14,5.14,0,0,0-.66-.66Zm-1,7.37a3.44,3.44,0,1,1-1.28-4.69A3.43,3.43,0,0,1,295.47,230.67Z"/><path d="M323.81,358.86a61.62,61.62,0,0,1-8,6.71.17.17,0,0,1-.25-.05.18.18,0,0,1,0-.25,59.47,59.47,0,0,0,14.78-14.91.19.19,0,0,1,.25-.05.2.2,0,0,1,0,.26A58.59,58.59,0,0,1,323.81,358.86Z"/><path d="M313.14,367.36l0,0c-.81.51-1.65,1-2.49,1.5a.18.18,0,0,1-.18-.32c.84-.48,1.67-1,2.48-1.49a.18.18,0,0,1,.25.06A.17.17,0,0,1,313.14,367.36Z"/><path d="M321.49,357.12a57,57,0,0,1-17,11.62.18.18,0,0,1-.15-.33A56,56,0,0,0,324.72,353a.19.19,0,0,1,.26,0,.18.18,0,0,1,0,.26Q323.33,355.28,321.49,357.12Z"/><path d="M303.62,218.22a.11.11,0,0,1-.09.05.18.18,0,0,1-.21-.14c-1.37-6.19-3.08-9.93-7.41-9.43a.18.18,0,1,1,0-.36c4.58-.53,6.43,3.5,7.8,9.72A.14.14,0,0,1,303.62,218.22Z"/><path d="M304.44,222.32a.12.12,0,0,1-.09.05.18.18,0,0,1-.22-.14c-.14-.76-.31-1.65-.48-2.52a.17.17,0,0,1,.14-.21.17.17,0,0,1,.21.14c.18.87.35,1.76.49,2.52A.18.18,0,0,1,304.44,222.32Z"/><path d="M292,204.57a.24.24,0,0,1-.11.06,33.13,33.13,0,0,0-4.75.84.17.17,0,0,1-.22-.13.18.18,0,0,1,.13-.22,35.58,35.58,0,0,1,4.81-.86.18.18,0,0,1,.19.17A.15.15,0,0,1,292,204.57Z"/><path d="M306.66,218.9a.27.27,0,0,1-.12.06.2.2,0,0,1-.2-.17c-.68-10.07-4.86-14.6-13.15-14.25a.19.19,0,0,1,0-.37c4.41-.18,7.65,1,9.9,3.56,2.11,2.42,3.3,6,3.64,11A.2.2,0,0,1,306.66,218.9Z"/><path d="M266.51,217a.31.31,0,0,1-.13.06.19.19,0,0,1-.19-.18l0-1a.19.19,0,0,1,.37,0l0,1A.19.19,0,0,1,266.51,217Z"/><path d="M266.58,220.39a.19.19,0,0,1-.13.05.18.18,0,0,1-.18-.18l0-1a.17.17,0,0,1,.18-.18.17.17,0,0,1,.18.17l0,1A.22.22,0,0,1,266.58,220.39Z"/><path d="M265.34,218.21a.18.18,0,0,1-.13.06h-1a.18.18,0,0,1-.18-.19.18.18,0,0,1,.18-.18h1a.18.18,0,0,1,.18.18A.19.19,0,0,1,265.34,218.21Z"/><path d="M268.68,218.19a.17.17,0,0,1-.12.05h-1a.18.18,0,0,1-.18-.18.18.18,0,0,1,.18-.19h.95a.19.19,0,0,1,.19.18A.18.18,0,0,1,268.68,218.19Z"/></g></g><g class="cls-7"><g class="cls-8"><circle class="cls-4" cx="230.1" cy="75.04" r="75.04" transform="translate(-11.74 65.5) rotate(-15.8)"/><path class="cls-6" d="M28.76,162.62c52-26.05,133.57-37.6,225.1,57.82a3.43,3.43,0,0,1-.09,4.85c-16.08,15.09-107,97.52-163.2,85.79a3.52,3.52,0,0,1-1.61-.81L18,248.72C-10,224.37-4.46,179.27,28.76,162.62Z"/><path class="cls-4" d="M453.72,178.66a47.8,47.8,0,0,0-19.05-18.34h0c-19.67-10.49-45.26-19.46-75.24-19.46a158.2,158.2,0,0,0-53.42,9.5c-30.56,10.9-56.92,30.57-77.27,55.36-11.67,14.23-30.63,34.49-54.67,50.93s-53,29-85,29c-1.29,0-2.6,0-3.91-.06l-29.37-.91,173,139.53L443.39,239.54a48,48,0,0,0,16.81-36.6A48.56,48.56,0,0,0,453.72,178.66Zm-23.2,45.94-202.11,174L110.83,303.74c28.3-4.29,53.41-16.45,74.39-30.81,26.23-18,46.28-39.5,58.76-54.69,18.32-22.31,41.82-39.73,68.65-49.3a138.37,138.37,0,0,1,46.8-8.35c26,0,48.4,7.77,66,17.14L430,169l-4.63,8.71a28.08,28.08,0,0,1,11.24,10.79,28.88,28.88,0,0,1,3.84,14.42A28.29,28.29,0,0,1,430.52,224.6Z"/></g></g></g></g></svg>