<svg xmlns="http://www.w3.org/2000/svg" xmlns:xlink="http://www.w3.org/1999/xlink" viewBox="0 0 484.62 426.58"><defs><style>.cls-1{fill:none;}.cls-2{clip-path:url(#clip-path);}.cls-3{fill:#f3f1ec;}.cls-4{clip-path:url(#clip-path-2);}.cls-5{fill:#ddcdaf;}.cls-6{fill:#fff;}.cls-7{opacity:0.82;}.cls-8{opacity:0.86;}.cls-9{font-size:57.41px;font-family:AraHamahKilania-Regular, Ara Hamah Kilania;}</style><clipPath id="clip-path"><path class="cls-1" d="M425.81,177.49a28.27,28.27,0,0,1,11.33,10.88A29.08,29.08,0,0,1,441,202.9a28.53,28.53,0,0,1-10,21.83L227.27,400.06,108.76,304.49c28.52-4.32,53.83-16.58,75-31.05,26.45-18.12,46.65-39.81,59.23-55.12,18.46-22.48,42.15-40,69.2-49.69a139.57,139.57,0,0,1,47.16-8.42c26.19,0,48.78,7.84,66.48,17.28"/></clipPath><clipPath id="clip-path-2"><rect class="cls-1" x="130.97" y="161.06" width="285.68" height="190.45" transform="translate(-97.34 202.45) rotate(-34.85)"/></clipPath></defs><g id="Layer_2" data-name="Layer 2"><g id="Layer_1-2" data-name="Layer 1"><g class="cls-2"><rect class="cls-3" x="47.19" y="134.96" width="437.42" height="291.62"/><g class="cls-4"><path d="M225.76,269.54l-1-1.26a63.62,63.62,0,0,0-7.63,3.3c-1.86,1.17-4.37,2.74-4,3.11s4.74-1.07,8-2.57A24.28,24.28,0,0,0,225.76,269.54Z"/><path d="M284.75,322.74s5.93-3.62,8.78-4.47,3.34-.14,3.34.36-6.69,5.25-6.69,5.25l-4.39,2.71Z"/><path class="cls-5" d="M270.85,268.05l-.26,0-.22,0h-.79l-.29,0-.11,0a.46.46,0,0,1-.32-.3,1.23,1.23,0,0,1,0-.54l.06-.42c0-.25.09-.5.14-.75v0h0v0h0c.11-.63.18-1.26.28-1.89l.18-.91c.06-.32.12-.63.19-1,.12-.61.25-1.23.38-1.84s.34-1.24.5-1.86c.08-.31.14-.63.21-.94s.15-.6.22-.9c.15-.61.28-1.22.46-1.83.09-.3.18-.61.26-.93s.15-.63.21-.95.14-.6.22-.9.15-.64.22-.95.12-.52.2-.78.18-.58.26-.87v.06l.05-.17c.06-.21.13-.43.19-.65s.08-.25.11-.38l-.4-.07c-.25-.05-.49-.11-.74-.15l-1-.13-.94-.1-.91-.1-1-.13-1-.16-1-.2-.69-.1c-.27,0-.54-.1-.8-.16l-.71-.13-.66-.14-.38,0-.21,0-.14,0a.49.49,0,0,1-.35-.33,1.15,1.15,0,0,1,.09-.63,5.85,5.85,0,0,1,.33-.82c.13-.26.26-.51.38-.77l.42-1c.13-.32.28-.63.38-1s.11-.39.18-.58.13-.32.18-.48a1.38,1.38,0,0,1,.08-.27.44.44,0,0,1,.51-.23l.11,0a.32.32,0,0,1,.14,0,.43.43,0,0,1,.2.27,1.54,1.54,0,0,1,.08.19l.18.41.2.34c.22.31.47.59.71.87l.33.31a4.43,4.43,0,0,0,.42.29l.73.44c.25.14.51.26.77.38h0l.59.25c.2.08.41.14.61.21l1,.26c.31.07.63.15.95.2.52.08,1,.11,1.57.16l1.59.11a3.88,3.88,0,0,0,.59,0,2.34,2.34,0,0,0,.45-.07,1.91,1.91,0,0,0,.34-.1l.08,0,0,0h0a.45.45,0,0,1,.14-.1.39.39,0,0,1,.46.15c.11.17,0,.38,0,.56s-.15.6-.24.89-.18.62-.27.94-.17.62-.27.93-.2.61-.31.92-.14.42-.2.64-.18.6-.28.9-.2.59-.29.89-.16.61-.24.92l-.27.94c-.09.29-.16.59-.24.89s-.2.64-.3,1c-.27.76-.56,1.52-.8,2.29l0,0c-.18.63-.32,1.27-.46,1.91l-.24,1c-.08.3-.17.6-.25.9s-.16.65-.22,1-.12.64-.17,1c-.11.62-.23,1.24-.35,1.86,0,.21-.07.41-.11.62s-.09.43-.14.65-.11.39-.16.59l-.09.29,0,.14a.33.33,0,0,1,0,.17.35.35,0,0,1-.33.26Zm1.42-12.86.09-.28a2.76,2.76,0,0,0-.08.27Z"/><path class="cls-5" d="M273.93,235.29a.53.53,0,0,1-.3-.25.44.44,0,0,1,0-.2.39.39,0,0,1,.08-.2,1.7,1.7,0,0,1,.19-.19h0a.33.33,0,0,1,.07-.16.9.9,0,0,1,.3-.21l.3-.14.32-.13a4.75,4.75,0,0,1,.73-.23l.29-.07.2,0,.2,0h.15a.55.55,0,0,1,.18,0h.42l.33.05a.57.57,0,0,1,.4.23.32.32,0,0,1,0,.38.85.85,0,0,1-.25.17l-.3.16-.67.36-.06,0,0,0h0a5.11,5.11,0,0,1-1.57.53,2.73,2.73,0,0,1-.41,0A1.61,1.61,0,0,1,273.93,235.29Zm2.85-1.29c-.1.06-.06,0,0,0h-.11s0,.05,0,.07Z"/><path class="cls-5" d="M283,232.18a1.12,1.12,0,0,1-.39-.13.59.59,0,0,1-.27-.35.8.8,0,0,1,.34-.73s0,0,0,0l.05-.05a1.41,1.41,0,0,1,.35-.23,1.94,1.94,0,0,1,.3-.13,1.2,1.2,0,0,1,.46-.07.6.6,0,0,1,.23.06.45.45,0,0,1,.21.15l0,0a1,1,0,0,1,.28.13.52.52,0,0,1,.16.17l.05.1a.77.77,0,0,1,0,.15.44.44,0,0,1-.05.22.61.61,0,0,1-.13.15l-.2.14a3.07,3.07,0,0,1-.66.31,2.15,2.15,0,0,1-.67.12Z"/><path class="cls-5" d="M233.43,353.24a.17.17,0,0,1-.07-.1h0a.2.2,0,0,1-.08-.19.23.23,0,0,1,.1-.12v0c0-.4,0-.79,0-1.18s0-.88-.07-1.32c-.07-.71-.16-1.41-.24-2.12s-.14-1.44-.2-2.16v.05c0-.26-.05-.53-.08-.8l-.12-.85a4.46,4.46,0,0,1-.07-.51,1.49,1.49,0,0,1,0-.47A.62.62,0,0,1,233,343a2,2,0,0,1,.35-.08l.47-.07c.58-.07,1.16-.12,1.73-.21l1.89-.3,1.89-.28c1.31-.2,2.62-.39,3.94-.55l1.21-.12h.3c1.32-.11,2.64-.19,4-.28s2.52-.2,3.78-.28,2.5-.11,3.75-.12h1.81c.65,0,1.29,0,1.93,0a15.51,15.51,0,0,1,1.66.15c.33,0,.66.1,1,.13a.36.36,0,0,1,0-.1c.18-1.09.28-2.19.41-3.28.06-.56.14-1.11.22-1.66s.18-1.13.26-1.69c.15-1,.23-2.06.3-3.09l0-.43a.85.85,0,0,1,.14-.45.55.55,0,0,1,.17-.17.72.72,0,0,1,.32-.08.61.61,0,0,1,.19,0h.56c1,0,2,0,3,0h1.58c.57,0,1.14,0,1.7-.07l1.42-.1,1.71-.11,1.57-.08c.54,0,1.08-.07,1.62-.11h-.05l1.94-.2,1-.1.51-.05.29,0h.05l.12,0h.23c1.27-.1,2.54-.16,3.81-.21l3.88-.13,2-.07c.69,0,1.39,0,2.08-.08s1.41-.11,2.11-.17c.32,0,.63,0,.95,0h.29l.06-.4c0-.24.08-.48.13-.72.09-.5.2-1,.29-1.51s.18-1,.28-1.52.19-1,.28-1.56c.13-.79.25-1.57.36-2.36s.19-1.52.3-2.28.25-1.61.38-2.42.24-1.67.38-2.5c0-.25.08-.51.13-.77a3.34,3.34,0,0,1,.1-.43.64.64,0,0,1,.29-.39.84.84,0,0,1,.31-.08h.39c.44-.05.87-.13,1.31-.19s1-.15,1.55-.24l3.1-.52c1.06-.17,2.13-.3,3.2-.4s2.11-.19,3.17-.28h0c1.62-.15,3.24-.32,4.86-.46l2.38-.19,1.18-.08.76,0a1.55,1.55,0,0,0,0-.21c.13-.8.22-1.61.34-2.41s.23-1.67.33-2.5c.22-1.75.44-3.49.73-5.23v.06c.11-.65.22-1.29.34-1.94s.26-1.29.4-1.94.28-1.21.43-1.81.26-1.07.36-1.61a1.41,1.41,0,0,1,.12-.49.53.53,0,0,1,.25-.24,1.37,1.37,0,0,1,.53-.05c.37,0,.74,0,1.1,0l1.18-.08h0l3.88-.4,3.91-.36c1.25-.11,2.5-.2,3.75-.26l4.08-.18,3.27-.12c1,0,2.09,0,3.14,0l1.68,0c.51,0,1,.05,1.53.08l1.44.09.67.06.22,0a.92.92,0,0,1,.28.09.46.46,0,0,1,.23.5.48.48,0,0,1-.43.35h-.3l-.42-.05-1-.09c-.72-.05-1.45-.1-2.18-.13-1.3,0-2.6,0-3.9,0s-2.54.05-3.8.1l-3.9.16-2,.11c-.7,0-1.39.1-2.09.16h0l-1.76.16h.06l-.44,0h-.06l-.2,0h.06l-.66,0h.06l-.34,0h0l-3.52.34c-.61.07-1.21.14-1.83.19-.32,0-.65,0-1,0h-.72l0,.14c-.05.28-.11.55-.17.82-.14.64-.31,1.28-.45,1.92s-.29,1.27-.42,1.91-.25,1.36-.37,2v-.06c-.1.65-.21,1.29-.3,1.94s-.17,1.26-.26,1.9c-.16,1.22-.29,2.44-.47,3.66-.09.65-.19,1.31-.28,2,0,.27-.07.53-.11.8a5.19,5.19,0,0,1-.19.87.81.81,0,0,1-.21.31.71.71,0,0,1-.31.13h-.24l-.37,0c-.59,0-1.18.07-1.77.11l-1.44.11-1.58.13h.06l-3.15.29L311,311l-1.36.12-1.43.17c-.91.11-1.81.26-2.71.41l-1.3.23-1.39.22-1.28.19q-.31.06-.63.09l-.29,0c-.06.39-.13.77-.2,1.15-.1.6-.19,1.19-.28,1.79s-.18,1.16-.27,1.75-.19,1.2-.27,1.8-.17,1.23-.25,1.84-.17,1.17-.26,1.75-.22,1.26-.34,1.89-.22,1.19-.33,1.79-.24,1.16-.35,1.74c0,.21-.08.41-.11.62h0c0,.23-.05.53-.25.69a.55.55,0,0,1-.27.12l-.21,0c-.55,0-1.1.06-1.64.11h.05c-.59.05-1.18.11-1.78.15s-1.16.06-1.75.08l-3.54.12-3.77.15L283,330q-.93.06-1.86.15h.05l-1.93.2-2,.19c-.63.05-1.27.07-1.9.1s-1.25.06-1.87.11l-1.9.13c-.68,0-1.36.07-2,.08H264.9c0,.28,0,.56-.06.84,0,.58-.11,1.16-.17,1.73s-.18,1.2-.28,1.79-.19,1.22-.27,1.82-.16,1.23-.24,1.85-.17,1.18-.28,1.77a4,4,0,0,1-.11.52,2.21,2.21,0,0,1-.12.27,1.34,1.34,0,0,1-.11.14.62.62,0,0,1-.29.15,1.31,1.31,0,0,1-.28,0c-.46,0-.91-.12-1.37-.17l-1.15-.1c-1.23,0-2.47,0-3.7,0-.66,0-1.31,0-2,0s-1.25,0-1.87.09c-1.26.06-2.52.18-3.78.27l-1.92.13-1.88.13-.41,0h-.06c-.93.09-1.87.2-2.8.33s-1.92.28-2.87.42c-.48.08-.95.15-1.43.21l-1.43.23-.63.11-.73.09c-.39.05-.78.09-1.16.17,0,.1,0,.2,0,.3,0,.36.08.72.11,1.07s.06.77.08,1.15,0,.88.07,1.32.07.79.1,1.18.06.87.08,1.3,0,.8,0,1.21,0,.83-.09,1.25a1.49,1.49,0,0,1-.08.41.64.64,0,0,1-.08.19.25.25,0,0,1-.12.08.11.11,0,0,1-.08,0A.19.19,0,0,1,233.43,353.24Z"/><path d="M280.54,237.82a.47.47,0,0,1-.25-.11.82.82,0,0,1-.18-.33l-.06-.28a2.91,2.91,0,0,1,0-.59c0-.09,0-.19,0-.29a2.47,2.47,0,0,1,.06-.29,3.07,3.07,0,0,1,.11-.36.87.87,0,0,1,.07-.17,1,1,0,0,1,.1-.17,1.37,1.37,0,0,1,.2-.22.71.71,0,0,1,.17-.11.53.53,0,0,1,.18,0,.33.33,0,0,1,.21.09.19.19,0,0,1,.05.1.09.09,0,0,1-.1.11.07.07,0,0,1-.07,0H281l0,0,0,0,0,0-.06.06h0l-.07.1,0,.09-.06.16h0c0,.12-.06.24-.09.36a1.94,1.94,0,0,0,0,.24,4.17,4.17,0,0,0,0,.5l0,.23a1.83,1.83,0,0,0,.08.25l0-.1a.53.53,0,0,0,0-.12c0-.12,0-.24.05-.36s0-.24.05-.36.07-.45.08-.67a.47.47,0,0,1,0-.17.24.24,0,0,1,.18-.18.24.24,0,0,1,.25.14.58.58,0,0,1,0,.23,1.92,1.92,0,0,1,0,.24,4.91,4.91,0,0,1,0,.55c0,.17-.06.35-.08.52l-.06.29a2.49,2.49,0,0,1-.11.29.86.86,0,0,1-.1.16.42.42,0,0,1-.27.16h-.15Z"/><path d="M280.91,233.35a.26.26,0,0,1-.26-.25.23.23,0,0,1,.07-.17.26.26,0,0,1,.21-.08h.23l.23,0,.18-.05.09,0,.09-.05,0,0,0,0,.06-.08v-.06h0l-.28-.07-.28-.06a2.11,2.11,0,0,1-.49-.09,1.22,1.22,0,0,1-.24-.1.94.94,0,0,1-.23-.16.79.79,0,0,1-.19-.26.75.75,0,0,1-.09-.25.82.82,0,0,1,0-.22.76.76,0,0,1,0-.15h0a.11.11,0,0,1,.08-.13.11.11,0,0,1,.13.07l-.05.1h0l0-.06v0s0,.08,0,.12,0,.07,0,.11l.05.07,0,.06.06,0,.07.05a.2.2,0,0,0,.08,0l.12.05.1,0,.18,0h.33l.33.05.33.08a.69.69,0,0,1,.36.27.63.63,0,0,1,.07.36.83.83,0,0,1-.14.38,1.33,1.33,0,0,1-.3.28,1.53,1.53,0,0,1-.37.16l-.32.07-.25,0h-.21Z"/><path d="M272.39,232.64a.25.25,0,0,1,.13-.34l.69-.25q.35-.11.69-.18a4,4,0,0,1,.48-.07,2.8,2.8,0,0,1,.5,0,2.55,2.55,0,0,1,.67.18l.19.08.15.07h0a.17.17,0,0,1,.14.15.16.16,0,0,1-.15.16l-.09,0-.16,0-.28-.07-.35,0a3.09,3.09,0,0,0-.43,0l-.3,0c-.27.06-.53.14-.79.22s-.52.15-.79.21h-.06A.27.27,0,0,1,272.39,232.64Z"/><path d="M273.57,233.13a.06.06,0,0,1,.05-.06,3.47,3.47,0,0,1,.29-.25l.18-.14.21-.11.42-.2a1.33,1.33,0,0,1,.21-.09l.24-.09a2,2,0,0,1,.43-.06.23.23,0,0,1,.23.19.22.22,0,0,1-.19.25l-.19,0-.2,0a1.46,1.46,0,0,0-.22,0l-.39.11-.41.12-.12,0-.23.14-.12.07-.08.06h0A.07.07,0,0,1,273.57,233.13Z"/><path d="M282.14,230.49a.25.25,0,0,1-.19-.18.43.43,0,0,1,0-.16,1.43,1.43,0,0,1,.07-.28,2.66,2.66,0,0,1,.23-.52,4.66,4.66,0,0,1,.3-.47l.18-.23c.08-.08.2-.18.31-.13a.11.11,0,0,1,.08.15.11.11,0,0,1-.11.08l0,0a.44.44,0,0,0-.08.11,4.11,4.11,0,0,0-.21.42l0,.07h0a1.11,1.11,0,0,1-.07.16,1.73,1.73,0,0,1,.28-.19,1.48,1.48,0,0,1,.41-.17.15.15,0,0,1,.19.09.16.16,0,0,1-.08.22l-.23.1-.11.07a2.65,2.65,0,0,0-.26.21,1.21,1.21,0,0,0-.16.16l-.18.25,0,.05a.41.41,0,0,1-.05.09h0a.25.25,0,0,1-.18.08Z"/><path d="M273.61,235.59s0,0,0,0a.21.21,0,0,1,0-.19.1.1,0,0,1,.05,0c.1-.14.18-.29.27-.43a5.48,5.48,0,0,1,.34-.46c.12-.15.25-.3.38-.44l.42-.41a.18.18,0,1,1,.26.24l-.43.44-.39.43-.19.26c-.07.09-.12.18-.18.27l-.12.2-.07.1a.21.21,0,0,1,0,.06h0v0h0a.19.19,0,0,1-.09,0h-.05A.22.22,0,0,1,273.61,235.59Z"/><path d="M274.73,235.25a.11.11,0,0,1,.07-.12h0l.23-.32.26-.34.26-.33a3.51,3.51,0,0,1,.29-.36.17.17,0,0,1,.2,0,.15.15,0,0,1,0,.21c-.14.18-.28.35-.43.52s-.3.32-.44.49l-.19.24c0,.05-.09.12-.16.13h0A.11.11,0,0,1,274.73,235.25Z"/><path d="M276.08,234.78a.09.09,0,0,1,0-.11l0,0c.13-.17.25-.36.37-.54l.18-.27a3.65,3.65,0,0,1,.24-.31.15.15,0,0,1,.21,0,.17.17,0,0,1,0,.21l-.25.29-.31.4-.15.2a1,1,0,0,1-.17.19h0a.1.1,0,0,1-.08.05A.11.11,0,0,1,276.08,234.78Z"/><path d="M283.05,232.17a.23.23,0,0,1-.1-.07.23.23,0,0,1,0-.14,3,3,0,0,1,.18-.41,1.19,1.19,0,0,1,.08-.16.41.41,0,0,1,.05-.09.24.24,0,0,1,.06-.09.06.06,0,0,1,.1,0s0,.07,0,.1l0,.09c0,.06,0,.12,0,.18s-.07.28-.1.42a.15.15,0,0,1-.15.12Z"/><path d="M283.71,232.1a.19.19,0,0,1-.13-.21,2.5,2.5,0,0,1,.18-.48h0l.11-.24s0-.09.05-.13a.53.53,0,0,1,.06-.1h0s0,0,.06,0h0a.33.33,0,0,1,0,.1s0,.08,0,.12l0,.25a5,5,0,0,1-.08.54.16.16,0,0,1-.17.13Z"/><path d="M272.59,230.05a.46.46,0,0,1,.12-.35,1.42,1.42,0,0,1,.31-.29l.3-.2c.3-.17.6-.32.9-.46l.48-.2.23-.07a.92.92,0,0,1,.32-.07.34.34,0,0,1,.24.09l.09,0a.4.4,0,0,1,.22.18.33.33,0,0,1-.07.34,1.31,1.31,0,0,1-.45.28l-.23.11-.56.25c-.36.17-.72.32-1.08.47l-.26.1-.19.06h0A.34.34,0,0,1,272.59,230.05Z"/><path d="M263.19,263.22a.18.18,0,0,1-.14-.22c0-.1.05-.2.08-.3a2.76,2.76,0,0,0,.08-.27c.05-.19.1-.38.13-.57v0a.9.9,0,0,1,0-.16.11.11,0,0,1,.1-.08.13.13,0,0,1,.14.06v0a.14.14,0,0,1,0,.06.12.12,0,0,1,0,.1c0,.08,0,.15,0,.22l-.06.34-.06.32a3,3,0,0,1-.07.32.18.18,0,0,1-.18.15Z"/><path d="M263.88,262.58a.19.19,0,0,1-.17-.21,2.1,2.1,0,0,1,.06-.24c0-.12.07-.23.1-.35a1.62,1.62,0,0,0,0-.19.83.83,0,0,0,0-.15v0a.12.12,0,0,1,.14-.11.15.15,0,0,1,.12.12.14.14,0,0,1,0,.06l-.06.47c0,.07,0,.15,0,.23s0,.16,0,.24a.2.2,0,0,1-.19.15Z"/><path d="M269.94,257.24a.19.19,0,0,1-.16-.18.64.64,0,0,1,0-.2l.06-.19v0c.05-.15.1-.31.14-.47l.06-.23,0-.1a1,1,0,0,0,0-.14h0l0,0a.09.09,0,0,1,.14,0,.54.54,0,0,1,0,.18c0,.06,0,.12,0,.18l-.06.33c0,.11,0,.21,0,.32a.81.81,0,0,0,0,.16c0,.06,0,.12,0,.18a.19.19,0,0,1-.18.14Z"/><path d="M270.48,256.84a.15.15,0,0,1-.11-.19,3.73,3.73,0,0,1,.14-.44c.05-.13.09-.26.14-.4h0v0a.24.24,0,0,1,0-.12.05.05,0,0,1,.08,0,.05.05,0,0,1,0,.05s0,.07,0,.11,0,.08,0,.13a2,2,0,0,0,0,.26,4.93,4.93,0,0,1-.05.54.15.15,0,0,1-.15.13Z"/><path d="M352,237.88a2,2,0,0,1-.87-.25,2.3,2.3,0,0,1-.38-.32,1.85,1.85,0,0,1-.19-.27,2.64,2.64,0,0,1-.18-.38,1.17,1.17,0,0,1-.05-.2,1.33,1.33,0,0,1-.05-.34c0-.13,0-.27,0-.4s0-.28.05-.42.05-.27.08-.4a5.11,5.11,0,0,1,.23-.76,6.89,6.89,0,0,1,.34-.73c.26-.48.56-.95.86-1.41.14-.22.29-.43.44-.64l.47-.62c.31-.42.63-.84.92-1.28l.18-.27c.15-.24.28-.49.41-.75s.13-.33.19-.5,0-.16.05-.23,0-.21,0-.31a3.7,3.7,0,0,0,0-.47,2.17,2.17,0,0,0,0-.25c0-.11-.06-.22-.09-.33l0,0-.16-.07-.33-.16a3.79,3.79,0,0,1-.34-.2c-.25-.15-.47-.32-.71-.48l-.34-.23-.38-.24-.66-.44c-.23-.15-.47-.3-.68-.46l-.64-.51-.68-.54-.31-.24-.31-.25-.49-.34h0l-.47.2-.5.25c-.33.16-.68.3-1,.47l-.63.35-.37.19-.41.16a.77.77,0,0,1-.3.06h0a.53.53,0,0,1-.24-.06l-.26-.17-.69-.4h0l0,0h0a5.52,5.52,0,0,1-.66-.51c-.21-.18-.41-.37-.6-.56s-.4-.44-.6-.67-.33-.43-.49-.65a16.59,16.59,0,0,1-1-1.39c-.15-.22-.28-.45-.41-.68s-.27-.47-.4-.72-.28-.52-.41-.79-.23-.52-.35-.79c-.22-.51-.43-1-.65-1.55s-.43-1-.61-1.54-.33-1.05-.47-1.59-.26-1.08-.35-1.63c-.05-.27-.09-.55-.13-.83a3.29,3.29,0,0,1,0-.83.5.5,0,0,1,.12-.34.2.2,0,0,1,.26,0h0c.24-.13.48-.27.71-.42l.77-.46c.26-.16.53-.3.8-.44s.52-.24.78-.36l.26-.11v0a.4.4,0,0,1,0-.11l0-.18c0-.13.06-.26.1-.39s.17-.48.27-.72.21-.46.32-.69.21-.43.31-.65.22-.51.32-.77.22-.55.34-.83.22-.55.35-.83l.4-.81c.11-.22.23-.45.34-.68l.3-.6c.11-.24.21-.49.33-.73a1,1,0,0,1,.18-.31.42.42,0,0,1,.4-.12l.23,0,.41.11.45.16.83.29.86.31.81.31c.56.25,1.11.5,1.66.78l.83.4.8.37c.26.13.52.26.77.4s.5.28.75.42c.51.29,1,.55,1.56.84l.81.46.74.46.75.45.73.49.76.5.75.51.76.53.69.51.68.5.67.54a8.3,8.3,0,0,1,.64.54,1.29,1.29,0,0,1,.16.17l.13.15a1.2,1.2,0,0,1,.13.21.57.57,0,0,1,.07.22.89.89,0,0,1,0,.23,1,1,0,0,1-.06.25l-.15.4q-.18.41-.39.81c-.14.3-.29.6-.43.91v0c-.24.54-.46,1.09-.7,1.63l0,0a2.56,2.56,0,0,0-.11.24l0,0-.52,1.14c-.24.52-.46,1-.67,1.58-.12.27-.23.54-.34.81l-.36.82c-.12.26-.22.52-.33.78l-.36.82c-.12.27-.24.54-.37.81s-.26.53-.39.8l-.18.38c-.18.42-.36.83-.55,1.24l-.58,1.26,0,0h0l0,0v0c-.19.43-.35.88-.53,1.32-.09.2-.17.41-.25.62s-.13.38-.19.57a.36.36,0,0,1,0,.11.41.41,0,0,1,0,.09,1,1,0,0,1,.09.22c0,.12.08.25.11.38s0,.26,0,.39a2.48,2.48,0,0,1,0,.77,5.16,5.16,0,0,1-.28.78v0A7.36,7.36,0,0,1,354,230c-.32.44-.65.87-1,1.29-.11.14-.23.28-.33.42s-.24.33-.35.5l-.3.45-.32.48,0,0a8.92,8.92,0,0,0-.49.91,5.32,5.32,0,0,0-.26.66q-.09.3-.15.6l-.06.56v.32a.5.5,0,0,1,0,.12l.06.2.09.19c0,.07.07.14.11.2a.52.52,0,0,0,.1.11.94.94,0,0,0,.1.1l.12.09.14.07.15.05.17,0,.36,0h.2l.3,0,.29-.06c.31-.08.62-.18.93-.29a12.7,12.7,0,0,0,1.45-.67l0,0c.4-.22.79-.45,1.18-.68a10.62,10.62,0,0,0,1.15-.73h0l.07,0h0l.16-.11.05,0h0l.15-.24a7,7,0,0,1,1-1.27,7.82,7.82,0,0,1,.6-.55c.21-.18.42-.36.64-.53s.31-.23.47-.34.34-.21.52-.3h.06a7.41,7.41,0,0,1,.7-.31l.75-.28h0a6.34,6.34,0,0,1,1.54-.34l.82-.06h.37a2.71,2.71,0,0,1,.4,0l.59.11a.38.38,0,0,1,.23.06.58.58,0,0,1,.19.31,3.58,3.58,0,0,1,.11.35c.07.25.14.51.2.76s.12.52.19.77.14.49.2.74c0,.08,0,.17.07.26v0a.64.64,0,0,1,0,.2.28.28,0,0,1-.15.23.51.51,0,0,1-.32.06l-.12,0-.71.23-.76.2-.77.17-.8.19c-.52.12-1,.19-1.56.28l-.82.13a4.9,4.9,0,0,1-.77.06c-.44,0-.87,0-1.3,0a3.09,3.09,0,0,1-.61-.08l-.29-.06-.24-.06a.31.31,0,0,1-.14-.07l-.12.06c-.21.11-.41.24-.62.37l-.66.38-.71.37-.72.38-.71.34a6.67,6.67,0,0,1-.74.29q-.37.12-.75.21l-.42.09a3.12,3.12,0,0,1-.44,0H352Z"/><path d="M285.66,326.93a.42.42,0,0,1-.26-.3.44.44,0,0,1,0-.23.3.3,0,0,1,.05-.15l-.07-.09a2.75,2.75,0,0,1-.11-.41c0-.12-.07-.24-.1-.35-.08-.27-.16-.53-.23-.8s-.15-.53-.23-.79-.15-.51-.22-.77c-.14-.51-.26-1-.4-1.56s-.26-1-.4-1.54-.26-.94-.39-1.42-.25-1-.36-1.45h0c-.08-.38-.16-.76-.25-1.15v0c-.09-.39-.18-.77-.29-1.16l-.18-.55c0-.08,0-.16-.08-.25s0-.07,0-.11a.25.25,0,0,0,0-.07l-.43.14-.23.06a2,2,0,0,1-.26.06h0a.38.38,0,0,1-.27-.1.49.49,0,0,1-.11-.14,3,3,0,0,1-.23-.44c-.08-.2-.15-.41-.23-.63l0,0c-.13-.35-.27-.71-.41-1.06s-.28-.71-.43-1.07-.31-.72-.47-1.09-.28-.71-.42-1.07-.28-.71-.43-1.06-.33-.7-.49-1c-.33-.71-.62-1.43-.95-2.14-.22-.49-.47-1-.72-1.46l-.15-.28c-.18-.34-.36-.69-.55-1s-.37-.65-.56-1-.4-.7-.6-1.06l-.54-1-1.2-2.1c-.19-.33-.4-.64-.61-1s-.44-.69-.65-1-.37-.66-.56-1-.39-.61-.6-.91c-.44-.63-.86-1.28-1.3-1.9-.24-.35-.49-.69-.72-1l-.29-.48-.34-.5-.64-.88c-.21-.3-.41-.61-.62-.9h0l0-.06h0l-.09-.12v0h0c-.22-.32-.47-.62-.71-.92s-.46-.6-.69-.9-.5-.63-.76-.93l-.75-.91c-.25-.31-.52-.61-.8-.91s-.29-.34-.44-.5l-.42-.48,0,0-.17-.18-.36-.36-.44-.46c-.25-.27-.48-.56-.73-.83s-.7-.65-1.06-1l-.56-.43-.3-.22c-.07.13-.15.26-.22.4-.18.31-.36.63-.55.94l-1.15,1.8-.08.12v0l-.08.13,0,0h0c-.38.59-.77,1.17-1.15,1.75l-.67,1.1c-.24.41-.5.8-.75,1.19s-.6,1-.9,1.48-.63,1-.95,1.5-.75,1.23-1.14,1.83c-.17.27-.35.54-.53.81s-.39.62-.59.92-.39.58-.59.86l-.55.81c-.4.59-.81,1.17-1.22,1.75-.21.31-.42.62-.64.92s-.47.64-.72.95l0,0-.08.09h0l-.16.19,0,0-.66.82c-.22.27-.46.53-.71.79l-.7.72a7.06,7.06,0,0,1-.76.69l-.8.63a5.89,5.89,0,0,1-.93.56,4.19,4.19,0,0,1-.49.2l-.45.13a4.53,4.53,0,0,1-1,.12h-.05l-.5,0a3.08,3.08,0,0,1-.53-.08,4.42,4.42,0,0,1-.94-.28,8.59,8.59,0,0,1-.92-.44,6.25,6.25,0,0,1-.9-.53,11.14,11.14,0,0,1-1.58-1.41c-.25-.25-.49-.51-.73-.77l-.66-.75c-.23-.28-.46-.57-.68-.86l-.6-.76a10.41,10.41,0,0,1-.62-.86c-.19-.3-.37-.61-.55-.92-.34-.61-.68-1.22-1-1.84s-.6-1.28-.9-1.92c-.14-.31-.29-.61-.42-.91s-.29-.64-.43-1c-.26-.63-.52-1.27-.76-1.92l-.24-.67h0c-.12-.33-.25-.66-.36-1,0-.08-.05-.15-.08-.22a1.2,1.2,0,0,1,0-.2.34.34,0,0,1,.07-.24,3.37,3.37,0,0,1,.29-.37c.11-.13.24-.25.36-.37l.33-.32c.11-.11.21-.22.32-.32l-.17-.24-.35-.51a10.73,10.73,0,0,1-.64-1.09l0,0c-.35-.67-.68-1.34-1-2l0,0,0,0h0c-.24-.45-.48-.9-.73-1.34l-.38-.67-.39-.68c-.25-.44-.52-.87-.78-1.29s-.56-.88-.83-1.32c-.12-.21-.24-.41-.35-.62s-.24-.42-.35-.63h0l-.32.16-.65.32-1.13.62h0l-.2.1h0l-.18.09-.3.15a12.19,12.19,0,0,1-1.29.55l-.23.09h0l-.22.07h0a7.58,7.58,0,0,1-1.32.36,3.56,3.56,0,0,1-.8.08,1,1,0,0,1-.38-.11.48.48,0,0,1-.26-.3,1,1,0,0,1,.18-.83,2.72,2.72,0,0,1,.37-.39l.31-.26c.17-.14.36-.28.55-.41.4-.28.81-.54,1.23-.8l.57-.33.61-.37c.41-.23.81-.47,1.22-.69l1.32-.72c.43-.22.85-.43,1.28-.62s.85-.38,1.28-.56l1.34-.56.59-.26.32-.13.15-.05a.61.61,0,0,1,.13,0l0,0h0a.36.36,0,0,1,.11-.1.34.34,0,0,1,.31,0,.38.38,0,0,1,.15.16.61.61,0,0,1,0,.11,1.42,1.42,0,0,0,.07.22c0,.1.08.19.13.29s.22.42.34.63l.17.31.21.3.4.56c.13.2.25.4.37.6l.36.6c.12.21.25.41.38.61l.34.51c.11.18.22.37.34.55.21.36.44.71.68,1.05l.81,1.09c.14.2.29.39.42.6a5.58,5.58,0,0,1,.35.58c.22.37.42.75.64,1.11.1.18.21.35.3.53l0,.05.64-.6.08-.07,0,0,.08-.07.2-.2.24-.24a.39.39,0,0,1,.57,0,1,1,0,0,1,.13.23c.17.36.32.73.5,1.09l.49.87c.17.3.34.6.49.9l.45.94c.14.29.29.58.44.87s.29.55.42.83l.36.85c.24.56.49,1.12.77,1.66h0l.58,1.11c.11.21.22.42.35.63l0,.06.09-.33c.08-.31.16-.63.25-.94.17-.66.36-1.32.54-2l.3-1c.1-.32.22-.64.33-1l.67-1.95c.11-.32.22-.63.32-.94l.33-1c.12-.34.25-.67.37-1s.23-.66.34-1,.33-.92.5-1.37c.09-.22.17-.44.25-.65l.15-.34,0-.06-.37,0h-.21c-.48,0-1,0-1.45,0s-1-.08-1.42-.12l-.4,0a.43.43,0,0,1-.34-.33.49.49,0,0,1,0-.24l.06-.09.33-.54.36-.61.69-1.21c.23-.42.49-.82.73-1.22q.19-.32.36-.63c.12-.21.23-.43.34-.64l.65-1.22c.12-.23.25-.45.36-.68l.3-.6c.34-.68.7-1.34,1-2h0L244,263l0,0c.22-.49.41-1,.63-1.49h0a2.59,2.59,0,0,1,.14-.29v0l-.78,0-.83,0c-.32,0-.64-.06-.95-.1a5.65,5.65,0,0,1-.93-.17l-.91-.25a7.94,7.94,0,0,1-1-.28,5.88,5.88,0,0,1-.72-.33l-.35-.18a3.79,3.79,0,0,1-.34-.2l-.33-.27a1.77,1.77,0,0,1-.44-.7,3.92,3.92,0,0,1-.15-.66l-.09.05a.39.39,0,0,1-.18,0,.4.4,0,0,1-.24-.07.73.73,0,0,1-.25-.45c-.09-.31-.15-.64-.23-1l-.21-1-.09-.45c0-.06,0-.12,0-.18a.91.91,0,0,1,0-.17.5.5,0,0,1,.14-.27.77.77,0,0,1,.39-.2l.26-.07.27-.06s0-.05,0-.08v0c.05-.16.08-.32.12-.48s.16-.56.25-.83.21-.53.32-.78l.32-.8q.16-.41.36-.78c.14-.26.27-.52.4-.78a15.65,15.65,0,0,1,.91-1.52l.49-.71c.17-.24.34-.48.52-.71l.61-.71c.21-.22.41-.45.61-.68.39-.45.83-.85,1.25-1.27.22-.21.43-.42.66-.61s.48-.38.73-.56l.95-.71h0a17,17,0,0,1,1.56-1c.26-.15.53-.29.8-.42l.83-.38a19.25,19.25,0,0,1,3.49-1.06c.29-.07.58-.12.87-.17a8.47,8.47,0,0,1,.88-.12q.47-.06.93-.09c.3,0,.61,0,.91,0,1.19,0,2.38,0,3.57.08a17.59,17.59,0,0,1,1.78.18,15.19,15.19,0,0,1,1.78.37,9.19,9.19,0,0,1,1.18.43,2.65,2.65,0,0,1,.52.29l.17.12.09-.15.08-.12,0-.06.06-.06,0,0h0c0-.18.09-.35.15-.52.14-.43.3-.85.47-1.26l.18-.43.2-.45c.13-.27.28-.53.41-.81l-.33,0a1.92,1.92,0,0,1-.7-.19,2.58,2.58,0,0,1-.32-.18,2.32,2.32,0,0,1-.25-.21,3.27,3.27,0,0,1-.24-.27,1.65,1.65,0,0,1-.2-.31,1.49,1.49,0,0,1-.15-.75,1.8,1.8,0,0,1,.08-.39,1.5,1.5,0,0,1,.19-.32,2.17,2.17,0,0,1,.24-.29.8.8,0,0,1-.13-.13,1.48,1.48,0,0,1-.34-.58,1.67,1.67,0,0,1-.08-.32c0-.11,0-.23,0-.34a3.39,3.39,0,0,1,.05-.64,2.5,2.5,0,0,1,.07-.26,1.31,1.31,0,0,1,.12-.27l0,0a1,1,0,0,1-.17-.1,1.18,1.18,0,0,1-.27-.23,1.41,1.41,0,0,1-.21-.31,1.85,1.85,0,0,1-.19-.8c0-.12,0-.23,0-.35a1.86,1.86,0,0,1,.06-.34,3,3,0,0,1,.1-.32c0-.1.09-.19.14-.29a2,2,0,0,1,.47-.54l.28-.22a2.41,2.41,0,0,1,.51-.25l.2,0a1.85,1.85,0,0,1-.21-.45,2.61,2.61,0,0,1-.17-.68,2,2,0,0,1,0-.35c0-.12,0-.24,0-.36a2.79,2.79,0,0,1,.13-.7,2.73,2.73,0,0,1,.28-.6,5.72,5.72,0,0,1,.39-.57,2.63,2.63,0,0,1,.51-.49,3.16,3.16,0,0,1,.59-.35,2.85,2.85,0,0,1,.31-.12,2.09,2.09,0,0,1,.36-.08,2,2,0,0,1,.35,0h.34a2.33,2.33,0,0,1,.57.17,2.29,2.29,0,0,1,.09-.5,2.47,2.47,0,0,1,.29-.67,3.12,3.12,0,0,1,.43-.53,3,3,0,0,1,.33-.29,1.76,1.76,0,0,1,.37-.23,6.6,6.6,0,0,1,.77-.33h.09l.29-.09.34-.08a1.84,1.84,0,0,1,.33,0h.37a2.9,2.9,0,0,1,.65.14,1.94,1.94,0,0,1,.58.36l0,0,0-.06A5,5,0,0,1,274,220a3.7,3.7,0,0,1,.37-.41,4.31,4.31,0,0,1,.46-.39h0l.07-.05h0l.33-.19.18-.08.21-.08.37-.11a2.79,2.79,0,0,1,.4-.07h.09a3.21,3.21,0,0,1,.69,0,5.32,5.32,0,0,1,.67.14l.66.19.61.19a3,3,0,0,1,.7.38,1.25,1.25,0,0,1,.36.46,1.34,1.34,0,0,1,.2-.21c.12-.11.23-.22.36-.32a2.85,2.85,0,0,1,.37-.23,2,2,0,0,1,.43-.15A1.85,1.85,0,0,1,282,219l.34,0,.42,0a2.08,2.08,0,0,1,.41.11l.29.14a2.41,2.41,0,0,1,.86.72,1.67,1.67,0,0,1,.18.28,1.82,1.82,0,0,1,.16.31,1.69,1.69,0,0,1,.12.36,2.11,2.11,0,0,1,.05.35,1.93,1.93,0,0,1,0,.34c0,.11,0,.22,0,.33a2.88,2.88,0,0,1-.15.5,1.14,1.14,0,0,1-.19.34.7.7,0,0,1-.49.27.83.83,0,0,1-.35-.06.71.71,0,0,1-.26-.16c0,.14-.07.29-.11.42h0v.06a2.58,2.58,0,0,1-.08.26l.13.23c.13.23.27.45.39.68s.24.5.35.75.21.46.31.7a2.07,2.07,0,0,1,.5,0,3.42,3.42,0,0,1,.78.19c.13.05.26.09.38.15l.36.21a2.92,2.92,0,0,1,.38.32l.33.37c.1.12.21.25.3.38a2.36,2.36,0,0,1,.28.42h0v0h0l0,.07,0,0a2.76,2.76,0,0,1,.3,1v0a4.39,4.39,0,0,1,0,.81,3.61,3.61,0,0,1-.13.81,3.87,3.87,0,0,1-.3.73,2.64,2.64,0,0,1-.23.35l-.27.32a5.3,5.3,0,0,1-.59.57,3.51,3.51,0,0,1-.7.42l-.16.06a6.64,6.64,0,0,1-.05.77,8.49,8.49,0,0,1-.34,1.59,8.28,8.28,0,0,1-.43,1c-.16.33-.33.65-.52,1l0,0a8.22,8.22,0,0,1-1.05,1.26,6.92,6.92,0,0,1-.69.52,4.46,4.46,0,0,1-.66.4l-.73.34-.72.28c-.26.09-.52.18-.8.25l-.37.08-.2,0-.09.28-.18.62c-.06.19-.14.38-.2.58l-.09.33a1.36,1.36,0,0,1,0,.17,1.29,1.29,0,0,1,0,.19v0a.47.47,0,0,1,.24.13,1.39,1.39,0,0,1,.21.21c.13.15.25.3.38.44a.23.23,0,0,0,.07.07l.27-.21c.25-.18.49-.35.74-.51s.43-.29.65-.43l.67-.44c.23-.17.47-.33.71-.48l.66-.41,1.39-.89c.21-.14.41-.28.63-.41l.73-.46,1.32-.82,1.41-.87.7-.42.67-.42.64-.36c.23-.11.45-.23.67-.35l.31-.18.24-.15.08-.12a1.63,1.63,0,0,1,.23-.29,5.66,5.66,0,0,1,.49-.49l.52-.46c.16-.14.33-.29.5-.42l.14-.1,0,0a.44.44,0,0,1,.2-.13.52.52,0,0,1,.42.08l.16.09.21.14a.18.18,0,0,1,.07.05.08.08,0,0,1,0,0,3.59,3.59,0,0,1,.36-.32l.35-.31.66-.6c.49-.42,1-.83,1.5-1.24s1-.77,1.43-1.14l.71-.56.73-.58c.51-.4,1-.8,1.53-1.21l1.46-1.14,2.94-2.32.73-.56.72-.54,1.45-1.05.76-.55.74-.56c.52-.39,1-.78,1.56-1.16l.07-.05.3-.21L314.3,219l.76-.55.74-.58.68-.56.7-.61c.45-.4.88-.82,1.35-1.2a8.5,8.5,0,0,1,.77-.57,5,5,0,0,1,.83-.42,2.34,2.34,0,0,1,.9-.22,1.08,1.08,0,0,1,.36.05.61.61,0,0,1,.37.35.55.55,0,0,1,0,.4,1.25,1.25,0,0,1-.28.47,6.5,6.5,0,0,1-.52.53l-.3.3.05,0a3.37,3.37,0,0,1,.87-.27l.45-.05h.24a.38.38,0,0,1,.31.26.8.8,0,0,1-.23.63l-.26.33a6.89,6.89,0,0,1-.62.7c-.1.1-.19.2-.29.29a4,4,0,0,1,.58-.21,5.56,5.56,0,0,1,.91-.14h.23a.38.38,0,0,1,.35.21.47.47,0,0,1,0,.17.54.54,0,0,1-.05.21.78.78,0,0,1-.11.2,2.31,2.31,0,0,1-.2.24c-.17.18-.37.34-.56.51l-.11.09a4.32,4.32,0,0,1,.8-.14.85.85,0,0,1,.32,0,.44.44,0,0,1,.31.28.78.78,0,0,1-.21.69,3.13,3.13,0,0,1-.7.61l-.76.49-.76.49-.78.51-.74.47-.72.47-.75.52c-.23.16-.47.31-.7.48l-.71.52c-.26.18-.51.37-.76.56l-.7.58-.7.58-.76.61-.7.57-.68.57-.71.62-.88.76-.84.76-.7.66-.68.61c-.45.42-.92.82-1.37,1.23L306,234.25c-.46.4-.92.8-1.39,1.18l-1.43,1.21-.67.57-.7.56c-.33.26-.64.54-1,.82l-.33.29c-.06.05-.13.09-.19.15a1.89,1.89,0,0,1-.2.2l0,0,.18.18.39.38.15.19.08.1a.5.5,0,0,1,.08.2.42.42,0,0,1,0,.22.83.83,0,0,1-.07.13.67.67,0,0,1-.14.15,1,1,0,0,1-.17.12l-.24.17-.27.2-.28.25a5.54,5.54,0,0,1-.45.37.36.36,0,0,1,0,.09,1.39,1.39,0,0,1-.21.21l-.23.19-.46.37-.88.76-.93.79q-.49.42-1,.81c-.31.24-.62.49-.91.76l-.95.81-.89.76c-.31.27-.63.53-.95.79l-1,.8-1,.83-.91.78-.91.84-.44.4-.88.84-1,.92-.73.72-.78.76c-.25.24-.48.51-.71.78l-.66.74c-.12.15-.24.31-.35.47l-.16.31c-.09.22-.17.43-.24.66v0c-.05.18-.11.36-.16.54a.19.19,0,0,0,0,.07.76.76,0,0,1,0,.11,1,1,0,0,1,0,.14,2.29,2.29,0,0,0-.08.28c-.11.35-.22.7-.34,1s-.25.74-.37,1.11c-.22.77-.41,1.55-.62,2.32-.11.4-.21.79-.32,1.18s-.23.78-.34,1.16-.27.86-.4,1.29c-.24.79-.45,1.59-.69,2.37s-.52,1.52-.81,2.28c-.14.38-.27.76-.4,1.15s-.27.74-.43,1.11c-.08.18-.16.36-.26.54s-.21.36-.32.54l-.3.46-.31.47a7.59,7.59,0,0,1-.56.71q-.13.15-.3.3l0,0c.09.15.19.29.28.43s.2.29.29.44.2.32.29.49.35.62.52.93.36.62.55.93c.37.63.73,1.27,1.09,1.9s.72,1.27,1.05,1.92c.16.32.31.65.47,1l.49,1,.46,1c.14.31.28.62.43.93.26.57.54,1.13.8,1.71.13.29.26.59.37.89s.23.61.34.91h0c.08.23.17.45.25.68l0,0c.27.72.54,1.43.79,2.15s.48,1.4.73,2.09.48,1.37.7,2.06.43,1.39.65,2.08c0,.09.07.19.1.28v0s0,.08,0,.12v0a.49.49,0,0,1,0,.11c.25.68.55,1.34.78,2s.46,1.36.68,2,.43,1.35.63,2,.38,1.39.53,2.09c.06.29.12.57.16.87l.09.6,0,.1a.33.33,0,0,1,0,.13.34.34,0,0,1-.33.34h-.07l-.07.08-.15.09a.58.58,0,0,1,.05.14l.13.31.25.64v0h0a.49.49,0,0,1,0,.11v0c.09.25.17.51.24.77s.13.52.19.78.14.49.22.73.17.51.25.77.13.5.2.75.13.47.19.71.13.49.19.74.11.48.16.72h0v0l0,.14a.4.4,0,0,1,.26.06h0l.12-.06c.2-.1.41-.21.63-.3s.44-.16.67-.23l.65-.22a12.69,12.69,0,0,1,1.35-.34c.46-.09.92-.18,1.39-.23l.66,0h.37a.86.86,0,0,1,.23,0,.68.68,0,0,1,.35.22.7.7,0,0,1,.15.23l.06.21a1.22,1.22,0,0,1-.12.77,1.73,1.73,0,0,1-.33.47l-.26.26c-.35.31-.71.6-1.08.89l-.51.39-.56.44-.58.42-.54.4c-.39.28-.79.53-1.19.8l-.59.39-.59.38-1.16.72L289,325c-.2.13-.39.26-.58.37-.4.24-.81.46-1.21.69l-.49.31-.46.29-.18.14h0l-.09.07a.46.46,0,0,1-.23.06Zm2.42-5.88c-.25.13-.5.26-.74.41l-.71.4c-.24.13-.48.28-.71.43a4.5,4.5,0,0,1-.78.42l-.07,0a1.16,1.16,0,0,0,0,.18c.06.25.13.5.2.74s.13.52.2.78c.12.51.26,1,.39,1.53,0,0,0,.06,0,.08l.24-.15.59-.36c.38-.23.78-.44,1.17-.67s.78-.48,1.17-.72l1.22-.76.56-.34.6-.39.59-.38c.19-.12.37-.23.55-.36l.21-.14.48-.34h0l.07-.05,0,0,.12-.09,0,0,0,0h0l.19-.13.24-.18c.37-.26.72-.53,1.08-.8s.74-.57,1.09-.88l0,0,0,0,.15-.14.14-.16a.83.83,0,0,0,.08-.12l.06-.11,0-.08,0-.06v-.13s0-.05,0-.08,0,0,0-.06v0h0l0,0h-.19c-.25,0-.49,0-.74,0a17.1,17.1,0,0,0-1.74.3h0l-.6.15c-.19,0-.37.11-.56.17l-.55.18-.54.17c-.23.09-.46.2-.69.3l-.3.13-.1.08-.14.08-.42.25-.93.49,0,0Zm.19-4.92-.67.23c-.21.07-.41.16-.61.24l-.67.26-1.28.54-.74.34a2.54,2.54,0,0,1-.38.16l-.08,0c0,.1.05.2.08.3.14.51.29,1,.43,1.54s.27,1,.39,1.56l.21.92.15-.1.12-.08,0,0c.23-.17.45-.35.68-.51s.48-.34.73-.5l.66-.44.71-.41.62-.35.63-.35.41-.24a.56.56,0,0,0,0-.12c-.06-.25-.12-.49-.19-.73s-.14-.5-.2-.75L289,317c-.09-.33-.17-.67-.26-1Zm-5.62-2.51-.14.05c.06.1.1.2.15.29l.15.35a7.81,7.81,0,0,1,.29.81c.17.51.29,1,.41,1.55l.21.8h0l.3-.15h0l.62-.34.63-.32.61-.29.67-.28.72-.3.77-.28h0a4.65,4.65,0,0,0,.52-.2c-.07-.23-.14-.45-.19-.68s-.1-.54-.16-.81c0-.12-.05-.25-.07-.38-.08-.33-.17-.65-.26-1a4.21,4.21,0,0,1-.12-.48,1.89,1.89,0,0,1-.05-.23l-.5.2c-.34.14-.67.32-1,.46-.73.3-1.49.52-2.24.75l-.7.24-.43.16h0l-.14.05h0Zm-57.86-38.11c-.15.12-.28.24-.43.35l-.43.34-.17.13-.09,0c.25.43.5.87.73,1.3s.49.92.72,1.38.44.91.65,1.37c.13.27.26.55.4.82s.3.52.44.79.15.27.22.4l0,.05.05-.06c.29-.3.61-.58.92-.87l.82-.79.85-.79c.33-.31.64-.62,1-.92l.61-.55c0-.07,0-.15-.09-.23s-.19-.34-.29-.51l-.33-.57c-.22-.41-.44-.82-.69-1.2l-.1-.15-.82-1.13c-.27-.37-.52-.75-.77-1.14l-.07-.11-.17.12a5.14,5.14,0,0,1-.49.32l-1,.63-.43.26c-.18.11-.36.22-.53.34l0,0-.09.07,0,0Zm50.83-24c-.24.65-.46,1.3-.67,2-.45,1.55-.82,3.13-1.24,4.69-.1.4-.21.79-.31,1.18s-.21.81-.32,1.21c-.2.81-.41,1.62-.66,2.42s-.45,1.37-.66,2.06-.43,1.53-.63,2.3-.43,1.58-.65,2.38c-.11.41-.23.81-.34,1.22s-.2.78-.29,1.17c-.19.81-.38,1.61-.58,2.41-.1.4-.21.81-.3,1.22s-.18.78-.28,1.17c-.2.78-.42,1.56-.6,2.35a1.16,1.16,0,0,1,0,.18h.05l.65-.17.65-.2.63-.19.78-.33.87-.37c.51-.2,1-.39,1.52-.63q.27-.15.54-.33l.5-.32a3.88,3.88,0,0,0,.31-.26,3.78,3.78,0,0,0,.39-.41c.16-.2.31-.42.45-.63l.42-.65c.09-.15.18-.3.26-.46s.18-.36.27-.54c.15-.35.29-.71.41-1.08s.27-.77.41-1.16c.28-.75.57-1.49.81-2.25l.06-.19c.18-.6.35-1.2.53-1.8s.4-1.22.58-1.83v.05c.23-.77.44-1.55.65-2.34s.4-1.59.64-2.38c.14-.45.3-.89.45-1.34l.36-1.12v0a1.09,1.09,0,0,1,.05-.17h0l.06-.21V258l0-.06a5.54,5.54,0,0,1,.4-1,4.26,4.26,0,0,1,.68-.94l.83-.92a12,12,0,0,1,.87-.88l.88-.86c.32-.31.65-.6,1-.9l.86-.82.92-.84.92-.83.94-.82,1-.78.89-.75c.33-.26.65-.52,1-.79s.64-.56,1-.83l.92-.78c.3-.27.61-.52.93-.77s.63-.52.94-.79l.93-.79.79-.71.35-.3-.32-.21-.38-.25-.65-.38a7.78,7.78,0,0,1-.7-.47l-.62-.47-.65-.45a5.31,5.31,0,0,1-.62-.55l-.41-.39-.43-.37a10.83,10.83,0,0,1-.83-.83l-.46-.46-.24-.23-.06-.06-.31.19c-.23.14-.46.26-.7.39l-.67.38-.68.44-1.41.87-1.38.88c-.44.29-.9.56-1.34.86-.23.14-.44.29-.67.44l-.66.43-.69.45-.69.43-.69.47-.69.46-.54.34-.54.37a6.41,6.41,0,0,0-.52.39.57.57,0,0,1-.14.13.48.48,0,0,1-.23.07c0,.46-.07.93-.12,1.39l-.12.82q-.06.44-.15.87a4.05,4.05,0,0,1-.12.5.47.47,0,0,1-.35.33h-.07a.52.52,0,0,1-.33-.14,1.37,1.37,0,0,1-.26-.37c-.07-.12-.13-.25-.19-.38s-.24-.54-.37-.8l-.14-.3c-.25.87-.49,1.73-.76,2.6h0l0,.06h0c0,.08-.05.16-.07.23v-.06C276.11,250.13,275.87,250.82,275.62,251.5Zm-53.06,20-1.14.53-.26.11a2.39,2.39,0,0,0,.13.28c.23.44.48.88.75,1.31l.42.66c.14.21.28.43.41.65l.49.8.07,0,.09,0h0l.21-.18.49-.4c.33-.25.68-.49,1-.71l1-.65,0,0,.17-.12.87-.6h0l0,0h0l.15-.11,0,0,0,0,0,0,0,0-.33-.52-.39-.6-.36-.61c-.17-.29-.34-.58-.53-.85l-.24-.33a1.73,1.73,0,0,1-.34.14l-.5.21c-.35.15-.69.32-1,.49l0,0-.2.11,0,0C223.35,271.12,223,271.3,222.56,271.48Zm-4.5-.15-1.23.7c-.34.2-.68.39-1,.6s-.67.43-1,.66l-.41.31c-.12.09-.23.19-.34.29l-.21.22-.08.11a.36.36,0,0,0,0,.09l0,.06v.1h.44c.2,0,.4-.06.6-.1.43-.11.85-.24,1.27-.39h0l.23-.08h0c.37-.14.73-.28,1.09-.44s.72-.34,1.07-.51h0l.6-.3.58-.28.62-.25.3-.11.06,0h0a.19.19,0,0,1,.07-.08l0,0,.14-.09.23-.14.45-.26.46-.26.53-.28,0,0,.48-.25h0l.16-.08h0c.38-.2.74-.42,1.12-.62l.56-.27.55-.25.05,0-.12-.23c-.11-.2-.23-.4-.33-.61a1.43,1.43,0,0,1-.13-.28l-.12.05-.63.24-.61.25-1.32.54c-.44.19-.87.37-1.3.57s-.86.4-1.28.62l-.21.11h0C218.86,270.88,218.46,271.11,218.06,271.33Zm21.53,1.18.44.05.4,0c.13,0,.27,0,.4,0l1.43,0a14.15,14.15,0,0,1,1.45.11l1.2.11c.41.05.82.1,1.23.12h.35l.39,0,.21,0a2.3,2.3,0,0,0,.26,0c.16,0,.32-.06.48-.09q.53-.12,1-.27c.33-.09.65-.2,1-.32l.46-.18.4-.19.4-.23.36-.24a3.15,3.15,0,0,0,.29-.22L252,271l.21-.21.18-.2c.12-.16.24-.33.35-.5.23-.4.46-.81.66-1.23l.09-.21c0-.05,0-.1,0-.14a.46.46,0,0,1,.17-.24h0l0-.08c0-.2.1-.4.16-.59a1.83,1.83,0,0,1,.08-.25l-.79,0a10,10,0,0,1-1.54-.13.51.51,0,0,1-.24-.07.31.31,0,0,1-.13-.27v0a1.62,1.62,0,0,1,0-.22,2.58,2.58,0,0,1,0-.39c0-.28.06-.55.08-.83l.09-.87.12-.86.18-1.29c.07-.44.11-.88.18-1.31v0h0c0-.22.07-.43.12-.64l-.78.15c-1.27.23-2.54.42-3.81.55l-.52,0h0c-.54.05-1.08.07-1.62.08a2.29,2.29,0,0,1-.09.28l-.09.31c-.07.21-.15.42-.23.63-.15.42-.3.84-.48,1.25l0,0c-.21.45-.42.9-.64,1.34s-.41.85-.63,1.27-.43.83-.65,1.24-.45.87-.69,1.29-.49.82-.74,1.23-.39.67-.59,1-.42.71-.64,1.06h0l0,0h0C239.78,272.22,239.69,272.37,239.59,272.51Zm14.63-2.92v0h1.08l1.48,0h1.45l1.47,0,1.49,0,1.42-.06,1.46,0h1.47l.73,0,.31,0v0a.53.53,0,0,1,0-.17l0-.15c0-.1.05-.2.07-.3s.1-.44.16-.67l.15-.67c.06-.24.12-.47.17-.7.1-.47.19-.94.28-1.41,0-.23.09-.45.14-.68s.12-.46.17-.68c.1-.46.19-.92.27-1.37s.19-1,.28-1.44l.15-.69c0-.23.08-.46.13-.7l.27-1.37c0-.24.08-.47.13-.71s.1-.47.15-.7c.11-.47.25-.93.36-1.4l.06-.34v0h0c.07-.46.14-.92.24-1.37s.22-.93.33-1.4.15-.71.24-1.06.18-.68.24-1a5.53,5.53,0,0,1,.16-.79h0c.05-.15.1-.31.16-.47l-.26,0L270,249c-.46-.05-.92-.08-1.39-.12s-1-.09-1.45-.15-.93-.08-1.4-.11l-.74-.06c-.24,0-.48,0-.72-.07l-1.42-.11-.64-.07-.62,0-.85,0-.46,0-.44,0a11.11,11.11,0,0,0-1.29,0l-.64,0h-.61l-.06.18-.21.6c-.11.4-.2.82-.29,1.23-.05.22-.09.44-.14.66a.65.65,0,0,0,0,.13h.11c.19,0,.39,0,.58,0h.11l.17,0h0l.27,0a.78.78,0,0,1,0-.14l0-.13.06-.24a5.22,5.22,0,0,0,.11-.57v0c0-.21.06-.42.1-.63h0c0-.09,0-.17,0-.25h0l0-.16v0a.08.08,0,0,0,0,0,.09.09,0,0,1,0-.06h0s0,0,.06,0,0,0,0,.05a.07.07,0,0,0,0,0v.09a.14.14,0,0,1,0,.09c0,.13,0,.26,0,.39s0,.5-.07.75,0,.29-.08.43,0,.13-.05.2,0,.08,0,.12h.64l1.25,0c.4,0,.79-.05,1.19-.06s.82,0,1.23,0h.8l.64,0c.19,0,.39,0,.58.05a4.23,4.23,0,0,1,.62.11c.19,0,.39.07.58.12a3.86,3.86,0,0,1,.58.17l.24.09h0a.34.34,0,0,1,.24-.06.33.33,0,0,1,.27.2.34.34,0,0,1,0,.2.51.51,0,0,1,0,.13c0,.14-.06.28-.1.42s-.09.31-.14.46l-.09.32c0,.11-.05.23-.08.35a2,2,0,0,1-.06.23,3.45,3.45,0,0,1,.61.3.94.94,0,0,1,.37.37.49.49,0,0,1,0,.11.37.37,0,0,1,0,.11.34.34,0,0,1-.05.22.61.61,0,0,1-.07.1.38.38,0,0,1-.09.09.67.67,0,0,1-.2.12,1.37,1.37,0,0,1-.45.13l-.43,0h-.13l.35.11.21.07a.86.86,0,0,1,.34.26.72.72,0,0,1,.15.45.43.43,0,0,1-.19.34,1.09,1.09,0,0,1-.39.15l-.46,0H266l0,0a2.14,2.14,0,0,1,.4.2,1.79,1.79,0,0,1,.28.27l.1.14a.35.35,0,0,1,0,.3.63.63,0,0,1-.31.25,1.87,1.87,0,0,1-.32.08h0l0,0a1,1,0,0,1,.28.34s0,.09.05.13a.8.8,0,0,1,0,.15.36.36,0,0,1-.22.32,1.13,1.13,0,0,1-.24.08,2.2,2.2,0,0,1-.37.06.28.28,0,0,1,0,.18s0,.06,0,.1v0c-.09.51-.2,1-.3,1.51s-.24,1.1-.37,1.65-.27,1.1-.41,1.65-.27,1.07-.36,1.61a7.84,7.84,0,0,1-.18.81.66.66,0,0,1-.06.2.51.51,0,0,1-.17.28.6.6,0,0,1-.19.06l-.16,0-.4.07-.42,0-.85,0-1.73,0-.84.05-.87,0-1.71.07h-.55v0c0,.06,0,.13,0,.19s0,.26,0,.39,0,.26,0,.39l0,.18a1.49,1.49,0,0,1,0,.21.18.18,0,0,1-.18.16h0a.19.19,0,0,1-.16-.2c0-.13,0-.26.08-.39s.05-.26.07-.4,0-.27.08-.4l0-.15h-1.3v.07l0,.25c0,.17-.05.33-.08.5-.06.34-.13.68-.19,1v-.05C254.27,269.27,254.24,269.43,254.22,269.59Zm16.91-18.88c0,.23-.11.46-.17.69-.12.46-.22.92-.34,1.37s-.23.92-.34,1.38c0,.24-.1.48-.14.72s-.09.46-.14.69-.12.45-.18.67-.14.48-.2.72-.11.47-.16.71l-.12.67c-.09.48-.19.95-.29,1.43-.05.23-.09.46-.13.69l-.15.69c-.2.93-.36,1.88-.56,2.81,0,.22-.11.44-.16.66l-.15.69c-.08.47-.16.93-.25,1.4,0,.23-.11.47-.17.7l-.15.67c-.05.23-.12.45-.17.67s-.05.2-.08.3-.05.2-.07.3h0l.65,0,.29,0h0a.3.3,0,0,1,.14-.19.28.28,0,0,1,0-.09c0-.14.08-.28.12-.42a2.4,2.4,0,0,0,.12-.38h0v0c.07-.23.14-.46.19-.69s.09-.47.14-.7c.1-.5.22-1,.33-1.48.06-.24.12-.48.17-.73s.1-.5.16-.75c.11-.5.22-1,.32-1.5.06-.25.11-.5.16-.76s.12-.47.19-.7c.14-.49.28-1,.41-1.49s.25-1,.38-1.51.25-1,.37-1.47.23-1,.34-1.53l.18-.76c.06-.25.12-.49.17-.74s.11-.49.17-.73.13-.53.19-.79.12-.5.19-.74l.24-.76,0-.08v0c.1-.35.19-.7.29-1.05.05-.18.1-.36.14-.54a1.82,1.82,0,0,0,.07-.25l-.17,0-.4.13v0c0,.07,0,.13,0,.19l-.09.37-.18.75c0,.05,0,.09,0,.14a.14.14,0,0,1-.09.09l-.06,0H272a.17.17,0,0,1-.1-.21l.09-.2v0a5.12,5.12,0,0,0,.25-.65l.12-.34a.78.78,0,0,0,.05-.14l-.34.13,0,.09c-.06.19-.11.38-.16.58l-.06.28,0,.15a.75.75,0,0,1,0,.16.15.15,0,0,1-.14.1h0a.15.15,0,0,1-.14-.15.43.43,0,0,1,0-.11.29.29,0,0,1,0-.09l.06-.18c0-.12.07-.23.12-.35l.12-.36-.13.06a.26.26,0,0,1-.15.12h0a.88.88,0,0,0-.05.15c0,.11-.07.21-.1.32a2.73,2.73,0,0,0-.1.41h0v0h0C271.22,250.26,271.18,250.49,271.13,250.71Zm.7-3.23c.24,0,.47.07.71.09l.72.1a.71.71,0,0,1,.4.13.58.58,0,0,1,.09.58c-.05.24-.12.47-.18.7s-.17.67-.26,1-.2.68-.3,1-.13.48-.19.72-.13.52-.19.79-.11.48-.17.72-.11.5-.17.75c-.12.5-.24,1-.35,1.52-.05.25-.11.51-.17.76s-.13.49-.19.74c-.24,1-.48,2-.75,3-.07.26-.14.52-.22.77s-.14.48-.2.72-.11.5-.16.76-.1.49-.16.74c-.11.5-.23,1-.34,1.5s-.23,1-.34,1.47c-.06.25-.11.49-.17.74s-.09.47-.14.71v0h0l.15,0,.36.07.39.08.12,0,0-.1.3-1.22c.15-.6.29-1.19.47-1.78s.38-1.21.57-1.82c.23-.78.42-1.56.61-2.35.09-.39.18-.77.28-1.15s.2-.8.31-1.19l.6-2.41c.19-.8.39-1.59.62-2.38s.51-1.59.79-2.37c.14-.38.28-.76.41-1.14s.26-.8.39-1.2l.18-.6,0,.06c0-.11.07-.23.1-.34h0l0,0v0h0v0l0-.1,0,.06c.12-.4.25-.8.38-1.2s.27-.8.41-1.2l.42-1.1c.15-.38.3-.76.48-1.14l.24-.49.12-.24.08-.11A2.76,2.76,0,0,1,278,242c.07-.25.17-.49.25-.74s.15-.48.23-.72a.61.61,0,0,1,.26-.4.86.86,0,0,1,.23-.05c.28-.07.56-.16.84-.25l.84-.35.79-.37.27-.16a1.67,1.67,0,0,0,.28-.18c.25-.18.51-.36.75-.57a4.32,4.32,0,0,0,.34-.39l0,0a7.88,7.88,0,0,0,.55-.74,11.36,11.36,0,0,0,.56-1.1,7.61,7.61,0,0,0,.31-.79c.09-.33.16-.67.22-1a7.89,7.89,0,0,0,.1-.85v-.05h-.58a3.91,3.91,0,0,1-.68-.06,3.41,3.41,0,0,1-.63-.24,2.06,2.06,0,0,1-.26-.12.3.3,0,0,1-.12-.13.26.26,0,0,1,0-.21.27.27,0,0,1,.35-.16c.21.08.4.18.61.25l.11,0,.37,0h.83v-.44c0-.35,0-.69,0-1l0,.05v0a.18.18,0,0,1-.15.1h-.05a.16.16,0,0,1-.1-.2,1.69,1.69,0,0,1,.13-.27.17.17,0,0,1,.18-.09c0-.31-.07-.63-.12-.94s-.14-.81-.22-1.21-.26-1-.4-1.47c0-.16-.08-.31-.13-.47l-.18.06-.26.11-.22.12-.2.14a5.56,5.56,0,0,0-.54.42,3.45,3.45,0,0,0-.26.28l-.12.15-.09.15c-.06.1-.12.2-.17.3s-.1.2-.15.3a5.37,5.37,0,0,0-.21.56c0,.12-.06.24-.08.35a1.53,1.53,0,0,0,0,.3,3.08,3.08,0,0,0,0,.43c0,.1,0,.21.05.31s.06.21.09.32l0,.09v0a.16.16,0,0,1,.1,0,.15.15,0,0,1,0,.24.08.08,0,0,1,0,0h0a.23.23,0,0,1-.16,0,.43.43,0,0,1-.24-.2,1.48,1.48,0,0,1-.19-.35,2.76,2.76,0,0,1-.19-.75,2.69,2.69,0,0,1,0-.8,4.91,4.91,0,0,1,.21-.75,7,7,0,0,1,.34-.74,4.1,4.1,0,0,1,.47-.68,3,3,0,0,1,.32-.3l.3-.25.29-.2-.39.05-.68.08-.36,0-.16,0h0a.33.33,0,0,1-.31-.24.31.31,0,0,1,0-.23A.37.37,0,0,1,281,226a1.14,1.14,0,0,1,.33-.17l.37-.12.67-.18c.24-.06.48-.13.72-.18l.27,0c-.1-.28-.21-.56-.34-.84l-.18-.42a3,3,0,0,1-.33.46l-.24.24-.14.11a.71.71,0,0,1-.14.1l-.16.08a1,1,0,0,1-.34.06,1.08,1.08,0,0,1-.4-.06,1.49,1.49,0,0,1-.51-.31,2.08,2.08,0,0,1-.32-.4l-.09-.14a5.12,5.12,0,0,1-.34.71c-.11.19-.25.37-.38.55a5.41,5.41,0,0,1-.44.5,2.82,2.82,0,0,1-.55.43,1.4,1.4,0,0,1-.33.15,1,1,0,0,1-.53,0,.94.94,0,0,1-.42-.16,1,1,0,0,1-.26-.25,1.34,1.34,0,0,1-.18-.28,2.17,2.17,0,0,1-.15-.35,2,2,0,0,1-.05-.24l-.32.44a6.69,6.69,0,0,1-.9,1,4.15,4.15,0,0,1-.52.42,2,2,0,0,1-.32.18,2.68,2.68,0,0,1-.3.12l-.18,0a1.13,1.13,0,0,1-.41,0l-.27-.06a1,1,0,0,1-.37-.25,1.32,1.32,0,0,1-.26-.36,2.72,2.72,0,0,1-.11-.25l-.07.13c-.1.2-.21.4-.33.59a4,4,0,0,1-.41.51l-.49.48a2.29,2.29,0,0,1-.57.41,1.29,1.29,0,0,1-.38.12,1,1,0,0,1-.45-.06,1.07,1.07,0,0,1-.25-.16.53.53,0,0,0,0,.13c0,.22-.05.43-.09.65h0v0h0a11.74,11.74,0,0,1-.32,1.3,1.88,1.88,0,0,1-.12.3.61.61,0,0,1-.07.14.57.57,0,0,1-.11.16.52.52,0,0,1-.17.12h0c0,.08,0,.15,0,.23s0,.43,0,.65,0,.43-.06.64-.08.45-.13.67l0,.11.55-.1.51-.13.49-.14.51-.12a3.1,3.1,0,0,1,.42-.08.44.44,0,0,1,.2,0l.06-.23h0a4.84,4.84,0,0,1,.23-.57,2,2,0,0,1,.14-.25,1.58,1.58,0,0,1,.15-.24,2.35,2.35,0,0,1,.19-.25l.19-.21a3.91,3.91,0,0,1,.44-.37,4.64,4.64,0,0,1,.7-.45h0l.18-.09,0,0,.23-.1.12,0,.11-.05.46-.12h0l.58-.11.16,0h0a4.34,4.34,0,0,1,.52-.07c.18,0,.36,0,.54,0h.19l.3,0,.29.06a3.16,3.16,0,0,1,.52.17,2.43,2.43,0,0,1,.52.3,2.27,2.27,0,0,1,.3.32h.18l.8-.32c.26-.1.52-.19.77-.31a.29.29,0,0,1,.41.19.24.24,0,0,1,0,.22.3.3,0,0,1-.22.16l-.08,0c-.28.07-.56.16-.84.25l-.68.22,0,0,.07.14a2.16,2.16,0,0,1,.16.51,4.6,4.6,0,0,1,.11,1.11,5.44,5.44,0,0,1-.05.58,3.29,3.29,0,0,1-.15.56l-.08.21-.09.21c-.07.12-.14.25-.22.36a3.6,3.6,0,0,1-.54.63h0a3.23,3.23,0,0,1-.49.41,3.29,3.29,0,0,1-.52.29c-.19.08-.38.14-.57.2l-.53.16a5.41,5.41,0,0,1-.58.12,3.29,3.29,0,0,1-.54,0h0c-.2,0-.41,0-.61,0l-.27,0-.28,0a2.3,2.3,0,0,1-.28-.06l-.32-.09-.25-.1a2.67,2.67,0,0,1-.43-.25,2.51,2.51,0,0,1-.44-.42l-.16-.23a5.21,5.21,0,0,1-.28-.52,2.5,2.5,0,0,1-.09-.25,1.47,1.47,0,0,1-.08-.28,2,2,0,0,1,0-.24,2.45,2.45,0,0,1,0-.27c0-.07,0-.14,0-.21h-.05l-.37,0h0c-.26,0-.51.07-.76.12s-.53.11-.8.15-.52.06-.78.08a.64.64,0,0,1,0,.07,1.83,1.83,0,0,1-.14.32,1,1,0,0,1-.3.39.51.51,0,0,1-.29.1h-.09a.73.73,0,0,1-.19-.07,1,1,0,0,1-.26-.24.89.89,0,0,1-.16-.25,2.15,2.15,0,0,1-.1-.27,1.65,1.65,0,0,1,0-.31,1.22,1.22,0,0,1,0-.27.76.76,0,0,1,0-.15h-.33l-.19,0-.36.11h0a5.16,5.16,0,0,0-.49.21.57.57,0,0,0-.13.08l-.13.1-.21.22-.11.15a.93.93,0,0,0-.05.1l0,.08,0,.08a.41.41,0,0,0,0,.11v.1s0,.06,0,.1,0,.07,0,.11l.06.14,0,.07.15.19.16.15.16.12.18.09.1,0,.11,0,.14,0c.2,0,.4,0,.59.06l.3.06a.38.38,0,0,1,.18.13.44.44,0,0,1,.05.42,2.19,2.19,0,0,1-.12.33c0,.1-.09.2-.14.29l-.15.29-.13.27a21.22,21.22,0,0,0-.8,2.05l-.15.6-.06.3a1.4,1.4,0,0,1-.08.34.36.36,0,0,1-.32.19h0a.38.38,0,0,1-.28-.18l-.19.49c-.17.45-.36.89-.55,1.33-.09.21-.19.41-.27.62l-.27.64q-.13.33-.3.66l-.3.62a1.51,1.51,0,0,0-.09.18l0,.09,0,0a2.78,2.78,0,0,0-.16.4l0,.11h0l.84.11.73.11.79.11c.52.06,1,.14,1.55.19s1,.1,1.49.17l.76.1.76.1c.36,0,.72.12,1.08.18h0l1.21.21h0Zm-18.56,12.65-.51.09v.08c0,.15,0,.3-.05.45s0,.59-.08.88c0,.56-.11,1.12-.18,1.68s-.15,1.16-.22,1.74-.14,1-.25,1.55a7.77,7.77,0,0,0,1,.09l1,0,1.07,0c.55,0,1.11,0,1.67,0l1.71-.07.88-.05c.28,0,.55-.05.83-.06l1.42,0c0-.05,0-.1,0-.15l0-.18.06-.37c0-.25.07-.49.11-.73l.15-.73c0-.18.07-.36.11-.55v0c0-.25.1-.5.15-.74l.06-.28,0-.17.09-.52v0s0-.06,0-.09v0c.1-.55.17-1.1.27-1.65v0c0-.16.05-.33.08-.5l.09-.48,0-.16a.28.28,0,0,1,0-.09l-1.45.08-1.22,0-1.21.07c-.63.06-1.26.14-1.88.23l-1.89.25-1.33.21v.06a1.94,1.94,0,0,0,0,.24c0,.15,0,.3,0,.46s-.07.61-.09.92c0,.59-.09,1.19-.15,1.78s-.12,1.14-.19,1.7a.2.2,0,0,1-.19.18h0a.19.19,0,0,1-.17-.21c0-.3.06-.59.09-.89l.06-.44.06-.44c0-.3.08-.59.11-.89s.07-.6.1-.9.08-.58.13-.87l.06-.42a1.7,1.7,0,0,0,0-.22h0Zm10.3-1c0,.11,0,.23,0,.35s-.07.47-.11.7c-.1.49-.22,1-.31,1.45s-.15.76-.23,1.14-.16.75-.23,1.12-.1.72-.17,1.08c0,.18-.07.36-.11.53a3.92,3.92,0,0,1-.13.49c0,.12-.07.25-.1.38a1.33,1.33,0,0,0-.05.19h0l.32,0,.55,0,.37-.05.16,0c.06-.22.11-.44.15-.67h0c0-.27.09-.54.14-.81s.13-.56.2-.84c.13-.55.27-1.1.4-1.65s.27-1.08.38-1.62c.05-.27.1-.54.16-.81s.12-.51.17-.77a.88.88,0,0,0,0-.17.13.13,0,0,0,0-.06Zm-20.53-4-.44.25c-.28.17-.57.33-.86.48l-1.7.86-1,.51c-.32.15-.64.28-1,.41l-.24.09s0,.06,0,.09a3,3,0,0,0,.06.4,1.33,1.33,0,0,0,0,.19l.08.2.06.09.08.1.11.1a2,2,0,0,0,.26.18c.3.17.61.33.92.47l.44.17.47.13.52.13.51.14.5.11a15.15,15.15,0,0,0,1.51.16c.58,0,1.17,0,1.76,0s1.17,0,1.76-.08h-.06l.27,0c.63-.05,1.26-.13,1.88-.22s1.26-.19,1.89-.3l1.93-.35c.63-.11,1.27-.21,1.91-.3.3-.05.61-.08.91-.12l1-.13c.65-.08,1.31-.17,2-.23s1.3-.08,1.95-.1l1.85-.07c.57,0,1.15-.05,1.72-.06H265c.27,0,.55,0,.82,0h.06l0,0-.21-.11-.22-.08L265,258l-.2,0a.54.54,0,0,1-.32-.2.27.27,0,0,1,0-.32.31.31,0,0,1,.28-.13,1.21,1.21,0,0,1,.19,0h.16c.32,0,.64,0,1,0a1.08,1.08,0,0,0,.19,0l0,0a.71.71,0,0,0-.14-.1l-.16-.09a6.56,6.56,0,0,0-.62-.23l-.33-.12-.16-.08a.39.39,0,0,1-.19-.17.28.28,0,0,1,.05-.29.4.4,0,0,1,.23-.1h.62l.89-.07.17,0,.08,0,0,0,0,0,0,0h0l0,0-.06,0-.32-.11h0c-.42-.12-.84-.26-1.27-.36l-.31-.07a.38.38,0,0,1-.25-.13.26.26,0,0,1-.05-.28.31.31,0,0,1,.19-.18l.16,0,.28,0,.36,0,.38,0c.27,0,.54,0,.81,0l.23,0,.13,0,.05,0h0l-.22-.11a8.29,8.29,0,0,0-.83-.31l-.36-.1-.42-.09-.91-.14-.95-.15q-.47-.08-.93-.12l-1-.08-.65-.06-.69-.05c-.65,0-1.29,0-1.93,0s-1.27,0-1.91,0l-1.69,0-.88,0-.81.06-.93.11-1,.15-1.91.28c-.62.09-1.23.2-1.85.31l-1,.18-.92.13c-.34.05-.67.11-1,.18l-.46.09-.24,0h-.17Zm.41-1.49c-.49,0-1,.15-1.47.24s-1,.16-1.53.27c-.3.06-.61.14-.91.22l-.9.25c-.61.17-1.24.28-1.85.47l-.21.06c0,.11,0,.22,0,.32s.08.43.13.64c.07.37.14.75.22,1.12l.06,0a2.37,2.37,0,0,0,.36-.17c.27-.13.56-.23.84-.35.57-.25,1.13-.52,1.69-.78l1.78-.8.87-.42.42-.21.27-.1a.34.34,0,0,1,.39.11l.14,0a.33.33,0,0,1-.09-.31v0a1.64,1.64,0,0,0,0-.22.21.21,0,0,1-.06-.18v0a.09.09,0,0,1,0-.06Zm1.41-.39-.47.37,0,0v.55s0,.05,0,.07l.6-.14,1-.18.93-.2c.62-.13,1.24-.26,1.86-.36l.37-.06h0a1.3,1.3,0,0,1,.08-.17c.1-.16.19-.33.28-.5a4.17,4.17,0,0,1,.4-.6c.15-.21.3-.42.46-.62l.48-.63c.23-.31.45-.62.65-.95s.27-.46.39-.69l-.36.11c-.2.08-.4.16-.6.26l-.63.32h0l-.23.12c-.94.5-1.84,1.05-2.76,1.59-.25.15-.51.3-.76.47l-.73.51,0,0C245.49,252.72,245.17,253,244.86,253.22Zm-7.38.92.67-.13c.61-.15,1.22-.32,1.84-.45.31-.07.61-.12.93-.17l1-.14c.35-.06.7-.11,1.06-.15l.52,0h.42a.22.22,0,0,1,.16,0,.21.21,0,0,1,.11,0l0,0,.57-.52c.39-.34.81-.65,1.23-1,.22-.16.44-.31.68-.46s.43-.27.65-.4c.46-.29.92-.56,1.39-.83l.69-.4.73-.39c.24-.13.47-.25.72-.36a6.24,6.24,0,0,1,.76-.28l.4-.08a.44.44,0,0,1,.49.18.64.64,0,0,1,.07.27,1.31,1.31,0,0,1-.18.63,3.59,3.59,0,0,1-.17.34,13.49,13.49,0,0,1-.85,1.36c-.22.31-.45.61-.67.91l-.31.43-.28.41-.13.24.69-.12.89-.14,1-.14.55,0s0-.07,0-.11,0-.2,0-.3,0-.37,0-.55a.15.15,0,0,0,0-.07.34.34,0,0,1,.07-.22.37.37,0,0,1,.2-.15l.14,0a5.61,5.61,0,0,1,.59-.06l.71,0,.58-.07L256,251h.16v0c0-.13,0-.26,0-.39s.06-.51.1-.76.06-.51.1-.77a6.42,6.42,0,0,1,.14-.74c.05-.18.09-.36.13-.54a.55.55,0,0,1,.13-.25.35.35,0,0,1,.23-.12h.13l.08,0,.43-.17.5-.19.48-.17.51-.17.34-.14.35-.15.38-.13.17-.05.14,0,.05,0,.19,0h.36l.68,0h0a.41.41,0,0,1,0-.22s0-.09,0-.14a2.92,2.92,0,0,1,.14-.31,5.59,5.59,0,0,1,.3-.6l.34-.62.07-.13a1.67,1.67,0,0,1-.3-.08l-.76-.22-.76-.26-.68-.18-.33-.08-.36-.15a2.23,2.23,0,0,1-.33-.2.59.59,0,0,1-.17-.24.4.4,0,0,1,.07-.33.73.73,0,0,1,.27-.22l.3-.18,1.22-.68.64-.36c.21-.13.42-.25.64-.36l.25-.12.1,0c-.36-.09-.74-.16-1.11-.22s-.88-.13-1.33-.17-.92-.08-1.39-.1h0c-1.2,0-2.4-.05-3.6,0-.26,0-.51,0-.77,0-.41,0-.83.08-1.24.15s-.83.14-1.24.23c-.81.2-1.63.41-2.42.69-.36.13-.71.27-1.06.43s-.67.31-1,.48h0c-.32.17-.64.34-.94.53s-.63.41-.94.63l-1,.72-.49.38c-.15.12-.29.26-.43.38l-.63.61c-.21.2-.42.4-.62.62l-.61.68c-.2.22-.41.44-.61.67l-.13.15c-.25.32-.48.65-.72,1s-.44.64-.65,1l-.31.54c-.11.19-.21.38-.31.57-.18.35-.37.7-.53,1.06s-.19.45-.28.67-.2.45-.3.68a12.91,12.91,0,0,0-.46,1.28h0Zm27-1.39a.63.63,0,0,1-.05.31l.87.14a5.93,5.93,0,0,1,.85.24v-.07c0-.11,0-.22,0-.32v0c0-.13,0-.25,0-.38s0-.21.05-.32a3.47,3.47,0,0,0,.06-.45l-.16-.06-.26-.1h0l0,.23a.19.19,0,0,1-.19.15h0a.18.18,0,0,1-.14-.22l.06-.25-.28-.06c0,.07,0,.14,0,.21a2.17,2.17,0,0,1,0,.26.18.18,0,0,1-.17.17h0a.19.19,0,0,1-.18-.18,2.09,2.09,0,0,1,0-.35c0-.06,0-.12,0-.18l-.4-.08h0v.34q0,.31,0,.63v0C264.51,252.55,264.51,252.65,264.51,252.75Zm-.6.21h0a.33.33,0,0,1,0-.14l0-.08a1.6,1.6,0,0,1,.05-.21c0-.16.07-.32.1-.48s0-.3.07-.45a1.1,1.1,0,0,1,0-.18l-.33,0-.71,0H262l-1.23,0-.59,0-.62,0c-.41,0-.83,0-1.25,0s-.68.05-1,.07-.67,0-1,.06l-1.09.14c-.36,0-.72,0-1.08.08l-.38.05c0,.11-.05.22-.07.33s0,.21-.05.31l0,.15,1-.05h.05s0,0,0-.06a.17.17,0,0,1,0-.07.76.76,0,0,1,0-.15.13.13,0,0,1,.16-.12.14.14,0,0,1,.1.18.47.47,0,0,1-.05.1l0,.06s0,0,0,0h0l1.83,0,1.95,0h1c.32,0,.64,0,1,0l1,.08,1,.09c.53,0,1.06.13,1.58.22h0Zm-3.36-5.29h.7c.24,0,.49,0,.73,0l.74.07.7.06.75.06.66.07,1.48.12c.48,0,.95.1,1.42.15s.93.09,1.4.12.95.1,1.43.15l.67.07h.11l.26-.15c.17-.09.35-.18.54-.26l-.12,0-.75-.13-.77-.15-.89-.16c-.5-.08-1-.14-1.5-.21s-1-.13-1.51-.19l-1.53-.18-.79-.09-.73-.1c-.29-.05-.58-.08-.87-.12s-.55,0-.83-.06h0l-.5,0h-.51l-.13,0h0l-.22.07-.2.07c-.26.1-.5.23-.76.33a8.33,8.33,0,0,1-.84.29l-.57.23.66-.08.89-.05h.07C260,247.63,260.29,247.65,260.55,247.67Zm17.66-4.3c-.11.35-.23.7-.35,1s-.31,1-.47,1.45v0c.13.19.24.39.36.59s.23.41.34.61.15.27.22.4c0-.17.08-.34.11-.51s.11-.64.17-1,.06-.49.1-.74,0-.46.05-.68v-.16a.36.36,0,0,1,.09-.23l0-.06-.19-.32-.24-.36-.09-.16,0-.06ZM262,241.25c-.35.25-.72.49-1.09.72s-.63.4-.94.62l.13,0,.83.2c.29.07.57.17.86.26a5.26,5.26,0,0,0,.6.15l.28.06a.83.83,0,0,1,.34.13l.05,0,.23-.46.31-.59c.22-.42.42-.85.63-1.28l.09-.18-.16-.07c-.28-.09-.55-.19-.83-.27l-.41-.12a.13.13,0,0,1-.05.14h0l-.08.06,0,0c-.2.15-.41.28-.61.42h0l-.15.11h0Zm35.93-.54a7.33,7.33,0,0,0,.67.39l.15.07a.43.43,0,0,1,.11.12l.28-.21.32-.29c.12-.09.23-.19.36-.28l.29-.2-.06-.08-.42-.4c-.15-.15-.3-.31-.44-.47l0,0c-.31-.33-.65-.64-1-1-.16-.16-.31-.33-.46-.49l-.49-.5c-.29-.29-.6-.58-.9-.86s-.64-.59-1-.86l-.5-.4-.5-.42c-.12-.09-.24-.18-.37-.26l-.07,0,0,0-.22.15-.08.05c-.31.22-.61.46-.91.69l-.45.36-.07.06.06.06c.07.08.13.16.21.24l.54.56c.18.2.36.41.55.61a3.68,3.68,0,0,0,.4.39l.42.37.42.41.41.38c.29.21.6.4.89.61l.45.32a4.84,4.84,0,0,0,.46.33h0l0,0h0l.05,0h0C297.4,240.43,297.67,240.56,297.94,240.71Zm.82-2.83c.19.2.39.39.59.59l.28.29a1.28,1.28,0,0,1,.29-.28l0,0,0,0h0a3,3,0,0,0,.34-.28c.23-.18.44-.37.66-.56s.44-.38.67-.55l.69-.57.74-.61.72-.61.71-.6.68-.59,1.42-1.23.66-.58.69-.62.64-.59.66-.6.71-.66.68-.62.67-.58.7-.59c.48-.42,1-.82,1.46-1.22l.7-.56.71-.58.74-.61.72-.54L317,224c.26-.19.53-.37.8-.55l.73-.48.8-.52.75-.46.79-.49.85-.53.92-.56.1-.08h0l.19-.16a1,1,0,0,0,.18-.18l.06-.08,0,0h-.13a5.62,5.62,0,0,0-.57.09l-.31.07-.28.09c-.31.13-.62.27-.91.42l-.18.1a.37.37,0,0,1-.3.09.27.27,0,0,1-.19-.3c0-.13.15-.19.24-.26l.25-.17.51-.34c.39-.29.76-.59,1.13-.9a3.07,3.07,0,0,0,.25-.26.71.71,0,0,0,.1-.14l0,0-.24,0h0a5,5,0,0,0-.66.09l-.37.11-.71.32-.33.2c-.14.09-.31.24-.48.15A.21.21,0,0,1,320,219a.45.45,0,0,1,.16-.32l.21-.22.51-.51c.16-.15.32-.3.47-.46s.33-.35.49-.53.23-.3.33-.45l0,0h-.08a3.35,3.35,0,0,0-.54.08l-.37.1-.44.2a10.74,10.74,0,0,0-.92.56l-.15.11a1.06,1.06,0,0,1-.21.16.3.3,0,0,1-.34,0,.27.27,0,0,1-.12-.33,1.66,1.66,0,0,1,.25-.34l.28-.3.67-.65.6-.6c.12-.12.23-.23.34-.36l.09-.12a.59.59,0,0,0,0-.08l0,0v0h0v0h-.16l-.2,0-.27.08a6.62,6.62,0,0,0-.66.3l-.44.26a17.26,17.26,0,0,0-1.38,1.16l-.68.6c-.22.19-.43.39-.65.57l-.76.62c-.25.2-.49.39-.74.57l-.74.54-.74.52-.94.67h0l0,0h0c-.5.36-1,.73-1.48,1.1l-.77.58c-.24.19-.49.37-.74.55l-1.43,1-.75.55-.76.6c-1,.75-1.92,1.52-2.88,2.28l-1.53,1.22-1.46,1.16L299.65,231l-1.47,1.17c-.25.19-.49.39-.73.59l-.77.61L296,234a3.44,3.44,0,0,1-.36.28l-.36.26h0l.13.11.54.43.53.45c.35.32.7.64,1,1s.68.69,1,1h0l.2.22h0v0h0Zm-25-6.89-.35.2-.05,0-.12.08-.22.16-.24.19-.15.15-.18.2a2.27,2.27,0,0,0-.18.25c-.08.14-.16.28-.23.42a4.37,4.37,0,0,0-.18.46c0,.12-.06.23-.08.35s0,.25,0,.37v.32c0,.08,0,.17,0,.25s0,.1,0,.15.11.27.17.4l.22.38.2.24.11.1a1.88,1.88,0,0,0,.23.16l.15.08.16.07.18.06.4.1.34,0,.4,0a5.42,5.42,0,0,0,.57,0l.19,0,.24,0c.33-.08.66-.17,1-.28l.27-.11c.09,0,.18-.08.27-.12l.12-.07.11-.08.13-.1.13-.11.22-.22.21-.23.11-.15.11-.17.1-.17.18-.48c0-.06,0-.11,0-.17l0-.15c0-.15,0-.3,0-.46a3.23,3.23,0,0,0,0-.44c0-.2-.05-.39-.09-.59a2.17,2.17,0,0,0-.07-.24c0-.09-.07-.18-.11-.27l-.15-.24-.18-.21a.47.47,0,0,0-.1-.1l-.14-.1-.21-.11-.37-.14a.84.84,0,0,0-.24-.06l-.41,0-.45,0h-.28l-.51.07c-.17,0-.34,0-.5.09l-.46.14h0Zm10.8-4.21c.07.24.15.48.23.72s.17.54.24.81.12.53.17.79c.11.52.2,1.05.26,1.58s.09,1.12.1,1.67v.12l.09-.05a2.61,2.61,0,0,0,.28-.17,1.92,1.92,0,0,0,.22-.18,6,6,0,0,0,.54-.58,2.83,2.83,0,0,0,.2-.28A1.59,1.59,0,0,0,287,231h0a1,1,0,0,0,0-.1,3,3,0,0,0,.14-.39c0-.12.06-.25.08-.37v0c0-.12,0-.23,0-.34s0-.44,0-.65a3.06,3.06,0,0,0-.05-.32l-.05-.2a.26.26,0,0,1-.18.09h-.25a5.43,5.43,0,0,0-.56.09l-.28.05a1,1,0,0,1-.25,0h0l-.12,0a.08.08,0,0,1-.05,0,.06.06,0,0,1,0-.07h.13l.3-.1h0l.5-.18.24-.1a2,2,0,0,1,.26-.1H287l-.16-.24a7,7,0,0,0-.49-.59,3.61,3.61,0,0,0-.35-.33l-.16-.11-.22-.11-.44-.16-.31-.07a1.36,1.36,0,0,0-.29,0h-.09Zm-15.48,2.86a2.38,2.38,0,0,0,.05-.26h0A2.56,2.56,0,0,1,269.08,229.64Z"/><path d="M325.52,272.41h-.42l-.35,0-.35-.06a1.86,1.86,0,0,1-.34-.07l-.15,0-.18-.05c-.1,0-.21-.07-.31-.12l-.35-.16a6,6,0,0,1-1.15-.78q-.35-.3-.66-.63c-.1-.11-.19-.22-.28-.34l-.15-.21a1.37,1.37,0,0,1-.13-.2,2.12,2.12,0,0,1-.21-.36l-.23-.43-.21-.38c-.06-.12-.14-.23-.21-.35l-.14-.18a.86.86,0,0,0-.13-.14l-.15-.14-.1-.07-.11-.06-.1,0-.16,0-.19,0-.57,0-.33,0-.35.07-.32.08-.31.1-.18.07h0l-.53.21-.58.28c-.4.22-.8.45-1.18.69s-.79.49-1.2.71-.83.47-1.26.7l-.61.28-.32.12-.16.06-.2.06-.13,0-.21.05-.17,0-.2,0-.17,0-.18,0h-.38a5.67,5.67,0,0,1-.71,0l-.34,0-.37,0a6.1,6.1,0,0,1-.72-.14l-.33-.08-.14,0-.18-.06-.31-.1-.19-.08-.19-.09-.31-.16a3.3,3.3,0,0,1-.64-.47,3.93,3.93,0,0,1-.94-1.4,3.57,3.57,0,0,1-.18-.66,4.53,4.53,0,0,1-.07-.74,5.17,5.17,0,0,1,.1-.79,3.33,3.33,0,0,1,.49-1.22l.2-.3.22-.29.23-.27.11-.11.16-.16.23-.22.13-.1.14-.11.16-.12.14-.1.14-.08.14-.1.18-.09.16-.08.31-.15c.23-.1.45-.19.68-.27l.33-.11.22-.06.16-.05.37-.08.39-.07h0a.78.78,0,0,1,0-.16l.06-.26c.05-.19.13-.39.19-.58a6.14,6.14,0,0,1,.25-.59,6.26,6.26,0,0,1,.34-.55,5.85,5.85,0,0,1,.4-.47,3.24,3.24,0,0,1,.57-.4,4.37,4.37,0,0,1,1.27-.5l.45-.08.47,0h.45l.5,0h0a10.46,10.46,0,0,1,1.77.23l.8.18.85.16.49.08.27,0h.24c.25,0,.49,0,.74,0l.27,0,.27-.05.2-.06.21-.09.2-.11a1.37,1.37,0,0,0,.2-.13l.33-.25.31-.27c.16-.15.32-.31.47-.47l.46-.51.89-1.06.46-.51a5.67,5.67,0,0,1,.5-.48l.12-.1.12-.08.15-.1.18-.1.14-.07.13-.06.17-.07.21-.07.13,0,.15,0,.2,0a3.12,3.12,0,0,1,.44,0c.12,0,.25,0,.38,0l.34,0a9,9,0,0,1,1.38.2c.23,0,.46.11.69.17l.33.1.15,0,.2.07.67.29.63.35.35.21.4.27a1.92,1.92,0,0,1,.17.13l.22.17c.12.09.23.2.34.3l.16.17.15.17.3.37.24.3.3.36.23.23.29.26a3.37,3.37,0,0,0,.38.28l.24.13.23.09.25.06a1.73,1.73,0,0,0,.32,0l.55,0c.18,0,.37,0,.55-.06s.42-.06.63-.11h0l.09,0,.15,0h.08l.35-.09.36-.1.65-.22,1.34-.44c.2-.07.41-.13.61-.18l.33-.08.4-.1.36-.06a2.11,2.11,0,0,1,.35-.05l.17,0h.55l.39,0,.4,0,.36.06.17,0,.21.06.34.11.33.14a3.18,3.18,0,0,1,.32.16l.12.07.19.11a8.77,8.77,0,0,1,1.14.81l.13.12.12.12a.74.74,0,0,1,.12.13l.15.17.22.27.08.13a1.63,1.63,0,0,1,.11.17c.06.1.12.2.17.3l.1.21a1.11,1.11,0,0,0,.07.16l.07.18.05.16a.5.5,0,0,1,0,.13l.06.23c0,.12.05.23.08.35s0,.24,0,.36a2.3,2.3,0,0,1,0,.37.65.65,0,0,1,0,.14v.22l0,.32c0,.12,0,.25-.05.38s-.09.47-.14.71-.13.45-.21.67-.08.22-.12.33-.11.24-.17.36l-.12.21c-.05.08-.09.16-.15.24a1.43,1.43,0,0,1-.14.2l-.12.16a1,1,0,0,0-.08.11,1.8,1.8,0,0,0-.19.2c-.12.13-.25.25-.38.37a3.27,3.27,0,0,1-.48.35,2.66,2.66,0,0,1-.6.26,2.63,2.63,0,0,1-.57.13l-.39,0H344A9.3,9.3,0,0,1,343,268h0a4.86,4.86,0,0,1-.55-.11c-.2,0-.41-.1-.61-.16-.38-.11-.75-.24-1.12-.37-.76-.27-1.51-.55-2.27-.81l-.39-.11-.4-.09-.27,0h-.1l-.18,0h-.87l-.24,0-.28,0-.28.05-.25.06-.28.08-.3.09-.28.1h0l-.43.18-.19.09-.24.11-.36.22-.38.26c-.17.12-.35.25-.52.39s-.31.25-.46.38c-.31.26-.61.52-.91.8s-.56.54-.83.82-.53.56-.8.82-.29.28-.45.41l-.21.17-.26.19-.24.15-.29.16a3.82,3.82,0,0,1-.55.24h0l-.31.11a3.58,3.58,0,0,1-.35.09c-.23,0-.46.08-.69.1h-.34Zm.08-.66h.27l.31,0,.31-.06.15,0a1.06,1.06,0,0,0,.19-.06l.22-.08.3-.13.28-.16L328,271l.17-.13.16-.13.32-.28.46-.46.48-.51.53-.54.53-.5c.34-.3.68-.6,1-.88.18-.15.38-.3.57-.44l.29-.2.32-.2a5.49,5.49,0,0,1,.63-.34l.3-.14.16-.05.19-.08c.21-.07.43-.15.65-.2l.34-.09.21,0,.19,0,.72-.07h.67l.36,0,.18,0,.21,0c.24,0,.47.11.7.17l.43.14.45.16.89.32.93.34.88.29h0l.43.13.25.05.26.05h0l.25,0,.36,0c.21,0,.42,0,.63,0h.31l.32,0,.29,0a2.26,2.26,0,0,0,.37-.11l.25-.1.3-.19a3.11,3.11,0,0,0,.28-.23,4,4,0,0,0,.29-.29l.16-.19.19-.24.07-.12.08-.13.15-.26.06-.13.06-.13.12-.3s0-.1.05-.15,0-.09,0-.13a4.05,4.05,0,0,0,.12-.47c0-.15.07-.31.1-.47s0-.26.05-.39,0-.27,0-.4a2.81,2.81,0,0,0,0-.29s0-.09,0-.14v-.15c0-.1,0-.2,0-.3a.69.69,0,0,0,0-.13l0-.14-.08-.28a.61.61,0,0,0-.05-.12l0-.12-.11-.27a1.51,1.51,0,0,0-.11-.22l-.14-.24a.83.83,0,0,0-.08-.12l-.06-.1-.16-.21-.1-.11-.07-.09a1.89,1.89,0,0,1-.2-.2l-.1-.08-.12-.11-.22-.17-.26-.19-.46-.3-.25-.14-.26-.14-.24-.1-.12-.05-.14-.05-.28-.08-.13,0-.15,0-.44-.05-.45,0h-.61l-.34.05-.16,0-.2,0h0l-.36.08-.36.1-.61.17-1.34.44-.64.21c-.25.07-.49.14-.74.19l-.35.08-.35.06-.32.05-.38.05c-.16,0-.33,0-.5,0h-.33a2.76,2.76,0,0,1-1.62-.6c-.14-.11-.29-.23-.42-.35s-.26-.25-.37-.38l-.34-.41-.34-.43c-.09-.12-.2-.24-.3-.35l-.18-.18-.21-.19-.19-.15-.2-.14-.42-.29-.52-.3-.56-.29-.23-.1-.24-.09-.48-.16-.58-.16-.56-.12h0l-.62-.08c-.22,0-.45-.05-.68-.06h-.35l-.43.07-.18.05-.18.06-.18.07-.18.09-.17.09-.17.11-.14.11-.16.13-.22.21-.24.26-.44.51-.9,1.05c-.15.17-.3.34-.46.5l-.49.46a4.51,4.51,0,0,1-.54.44,2.26,2.26,0,0,1-.26.16l-.33.18-.18.08-.2.06-.22.05a.64.64,0,0,1-.2,0,1.6,1.6,0,0,1-.23,0,3.15,3.15,0,0,1-.44,0h-.42l-.42,0-.42-.05-.85-.15-.83-.18c-.26-.07-.53-.12-.79-.17l-.62-.08-.67,0h-.43l-.44,0-.26,0-.3,0h0l-.17,0-.45.14-.47.22a4,4,0,0,0-.39.23l-.16.13a1.54,1.54,0,0,0-.17.19,3.25,3.25,0,0,0-.31.42l0,0a3.3,3.3,0,0,0-.23.41l-.15.42c-.05.13-.1.27-.14.41a2,2,0,0,0-.09.33h.13c.12,0,.23,0,.34,0a5.52,5.52,0,0,1,.71.1l.17,0,.18.05.13,0a1.39,1.39,0,0,1,.19.06l.17.07a2,2,0,0,1,.32.18.43.43,0,0,1,.21.36.14.14,0,0,1,0,.07.14.14,0,0,1-.17.07l-.11-.06-.18-.1-.2-.07-.33-.09-.29-.06-.42-.05-.43,0h-.2a2.67,2.67,0,0,0-.4,0l-.4,0-.26.05-.28.08-.23.07-.54.18-.45.18-.44.21-.28.15-.14.09-.14.09-.25.19-.29.24-.12.11h0l-.08.07,0,0-.22.23c-.07.07-.12.15-.19.22l-.21.28-.23.34a1.59,1.59,0,0,0-.15.29c-.05.11-.09.23-.13.34l-.06.23c0,.07,0,.13,0,.2s-.05.33-.06.51,0,.19,0,.29v-.05c0,.18,0,.36.08.54a2.47,2.47,0,0,0,.11.36c0,.13.11.27.17.4s.14.23.22.34a2.88,2.88,0,0,0,.56.6l.2.14.33.19.21.1.24.1.25.09c.19.05.37.11.56.15l.33.07.3.05.47.07.46,0h.71l.24,0,.33,0,.3-.07.16,0,.16,0,.27-.1.24-.11a4.69,4.69,0,0,0,.45-.21c.41-.21.81-.44,1.21-.67s.79-.47,1.19-.72l.61-.37c.2-.12.4-.24.61-.35a9.72,9.72,0,0,1,1.28-.56l.1,0h0l0,0h0l.44-.14.52-.11a5.14,5.14,0,0,1,1.24-.08,1.94,1.94,0,0,1,.53.12,1.76,1.76,0,0,1,.56.37,2.73,2.73,0,0,1,.38.46,7.77,7.77,0,0,1,.54.93l0,0,.11.22,0,0c.06.11.12.23.19.34l.23.37.11.15a1.34,1.34,0,0,0,.11.14l.23.26.3.29.29.25.31.24.32.21.21.12a1.67,1.67,0,0,0,.23.12l.22.09.13.05.11,0,.25.07.14,0,.14,0,.38.05.43,0Z"/><path d="M211.56,321.85a4.25,4.25,0,0,1-.62-.12c-.2-.06-.39-.13-.59-.21a6.63,6.63,0,0,1-.59-.31,5.42,5.42,0,0,1-.56-.37,3.56,3.56,0,0,1-.48-.39l-.24-.23-.22-.27a2.56,2.56,0,0,1-.2-.26l-.18-.28c-.11-.19-.21-.39-.31-.59s-.25-.59-.37-.89-.25-.55-.39-.82a11.51,11.51,0,0,0-.68-1.12l-.24-.3-.2-.21-.26-.23-.33-.23-.2-.11-.25-.09-.32-.08-.43-.05h-.4l-.26,0a1.68,1.68,0,0,0-.32.09l-.25.11c-.36.2-.71.42-1.06.63s-.75.44-1.13.64a10.77,10.77,0,0,1-2.39,1,6.56,6.56,0,0,1-.89.11,4.32,4.32,0,0,1-.88,0,6.54,6.54,0,0,1-.88-.18,6.34,6.34,0,0,1-.83-.3l-.58-.28a5.72,5.72,0,0,1-.58-.37,2.79,2.79,0,0,1-.49-.42,3.84,3.84,0,0,1-.44-.54,3.18,3.18,0,0,1-.31-.61,2.62,2.62,0,0,1-.09-.38c0-.11,0-.23,0-.34a3.9,3.9,0,0,1,0-1.18,3.08,3.08,0,0,1,.44-1c.09-.13.2-.26.3-.39l.29-.39a2.47,2.47,0,0,1,.68-.61c0-.12,0-.24,0-.37s0-.19,0-.29a2.2,2.2,0,0,1,.09-.43,3.9,3.9,0,0,1,.35-.71c.09-.13.19-.25.29-.38l.2-.25.2-.22c.16-.17.31-.34.48-.49l.21-.19.29-.22a5,5,0,0,1,.63-.37,4,4,0,0,1,.76-.27l.54-.1.56,0a3.57,3.57,0,0,1,1.22.17c.36.12.71.27,1.05.42l1,.46.5.21a5,5,0,0,0,.54.2l.36.11.4.08a4.91,4.91,0,0,0,.67.08h.18l.19,0,.2-.06.24-.11a4.64,4.64,0,0,0,.42-.25l.27-.21c.1-.07.19-.16.29-.24.31-.3.62-.61.92-.92s.6-.63.91-.92l.5-.43.52-.4q.56-.39,1.14-.75l.53-.3a6.54,6.54,0,0,1,.59-.3,12.17,12.17,0,0,1,1.17-.51,7,7,0,0,1,1.25-.34l.32,0,.18,0h.45a2.85,2.85,0,0,1,.29,0l.15,0a2.55,2.55,0,0,1,.55.19,4.9,4.9,0,0,1,.76.45l.39.29.36.31.69.61.66.57c.51.41,1,.82,1.58,1.18l.35.2.35.17h0l.21.09.19.06.35.09.35.07c.25,0,.5.06.75.07h.78l.35-.05.37-.08h-.05l.63-.16.61-.16a7.26,7.26,0,0,1,1.31-.19c.21,0,.43,0,.64,0h.61l.34,0,.36,0a5.09,5.09,0,0,1,.77.19,6.82,6.82,0,0,1,.77.37l.25.16.28.19a4,4,0,0,1,.49.43c.16.16.31.34.45.51s.27.36.39.54.22.38.33.58a7.4,7.4,0,0,1,.52,1.19,4.11,4.11,0,0,1,.17.6c0,.21.08.42.11.63a5.32,5.32,0,0,1,0,1.26,3.29,3.29,0,0,1-.1.64,3.65,3.65,0,0,1-.2.64,4.85,4.85,0,0,1-.29.61c-.1.19-.22.36-.33.54a5.34,5.34,0,0,1-.41.53c-.14.16-.28.31-.43.46a4.12,4.12,0,0,1-.47.38l-.28.18-.32.16a4.87,4.87,0,0,1-.57.24,3.12,3.12,0,0,1-.59.19,5.59,5.59,0,0,1-1.29.13,3,3,0,0,1-.42,0l-.43-.05c-.27,0-.54-.1-.81-.16l-.82-.2-.82-.16h0a18.36,18.36,0,0,0-2-.22H222l-.27,0a2.79,2.79,0,0,0-.47.14l-.36.15-.41.26c-.13.11-.27.22-.39.34-.3.29-.58.6-.86.9s-.56.58-.85.85l-1,.91-.52.46a3.14,3.14,0,0,1-.5.38,3.71,3.71,0,0,1-.54.33l-.31.17-.3.13a6,6,0,0,1-1.17.42,8.36,8.36,0,0,1-1.31.23l-.65,0H212Zm1.27-.79c.3,0,.6-.08.9-.14l.66-.19.58-.24c.21-.09.4-.19.6-.29l.32-.18.27-.19.25-.19.24-.2.44-.4,0,0,.57-.53,0,0,.17-.16h0c.28-.26.56-.53.83-.81s.58-.63.88-.94a4.83,4.83,0,0,1,1-.77,3.28,3.28,0,0,1,.6-.28,4.56,4.56,0,0,1,.6-.18l.63-.06.66,0c.42,0,.84.09,1.25.15s.86.14,1.28.24.84.21,1.26.29l.1,0,.32.05.37,0,.74,0,.54-.09.44-.13c.12-.05.25-.09.37-.15l.44-.21a2.61,2.61,0,0,0,.28-.17c.13-.09.24-.19.36-.28l.24-.25.26-.3.24-.32a2.75,2.75,0,0,0,.19-.28c.11-.19.22-.39.32-.59a4.09,4.09,0,0,0,.18-.49l.06-.2a1.18,1.18,0,0,0,0-.2c0-.11,0-.23,0-.34a1.72,1.72,0,0,0,0-.32c0-.15,0-.3,0-.45l0-.16v0c0-.26-.08-.52-.13-.78s-.12-.43-.19-.64-.13-.32-.2-.48-.14-.29-.21-.44-.12-.23-.19-.34l-.22-.35c-.09-.12-.17-.24-.27-.35l-.17-.21-.15-.16-.3-.29-.46-.33-.29-.17-.36-.18c-.11,0-.22-.09-.33-.12a4,4,0,0,0-.47-.11l-.23,0-.21,0c-.55,0-1.1,0-1.66.05-.29,0-.58.08-.87.13s-.81.23-1.22.33l-.33.07-.3,0-.34,0h-.32l-.66,0a5.41,5.41,0,0,1-.58-.07c-.21,0-.42-.08-.63-.13l-.34-.1-.3-.12a6.19,6.19,0,0,1-.58-.28l-.14-.08-.14-.09-.26-.17c-.36-.26-.71-.53-1.06-.81-.67-.53-1.3-1.11-1.94-1.66l-.32-.25-.36-.25-.22-.12-.2-.1-.2-.07-.33-.08-.24,0h-.22l-.41.05-.4.08-.39.11-.37.12a15.8,15.8,0,0,0-1.51.68c-.28.15-.55.31-.82.47s-.53.34-.79.52l-.58.43c-.2.16-.39.33-.58.5s-.63.63-.94.95-.6.63-.93.92l-.52.43-.24.15-.47.26a2.47,2.47,0,0,1-.72.19,2.72,2.72,0,0,1-.57,0,4.58,4.58,0,0,1-.62-.08,4.31,4.31,0,0,1-.49-.11l-.56-.17c-.3-.11-.6-.24-.89-.37l-1-.43a7.79,7.79,0,0,0-.95-.37l-.4-.1-.29,0-.62,0-.46.07-.51.15-.26.11-.28.15-.27.18-.25.2-.23.2-.32.32c-.12.12-.23.25-.34.38a6.13,6.13,0,0,0-.38.51c0,.09-.1.18-.14.27s-.05.13-.08.19l-.06.26c0,.08,0,.15,0,.22l.16,0,.32-.07a.41.41,0,0,1,.45.29.42.42,0,0,1-.28.5c-.12,0-.24.06-.37.09l-.34.1h0a.23.23,0,0,1-.21.1l-.05,0-.2.17-.19.19-.28.35-.3.41c0,.08-.09.16-.13.24l-.11.29c0,.11,0,.22-.07.33a2.29,2.29,0,0,0,0,.25,5.08,5.08,0,0,0,0,.68l0,.26.05.14a1.89,1.89,0,0,0,.11.25l.14.22a2.34,2.34,0,0,0,.24.31l.28.27.42.3.64.34.39.16.47.16.36.1.4.07h0l.44.05H197l.33,0h0l.25,0,.32-.06.38-.1.43-.14a17.73,17.73,0,0,0,1.71-.8c.37-.19.73-.41,1.09-.62l.54-.33.29-.16a3.49,3.49,0,0,1,.34-.15l.21-.06a3.58,3.58,0,0,1,1.78,0,2.46,2.46,0,0,1,1,.48l.28.21.27.25.17.18.18.21c.11.15.22.3.32.46s.4.63.57,1,.33.68.48,1c.07.16.13.32.2.47s.15.31.22.46l.3.48.15.2.18.21.15.15.22.2a5.44,5.44,0,0,0,.55.39,5.9,5.9,0,0,0,.7.38l.44.17.42.09.44,0C212.24,321.09,212.53,321.08,212.83,321.06Z"/><path d="M208.6,275a2.83,2.83,0,0,1,0-.41c0-.12,0-.25.05-.37a7.08,7.08,0,0,1,.16-.8,6.82,6.82,0,0,1,.56-1.44,5.11,5.11,0,0,1,2-2.37l.16-.09.18-.08a.33.33,0,0,1,.22,0,.17.17,0,0,1,.09.18c0,.08-.1.11-.16.16a3,3,0,0,0-.39.32,4.07,4.07,0,0,0-.41.42,5.23,5.23,0,0,0-.4.56,11.87,11.87,0,0,0-.58,1.12h0v0a11.2,11.2,0,0,0-.43,1.09,8.63,8.63,0,0,0-.2.88l-.06.4c0,.15,0,.31-.06.46a.4.4,0,0,1-.09.21.36.36,0,0,1-.26.11h0A.37.37,0,0,1,208.6,275Z"/><path d="M206.38,278.17c0-.11-.07-.22-.1-.33s-.05-.22-.08-.33a5.58,5.58,0,0,1-.09-.59,8.87,8.87,0,0,1-.07-1.26c0-.42,0-.85.06-1.27a3.55,3.55,0,0,1,.12-.65c.05-.19.12-.39.19-.58s.15-.37.24-.56l.14-.29a2.26,2.26,0,0,1,.16-.26l.19-.27a1.92,1.92,0,0,1,.18-.22,2.39,2.39,0,0,1,.23-.22.73.73,0,0,1,.23-.13h.09a.12.12,0,0,1,.07.05.06.06,0,0,1,0,.08h0a.31.31,0,0,1-.06.13s-.06,0-.05,0l0,0c-.09.11-.16.23-.24.35s-.16.29-.24.44v0a1.42,1.42,0,0,0-.08.18l-.15.39c-.05.12-.09.25-.13.38v0l-.1.37c0,.13-.05.26-.08.39s0,.23,0,.35,0,.23,0,.34c0,.3,0,.59,0,.89s0,.61.05.92,0,.34,0,.51.06.36.1.53.07.31.11.46a.41.41,0,0,1,0,.22.34.34,0,0,1-.19.2.27.27,0,0,1-.13,0A.34.34,0,0,1,206.38,278.17Z"/><path d="M269.54,309.31l-.82,0-.78-.07-.29,0h0l-.09,0h0a6.32,6.32,0,0,1-1.53-.42,7,7,0,0,1-.73-.35l-.33-.2-.33-.21a3.7,3.7,0,0,1-.8-.73,2.42,2.42,0,0,1-.29-.42.84.84,0,0,1-.12-.31.23.23,0,0,1,.26-.27.43.43,0,0,1,.21.17,1.09,1.09,0,0,0,.13.17l.25.3v0c.1.11.21.21.32.31l.41.29c.17.1.34.21.52.3l.56.28.33.13.33.11.37.1.38.07.57.08.62.05h.2c.44,0,.88,0,1.32,0l.31,0,.33-.05a.34.34,0,0,1,.37.23.33.33,0,0,1,0,.22.35.35,0,0,1-.18.18,1.27,1.27,0,0,1-.38.11l-.39,0a5.15,5.15,0,0,1-.55,0Z"/><path d="M267.79,312.17l-.71-.07q-.39-.06-.75-.15c-.31-.07-.62-.15-.92-.24h0a9.24,9.24,0,0,1-1.24-.46l-.28-.14a2.68,2.68,0,0,1-.28-.18l-.25-.22a.52.52,0,0,1-.1-.11.27.27,0,0,1-.07-.21.15.15,0,0,1,.11-.13h.09a.54.54,0,0,1,.12.09l.08.07a.91.91,0,0,0,.16.11h0l.13.08h0l.26.13c.23.1.47.18.71.26s.63.18.95.24.67.15,1,.21l.46.06a3.11,3.11,0,0,0,.43,0h.78l.32,0,.35-.05a.34.34,0,0,1,.2,0,.38.38,0,0,1,.16.19.32.32,0,0,1-.22.39,3.86,3.86,0,0,1-.76.1h-.71Z"/><path d="M233.19,255.18a.31.31,0,0,1-.19-.09.33.33,0,0,1-.12-.16.65.65,0,0,1,0-.19v-.16c0-.1,0-.21,0-.31s0-.4.06-.61.06-.43.09-.64,0-.2.07-.3,0-.2.08-.3a11.66,11.66,0,0,1,.46-1.16,5.81,5.81,0,0,1,.62-1.08,1.78,1.78,0,0,1,.22-.26l.08-.07a.83.83,0,0,1,.15-.11.61.61,0,0,1,.13,0,.17.17,0,0,1,.12,0,.13.13,0,0,1,.05.15l0,0,0,0,0,0,0,.05,0,0h0a1.85,1.85,0,0,0-.19.27l-.16.3a3.54,3.54,0,0,0-.16.34c-.09.2-.18.41-.25.62s-.16.45-.23.67v0c0,.12-.07.24-.1.36s0,.24-.07.36c-.05.29-.08.59-.11.89s0,.58-.05.87v0h0a.31.31,0,0,1-.31.41Z"/><path d="M230.6,255.07a.37.37,0,0,1-.1-.22,2.38,2.38,0,0,1,0-.38l0-.34c0-.23.05-.47.09-.7s.07-.48.12-.73.09-.46.15-.69l.12-.38c0-.11.09-.22.14-.33a3.63,3.63,0,0,1,.36-.64,3.24,3.24,0,0,1,.47-.57,2.15,2.15,0,0,1,.28-.23l.18-.08h.09l.06,0a.12.12,0,0,1,.12.15c0,.07-.09.1-.14.13l-.1.09-.2.2-.26.36c-.09.15-.18.31-.26.47l-.09.22c0,.09-.07.18-.1.27s-.09.32-.12.48a3.89,3.89,0,0,0-.09.47c-.06.38-.11.76-.14,1.14,0,.19,0,.38-.05.57s0,.38,0,.57a.32.32,0,0,1-.3.29h0A.31.31,0,0,1,230.6,255.07Z"/><path d="M262,224.87c-.16,0-.14-.25-.14-.37s0-.24,0-.36,0-.27.08-.4.07-.26.1-.38h0v0h0c.07-.23.16-.45.25-.67h0l.06-.13h0a4.68,4.68,0,0,1,.68-1.08,5.24,5.24,0,0,1,.44-.5,4.14,4.14,0,0,1,.5-.44.33.33,0,0,1,.25-.08.32.32,0,0,1,.22.13.33.33,0,0,1,0,.47c-.15.12-.29.23-.43.36s-.43.43-.63.66-.25.34-.36.51a6.85,6.85,0,0,0-.37.71c-.13.31-.25.63-.35,1h0c0,.1-.06.19-.08.29a1,1,0,0,0,0,.14,1,1,0,0,1,0,.12l0,0a.13.13,0,0,1-.11.05Z"/><path d="M260.57,223.3a.23.23,0,0,1-.06-.18.38.38,0,0,1,0-.15,3,3,0,0,1,0-.31c0-.11,0-.21.07-.32s.08-.2.12-.3a4.44,4.44,0,0,1,.28-.53l.36-.55a5,5,0,0,1,.6-.7l.35-.32a3.86,3.86,0,0,1,.38-.3.31.31,0,0,1,.22-.07.31.31,0,0,1,.21.11.31.31,0,0,1,0,.44l-.48.36c-.15.12-.3.24-.44.37l-.2.2-.19.22a9.15,9.15,0,0,0-.59.8c-.08.13-.15.26-.22.4a3.12,3.12,0,0,0-.15.39l-.09.33a.06.06,0,0,1,0,0s0,0,0,.05l0,0h0A.07.07,0,0,1,260.57,223.3Z"/><path d="M306,219.57a.38.38,0,0,1,.09-.24l.13-.14a3.83,3.83,0,0,1,.29-.28l.62-.53.67-.47.64-.41a14.79,14.79,0,0,1,1.4-.79c.48-.22,1-.41,1.48-.6l.85-.33.44-.17a1.92,1.92,0,0,1,.46-.11.29.29,0,0,1,.33.21.3.3,0,0,1-.16.36c-.22.1-.46.18-.69.26l-.73.3c-.48.18-1,.35-1.43.55-.21.09-.41.18-.61.29l0,0-.2.11c-.36.2-.71.4-1.05.61s-.7.43-1,.66l-.63.47-.28.23-.15.12-.07,0-.12.07h-.07A.19.19,0,0,1,306,219.57Z"/><path d="M306.2,217.26a.1.1,0,0,1-.05-.06.11.11,0,0,1,0-.1.28.28,0,0,1,0-.12l.06-.1c.06-.07.11-.15.18-.22l.22-.22.23-.21a10.66,10.66,0,0,1,.95-.71c.31-.21.62-.41.94-.6s.69-.4,1.05-.59a15,15,0,0,1,2.14-.92l.5-.16.23-.06a1.27,1.27,0,0,1,.34-.05.33.33,0,0,1,.19.06.28.28,0,0,1,.12.21.25.25,0,0,1-.05.22.34.34,0,0,1-.2.13h0c-.29.06-.56.15-.84.23l-.84.29c-.25.09-.5.18-.74.29s-.55.25-.81.38h0l-.28.15c-.34.17-.66.35-1,.54s-.67.38-1,.6l-.39.26-.34.26-.3.26-.14.13c0,.05-.09.11-.15.11Z"/><path d="M337.09,198.52a.51.51,0,0,1,.11-.39,6.55,6.55,0,0,1,.39-.53c.14-.17.3-.33.46-.49a4.83,4.83,0,0,1,.49-.41,7.42,7.42,0,0,1,1-.58,5.28,5.28,0,0,1,.53-.27,2.67,2.67,0,0,1,.26-.09,1.8,1.8,0,0,1,.32-.06.26.26,0,0,1,.26.22.23.23,0,0,1,0,.16.32.32,0,0,1-.15.13c-.12,0-.25.07-.37.12a9.48,9.48,0,0,0-1,.48l0,0-.3.17-.27.17-.25.18-.25.22-.32.32c-.11.11-.21.23-.31.35a2.92,2.92,0,0,0-.21.28.16.16,0,0,1-.05.11h0a.11.11,0,0,1-.09.05h0A.17.17,0,0,1,337.09,198.52Z"/><path d="M336,196.64s0,0,0,0a2.59,2.59,0,0,1,.31-.35l.36-.36c.26-.25.53-.49.81-.71a1.56,1.56,0,0,1,.2-.16h0c.28-.2.58-.4.88-.58.15-.09.31-.16.47-.24l.47-.22c.2-.09.4-.16.6-.23a.24.24,0,0,1,.29.32.24.24,0,0,1-.13.13l-.85.33a7.51,7.51,0,0,0-.77.34l-.26.14-.28.16a5.72,5.72,0,0,0-.48.32h0l-.07.05,0,0h0q-.36.24-.69.51l-.66.56,0,0a.09.09,0,0,1-.08.06h0A.08.08,0,0,1,336,196.64Z"/><path d="M366.3,215.26a.28.28,0,0,1-.08-.34,2.15,2.15,0,0,0,.14-.26l.15-.31h0c0-.09.08-.17.11-.26s.08-.21.11-.31a1.46,1.46,0,0,0,0-.2,2,2,0,0,0,.05-.24c0-.1,0-.2.05-.3s0-.22,0-.33,0-.28,0-.42l0-.16a1.1,1.1,0,0,1,0-.16v0a.08.08,0,0,1,0,0h0a.17.17,0,0,1,.14-.13.26.26,0,0,1,.24.19,1.12,1.12,0,0,1,.05.13l0,.13a4.07,4.07,0,0,1,.05.49,3.73,3.73,0,0,1,0,.47,4.1,4.1,0,0,1-.06.49h0a4.22,4.22,0,0,1-.23.79c-.05.14-.11.27-.17.41a1.34,1.34,0,0,1-.22.36.27.27,0,0,1-.35,0Z"/><path d="M367.17,217.06a.27.27,0,0,1,0-.35l.2-.21h0v0h0l.16-.2.17-.25c.16-.28.3-.58.44-.88v0l.06-.12a7.77,7.77,0,0,0,.28-.76c0-.09.05-.17.07-.25l.06-.27a2.08,2.08,0,0,0,0-.23,2.29,2.29,0,0,0,0-.25,5.89,5.89,0,0,0,0-.84c0-.11,0-.23,0-.35s0,0,0,0a.19.19,0,0,1,0-.08h0a.09.09,0,0,1,.06-.14.16.16,0,0,1,.14.08.6.6,0,0,1,.1.23,4.37,4.37,0,0,1,.12.52c0,.16.05.33.07.49a3,3,0,0,1,0,.52,1.27,1.27,0,0,1,0,.28c0,.09,0,.18,0,.26l-.06.26-.06.23a5.25,5.25,0,0,1-.17.52c-.05.15-.12.3-.18.45a.61.61,0,0,0,0,.12v0l0,0h0v0l0,0v0l0,0h0l-.15.31a2.7,2.7,0,0,1-.22.33,3.5,3.5,0,0,1-.24.3,1.48,1.48,0,0,1-.29.27.22.22,0,0,1-.13,0A.3.3,0,0,1,367.17,217.06Z"/><path class="cls-6" d="M341.21,205.53a.29.29,0,0,1,.2-.35l.53-.19.57-.19.67-.26.74-.29h0l.26-.09h0l1.34-.47.65-.23.31-.1a2.19,2.19,0,0,1,.34-.1.26.26,0,0,1,.31.19.28.28,0,0,1-.15.34l-.64.22-.63.23-1.33.45-.2.08h0c-.42.15-.82.33-1.24.48l-.66.24-.63.21-.08,0A.31.31,0,0,1,341.21,205.53Z"/><path class="cls-6" d="M349.32,221.44a.29.29,0,0,1,.15-.38,6.14,6.14,0,0,1,.59-.25l.6-.27.56-.27a5.86,5.86,0,0,1,.57-.26c.26-.11.52-.19.78-.28h0l.53-.19a5,5,0,0,0,.49-.2s0-.07,0-.11.05-.36.08-.55l.09-.65c0-.22.05-.43.07-.65l.06-.62c0-.13,0-.25,0-.38v0c0-.19,0-.37,0-.56s0-.39,0-.59c0-.39,0-.78-.06-1.16,0-.15,0-.31-.05-.46l-.09-.46c0-.32-.1-.65-.17-1v.05l-.09-.39c0-.14-.08-.27-.13-.41s-.16-.44-.23-.66-.12-.45-.2-.67-.16-.38-.25-.57l0,0v0l0,0h0v0h0v0h0v0h0v0h0l-.07-.13h0l-.23-.43,0,0a.83.83,0,0,0-.07-.13h0l0,0h0c-.18-.34-.36-.68-.56-1s-.4-.67-.62-1c-.08-.12-.16-.23-.25-.34l-.27-.31a10.44,10.44,0,0,0-.77-.71c-.22-.18-.46-.35-.69-.53s-.44-.32-.67-.46-.5-.28-.76-.41l0,0a8.18,8.18,0,0,0-.82-.32.09.09,0,0,1-.12,0,.11.11,0,0,1,0-.09l0,0h0a.1.1,0,0,1,0-.05.18.18,0,0,1,0-.16.25.25,0,0,1,.24-.11.55.55,0,0,1,.18,0l.3.07c.22.07.42.14.63.23s.4.18.6.28.39.23.58.36l.51.36c.18.13.36.26.53.4a7,7,0,0,1,1,.92,8.88,8.88,0,0,1,.76,1.06c.23.36.46.73.66,1.11s.42.76.62,1.15a5.88,5.88,0,0,1,.29.62c.08.21.15.42.21.64s.07.25.12.38.16.43.23.65a4.47,4.47,0,0,1,.16.63c.09.42.16.86.24,1.29,0,.13,0,.26.05.39h0v0h0l0,.19h0c0,.42,0,.85,0,1.27a11.47,11.47,0,0,1,0,1.31c0,.22-.05.44-.08.66l-.09.64c-.06.42-.16.84-.23,1.25l-.06.27a1,1,0,0,1-.06.16.5.5,0,0,1-.23.18,6.07,6.07,0,0,1-.59.24l-.58.24-.58.24-.56.28-.55.27-.6.28c-.19.09-.39.17-.58.27l-.12,0A.3.3,0,0,1,349.32,221.44Z"/><path class="cls-6" d="M345,222.71c0-.11,0-.22,0-.33v-.3c0-.19,0-.39,0-.59,0-.4-.08-.79-.13-1.19a11.27,11.27,0,0,0-.21-1.16v0h0l0-.14h0v0h0a13.33,13.33,0,0,0-.48-1.75l0,0,0-.1h0l0-.08h0c-.06-.18-.13-.37-.2-.56h0c-.12-.35-.24-.7-.37-1a3.89,3.89,0,0,0-.21-.51c-.07-.17-.15-.33-.23-.5a12.85,12.85,0,0,0-.82-1.38h0l-.16-.22,0,0c-.25-.35-.52-.69-.79-1s-.51-.64-.78-.94c-.43-.44-.88-.87-1.35-1.27l-.43-.32-.49-.34-.46-.34a1.81,1.81,0,0,1-.21-.18c-.09-.08-.21-.21-.11-.34a.17.17,0,0,1,.1-.06h0a.16.16,0,0,1,.12,0,.11.11,0,0,1,.08.05l.1,0,.23.14.49.31h0a8.31,8.31,0,0,1,1.11.75l0,0,.6.51c.18.16.35.31.52.48s.36.36.53.56l.46.54c.32.39.64.78.93,1.19a11.26,11.26,0,0,1,.8,1.27,8.89,8.89,0,0,1,.54,1.12c.16.41.3.83.45,1.24h0l.05.14h0v0h0v0h0c.08.19.15.39.22.58s.12.36.17.54.1.36.14.54.09.36.13.54h0v0h0l0,.13h0v0h0c.1.47.19.93.25,1.4,0,.25.05.49.07.74s.05.48.06.72,0,.32,0,.47,0,.35,0,.53a.32.32,0,0,1-.31.28h0A.31.31,0,0,1,345,222.71Z"/><path class="cls-6" d="M361.71,232.53c-.09-.13.09-.25.19-.31a1.71,1.71,0,0,1,.23-.13,4.08,4.08,0,0,1,.42-.19l.49-.19.47-.13c.33-.09.66-.16,1-.23l.49-.1a4,4,0,0,1,.48-.07h.17a.22.22,0,0,1,.19.2.21.21,0,0,1-.18.2l-.43.07-.44.07-.87.17h0c-.19,0-.39.08-.58.14l-.58.17-.39.16-.11,0s0,0,0,0a.11.11,0,0,1-.1.12h-.28l0,0h-.05A.14.14,0,0,1,361.71,232.53Z"/><path class="cls-6" d="M362.21,233.26l-.06,0a0,0,0,0,1,0-.05s0,0,.06,0a.11.11,0,0,1,.08,0l.18-.07.36-.11.75-.23.76-.2.73-.21.16-.05a.65.65,0,0,1,.2,0,.17.17,0,0,1,.17.12.18.18,0,0,1-.1.21,2.53,2.53,0,0,1-.36.12l-.39.09-.78.16-.13,0-.64.13h0l-.58.13-.28.05h-.13Z"/><path class="cls-6" d="M362.67,234a.16.16,0,0,1-.1,0,.07.07,0,0,1-.05-.06.08.08,0,0,1,0-.08h.1l.24-.05.3-.06.28,0,.29-.06.71-.18.72-.17a.17.17,0,0,1,.22.12.18.18,0,0,1-.12.23c-.13,0-.27,0-.41.06l-.39.07-.85.17-.28,0h-.1l-.19,0h0l-.28,0h-.14Z"/><path class="cls-6" d="M226.51,286.71v0h0a.31.31,0,0,1,.07-.09l.08-.08.16-.17.28-.32.59-.69.58-.69.61-.7c.21-.22.42-.44.64-.65l.66-.67c.21-.2.41-.42.62-.61l.36-.33c.12-.11.25-.21.37-.3l.33-.27.28-.25.33-.32.3-.34a4.16,4.16,0,0,1,.32-.39,4.86,4.86,0,0,1,.38-.41.24.24,0,0,1,.32,0,.25.25,0,0,1,0,.35l-.32.34c-.1.1-.19.21-.28.31s-.18.22-.28.32l-.33.32-.15.14,0,0c-.23.21-.47.39-.71.58s-.25.19-.37.29-.22.19-.32.28l-.33.31-.31.3-.65.62h0l-.34.33c-.11.1-.21.21-.32.33s-.42.44-.63.67l-.6.67-.62.66-.31.3-.19.16-.08.06-.1,0h0A.08.08,0,0,1,226.51,286.71Z"/><path class="cls-6" d="M281.06,311.47h0a.08.08,0,0,1-.07,0,.13.13,0,0,1,0-.23l.17-.07.17,0,.37-.12c.24-.07.47-.15.71-.24h0l.2-.08.44-.16.42-.17.47-.17.45-.12c.34-.09.68-.2,1-.32h0l.66-.25h0l.29-.11h0l.28-.1.29-.13a.18.18,0,0,1,.24.1.18.18,0,0,1-.09.24c-.29.14-.6.24-.9.35h0l-.87.32-.45.15-.43.12c-.22.06-.43.12-.64.2h0l-.16.05h0l0,0h0l-.84.31h0l-.85.28-.39.11-.24.05a.78.78,0,0,1-.21,0Z"/><path class="cls-6" d="M259.93,277.09h0a.11.11,0,0,1,0-.11.32.32,0,0,1,.1-.1l.08-.07.19-.12.33-.21.69-.4,1.44-.83.45-.24a.15.15,0,0,1,.15.27l-.77.42-.69.38-.76.41-.67.38-.35.22-.06,0h0A.11.11,0,0,1,259.93,277.09Z"/><path class="cls-6" d="M261.71,277.67a.09.09,0,0,1,0-.11h0a.08.08,0,0,1,.09,0l.76-.18c.26-.06.53-.1.79-.15s.6-.09.89-.15l.27-.06h0l.56-.16c.19-.05.38-.11.58-.15a.12.12,0,0,1,.14.08.14.14,0,0,1-.09.16l-.77.19-.18,0-.2.05-.24,0-.18,0-.76.11a7.22,7.22,0,0,0-.79.13l-.15,0h0l-.31.07-.29.08h0Z"/><path class="cls-6" d="M236.24,291.84a.13.13,0,0,1-.12-.14c0-.08,0-.15,0-.23l.06-.17c0-.13.09-.25.13-.37s.18-.49.28-.74.13-.33.2-.49a2,2,0,0,1,.11-.26,1,1,0,0,1,0-.1.5.5,0,0,1,.08-.12.13.13,0,0,1,.1,0s.05,0,.06.05h0a.11.11,0,0,1,0,.16h0l0,0c-.06.13-.11.27-.16.4l-.15.4c-.09.23-.17.47-.25.71l-.15.45c0,.12-.07.24-.1.35a.12.12,0,0,1-.12.1Z"/><path class="cls-6" d="M238.84,292.49a.15.15,0,0,1-.06-.09.88.88,0,0,1-.05-.15l0-.1,0-.18c0-.13,0-.26,0-.38a5.36,5.36,0,0,1,0-.8v-.14c0-.06,0-.11,0-.17a1.37,1.37,0,0,1,0-.28.16.16,0,0,1,.08-.1l.08,0h0a.12.12,0,0,1,.13.12c0,.07-.06.12-.13.12h0s0,0,0,.06h0c0,.1,0,.2,0,.3v0a2.81,2.81,0,0,0,0,.29c0,.1,0,.2,0,.29h0c0,.12,0,.23,0,.34a2.74,2.74,0,0,0,.05.28c0,.15.07.3.12.44h0v.05a.13.13,0,0,1-.09.17h-.11Z"/><path class="cls-6" d="M237,296.54l-.23-.2a1.4,1.4,0,0,1-.26-.33,1.56,1.56,0,0,1-.29-.8.14.14,0,0,1,.14-.14.14.14,0,0,1,.15.15h0v0s0,.07,0,.11v0a1,1,0,0,0,.05.16,1.22,1.22,0,0,0,.07.17c0,.08.09.15.14.23l.13.16h0a1.34,1.34,0,0,0,.21.2h0l.06,0a.14.14,0,0,1,0,.2.17.17,0,0,1-.12.06A.11.11,0,0,1,237,296.54Z"/><path class="cls-6" d="M275.76,292.84a.16.16,0,0,1-.11-.21,1.94,1.94,0,0,1,.15-.24.69.69,0,0,1,.11-.13l.28-.3a5.5,5.5,0,0,1,.62-.56.15.15,0,0,1,.22,0,.16.16,0,0,1,0,.22l-.27.24c-.11.1-.22.2-.32.31l-.17.16-.12.13h0l-.08.09h0l-.08.1s0,0,0,.05h0a.15.15,0,0,1-.15.13Z"/><path class="cls-6" d="M276.58,294.17h0a.17.17,0,0,1,.07-.14.38.38,0,0,1,.16,0h.12l.21,0a4.43,4.43,0,0,0,.51-.06l.57-.1a.17.17,0,0,1,.19.14.18.18,0,0,1-.14.19l-.6.08h-.13l-.38,0h-.34a.09.09,0,0,1-.05,0h0A.16.16,0,0,1,276.58,294.17Z"/><path class="cls-6" d="M266,230.55l-.16-.21-.09-.15a1.25,1.25,0,0,1-.09-.25,1.19,1.19,0,0,1,0-.53.78.78,0,0,1,.09-.24.11.11,0,0,1,.08-.07s0,0,0,0a0,0,0,0,1,0,0h0l0,0h0l0,0h0s0,.07,0,.11,0,.11,0,.16h0a.57.57,0,0,0,0,.13h0a.59.59,0,0,0,0,.13h0a.93.93,0,0,0,0,.13h0l0,.12.09.14h0l.21.26a.1.1,0,0,1,0,.15.07.07,0,0,1-.06,0A.11.11,0,0,1,266,230.55Z"/><path class="cls-6" d="M268.31,226.1,268,226l-.4-.11-.2,0h-.13l-.11,0-.09,0h0l-.07,0,0,0h0a.08.08,0,0,1-.11.07.08.08,0,0,1,0-.12v0l.07-.09.13-.08a1.24,1.24,0,0,1,.33-.09h.34l.14,0,.13,0,.14,0,.3.07a.15.15,0,0,1,.12.19.14.14,0,0,1-.07.1.12.12,0,0,1-.08,0Z"/><path class="cls-6" d="M271.61,224.23c-.05-.08-.09-.16-.13-.24l0-.09a.42.42,0,0,1,0-.1.09.09,0,0,1,0-.05h0l0,0,0,0,0,0,.07.07.18.21a.13.13,0,0,1,0,.17.11.11,0,0,1-.08,0A.1.1,0,0,1,271.61,224.23Z"/><path class="cls-6" d="M275.71,222.66a.19.19,0,0,1-.14-.23,2.5,2.5,0,0,1,.09-.25l.07-.18a.87.87,0,0,0,.07-.17.59.59,0,0,1,0-.08.14.14,0,0,1,.08-.1.15.15,0,0,1,.1,0h0c.07.05.06.13.05.2s0,.14,0,.21l-.09.44a.19.19,0,0,1-.19.15Z"/><path class="cls-6" d="M279.41,222.19l-.09,0-.07,0-.05,0-.09-.05L279,222a.39.39,0,0,1-.08-.1.15.15,0,0,1,0-.07l0,0h0l0,0s0,0,0,0h0l.05,0,.07,0h0l.19,0h0l.17,0a.14.14,0,0,1,.12.17.15.15,0,0,1-.06.09l-.08,0Z"/><path class="cls-6" d="M282.57,221.13a.11.11,0,0,1,0-.08s0-.05,0-.08l0-.09s0,0,0-.06a.06.06,0,0,1,.09,0,.08.08,0,0,1,0,.1h0v0l0,0v0a.11.11,0,0,1,0,.08.13.13,0,0,1-.07,0h0A.09.09,0,0,1,282.57,221.13Z"/></g></g><g class="cls-7"><g class="cls-8"><circle class="cls-6" cx="230.1" cy="75.04" r="75.04" transform="translate(-11.74 65.5) rotate(-15.8)"/><path class="cls-5" d="M28.76,162.62c52-26.05,133.57-37.6,225.1,57.82a3.43,3.43,0,0,1-.09,4.85c-16.08,15.09-107,97.52-163.2,85.79a3.52,3.52,0,0,1-1.61-.81L18,248.72C-10,224.37-4.46,179.27,28.76,162.62Z"/><path class="cls-6" d="M453.72,178.66a47.8,47.8,0,0,0-19.05-18.34h0c-19.67-10.49-45.26-19.46-75.24-19.46a158.2,158.2,0,0,0-53.42,9.5c-30.56,10.9-56.92,30.57-77.27,55.36-11.67,14.23-30.63,34.49-54.67,50.93s-53,29-85,29c-1.29,0-2.6,0-3.91-.06l-29.37-.91,173,139.53L443.39,239.54a48,48,0,0,0,16.81-36.6A48.56,48.56,0,0,0,453.72,178.66Zm-23.2,45.94-202.11,174L110.83,303.74c28.3-4.29,53.41-16.45,74.39-30.81,26.23-18,46.28-39.5,58.76-54.69,18.32-22.31,41.82-39.73,68.65-49.3a138.37,138.37,0,0,1,46.8-8.35c26,0,48.4,7.77,66,17.14L430,169l-4.63,8.71a28.08,28.08,0,0,1,11.24,10.79,28.88,28.88,0,0,1,3.84,14.42A28.29,28.29,0,0,1,430.52,224.6Z"/></g></g><text class="cls-9" transform="translate(186.59 58.62)"><tspan x="0.09" y="49.85"></tspan></text></g></g></svg>