<svg xmlns="http://www.w3.org/2000/svg" viewBox="0 0 469.65 432.93"><defs><style>.cls-1{opacity:0.86;}.cls-2{fill:#ddcdaf;}.cls-3{fill:#fff;}</style></defs><g id="Layer_2" data-name="Layer 2"><g id="Layer_1-2" data-name="Layer 1"><g class="cls-1"><path class="cls-2" d="M29.35,166c53.05-26.59,136.31-38.38,229.71,59a3.49,3.49,0,0,1-.08,4.95c-16.41,15.39-109.24,99.52-166.55,87.55a3.66,3.66,0,0,1-1.64-.83l-72.4-62.82C-10.25,229-4.55,183,29.35,166Z"/><circle class="cls-3" cx="240.23" cy="76.58" r="76.58" transform="translate(-11.78 68.32) rotate(-15.8)"/><path class="cls-3" d="M438.86,172.49l4.73-8.88c-20.07-10.71-46.19-19.86-76.79-19.86a161.4,161.4,0,0,0-54.51,9.7c-31.19,11.12-58.09,31.2-78.86,56.49-11.91,14.53-31.25,35.2-55.79,52s-54.06,29.63-86.72,29.62c-1.32,0-2.65,0-4-.07l-30-.93L233.52,432.93l219-188.47a49,49,0,0,0,17.16-37.35A49.59,49.59,0,0,0,463,182.32a48.79,48.79,0,0,0-19.44-18.71l-4.73,8.88-4.73,8.88a28.65,28.65,0,0,1,11.47,11,29.49,29.49,0,0,1,3.92,14.72,28.88,28.88,0,0,1-10.17,22.1L233.1,406.74,92.93,293.7l-6.32,7.83-.31,10.06c1.54.05,3.08.08,4.62.08,38,0,71.35-14.83,98.1-33.14s47.23-40.31,60-55.81c18.69-22.77,42.67-40.55,70.06-50.32a141.43,141.43,0,0,1,47.75-8.52c26.53,0,49.4,7.94,67.32,17.49Z"/></g><rect x="202.84" y="36.7" width="78.13" height="79.5" transform="translate(17.46 194.72) rotate(-45.32)"/><path class="cls-3" d="M242.05,131.68c.11-5.29,2.7-11.34,2.7-11.34,1.43-5.38,3.05-7.69,3.7-8.45a5.19,5.19,0,0,0,.58-.81c2.22-3.69,6.66-6.75,10.54-8.89a59.24,59.24,0,0,1,7.22-3.35,14.59,14.59,0,0,1,2.12-6.4c3.42-5.55,3.5-8.08,3.5-8.08.53-4.1,3.35-2.92,3.35-2.92,1.84-6.47,3-7.45,3-7.45,2.59-4.75,4-1.62,4-1.62l3.13-3.45c.51-1,2.09-.63,3.07-.31a.68.68,0,0,1,.4,1A15.34,15.34,0,0,0,287.55,75c0,.21,0,.43-.08.64a47.21,47.21,0,0,1-1.54,6.58,24.08,24.08,0,0,0-1.1,5.24C290.67,75.18,295,76.15,295,76.15c2.14-.32,2.72.17,2.65.85"/><path d="M242.3,131.68a29.66,29.66,0,0,1,1.39-7.58c.32-1.08.65-2,.89-2.65q.18-.48.3-.75c.07-.17.1-.26.1-.26v0c1.42-5.35,3-7.62,3.65-8.34h0a5.66,5.66,0,0,0,.6-.85l-.22-.13.22.13c2.17-3.61,6.58-6.67,10.45-8.8,1.93-1.06,3.73-1.89,5-2.46.66-.29,1.19-.5,1.56-.65l.43-.17.15,0L267,99l0-.16a14.26,14.26,0,0,1,2.08-6.29c3.43-5.57,3.53-8.14,3.53-8.2h-.25l.25,0a3.88,3.88,0,0,1,1-2.37,1.75,1.75,0,0,1,1.26-.49,2.13,2.13,0,0,1,.56.07l.17,0h.05l.26.11.08-.28a36,36,0,0,1,2.19-6.11,6.58,6.58,0,0,1,.58-1l.14-.18,0,0h0l0,0,0,0a7.66,7.66,0,0,1,1.46-2,1.54,1.54,0,0,1,1-.48,1.11,1.11,0,0,1,.8.42,2,2,0,0,1,.22.31l.06.1v0h0l.16.36,3.42-3.77,0,0a.78.78,0,0,1,.42-.38,1.83,1.83,0,0,1,.7-.12,6,6,0,0,1,1.65.31.44.44,0,0,1,.31.41.42.42,0,0,1-.06.21h0A15.45,15.45,0,0,0,287.3,75h0c0,.21-.05.42-.08.62h0a46.64,46.64,0,0,1-1.53,6.54,23.92,23.92,0,0,0-1.11,5.3l-.15,1.45.63-1.32c2.51-5.3,4.73-8.11,6.42-9.58s2.85-1.63,3.27-1.63h.18l0-.11,0,.11h0l0-.11,0,.11H295a8.86,8.86,0,0,1,1.14-.09,2,2,0,0,1,1,.2.42.42,0,0,1,.21.38V77l.5,0v-.13a.93.93,0,0,0-.44-.81,2.41,2.41,0,0,0-1.3-.28,8.27,8.27,0,0,0-1.21.1l0,.25.05-.25a2.13,2.13,0,0,0-.29,0,5.76,5.76,0,0,0-3.6,1.75c-1.77,1.55-4,4.41-6.55,9.75l.23.11.25,0a24.09,24.09,0,0,1,1.09-5.19,46.69,46.69,0,0,0,1.55-6.62l-.25,0,.25,0c0-.22.06-.44.09-.65l-.26,0,.26,0a15,15,0,0,1,1.79-5.34l-.22-.12.22.13a1,1,0,0,0,.13-.47,1,1,0,0,0-.67-.89,5.94,5.94,0,0,0-1.8-.34,2.47,2.47,0,0,0-.9.16,1.36,1.36,0,0,0-.67.61l.22.12-.19-.17-3.13,3.45.19.17.23-.11a3,3,0,0,0-.38-.57,1.57,1.57,0,0,0-1.18-.59,2,2,0,0,0-1.33.61,7.88,7.88,0,0,0-1.56,2.15l.22.13-.16-.2c-.08.07-1.26,1.09-3.11,7.58l.25.07.09-.23a2.54,2.54,0,0,0-1-.18,2.27,2.27,0,0,0-1.61.63,4.32,4.32,0,0,0-1.12,2.67h0v0h0c0,.1-.16,2.6-3.46,7.94a14.86,14.86,0,0,0-2.15,6.52l.25,0-.09-.24a58.38,58.38,0,0,0-7.25,3.36c-3.9,2.16-8.37,5.23-10.64,9h0a6.08,6.08,0,0,1-.55.78l.19.16-.19-.16c-.69.79-2.32,3.13-3.76,8.54l.25.07-.23-.1s-2.61,6.07-2.73,11.43Z"/><path d="M272.34,96.55s0-.12,0-.33,0-.5,0-.86a11.37,11.37,0,0,1,.87-4.83,37.14,37.14,0,0,0,1.86-4.4c.3-.84.56-1.66.75-2.39a7.49,7.49,0,0,0,.32-1.82,1.4,1.4,0,0,0-.12-.6l-.45.25a.71.71,0,0,1,.06.35,7.43,7.43,0,0,1-.3,1.69,39.54,39.54,0,0,1-2.57,6.68,11.91,11.91,0,0,0-.93,5.07c0,.73,0,1.23,0,1.23l.51,0Z"/><path d="M277.7,92.48v-.16a44,44,0,0,1,1.44-8.76l-.25-.06.24.08L283,72.45l-.48-.16-3.9,11.13h0a42.44,42.44,0,0,0-1.45,9Z"/><path d="M267.43,113.59l.27-.39c.6-.88,2.14-3.09,3.74-5.23.81-1.06,1.63-2.11,2.36-3a10.1,10.1,0,0,1,1.77-1.74h0l8.9-7.84a3.38,3.38,0,0,0,1.14-2.52h-.26l.13.22a6,6,0,0,0,1-.79,4.1,4.1,0,0,0,.7-.87,2.26,2.26,0,0,0,.33-1.13,2,2,0,0,0-.32-1,3.61,3.61,0,0,0-1-1l0,0h0a2.18,2.18,0,0,0-.8-.14,2,2,0,0,0-1.29.47,7.23,7.23,0,0,1-1,.72,15.11,15.11,0,0,0-1.67,1.14,5,5,0,0,0-.7.67,1.31,1.31,0,0,0-.33.74.77.77,0,0,0,0,.15v0l1.34,1.88a1,1,0,0,0,.79.4.84.84,0,0,0,.31,0h0l2.64-1.13-.2-.47-2.63,1.12.1.24-.08-.24-.15,0a.44.44,0,0,1-.37-.19l-1.31-1.83-.21.14.25,0v0a.86.86,0,0,1,.21-.42,6.06,6.06,0,0,1,1-.9c.41-.3.86-.58,1.21-.79a9.15,9.15,0,0,0,1.05-.77,1.41,1.41,0,0,1,1-.35,2.33,2.33,0,0,1,.44.05l.13,0h0v0h0v0l.1-.23-.14.21a3.07,3.07,0,0,1,.89.87,1.47,1.47,0,0,1,.24.78,1.79,1.79,0,0,1-.26.88,4.43,4.43,0,0,1-.94,1.06c-.16.13-.31.23-.41.3l-.12.08,0,0-.12.07v.15a2.87,2.87,0,0,1-1,2.14l-8.89,7.82.17.19-.13-.21a5.65,5.65,0,0,0-1,.85,59.92,59.92,0,0,0-4.62,5.8c-1.5,2.07-2.68,3.82-2.68,3.82l.42.28Z"/><path d="M284.33,88.09h-.25c-.74,0-3,.32-6.16,3.67l.19.17-.17-.19-.72.6c-.67.55-1.71,1.4-2.72,2.19A27.79,27.79,0,0,1,272,96.35l.12.22-.1-.23-5.29,2.26.2.47,5.31-2.27h0a18,18,0,0,0,1.61-1.11c1.91-1.43,4.45-3.56,4.45-3.56h0c3.07-3.27,5.2-3.51,5.79-3.51h.17v0h0v0l.08-.51Z"/><path class="cls-3" d="M242.05,131.68c-.11-5.29-2.7-11.34-2.7-11.34-1.43-5.38-3-7.69-3.71-8.45a5.13,5.13,0,0,1-.57-.81c-2.22-3.69-6.66-6.75-10.54-8.89a59.24,59.24,0,0,0-7.22-3.35,14.59,14.59,0,0,0-2.12-6.4c-3.42-5.55-3.5-8.08-3.5-8.08-.54-4.1-3.35-2.92-3.35-2.92-1.84-6.47-3-7.45-3-7.45-2.59-4.75-4-1.62-4-1.62l-3.13-3.45c-.51-1-2.1-.63-3.08-.31a.68.68,0,0,0-.39,1A15,15,0,0,1,196.54,75c0,.21.05.43.09.64a47.21,47.21,0,0,0,1.54,6.58,24.08,24.08,0,0,1,1.1,5.24c-5.84-12.31-10.16-11.34-10.16-11.34-2.15-.32-2.72.17-2.65.85"/><path d="M242.3,131.67c-.11-5.36-2.71-11.42-2.72-11.43l-.23.1.24-.07c-1.43-5.41-3.07-7.75-3.75-8.54l-.2.16.2-.16a6.08,6.08,0,0,1-.55-.78h0c-2.27-3.76-6.74-6.83-10.64-9a58.09,58.09,0,0,0-7.26-3.36l-.08.24.25,0a14.86,14.86,0,0,0-2.15-6.52,30.59,30.59,0,0,1-3-6.06A10.94,10.94,0,0,1,212,84.8c0-.16,0-.27-.06-.34v-.1h0v0h0a4.32,4.32,0,0,0-1.11-2.67,2.27,2.27,0,0,0-1.61-.63,2.68,2.68,0,0,0-1,.18l.1.23.25-.07c-1.85-6.49-3-7.51-3.11-7.58l-.16.2.22-.13A8.1,8.1,0,0,0,204,71.71a2,2,0,0,0-1.34-.61,1.57,1.57,0,0,0-1.17.59,3,3,0,0,0-.38.57l.23.11.19-.17-3.13-3.45-.19.17.22-.12a1.34,1.34,0,0,0-.68-.61,2.38,2.38,0,0,0-.89-.16,5.88,5.88,0,0,0-1.8.34,1,1,0,0,0-.67.89.9.9,0,0,0,.13.47l.22-.13-.22.12a15,15,0,0,1,1.79,5.34l.25,0-.25,0c0,.21.05.43.09.65l.25,0-.25,0a46.69,46.69,0,0,0,1.55,6.62A24.7,24.7,0,0,1,199,87.52l.25,0,.23-.11C197,82,194.72,79.18,193,77.63a5.76,5.76,0,0,0-3.6-1.75,2,2,0,0,0-.29,0l.05.25,0-.25a8.27,8.27,0,0,0-1.21-.1,2.41,2.41,0,0,0-1.3.28.94.94,0,0,0-.44.82V77l.5,0V76.9a.41.41,0,0,1,.21-.39,1.93,1.93,0,0,1,1-.2,9,9,0,0,1,1.14.09h.09l0-.11,0,.11h0l0-.11,0,.11h.18c.42,0,1.57.15,3.26,1.63s3.92,4.28,6.43,9.58l.62,1.32-.14-1.45a23.92,23.92,0,0,0-1.11-5.3,46.64,46.64,0,0,1-1.53-6.54h0a6.17,6.17,0,0,1-.08-.62h0a15.66,15.66,0,0,0-1.86-5.53h0a.42.42,0,0,1-.06-.21.44.44,0,0,1,.31-.41,6,6,0,0,1,1.65-.31,1.83,1.83,0,0,1,.7.12A.78.78,0,0,1,198,69l0,0,3.42,3.77.16-.36h0a1.65,1.65,0,0,1,.33-.48,1,1,0,0,1,.75-.38,1.54,1.54,0,0,1,1,.48,7.68,7.68,0,0,1,1.45,2l0,0,0,0h0c.07.07,1.22,1.28,2.94,7.33l.08.28.26-.11h0a2.33,2.33,0,0,1,.78-.14,1.75,1.75,0,0,1,1.26.49,3.88,3.88,0,0,1,1,2.37l.25,0h-.25c0,.06.1,2.63,3.53,8.2a14.26,14.26,0,0,1,2.08,6.29l0,.16.15.06.15,0a59.19,59.19,0,0,1,7,3.28c3.87,2.13,8.28,5.19,10.45,8.8l.22-.13-.22.13a5.66,5.66,0,0,0,.6.85h0c.63.72,2.23,3,3.65,8.34v0l.11.26a35.15,35.15,0,0,1,2.57,11Z"/><path d="M212.27,96.59s0-.5,0-1.23a11.91,11.91,0,0,0-.93-5.07A36.92,36.92,0,0,1,209.55,86c-.3-.83-.56-1.64-.74-2.35a7.43,7.43,0,0,1-.3-1.69.71.71,0,0,1,.06-.35l-.45-.25a1.26,1.26,0,0,0-.12.6,7.91,7.91,0,0,0,.31,1.82,39.65,39.65,0,0,0,2.62,6.79,11.52,11.52,0,0,1,.87,4.83c0,.36,0,.66,0,.86s0,.33,0,.33l.51,0Z"/><path class="cls-3" d="M206.65,92.47a42.39,42.39,0,0,0-1.44-9l-3.89-11.13"/><path d="M206.91,92.47a42.44,42.44,0,0,0-1.45-9h0l-3.89-11.13-.48.16L205,83.58l.24-.08-.25.06a52.38,52.38,0,0,1,1.25,6.52c.09.77.14,1.38.16,1.78,0,.21,0,.36,0,.46v.16Z"/><path d="M199.66,88.5v0h0v0h.11c.53,0,2.83.2,6,3.61h0s1.13.95,2.45,2c.66.53,1.36,1.08,2,1.56a18,18,0,0,0,1.61,1.11h0l5.31,2.27.2-.47-5.29-2.26-.1.23.12-.22c-.36-.21-.92-.6-1.55-1.07-1-.71-2.06-1.6-2.93-2.31l-1.08-.89-.42-.35-.17.19.19-.17c-3.28-3.49-5.74-3.77-6.41-3.77h-.17l.06.51Z"/><path d="M215.35,110.22s-1.11-1.51-2.48-3.18c-.68-.84-1.43-1.72-2.14-2.47a11.17,11.17,0,0,0-1.93-1.73l-.13.21.17-.19L200,95a2.83,2.83,0,0,1-1-2.14v-.15l-.12-.07h0a5.74,5.74,0,0,1-1-.79,2.36,2.36,0,0,1-.79-1.55,1.47,1.47,0,0,1,.24-.78,3.07,3.07,0,0,1,.89-.87l-.14-.21.1.23v0h0v0a2,2,0,0,1,.59-.1,1.42,1.42,0,0,1,1,.35,9.15,9.15,0,0,0,1,.77,14,14,0,0,1,1.61,1.1,3.56,3.56,0,0,1,.62.59.82.82,0,0,1,.22.42v0l.25,0-.21-.14L202,93.61a.45.45,0,0,1-.37.19l-.15,0-.08.24.1-.24-2.63-1.12-.2.47,2.64,1.13h0a.93.93,0,0,0,.32,0,1,1,0,0,0,.79-.4L203.72,92v0a.77.77,0,0,0,0-.15,1.31,1.31,0,0,0-.33-.74,5.81,5.81,0,0,0-1.12-1c-.43-.32-.89-.6-1.25-.82a7.23,7.23,0,0,1-1-.72,2,2,0,0,0-1.3-.47,2.16,2.16,0,0,0-.79.14h0l0,0a3.56,3.56,0,0,0-1,1,2,2,0,0,0-.32,1,2.26,2.26,0,0,0,.33,1.13,5.45,5.45,0,0,0,1.69,1.66l.13-.22h-.26a3.38,3.38,0,0,0,1.14,2.52l8.9,7.84h0a11.09,11.09,0,0,1,1.83,1.65c1,1.11,2.19,2.51,3.08,3.63.44.57.82,1.06,1.08,1.41l.42.56.41-.3Z"/><path class="cls-3" d="M225.54,87.39c4-2,10.35-2.92,17.45,4.48a.27.27,0,0,1,0,.38c-1.24,1.17-8.3,7.56-12.65,6.65a.19.19,0,0,1-.12-.07l-5.5-4.77A4,4,0,0,1,225.54,87.39Z"/><circle class="cls-2" cx="241.56" cy="80.6" r="5.05"/><path class="cls-2" d="M236.51,80.6h-.77a5.82,5.82,0,1,0,5.82-5.82,5.82,5.82,0,0,0-5.82,5.82h1.53a4.3,4.3,0,1,1,1.26,3,4.28,4.28,0,0,1-1.26-3Z"/><path class="cls-2" d="M256.65,87.88l.36-.67a12.44,12.44,0,0,0-5.84-1.51,12.3,12.3,0,0,0-4.14.74,13.77,13.77,0,0,0-6,4.29,21,21,0,0,1-4.24,4,11.68,11.68,0,0,1-6.58,2.25h-.31l-2.27-.07,13.41,10.82,16.63-14.32A3.73,3.73,0,0,0,259,90.51a3.81,3.81,0,0,0-.5-1.88A3.75,3.75,0,0,0,257,87.21l-.36.67-.36.68a2.2,2.2,0,0,1,.87.84,2.15,2.15,0,0,1,.3,1.11,2.2,2.2,0,0,1-.77,1.68L241,105.68l-10.65-8.59-.48.6,0,.76h.36a13.23,13.23,0,0,0,7.45-2.52,22.22,22.22,0,0,0,4.55-4.24,12.28,12.28,0,0,1,5.33-3.82,10.48,10.48,0,0,1,3.62-.65,10.81,10.81,0,0,1,5.12,1.33Z"/><path d="M218,107.41l.47.46-2.63,2.62,3.61,3.62,2.62-2.62.47.46-6,6-.47-.46,3-3-3.6-3.62-3,3-.47-.46Z"/><path d="M223.65,120.84c-1.2,1.2-2.93,1.6-4.21.32s-.92-2.84.38-4.14,2.93-1.57,4.18-.32S225,119.5,223.65,120.84Zm-3.37-3.36c-1,1-1.31,2.39-.4,3.31s2.22.69,3.31-.39,1.33-2.37.38-3.32S221.31,116.45,220.28,117.48Z"/><path d="M225.75,120.88c.37-.37.77-.77,1.1-1.12l.42.42c-.14.16-.49.55-.75.79a1.91,1.91,0,0,1,2.16.42,1.73,1.73,0,0,1,.39,2.1,2.08,2.08,0,0,1,2.25.55c.66.67,1,1.73-.23,2.93l-2.83,2.82-.43-.43,2.78-2.77c.58-.58,1-1.41.21-2.21s-1.89-.55-2.72.29l-2.48,2.47-.42-.42L228,124c.63-.62,1-1.4.23-2.19s-2-.5-2.85.37L223,124.5l-.43-.43Z"/><path d="M234,126.91l.43.43-4.3,4.29-.43-.43Zm2-2,.43.43-.83.84-.43-.43Z"/><path d="M233.7,131c-1.1,1.12-1.23,2.37-.41,3.19a1.73,1.73,0,0,0,2.05.44l.43.44a2.33,2.33,0,0,1-2.9-.49c-1.31-1.31-.68-2.94.41-4s2.9-1.68,4.15-.42a2.52,2.52,0,0,1-.21,3.7c-.12.12-.24.24-.36.34Zm3.1,2.36a1.93,1.93,0,0,0,.21-2.84c-.88-.89-1.91-.68-2.91.13Z"/><path d="M245.18,128.71l.46-.48,2.68,2.56,3.53-3.7-2.69-2.56.45-.47,6.17,5.87-.46.47-3-2.89-3.53,3.7,3,2.89-.45.48Z"/><path d="M258.47,122.67c1.23,1.17,1.67,2.89.42,4.2s-2.81,1-4.14-.27-1.65-2.89-.43-4.17S257.09,121.36,258.47,122.67Zm-3.28,3.46c1.05,1,2.43,1.24,3.32.31s.64-2.23-.47-3.29-2.4-1.28-3.33-.3S254.13,125.13,255.19,126.13Z"/><path d="M263,118c1.22,1.17,1.67,2.89.42,4.2s-2.82,1-4.15-.27-1.64-2.89-.43-4.17S261.57,116.65,263,118Zm-3.28,3.47c1.05,1,2.43,1.23,3.32.3s.63-2.23-.48-3.29-2.4-1.28-3.33-.3S258.62,120.42,259.68,121.43Z"/><path d="M262.91,115.84c-.38-.37-.75-.72-1.12-1l.42-.43c.15.12.73.66.85.78a2.11,2.11,0,0,1,3.51-2.26l2.86,2.72L269,116l-2.79-2.65c-.78-.75-1.6-.91-2.33-.14-1,1-.47,2.24.49,3.15l2.24,2.14-.41.44Z"/></g></g></svg>