<svg xmlns="http://www.w3.org/2000/svg" viewBox="0 0 472.65 432.93"><defs><style>.cls-1{opacity:0.86;}.cls-2{fill:#fff;}.cls-3{fill:none;}.cls-4{fill:#ddcdaf;}.cls-5{fill:#080808;}</style></defs><g id="Layer_2" data-name="Layer 2"><g id="Layer_1-2" data-name="Layer 1"><g class="cls-1"><circle class="cls-2" cx="243.23" cy="76.58" r="76.58" transform="translate(-11.66 69.14) rotate(-15.8)"/><path class="cls-3" d="M259.06,225a3.49,3.49,0,0,1-.08,4.95c-13.66,12.81-80.23,73.21-135.22,86.22l112.34,90.6L442.35,229.21a28.89,28.89,0,0,0,10.17-22.11,29.48,29.48,0,0,0-3.92-14.71,28.65,28.65,0,0,0-11.47-11l4.73-8.88-4.74,8.88c-17.92-9.55-40.79-17.49-67.32-17.49a141.43,141.43,0,0,0-47.75,8.52c-26.3,9.38-49.45,26.17-67.8,47.64C255.85,221.65,257.46,223.29,259.06,225Z"/><path class="cls-4" d="M192,278.53c-21.41,14.65-47,27.06-75.91,31.44l7.65,6.17c55-13,121.56-73.41,135.22-86.22a3.49,3.49,0,0,0,.08-4.95c-1.6-1.68-3.21-3.32-4.81-4.93-.75.89-1.52,1.77-2.26,2.68C239.25,238.22,218.79,260.18,192,278.53Z"/><path class="cls-4" d="M93.92,291.54c32.66,0,62.16-12.8,86.72-29.62s43.88-37.45,55.79-52c1.06-1.28,2.14-2.54,3.22-3.8-85.47-76.82-161-64.91-210.3-40.18-33.9,17-39.6,63-11,87.86l42.35,36.75,29.19.9C91.27,291.51,92.6,291.54,93.92,291.54Z"/><path class="cls-2" d="M466,182.32a48.8,48.8,0,0,0-19.44-18.71h0c-20.07-10.71-46.19-19.86-76.79-19.86a161.4,161.4,0,0,0-54.51,9.7C285.69,164,260,182.64,239.65,206.14q7.26,6.53,14.6,13.9c18.35-21.47,41.5-38.26,67.8-47.64a141.43,141.43,0,0,1,47.75-8.52c26.53,0,49.4,7.94,67.32,17.49l4.74-8.88-4.73,8.88a28.65,28.65,0,0,1,11.47,11,29.48,29.48,0,0,1,3.92,14.71,28.89,28.89,0,0,1-10.17,22.11L236.1,406.74l-112.34-90.6c-10.64,2.52-20.85,3.26-30.16,1.54L236.52,432.93l219-188.47a49.05,49.05,0,0,0,17.16-37.36A49.58,49.58,0,0,0,466,182.32Z"/><path class="cls-2" d="M123.76,316.14,116.11,310c28.88-4.38,54.5-16.79,75.91-31.44,26.77-18.35,47.23-40.31,60-55.81.74-.91,1.51-1.79,2.26-2.68q-7.33-7.39-14.6-13.9c-1.08,1.26-2.16,2.52-3.22,3.8-11.91,14.53-31.25,35.2-55.79,52s-54.06,29.63-86.72,29.62c-1.32,0-2.65,0-4-.07l-29.19-.9,9.93,8.61,22.93,18.5C102.91,319.4,113.12,318.66,123.76,316.14Z"/></g><path class="cls-5" d="M393.31,200.88h3.5v2.86h-3.44v2.47a5.62,5.62,0,0,1-1.14,3.58A6.81,6.81,0,0,1,389,212a7.63,7.63,0,0,1-1.89.37,17.86,17.86,0,0,1-2.11,0,6.46,6.46,0,0,1-1.89-.37q-4.26-1.5-4.26-6.34v-9.29h3.49v9.56a3.53,3.53,0,0,0,.71,2.28,3.69,3.69,0,0,0,2,1.24,3.73,3.73,0,0,0,2,0,3.36,3.36,0,0,0,2.72-3.52V194.2h3.53Zm-6.9-10.79a1.88,1.88,0,0,1,0,3.76,1.88,1.88,0,0,1,0-3.76Z"/><path class="cls-5" d="M399.62,191.16h2.1a27.22,27.22,0,0,1,3.1.13,5.78,5.78,0,0,1,4.88,4,16.43,16.43,0,0,1,.53,5v.61h3.52v2.86H396v-2.86h11.26a17.67,17.67,0,0,0-.12-3.37,3.72,3.72,0,0,0-2.72-2.94,6.41,6.41,0,0,0-1.46-.2h-.64l-1,0h-1.1a4.09,4.09,0,0,1-.64,0Z"/><path class="cls-5" d="M420.08,191.22v7.71c0,3.2-1.61,4.81-4.85,4.81H413v-2.86h2a1.61,1.61,0,0,0,1.17-.42,1.57,1.57,0,0,0,.43-1.18v-8.06Zm-1.65-6.51a1.66,1.66,0,0,1,1.9,1.87,1.85,1.85,0,1,1-1.9-1.87Z"/><path class="cls-5" d="M344.8,247.61h2.13v2.86h-2v8.41H333.51a10.06,10.06,0,0,1-3.37-.52,5.63,5.63,0,0,1-4.05-5v-5.78h3.39v4a5.32,5.32,0,0,0,.18,1.34,3.87,3.87,0,0,0,3.15,2.9,5,5,0,0,0,.74.14h7.87a32.6,32.6,0,0,0-.3-4.39,28.11,28.11,0,0,0-.58-3.34l-.31-1.13Zm-10.65,13.75a1.88,1.88,0,1,1,0,3.75,1.63,1.63,0,0,1-1.83-1.87C332.37,262,333,261.37,334.15,261.36Zm4.83,0a1.88,1.88,0,1,1,0,3.75,1.63,1.63,0,0,1-1.83-1.87C337.2,262,337.8,261.37,339,261.36Z"/><path class="cls-5" d="M361.82,237.87v9.74h3.51v2.86H346.15v-2.86h4.36a6.6,6.6,0,0,1,.9-7.91,5.78,5.78,0,0,1,4.3-1.85Zm-7.45-6.42a1.66,1.66,0,0,1,1.9,1.87,1.85,1.85,0,1,1-3.7,0C352.59,232.09,353.18,231.46,354.37,231.45Zm2.62,9.36-1.28,0q-3.07.06-3.08,3.37v.14c0,2.18,1,3.27,3,3.27h3.12v-6.45l0-.35Zm2.21-9.36a1.66,1.66,0,0,1,1.9,1.87,1.85,1.85,0,1,1-3.7,0C357.42,232.09,358,231.46,359.2,231.45Z"/><path class="cls-5" d="M374.91,238v7.71q0,4.82-4.85,4.81h-5.49v-2.86h5.2a1.61,1.61,0,0,0,1.17-.42,1.59,1.59,0,0,0,.42-1.18V238Zm-6.56-6.5a1.88,1.88,0,1,1,0,3.75,1.63,1.63,0,0,1-1.83-1.86C366.57,232.09,367.16,231.46,368.35,231.45Zm4.82,0a1.67,1.67,0,0,1,1.91,1.87,1.85,1.85,0,1,1-3.7,0C371.4,232.09,372,231.46,373.17,231.45Z"/><path class="cls-5" d="M387.35,250.47h-3.52v1.89q0,4.83-4.27,6.33a6.67,6.67,0,0,1-1.87.37L376,256.57a8.82,8.82,0,0,0,3-1.56,3.07,3.07,0,0,0,1.42-2.38v-14.7h3.49v9.68h3.52Z"/><path class="cls-5" d="M393.68,238v7.71q0,4.82-4.85,4.81h-2.26v-2.86h2a1.61,1.61,0,0,0,1.17-.42,1.59,1.59,0,0,0,.42-1.18V238Zm-1.66-6.5a1.67,1.67,0,0,1,1.91,1.87,1.65,1.65,0,0,1-1.87,1.88,1.63,1.63,0,0,1-1.83-1.86C390.25,232.09,390.84,231.46,392,231.45Z"/><path class="cls-5" d="M268.87,286.57a5.85,5.85,0,0,1,8.65,0,6.5,6.5,0,0,1,1.79,4.6,7.13,7.13,0,0,1-.33,2.14,1.7,1.7,0,0,0,1.2,1h1.93v2.86h-1.44a3.8,3.8,0,0,1-3-1.24.91.91,0,0,0-.23-.16,5.68,5.68,0,0,1-4.29,1.87,5.61,5.61,0,0,1-2.66-.66c-.11,0-.49.08-1.15.21-2.16.46-3.23,1.63-3.23,3.53v5.12h-3.49V301a6,6,0,0,1,4.77-6.35l.53-.15a6.68,6.68,0,0,1-.88-3.35A6.5,6.5,0,0,1,268.87,286.57Zm6.66,4.6q0-3.76-2.34-3.76t-2.33,3.76c0,2.5.78,3.76,2.33,3.76S275.53,293.67,275.53,291.17Z"/><path class="cls-5" d="M295.14,284.62v2.93h-2.88l-1.29,0c-2.05,0-3.07,1.16-3.07,3.36v.16q0,3.26,3,3.25h6.16v2.86H281.33v-2.86h4.44a6.62,6.62,0,0,1,.9-7.9,5.75,5.75,0,0,1,4.3-1.83Z"/><path class="cls-5" d="M305.71,284.66a3.78,3.78,0,0,1,3.41,2.85,8.22,8.22,0,0,1,.37,2.57v4.26h3.31v2.86H298.64v-2.86H306v-4.87a2.11,2.11,0,0,0-.5-1.5,1.91,1.91,0,0,0-1.45-.52h-2.57v-2.79C304.06,284.64,305.49,284.64,305.71,284.66Z"/><path class="cls-5" d="M319.13,284.68v7.71q0,4.82-4.85,4.81H312v-2.86h2a1.61,1.61,0,0,0,1.17-.42,1.59,1.59,0,0,0,.42-1.18v-8.06Zm-2.73,15a1.67,1.67,0,0,1,1.91,1.87,1.85,1.85,0,1,1-3.7,0C314.62,300.36,315.22,299.73,316.4,299.72Z"/><path class="cls-5" d="M188.2,341.07h3.51v2.87h-3.45v2.47a5.64,5.64,0,0,1-1.14,3.58,6.81,6.81,0,0,1-3.24,2.2,7.63,7.63,0,0,1-1.89.37,17.71,17.71,0,0,1-2.1,0,6.33,6.33,0,0,1-1.89-.37c-2.84-1-4.27-3.11-4.27-6.35v-9.28h3.49v9.56a3.59,3.59,0,0,0,.71,2.28,4,4,0,0,0,4,1.24,3.37,3.37,0,0,0,2.73-3.52V334.4h3.52Zm-6.89-10.78a1.88,1.88,0,1,1,0,3.76,1.88,1.88,0,0,1,0-3.76Z"/><path class="cls-5" d="M201.27,331.42v7.71c0,3.2-1.62,4.81-4.85,4.81h-5.49v-2.87h5.2a1.61,1.61,0,0,0,1.16-.41,1.57,1.57,0,0,0,.43-1.18v-8.06Zm-7.62,15a1.67,1.67,0,0,1,1.91,1.87,1.85,1.85,0,1,1-3.7,0C191.87,347.09,192.47,346.46,193.65,346.45Zm4.83,0a1.67,1.67,0,0,1,1.91,1.87,1.85,1.85,0,1,1-3.7,0C196.7,347.09,197.3,346.46,198.48,346.45Z"/><path class="cls-5" d="M213.53,343.94H210v1.89q0,4.82-4.26,6.32a6.39,6.39,0,0,1-1.87.37L202.14,350a8.73,8.73,0,0,0,3-1.56,3.07,3.07,0,0,0,1.42-2.37V331.4H210v9.67h3.52Z"/><path class="cls-5" d="M216.34,331.36h2.1a27.22,27.22,0,0,1,3.1.13,5.78,5.78,0,0,1,4.88,4,16.11,16.11,0,0,1,.53,5v3.47h-14.2v-2.87H224a17.54,17.54,0,0,0-.12-3.36,3.72,3.72,0,0,0-2.72-2.94,6.41,6.41,0,0,0-1.46-.2h-.64l-1,0H217a4.09,4.09,0,0,1-.64,0Zm3.17-6.45a1.67,1.67,0,0,1,1.91,1.87,1.65,1.65,0,0,1-1.87,1.89,1.63,1.63,0,0,1-1.83-1.87C217.73,325.55,218.33,324.93,219.51,324.91Z"/><path class="cls-5" d="M243.64,324.23l0,.72v14a6.32,6.32,0,0,1-.28,2.11,4.1,4.1,0,0,1-3.29,2.78,8.45,8.45,0,0,1-1.53.14H228.51v-2.87h5L232,331.38h3.51c.06.4.18,1.14.35,2.21s.3,1.93.41,2.6l.76,4.88H239a1.51,1.51,0,0,0,1.11-1.3,8,8,0,0,0,.1-1.23V324.23Q241.36,324.17,243.64,324.23Zm-10.58,2.38h.08a2.09,2.09,0,0,0,.59.93,1.21,1.21,0,0,0,.8.24h1.28v1.16h-.95a7.91,7.91,0,0,1-.8,0,1.65,1.65,0,0,1-.62-.23,2.12,2.12,0,0,1-.69-.68l-1.2,1V327.7Z"/><path class="cls-5" d="M248.72,343.94h-3.49V324.19h3.49Z"/><rect x="205.84" y="36.7" width="78.13" height="79.5" transform="translate(18.35 196.85) rotate(-45.32)"/><path class="cls-2" d="M245.05,131.68c.11-5.29,2.7-11.34,2.7-11.34,1.43-5.38,3.05-7.69,3.7-8.45a5.19,5.19,0,0,0,.58-.81c2.22-3.69,6.66-6.75,10.54-8.89a59.24,59.24,0,0,1,7.22-3.35,14.59,14.59,0,0,1,2.12-6.4c3.42-5.55,3.5-8.08,3.5-8.08.53-4.1,3.35-2.92,3.35-2.92,1.84-6.47,3-7.45,3-7.45,2.59-4.75,4-1.62,4-1.62l3.13-3.45c.51-1,2.09-.63,3.07-.31a.68.68,0,0,1,.4,1A15.34,15.34,0,0,0,290.55,75c0,.21,0,.43-.08.64a47.21,47.21,0,0,1-1.54,6.58,24.08,24.08,0,0,0-1.1,5.24C293.67,75.18,298,76.15,298,76.15c2.14-.32,2.72.17,2.65.85"/><path d="M245.3,131.68a29.66,29.66,0,0,1,1.39-7.58c.32-1.08.65-2,.89-2.65q.18-.48.3-.75c.07-.17.1-.26.1-.26v0c1.42-5.35,3-7.62,3.65-8.34h0a5.66,5.66,0,0,0,.6-.85l-.22-.13.22.13c2.17-3.61,6.58-6.67,10.45-8.8,1.93-1.06,3.73-1.89,5-2.46.66-.29,1.19-.5,1.56-.65l.43-.17.15,0L270,99l0-.16a14.26,14.26,0,0,1,2.08-6.29c3.43-5.57,3.53-8.14,3.53-8.2h-.25l.25,0a3.88,3.88,0,0,1,1-2.37,1.75,1.75,0,0,1,1.26-.49,2.13,2.13,0,0,1,.56.07l.17,0h.05l.26.11.08-.28a36,36,0,0,1,2.19-6.11,6.58,6.58,0,0,1,.58-1l.14-.18,0,0h0l0,0,0,0a7.66,7.66,0,0,1,1.46-2,1.54,1.54,0,0,1,1-.48,1.11,1.11,0,0,1,.8.42,2,2,0,0,1,.22.31l.06.1v0h0l.16.36,3.42-3.77,0,0a.78.78,0,0,1,.42-.38,1.83,1.83,0,0,1,.7-.12,6,6,0,0,1,1.65.31.44.44,0,0,1,.31.41.42.42,0,0,1-.06.21h0A15.45,15.45,0,0,0,290.3,75h0c0,.21-.05.42-.08.62h0a46.64,46.64,0,0,1-1.53,6.54,23.92,23.92,0,0,0-1.11,5.3l-.15,1.45.63-1.32c2.51-5.3,4.73-8.11,6.42-9.58s2.85-1.63,3.27-1.63h.18l0-.11,0,.11h0l0-.11,0,.11H298a8.86,8.86,0,0,1,1.14-.09,2,2,0,0,1,1,.2.42.42,0,0,1,.21.38V77l.5,0v-.13a.93.93,0,0,0-.44-.81,2.41,2.41,0,0,0-1.3-.28,8.27,8.27,0,0,0-1.21.1l0,.25.05-.25a2.13,2.13,0,0,0-.29,0,5.76,5.76,0,0,0-3.6,1.75c-1.77,1.55-4,4.41-6.55,9.75l.23.11.25,0a24.09,24.09,0,0,1,1.09-5.19,46.69,46.69,0,0,0,1.55-6.62l-.25,0,.25,0c0-.22.06-.44.09-.65l-.26,0,.26,0a15,15,0,0,1,1.79-5.34l-.22-.12.22.13a1,1,0,0,0,.13-.47,1,1,0,0,0-.67-.89,5.94,5.94,0,0,0-1.8-.34,2.47,2.47,0,0,0-.9.16,1.36,1.36,0,0,0-.67.61l.22.12-.19-.17-3.13,3.45.19.17.23-.11a3,3,0,0,0-.38-.57,1.57,1.57,0,0,0-1.18-.59,2,2,0,0,0-1.33.61,7.88,7.88,0,0,0-1.56,2.15l.22.13-.16-.2c-.08.07-1.26,1.09-3.11,7.58l.25.07.09-.23a2.54,2.54,0,0,0-1-.18,2.27,2.27,0,0,0-1.61.63,4.32,4.32,0,0,0-1.12,2.67h0v0h0c0,.1-.16,2.6-3.46,7.94a14.86,14.86,0,0,0-2.15,6.52l.25,0-.09-.24a58.38,58.38,0,0,0-7.25,3.36c-3.9,2.16-8.37,5.23-10.64,9h0a6.08,6.08,0,0,1-.55.78l.19.16-.19-.16c-.69.79-2.32,3.13-3.76,8.54l.25.07-.23-.1s-2.61,6.07-2.73,11.43Z"/><path d="M275.34,96.55s0-.12,0-.33,0-.5,0-.86a11.37,11.37,0,0,1,.87-4.83,37.14,37.14,0,0,0,1.86-4.4c.3-.84.56-1.66.75-2.39a7.49,7.49,0,0,0,.32-1.82,1.4,1.4,0,0,0-.12-.6l-.45.25a.71.71,0,0,1,.06.35,7.43,7.43,0,0,1-.3,1.69,39.54,39.54,0,0,1-2.57,6.68,11.91,11.91,0,0,0-.93,5.07c0,.73,0,1.23,0,1.23l.51,0Z"/><path d="M280.7,92.48v-.16a44,44,0,0,1,1.44-8.76l-.25-.06.24.08L286,72.45l-.48-.16-3.9,11.13h0a42.44,42.44,0,0,0-1.45,9Z"/><path d="M270.43,113.59l.27-.39c.6-.88,2.14-3.09,3.74-5.23.81-1.06,1.63-2.11,2.36-3a10.1,10.1,0,0,1,1.77-1.74h0l8.9-7.84a3.38,3.38,0,0,0,1.14-2.52h-.26l.13.22a6,6,0,0,0,1-.79,4.1,4.1,0,0,0,.7-.87,2.26,2.26,0,0,0,.33-1.13,2,2,0,0,0-.32-1,3.61,3.61,0,0,0-1-1l0,0h0a2.18,2.18,0,0,0-.8-.14,2,2,0,0,0-1.29.47,7.23,7.23,0,0,1-1,.72,15.11,15.11,0,0,0-1.67,1.14,5,5,0,0,0-.7.67,1.31,1.31,0,0,0-.33.74.77.77,0,0,0,0,.15v0l1.34,1.88a1,1,0,0,0,.79.4.84.84,0,0,0,.31,0h0l2.64-1.13-.2-.47-2.63,1.12.1.24-.08-.24-.15,0a.44.44,0,0,1-.37-.19l-1.31-1.83-.21.14.25,0v0a.86.86,0,0,1,.21-.42,6.06,6.06,0,0,1,1-.9c.41-.3.86-.58,1.21-.79a9.15,9.15,0,0,0,1.05-.77,1.41,1.41,0,0,1,1-.35,2.33,2.33,0,0,1,.44.05l.13,0h0v0h0v0l.1-.23-.14.21a3.07,3.07,0,0,1,.89.87,1.47,1.47,0,0,1,.24.78,1.79,1.79,0,0,1-.26.88,4.43,4.43,0,0,1-.94,1.06c-.16.13-.31.23-.41.3l-.12.08,0,0-.12.07v.15a2.87,2.87,0,0,1-1,2.14l-8.89,7.82.17.19-.13-.21a5.65,5.65,0,0,0-1,.85,59.92,59.92,0,0,0-4.62,5.8c-1.5,2.07-2.68,3.82-2.68,3.82l.42.28Z"/><path d="M287.33,88.09h-.25c-.74,0-3,.32-6.16,3.67l.19.17-.17-.19-.72.6c-.67.55-1.71,1.4-2.72,2.19A27.79,27.79,0,0,1,275,96.35l.12.22-.1-.23-5.29,2.26.2.47,5.31-2.27h0a18,18,0,0,0,1.61-1.11c1.91-1.43,4.45-3.56,4.45-3.56h0c3.07-3.27,5.2-3.51,5.79-3.51h.17v0h0v0l.08-.51Z"/><path class="cls-2" d="M245.05,131.68c-.11-5.29-2.7-11.34-2.7-11.34-1.43-5.38-3-7.69-3.71-8.45a5.13,5.13,0,0,1-.57-.81c-2.22-3.69-6.66-6.75-10.54-8.89a59.24,59.24,0,0,0-7.22-3.35,14.59,14.59,0,0,0-2.12-6.4c-3.42-5.55-3.5-8.08-3.5-8.08-.54-4.1-3.35-2.92-3.35-2.92-1.84-6.47-3-7.45-3-7.45-2.59-4.75-4-1.62-4-1.62l-3.13-3.45c-.51-1-2.1-.63-3.08-.31a.68.68,0,0,0-.39,1A15,15,0,0,1,199.54,75c0,.21.05.43.09.64a47.21,47.21,0,0,0,1.54,6.58,24.08,24.08,0,0,1,1.1,5.24c-5.84-12.31-10.16-11.34-10.16-11.34-2.15-.32-2.72.17-2.65.85"/><path d="M245.3,131.67c-.11-5.36-2.71-11.42-2.72-11.43l-.23.1.24-.07c-1.43-5.41-3.07-7.75-3.75-8.54l-.2.16.2-.16a6.08,6.08,0,0,1-.55-.78h0c-2.27-3.76-6.74-6.83-10.64-9a58.09,58.09,0,0,0-7.26-3.36l-.08.24.25,0a14.86,14.86,0,0,0-2.15-6.52,30.59,30.59,0,0,1-3-6.06A10.94,10.94,0,0,1,215,84.8c0-.16,0-.27-.06-.34v-.1h0v0h0a4.32,4.32,0,0,0-1.11-2.67,2.27,2.27,0,0,0-1.61-.63,2.68,2.68,0,0,0-1,.18l.1.23.25-.07c-1.85-6.49-3-7.51-3.11-7.58l-.16.2.22-.13A8.1,8.1,0,0,0,207,71.71a2,2,0,0,0-1.34-.61,1.57,1.57,0,0,0-1.17.59,3,3,0,0,0-.38.57l.23.11.19-.17-3.13-3.45-.19.17.22-.12a1.34,1.34,0,0,0-.68-.61,2.38,2.38,0,0,0-.89-.16,5.88,5.88,0,0,0-1.8.34,1,1,0,0,0-.67.89.9.9,0,0,0,.13.47l.22-.13-.22.12a15,15,0,0,1,1.79,5.34l.25,0-.25,0c0,.21.05.43.09.65l.25,0-.25,0a46.69,46.69,0,0,0,1.55,6.62A24.7,24.7,0,0,1,202,87.52l.25,0,.23-.11C200,82,197.72,79.18,196,77.63a5.76,5.76,0,0,0-3.6-1.75,2,2,0,0,0-.29,0l.05.25,0-.25a8.27,8.27,0,0,0-1.21-.1,2.41,2.41,0,0,0-1.3.28.94.94,0,0,0-.44.82V77l.5,0V76.9a.41.41,0,0,1,.21-.39,1.93,1.93,0,0,1,1-.2,9,9,0,0,1,1.14.09h.09l0-.11,0,.11h0l0-.11,0,.11h.18c.42,0,1.57.15,3.26,1.63s3.92,4.28,6.43,9.58l.62,1.32-.14-1.45a23.92,23.92,0,0,0-1.11-5.3,46.64,46.64,0,0,1-1.53-6.54h0a6.17,6.17,0,0,1-.08-.62h0a15.66,15.66,0,0,0-1.86-5.53h0a.42.42,0,0,1-.06-.21.44.44,0,0,1,.31-.41,6,6,0,0,1,1.65-.31,1.83,1.83,0,0,1,.7.12A.78.78,0,0,1,201,69l0,0,3.42,3.77.16-.36h0a1.65,1.65,0,0,1,.33-.48,1,1,0,0,1,.75-.38,1.54,1.54,0,0,1,1,.48,7.68,7.68,0,0,1,1.45,2l0,0,0,0h0c.07.07,1.22,1.28,2.94,7.33l.08.28.26-.11h0a2.33,2.33,0,0,1,.78-.14,1.75,1.75,0,0,1,1.26.49,3.88,3.88,0,0,1,1,2.37l.25,0h-.25c0,.06.1,2.63,3.53,8.2a14.26,14.26,0,0,1,2.08,6.29l0,.16.15.06.15,0a59.19,59.19,0,0,1,7,3.28c3.87,2.13,8.28,5.19,10.45,8.8l.22-.13-.22.13a5.66,5.66,0,0,0,.6.85h0c.63.72,2.23,3,3.65,8.34v0l.11.26a35.15,35.15,0,0,1,2.57,11Z"/><path d="M215.27,96.59s0-.5,0-1.23a11.91,11.91,0,0,0-.93-5.07A36.92,36.92,0,0,1,212.55,86c-.3-.83-.56-1.64-.74-2.35a7.43,7.43,0,0,1-.3-1.69.71.71,0,0,1,.06-.35l-.45-.25a1.26,1.26,0,0,0-.12.6,7.91,7.91,0,0,0,.31,1.82,39.65,39.65,0,0,0,2.62,6.79,11.52,11.52,0,0,1,.87,4.83c0,.36,0,.66,0,.86s0,.33,0,.33l.51,0Z"/><path class="cls-2" d="M209.65,92.47a42.39,42.39,0,0,0-1.44-9l-3.89-11.13"/><path d="M209.91,92.47a42.44,42.44,0,0,0-1.45-9h0l-3.89-11.13-.48.16L208,83.58l.24-.08-.25.06a52.38,52.38,0,0,1,1.25,6.52c.09.77.14,1.38.16,1.78,0,.21,0,.36,0,.46v.16Z"/><path d="M202.66,88.5v0h0v0h.11c.53,0,2.83.2,6,3.61h0s1.13.95,2.45,2c.66.53,1.36,1.08,2,1.56a18,18,0,0,0,1.61,1.11h0l5.31,2.27.2-.47-5.29-2.26-.1.23.12-.22c-.36-.21-.92-.6-1.55-1.07-1-.71-2.06-1.6-2.93-2.31l-1.08-.89-.42-.35-.17.19.19-.17c-3.28-3.49-5.74-3.77-6.41-3.77h-.17l.06.51Z"/><path d="M218.35,110.22s-1.11-1.51-2.48-3.18c-.68-.84-1.43-1.72-2.14-2.47a11.17,11.17,0,0,0-1.93-1.73l-.13.21.17-.19L203,95a2.83,2.83,0,0,1-1-2.14v-.15l-.12-.07h0a5.74,5.74,0,0,1-1-.79,2.36,2.36,0,0,1-.79-1.55,1.47,1.47,0,0,1,.24-.78,3.07,3.07,0,0,1,.89-.87l-.14-.21.1.23v0h0v0a2,2,0,0,1,.59-.1,1.42,1.42,0,0,1,1,.35,9.15,9.15,0,0,0,1,.77,14,14,0,0,1,1.61,1.1,3.56,3.56,0,0,1,.62.59.82.82,0,0,1,.22.42v0l.25,0-.21-.14L205,93.61a.45.45,0,0,1-.37.19l-.15,0-.08.24.1-.24-2.63-1.12-.2.47,2.64,1.13h0a.93.93,0,0,0,.32,0,1,1,0,0,0,.79-.4L206.72,92v0a.77.77,0,0,0,0-.15,1.31,1.31,0,0,0-.33-.74,5.81,5.81,0,0,0-1.12-1c-.43-.32-.89-.6-1.25-.82a7.23,7.23,0,0,1-1-.72,2,2,0,0,0-1.3-.47,2.16,2.16,0,0,0-.79.14h0l0,0a3.56,3.56,0,0,0-1,1,2,2,0,0,0-.32,1,2.26,2.26,0,0,0,.33,1.13,5.45,5.45,0,0,0,1.69,1.66l.13-.22h-.26a3.38,3.38,0,0,0,1.14,2.52l8.9,7.84h0a11.09,11.09,0,0,1,1.83,1.65c1,1.11,2.19,2.51,3.08,3.63.44.57.82,1.06,1.08,1.41l.42.56.41-.3Z"/><path class="cls-2" d="M228.54,87.39c4-2,10.35-2.92,17.45,4.48a.27.27,0,0,1,0,.38c-1.24,1.17-8.3,7.56-12.65,6.65a.19.19,0,0,1-.12-.07l-5.5-4.77A4,4,0,0,1,228.54,87.39Z"/><circle class="cls-4" cx="244.56" cy="80.6" r="5.05"/><path class="cls-4" d="M239.51,80.6h-.77a5.82,5.82,0,1,0,5.82-5.82,5.82,5.82,0,0,0-5.82,5.82h1.53a4.3,4.3,0,1,1,1.26,3,4.28,4.28,0,0,1-1.26-3Z"/><path class="cls-4" d="M259.65,87.88l.36-.67a12.44,12.44,0,0,0-5.84-1.51,12.3,12.3,0,0,0-4.14.74,13.77,13.77,0,0,0-6,4.29,21,21,0,0,1-4.24,4,11.68,11.68,0,0,1-6.58,2.25h-.31l-2.27-.07,13.41,10.82,16.63-14.32A3.73,3.73,0,0,0,262,90.51a3.81,3.81,0,0,0-.5-1.88A3.75,3.75,0,0,0,260,87.21l-.36.67-.36.68a2.2,2.2,0,0,1,.87.84,2.15,2.15,0,0,1,.3,1.11,2.2,2.2,0,0,1-.77,1.68L244,105.68l-10.65-8.59-.48.6,0,.76h.36a13.23,13.23,0,0,0,7.45-2.52,22.22,22.22,0,0,0,4.55-4.24,12.28,12.28,0,0,1,5.33-3.82,10.48,10.48,0,0,1,3.62-.65,10.81,10.81,0,0,1,5.12,1.33Z"/><path d="M221,107.41l.47.46-2.63,2.62,3.61,3.62,2.62-2.62.47.46-6,6-.47-.46,3-3-3.6-3.62-3,3-.47-.46Z"/><path d="M226.65,120.84c-1.2,1.2-2.93,1.6-4.21.32s-.92-2.84.38-4.14,2.93-1.57,4.18-.32S228,119.5,226.65,120.84Zm-3.37-3.36c-1,1-1.31,2.39-.4,3.31s2.22.69,3.31-.39,1.33-2.37.38-3.32S224.31,116.45,223.28,117.48Z"/><path d="M228.75,120.88c.37-.37.77-.77,1.1-1.12l.42.42c-.14.16-.49.55-.75.79a1.91,1.91,0,0,1,2.16.42,1.73,1.73,0,0,1,.39,2.1,2.08,2.08,0,0,1,2.25.55c.66.67,1,1.73-.23,2.93l-2.83,2.82-.43-.43,2.78-2.77c.58-.58,1-1.41.21-2.21s-1.89-.55-2.72.29l-2.48,2.47-.42-.42L231,124c.63-.62,1-1.4.23-2.19s-2-.5-2.85.37L226,124.5l-.43-.43Z"/><path d="M237,126.91l.43.43-4.3,4.29-.43-.43Zm2-2,.43.43-.83.84-.43-.43Z"/><path d="M236.7,131c-1.1,1.12-1.23,2.37-.41,3.19a1.73,1.73,0,0,0,2.05.44l.43.44a2.33,2.33,0,0,1-2.9-.49c-1.31-1.31-.68-2.94.41-4s2.9-1.68,4.15-.42a2.52,2.52,0,0,1-.21,3.7c-.12.12-.24.24-.36.34Zm3.1,2.36a1.93,1.93,0,0,0,.21-2.84c-.88-.89-1.91-.68-2.91.13Z"/><path d="M248.18,128.71l.46-.48,2.68,2.56,3.53-3.7-2.69-2.56.45-.47,6.17,5.87-.46.47-3-2.89-3.53,3.7,3,2.89-.45.48Z"/><path d="M261.47,122.67c1.23,1.17,1.67,2.89.42,4.2s-2.81,1-4.14-.27-1.65-2.89-.43-4.17S260.09,121.36,261.47,122.67Zm-3.28,3.46c1.05,1,2.43,1.24,3.32.31s.64-2.23-.47-3.29-2.4-1.28-3.33-.3S257.13,125.13,258.19,126.13Z"/><path d="M266,118c1.22,1.17,1.67,2.89.42,4.2s-2.82,1-4.15-.27-1.64-2.89-.43-4.17S264.57,116.65,266,118Zm-3.28,3.47c1.05,1,2.43,1.23,3.32.3s.63-2.23-.48-3.29-2.4-1.28-3.33-.3S261.62,120.42,262.68,121.43Z"/><path d="M265.91,115.84c-.38-.37-.75-.72-1.12-1l.42-.43c.15.12.73.66.85.78a2.11,2.11,0,0,1,3.51-2.26l2.86,2.72L272,116l-2.79-2.65c-.78-.75-1.6-.91-2.33-.14-1,1-.47,2.24.49,3.15l2.24,2.14-.41.44Z"/></g></g></svg>