<svg xmlns="http://www.w3.org/2000/svg" xmlns:xlink="http://www.w3.org/1999/xlink" viewBox="0 0 1183.07 903"><defs><style>.cls-1{fill:url(#linear-gradient);}.cls-2{fill:url(#linear-gradient-2);}.cls-3{fill:url(#linear-gradient-3);}.cls-4{opacity:0.55;}.cls-5{mask:url(#mask);}.cls-6{opacity:0.7;}.cls-7{opacity:0;}.cls-8{opacity:0.05;}.cls-9{fill:#010101;}.cls-10{opacity:0.1;}.cls-11{opacity:0.14;}.cls-12{fill:#020202;}.cls-13{opacity:0.19;}.cls-14{fill:#030303;}.cls-15{opacity:0.24;}.cls-16{fill:#040404;}.cls-17{opacity:0.29;}.cls-18{opacity:0.33;}.cls-19{fill:#050505;}.cls-20{opacity:0.38;}.cls-21{fill:#060606;}.cls-22{opacity:0.43;}.cls-23{opacity:0.48;}.cls-24{fill:#070707;}.cls-25{opacity:0.52;}.cls-26{fill:#080808;}.cls-27{opacity:0.57;}.cls-28{fill:#090909;}.cls-29{opacity:0.62;}.cls-30{opacity:0.67;}.cls-31{fill:#0a0a0a;}.cls-32{opacity:0.71;}.cls-33{fill:#0b0b0b;}.cls-34{opacity:0.76;}.cls-35{opacity:0.81;}.cls-36{fill:#0c0c0c;}.cls-37{opacity:0.86;}.cls-38{fill:#0d0d0d;}.cls-39{opacity:0.9;}.cls-40{fill:#0e0e0e;}.cls-41{opacity:0.95;}.cls-42{fill:#0f0f0f;}.cls-43{mask:url(#mask-2);}.cls-44{opacity:0.5;}.cls-45{mask:url(#mask-3);}</style><linearGradient id="linear-gradient" x1="-194.85" y1="379.54" x2="916.7" y2="973.18" gradientTransform="translate(236.09 -306.2)" gradientUnits="userSpaceOnUse"><stop offset="0"/><stop offset="0.21" stop-color="#606060"/><stop offset="0.31" stop-color="#888"/><stop offset="0.43" stop-color="#555354"/><stop offset="0.52" stop-color="#2f2b2c"/><stop offset="0.74" stop-color="#231f20"/><stop offset="0.75" stop-color="#2a2627"/><stop offset="0.77" stop-color="#3e3a3b"/><stop offset="0.79" stop-color="#5e5c5c"/><stop offset="0.81" stop-color="#8a8989"/><stop offset="0.82" stop-color="#a9a9a9"/><stop offset="0.84" stop-color="#a4a4a4"/><stop offset="0.87" stop-color="#969696"/><stop offset="0.9" stop-color="#7e7e7e"/><stop offset="0.93" stop-color="#5d5d5d"/><stop offset="0.97" stop-color="#323232"/><stop offset="1"/></linearGradient><linearGradient id="linear-gradient-2" x1="10040.22" y1="11894.47" x2="11151.83" y2="12488.14" gradientTransform="translate(-10008.58 -11694.58)" gradientUnits="userSpaceOnUse"><stop offset="0" stop-color="#090909"/><stop offset="0.2" stop-color="#414042"/><stop offset="0.35" stop-color="#151415"/><stop offset="0.52" stop-color="#bcbec0"/><stop offset="0.6" stop-color="#231f20"/><stop offset="0.66" stop-color="#808285"/><stop offset="0.9" stop-color="#231f20"/><stop offset="0.94" stop-color="#1c1919"/><stop offset="0.99" stop-color="#080707"/><stop offset="1"/></linearGradient><linearGradient id="linear-gradient-3" x1="784.57" y1="5440.1" x2="1896.18" y2="6033.77" gradientTransform="translate(-529.55 -5299.69)" xlink:href="#linear-gradient-2"/><mask id="mask" x="2.41" y="-41.78" width="1224.14" height="842.59" maskUnits="userSpaceOnUse"><rect class="cls-1" x="25.8" y="-4.9" width="1177.36" height="768.83" transform="translate(25.55 -38.54) rotate(3.67)"/></mask><mask id="mask-2" x="0" y="121.63" width="1193.58" height="781.37" maskUnits="userSpaceOnUse"><rect class="cls-2" x="16.23" y="121.63" width="1177.36" height="768.83" transform="translate(1209.81 1012.09) rotate(180)"/></mask><mask id="mask-3" x="239.6" y="49.61" width="1177.36" height="781.37" maskUnits="userSpaceOnUse"><rect class="cls-3" x="239.6" y="62.15" width="1177.36" height="768.83"/></mask></defs><g id="Layer_2" data-name="Layer 2"><g id="Layer_1-2" data-name="Layer 1"><g class="cls-4"><g class="cls-5"><g class="cls-6"><g class="cls-7"><polygon points="1182.46 700.41 628.37 350.68 74.28 0.96 74.88 0 628.98 349.73 1183.07 699.45 1182.46 700.41"/></g><g class="cls-8"><path class="cls-9" d="M76.25,0c4.81,2.76,97.17,65.2,96.57,68.14-.46,2.25,46.36,33.8,48.46,34.56,4.14,1.48,90,51.65,91.9,49,1.22-1.71,49.09,26.17,50.71,25.91,1-.16,33.67,20.14,35,21.09,3.67,2.73,109.45,74.82,108.25,79.22s96.28,70.72,100.1,72.67c.73.37,21.12,12.91,21.89,12.81.94-.12,30.33,17.34,31.39,16.5C662.2,378.54,728.29,417,730,415c2.77-3.44,103.73,54.91,106.73,54.68,1.26-.1,36.72,22,37.9,23.08,1.93,1.76,55.16,36.45,55.2,38.2.08,2.75,67.78,49.23,66,51.09-1.37,1.39,35.43,26.58,35.57,27.59.06.47,14.64,9.86,15.28,10.22,1,.58,23.08,14.19,23.68,13.93.92-.4,31,17.07,31.33,15.79s24.81,13.12,25.48,12.84c.36-.15,12.92,7.58,13.47,7.91,1.9,1.13,42.2,29.3,42.12,29.85,0,.06-.59,1-.59,1l-.48-.28s-40.31-28.85-42.4-30.09c-.53-.32-12.65-7.79-13-7.65-.65.28-24.7-13.69-25-12.56-.31,1.3-30.78-16.4-31.73-16-.19.08-5.8-3.29-6-3.29-.5,0-17.34-10.45-18-10.86s-15.65-10-15.72-10.52c-.14-1-37.36-26.5-36-27.9,1.83-1.85-65.51-48.09-65.59-50.82,0-1.73-52.91-36.19-54.83-37.93-1.17-1.07-36.25-22.94-37.49-22.84-3,.23-103.52-57.88-106.29-54.45C727.87,418,661.69,379.5,660,380.85c-1.05.83-30.48-16.65-31.42-16.52s-21.65-12.71-22.39-13.08c-3.85-2-102-68.79-100.83-73.18S401.27,202,397.63,199.25c-1.27-.95-33.53-21-34.53-20.84-1.6.26-49.1-27.4-50.3-25.7-.94,1.32-42.57-23-43.84-22.12-1.43,1-46.75-26.46-48.61-27.13-2.15-.77-49.62-32.86-49.17-35C171.78,65.5,80.42,3.72,75.64,1Z"/></g><g class="cls-10"><path class="cls-9" d="M77.61,0C87.24,5.56,174.19,68.72,173,74.61c-.92,4.49,43.18,36.34,47.38,37.84,8.29,3,91.92,47.71,95.73,42.34,2.43-3.42,49.11,21.37,52.35,20.86,2-.33,34.23,19.36,36.8,21.27,7.34,5.47,106.54,78.72,104.15,87.51s89,76.1,96.67,80c1.46.74,21.61,12.8,23.15,12.61,1.87-.25,30.82,15.84,32.95,14.17,3.43-2.7,68,31.61,71.37,27.46C739.07,411.79,838,463.49,844,463c2.52-.19,37.45,21.31,39.82,23.46,3.85,3.52,55.43,38.26,55.52,41.76.15,5.49,62.08,52.08,58.42,55.79-2.75,2.8,31,28,31.25,30,.12.94,14.33,10.28,15.6,11,2,1.15,23.8,14.25,25,13.73,1.85-.79,30.78,14.41,31.39,11.84.54-2.27,24.12,10.14,25.46,9.58.71-.3,13.11,7.14,14.22,7.8,3.8,2.26,41.79,31.7,41.62,32.79,0,.13-.58,1.06-.58,1.07l-.51-.28c0-.06-37.66-30.59-41.84-33.08-1.08-.64-13-7.82-13.72-7.53-1.28.54-24.4-11.61-24.93-9.36-.62,2.6-29.91-12.8-31.8-12-.38.16-5.93-3-6.38-3-1,0-17.63-10.14-19-10.95s-15.92-10.37-16-11.33c-.28-2.08-34.39-27.54-31.62-30.36,3.65-3.7-57.95-50-58.09-55.49-.1-3.47-51.32-38-55.16-41.47-2.34-2.13-36.9-23.41-39.39-23.21-6,.46-104.47-51-110-44.16-3.35,4.16-68-30.19-71.47-27.5-2.1,1.65-31.1-14.45-33-14.19-1.58.22-22.19-12.1-23.67-12.85-7.71-3.94-99.79-71.77-97.41-80.56s-96.31-81.64-103.59-87.07c-2.54-1.89-34.35-21.34-36.35-21-3.2.51-49.52-24.08-51.93-20.68-1.87,2.64-42.44-19-45-17.29-2.87,2-47.6-24-51.34-25.3-4.3-1.53-49-34-48.09-38.36C172.57,69,86.57,6.48,77,1Z"/></g><g class="cls-11"><path class="cls-12" d="M79,.05c14.43,8.29,96,72.18,94.17,81-1.39,6.74,40,38.87,46.3,41.13,12.42,4.45,93.84,43.76,99.56,35.7,3.63-5.12,49.12,16.58,54,15.81,3.05-.48,34.78,18.59,38.63,21.46,11,8.2,103.62,82.62,100,95.8s81.8,81.49,93.25,87.33c2.2,1.12,22.1,12.7,24.4,12.4,2.81-.37,31.32,14.35,34.51,11.84,5.14-4,68.26,26.1,73.27,19.87,8.31-10.32,105.18,34.73,114.19,34,3.78-.29,38.18,20.61,41.73,23.84,5.79,5.27,55.71,40.07,55.85,45.32.23,8.24,56.38,54.93,50.89,60.5-4.13,4.19,26.51,29.39,26.92,32.42.19,1.4,14,10.7,15.93,11.8,3,1.73,24.52,14.31,26.29,13.54,2.77-1.2,30.52,11.74,31.44,7.88.81-3.41,23.44,7.16,25.44,6.32,1.07-.46,13.31,6.69,15,7.68,5.7,3.39,41.38,34.11,41.13,35.74a9.74,9.74,0,0,1-.57,1.13l-.54-.27c0-.09-35-32.33-41.29-36.07-1.61-1-13.41-7.86-14.43-7.43-1.93.82-24.11-9.52-24.91-6.15-.92,3.9-29-9.21-31.86-8-.57.25-6.06-2.7-6.73-2.7-1.5,0-17.91-9.83-20-11-2-1.13-16.18-10.7-16.38-12.15-.42-3.11-31.41-28.58-27.26-32.8,5.47-5.55-50.38-52-50.6-60.17-.14-5.2-49.73-39.77-55.48-45-3.51-3.2-37.55-23.87-41.28-23.58-8.94.69-105.42-44.16-113.71-33.86-5,6.23-68.21-23.94-73.37-19.89-3.14,2.47-31.71-12.26-34.54-11.87-2.38.32-22.75-11.49-25-12.62-11.57-5.91-97.56-74.76-94-87.93s-88.57-87.19-99.49-95.32c-3.81-2.84-35.17-21.69-38.17-21.21-4.8.76-49.94-20.76-53.55-15.66-2.81,4-42.32-15-46.11-12.46-4.31,2.92-48.46-21.46-54.07-23.46-6.44-2.31-48.35-35.15-47-41.69,1.81-8.79-78.85-72-93.18-80.28Z"/></g><g class="cls-13"><path class="cls-14" d="M80.34.06c19.25,11.06,95.39,75.68,93,87.45-1.84,9,36.81,41.4,45.22,44.42,16.57,5.93,95.76,39.82,103.39,29.07,4.85-6.83,49.14,11.78,55.63,10.75,4.07-.64,35.34,17.83,40.47,21.64,14.69,10.94,100.71,86.53,95.93,104.1s74.56,86.88,89.84,94.67c2.92,1.49,22.58,12.58,25.65,12.18,3.74-.48,31.81,12.86,36.07,9.52,6.85-5.39,68.48,20.57,75.16,12.27,11.08-13.76,105.91,24.64,117.91,23.71,5-.39,38.92,19.9,43.66,24.21,7.71,7,56,41.88,56.17,48.88.3,11,50.68,57.78,43.36,65.21-5.5,5.58,22,30.79,22.6,34.84.25,1.86,13.71,11.12,16.26,12.58,4,2.31,25.23,14.37,27.59,13.34,3.69-1.59,30.27,9.08,31.49,3.93,1.08-4.55,22.75,4.19,25.42,3.06,1.42-.61,13.5,6.24,15.71,7.56,7.6,4.53,41,36.51,40.63,38.69a8.59,8.59,0,0,1-.56,1.19l-.57-.27c0-.12-32.38-34.07-40.73-39-2.15-1.28-13.8-7.9-15.16-7.32-2.57,1.08-23.81-7.44-24.88-2.94-1.23,5.19-28.14-5.62-31.92-4-.76.32-6.18-2.41-7.09-2.41-2,0-18.19-9.52-21-11.13-2.61-1.5-16.46-11-16.72-13-.57-4.15-28.44-29.62-22.9-35.24,7.29-7.41-42.81-54-43.1-64.85-.19-6.94-48.14-41.56-55.81-48.54-4.68-4.27-38.2-24.35-43.18-24-11.91.92-106.37-37.29-117.42-23.57-6.69,8.31-68.38-17.68-75.26-12.28-4.2,3.29-32.33-10.07-36.11-9.55-3.17.44-23.29-10.88-26.24-12.39-15.43-7.86-95.33-77.73-90.55-95.29S431.45,204.86,416.89,194c-5.08-3.78-36-22-40-21.39-6.4,1-50.35-17.44-55.18-10.65-3.75,5.29-42.19-11.06-47.24-7.63-5.75,3.91-49.32-18.94-56.8-21.62-8.59-3.08-47.72-36.29-45.93-45C174.16,76,98.86,12,79.74,1Z"/></g><g class="cls-15"><path class="cls-16" d="M81.7.08C105.77,13.9,176.5,79.24,173.48,94c-2.31,11.23,33.62,43.93,44.14,47.69,20.71,7.42,97.67,35.88,107.21,22.45,6.06-8.55,49.16,7,57.28,5.7,5.08-.81,35.89,17.05,42.3,21.82,18.36,13.67,97.8,90.42,91.82,112.39s67.33,92.26,86.42,102c3.65,1.86,23.06,12.48,26.9,12,4.68-.61,32.31,11.36,37.63,7.18,8.57-6.73,68.7,15.05,77.05,4.68,13.85-17.2,106.64,14.54,121.65,13.38,6.31-.49,39.66,19.2,45.57,24.59,9.65,8.78,56.27,43.7,56.5,52.44.38,13.73,45,60.62,35.83,69.91-6.88,7,17.58,32.2,18.27,37.26.32,2.33,13.41,11.54,16.59,13.37,5,2.88,25.95,14.42,28.9,13.15,4.61-2,30,6.4,31.54,0,1.35-5.69,22.06,1.2,25.4-.21,1.78-.76,13.69,5.8,16.45,7.44,9.51,5.66,40.56,38.92,40.14,41.64a7.21,7.21,0,0,1-.55,1.25l-.6-.27c0-.15-29.73-35.81-40.18-42-2.69-1.6-14.17-7.94-15.87-7.22-3.22,1.36-23.52-5.35-24.85.27-1.54,6.49-27.26-2-32,0-1,.41-6.31-2.11-7.44-2.11-2.5,0-18.47-9.21-22-11.23-3.26-1.87-16.72-11.35-17-13.77-.71-5.19-25.46-30.66-18.54-37.69,9.11-9.26-35.24-55.92-35.61-69.54-.23-8.66-46.54-43.33-56.12-52.07-5.86-5.33-38.86-24.81-45.08-24.33-14.89,1.15-107.32-30.43-121.14-13.27-8.35,10.38-68.56-11.43-77.15-4.68-5.25,4.12-32.95-7.87-37.67-7.22-4,.55-23.84-10.27-27.54-12.16-19.28-9.83-93.09-80.71-87.12-102.66s-73.08-98.27-91.29-111.83c-6.34-4.73-36.79-22.38-41.79-21.58-8,1.26-50.78-14.12-56.81-5.63-4.69,6.61-42.06-7.09-48.38-2.8-7.18,4.88-50.18-16.44-59.53-19.79C206.06,138.63,169.71,105,172,94.13,175,79.49,105,14.77,81.11,1Z"/></g><g class="cls-17"><path class="cls-16" d="M83.07.09c28.87,16.59,94.2,82.66,90.57,100.33-2.76,13.48,30.44,46.46,43.06,51,24.85,8.9,99.6,31.94,111,15.81,7.27-10.25,49.19,2.19,58.92.65,6.1-1,36.45,16.28,44.15,22,22,16.4,94.87,94.32,87.71,120.68s60.08,97.65,83,109.33c4.38,2.24,23.55,12.37,28.16,11.77,5.61-.73,32.8,9.87,39.19,4.86,10.28-8.08,68.92,9.53,78.94-2.92C764.42,413,855.17,438,873.18,436.64c7.57-.58,40.39,18.5,47.49,25,11.57,10.54,56.54,45.51,56.82,56,.45,16.47,39.27,63.47,28.3,74.62-8.25,8.38,13.12,33.6,14,39.67.38,2.8,13.1,12,16.92,14.16,6,3.46,26.66,14.48,30.2,13,5.53-2.39,29.76,3.74,31.59-4,1.62-6.83,21.37-1.78,25.38-3.47,2.14-.91,13.88,5.35,17.2,7.33,11.4,6.79,40.15,41.32,39.64,44.59a7,7,0,0,1-.54,1.3l-.63-.27c0-.18-27.09-37.55-39.63-45-3.22-1.92-14.55-8-16.59-7.1-3.85,1.63-23.22-3.27-24.82,3.47-1.85,7.79-26.38,1.57-32,4-1.14.5-6.44-1.82-7.8-1.82-3,0-18.75-8.89-22.95-11.31-3.92-2.25-17-11.68-17.39-14.59-.85-6.23-22.49-31.7-14.18-40.14,10.93-11.1-27.67-57.87-28.11-74.21-.28-10.4-45-45.12-56.45-55.6-7-6.41-39.51-25.29-47-24.71-17.87,1.38-108.27-23.57-124.84-3-10,12.46-68.75-5.17-79.06,2.93-6.3,4.94-33.56-5.67-39.22-4.89-4.76.65-24.4-9.67-28.83-11.93-23.14-11.8-90.85-83.69-83.69-110s-65.33-103.82-87.19-120.09c-7.61-5.67-37.61-22.72-43.61-21.77-9.6,1.52-51.2-10.79-58.43-.6-5.63,7.93-41.94-3.12-49.52,2-8.62,5.86-51-13.94-62.25-18-12.89-4.61-46.46-38.57-43.77-51.66,3.6-17.57-61-83-89.66-99.51Z"/></g><g class="cls-18"><path class="cls-19" d="M84.43.11C118.12,19.46,178,86.25,173.81,106.87c-3.23,15.72,27.25,49,42,54.27,29,10.38,101.51,28,114.86,9.18,8.48-12,49.21-2.61,60.56-4.41,7.12-1.12,37,15.52,46,22.2,25.7,19.13,92,98.22,83.6,129-8.32,30.59,52.84,103,79.57,116.66,5.11,2.61,24,12.26,29.42,11.57,6.54-.86,33.29,8.37,40.74,2.52,12-9.42,69.15,4,80.84-10.51,19.39-24.08,108.1-5.65,129.11-7.27,8.83-.69,41.12,17.79,49.41,25.34,13.5,12.3,56.81,47.32,57.14,59.56.53,19.22,33.57,66.32,20.77,79.33-9.63,9.77,8.66,35,9.62,42.08.45,3.27,12.8,12.39,17.25,14.95,7,4,27.37,14.54,31.51,12.76,6.45-2.79,29.51,1.07,31.64-7.93,1.89-8,20.68-4.75,25.35-6.73,2.5-1.06,14.08,4.9,17.95,7.21,13.31,7.92,39.74,43.73,39.15,47.54a8.35,8.35,0,0,1-.52,1.36l-.67-.27c.05-.21-24.45-39.29-39.07-48-3.76-2.24-14.93-8-17.32-7-4.49,1.9-22.92-1.18-24.78,6.69-2.16,9.08-25.5,5.16-32.12,8-1.33.57-6.57-1.53-8.15-1.53-3.5,0-19-8.58-23.94-11.4-4.56-2.62-17.26-12-17.72-15.41-1-7.26-19.52-32.73-9.82-42.58,12.75-13-20.1-59.83-20.61-78.89-.34-12.14-43.36-46.91-56.78-59.14-8.2-7.47-40.16-25.75-48.87-25.08-20.85,1.61-109.22-16.71-128.56,7.31-11.7,14.54-68.92,1.09-81,10.54-7.35,5.77-34.18-3.47-40.79-2.56-5.55.76-24.94-9.06-30.11-11.7-27-13.77-88.62-86.67-80.26-117.41s-57.59-109.35-83.09-128.33c-8.89-6.62-38.42-23.07-45.43-22-11.2,1.77-51.62-7.47-60.06,4.42-6.56,9.25-41.81.84-50.66,6.86-10.05,6.83-51.89-11.44-65-16.12-15-5.39-45.82-39.72-42.69-55,4.2-20.49-55-86.69-88.49-105.91Z"/></g><g class="cls-20"><path class="cls-21" d="M85.8.12c38.5,22.12,93,89.64,88.17,113.2-3.68,18,24.07,51.52,40.9,57.55,33.14,11.87,103.44,24.06,118.69,2.56,9.7-13.67,49.23-7.41,62.21-9.46,8.13-1.29,37.56,14.74,47.82,22.38,29.37,21.87,89.05,102.12,79.49,137.27-9.5,34.95,45.61,108.41,76.15,124,5.85,3,24.53,12.15,30.67,11.35,7.48-1,33.79,6.88,42.31.2,13.71-10.77,69.37-1.52,82.73-18.11,22.15-27.52,108.82-15.74,132.84-17.6,10.09-.78,41.86,17.09,51.32,25.72,15.43,14.05,57.09,49.13,57.47,63.12.6,22,27.87,69.17,13.24,84-11,11.17,4.19,36.4,5.3,44.49.51,3.73,12.49,12.81,17.58,15.74,8,4.61,28.08,14.6,32.81,12.56,7.37-3.19,29.26-1.6,31.69-11.88,2.16-9.1,20-7.73,25.33-10,2.86-1.21,14.28,4.46,18.7,7.09,15.2,9.06,39.33,46.14,38.65,50.49a8.25,8.25,0,0,1-.51,1.42l-.7-.26c0-.25-21.81-41-38.52-51-4.3-2.56-15.31-8-18-6.89-5.14,2.17-22.63.9-24.76,9.89-2.47,10.38-24.62,8.75-32.19,12-1.51.66-6.68-1.23-8.5-1.23-4,0-19.3-8.27-24.92-11.49-5.21-3-17.53-12.35-18.06-16.22-1.13-8.3-16.53-33.78-5.45-45,14.58-14.81-12.53-61.79-13.12-83.58-.38-13.86-41.76-48.69-57.1-62.66-9.37-8.54-40.81-26.23-50.77-25.46C863.42,426.19,777.07,414.5,755,442c-13.37,16.61-69.1,7.35-82.85,18.14-8.39,6.59-34.79-1.27-42.34-.24-6.34.88-25.49-8.44-31.4-11.46-30.86-15.73-86.39-89.65-76.84-124.78S471.7,208.73,442.56,187c-10.16-7.56-39.24-23.41-47.24-22.14-12.8,2-52.05-4.16-61.69,9.44-7.5,10.57-41.69,4.81-51.8,11.68-11.49,7.81-52.75-8.93-67.7-14.28-17.18-6.15-45.19-40.86-41.61-58.32C177.33,90,123.44,23.05,85.21,1.09Z"/></g><g class="cls-22"><path class="cls-21" d="M87.16.14c43.31,24.88,92.42,93.13,87,119.63C170,140,195,173.83,214,180.61c37.27,13.35,105.35,20.11,122.51-4.07,10.91-15.38,49.25-12.21,63.85-14.52,9.15-1.44,38.12,14,49.66,22.56,33,24.61,86.14,106,75.38,145.57-10.69,39.32,38.37,113.8,72.73,131.32,6.58,3.35,25,12,31.93,11.14,8.42-1.09,34.28,5.4,43.86-2.13,15.43-12.11,69.59-7,84.62-25.7,24.93-31,109.56-25.84,136.57-27.92,11.36-.88,42.6,16.39,53.25,26.09,17.36,15.81,57.37,50.94,57.79,66.68.68,24.71,22.17,72,5.7,88.74-12.37,12.57-.26,37.81,1,46.91.58,4.2,12.18,13.23,17.91,16.53,9,5.19,28.8,14.66,34.12,12.36,8.29-3.58,29-4.26,31.75-15.83,2.43-10.24,19.3-10.71,25.3-13.25,3.21-1.36,14.47,4,19.44,7,17.11,10.18,38.92,48.53,38.16,53.43a8.36,8.36,0,0,1-.5,1.48l-.73-.26c.06-.27-19.16-42.77-38-54-4.83-2.87-15.68-8.07-18.75-6.78-5.78,2.45-22.33,3-24.73,13.1-2.77,11.69-23.73,12.35-32.25,16-1.7.74-6.81-.94-8.85-.94-4.5,0-19.59-8-25.9-11.58-5.87-3.38-17.8-12.68-18.4-17-1.27-9.34-13.56-34.82-1.1-47.48,16.41-16.65-4.95-63.74-5.61-88.25-.43-15.6-40.17-50.48-57.43-66.2-10.54-9.61-41.46-26.69-52.66-25.83-26.8,2.07-111.12-3-136,27.9-15,18.69-69.27,13.61-84.74,25.75-9.45,7.42-35.41.92-43.91,2.09-7.13,1-26-7.84-32.68-11.23-34.72-17.7-84.15-92.63-73.41-132.15S481.76,209.69,449,185.29c-11.43-8.51-40.06-23.76-49.06-22.33-14.4,2.28-52.46-.84-63.31,14.46-8.44,11.89-41.56,8.78-52.94,16.51-12.92,8.79-53.6-6.42-70.43-12.45-19.32-6.92-44.55-42-40.53-61.64,5.41-26.35-43.13-94-86.13-118.74Z"/></g><g class="cls-23"><path class="cls-24" d="M88.53.15c48.12,27.65,91.82,96.62,85.77,126.07C169.7,148.69,192,182.81,213,190.35c41.42,14.83,107.27,16.16,126.34-10.71,12.12-17.08,49.27-17,65.5-19.57,10.16-1.6,38.67,13.21,51.49,22.75,36.72,27.34,83.22,109.92,71.28,153.86C515.77,380.37,558.77,455.86,597,475.33c7.3,3.73,25.49,11.94,33.17,10.94,9.36-1.22,34.78,3.9,45.43-4.46,17.14-13.46,69.81-12.56,86.51-33.3,27.7-34.41,110.29-35.93,140.3-38.25,12.61-1,43.33,15.69,55.17,26.47,19.28,17.56,57.64,52.75,58.11,70.24.75,27.45,16.47,74.87-1.83,93.45-13.74,14-4.72,39.21-3.34,49.32.64,4.67,11.87,13.66,18.24,17.32,10,5.76,29.51,14.72,35.42,12.17,9.21-4,28.75-6.93,31.8-19.79,2.7-11.37,18.61-13.69,25.28-16.51,3.57-1.51,14.66,3.57,20.19,6.86,19,11.32,38.51,50.94,37.66,56.38a7.23,7.23,0,0,1-.49,1.53l-.76-.25c.06-.3-16.52-44.51-37.41-57-5.38-3.2-16.07-8.11-19.47-6.67-6.42,2.71-22,5.07-24.7,16.31-3.08,13-22.86,15.93-32.32,20-1.89.82-6.94-.64-9.2-.64-5,0-19.87-7.65-26.89-11.68-6.52-3.74-18.07-13-18.73-17.85-1.41-10.37-10.58-35.85,3.26-49.92,18.23-18.51,2.62-65.7,1.88-92.93-.47-17.33-38.57-52.27-57.74-69.74-11.72-10.67-42.12-27.16-54.56-26.2-29.79,2.31-112.08,3.88-139.7,38.19-16.72,20.77-69.46,19.87-86.65,33.36-10.49,8.24-36,3.12-45.46,4.42-7.93,1.09-26.59-7.23-34-11-38.57-19.67-81.91-95.61-70-139.52,11.9-43.76-34.36-126-70.78-153.1-12.7-9.45-40.87-24.1-50.88-22.51-16,2.53-52.88,2.48-64.94,19.47-9.37,13.21-41.43,12.76-54.07,21.35-14.36,9.76-54.46-3.92-73.15-10.62-21.48-7.69-43.93-43.14-39.45-65,6-29.27-37.18-97.68-85-125.14Z"/></g><g class="cls-25"><path class="cls-26" d="M89.89.17c52.94,30.41,91.23,100.11,84.58,132.5-5.07,24.71,14.52,59.12,37.66,67.41,45.55,16.32,109.19,12.23,130.16-17.33,13.34-18.79,49.3-21.8,67.14-24.62,11.18-1.77,39.23,12.43,53.33,22.93,40.39,30.07,80.31,113.82,67.17,162.15-13.07,48.06,23.88,124.57,65.89,146,8,4.09,26,11.82,34.43,10.72,10.29-1.34,35.27,2.41,47-6.79,18.86-14.8,70-18.08,88.41-40.89,30.47-37.85,111-46,144-48.58,13.87-1.07,44.07,15,57.08,26.84,21.22,19.33,57.92,54.57,58.44,73.81.82,30.2,10.77,77.72-9.36,98.16-15.12,15.36-9.18,40.61-7.66,51.73.7,5.14,11.56,14.08,18.56,18.11,11,6.34,30.23,14.78,36.72,12,10.14-4.38,28.5-9.6,31.86-23.73,3-12.52,17.92-16.67,25.26-19.78,3.92-1.66,14.85,3.12,20.93,6.74,20.91,12.45,38.1,53.35,37.17,59.34a7.62,7.62,0,0,1-.48,1.58l-.79-.25c.07-.33-13.88-46.25-36.86-59.94-5.91-3.52-16.44-8.15-20.19-6.57-7.06,3-21.73,7.16-24.67,19.52-3.39,14.28-22,19.53-32.38,24-2.08.9-7.07-.36-9.56-.36-5.5,0-20.15-7.32-27.86-11.76-7.18-4.12-18.34-13.34-19.07-18.66-1.56-11.42-7.61-36.9,7.62-52.37,20.05-20.36,10.19-67.67,9.38-97.61-.52-19.07-37-54.06-58.07-73.27-12.89-11.74-42.77-27.63-56.46-26.57-32.76,2.53-113,10.73-143.41,48.48-18.39,22.84-69.63,26.12-88.54,41-11.55,9.07-36.64,5.32-47,6.75C621.59,502,603.17,494.18,595,490c-42.43-21.64-79.68-98.6-66.54-146.89C541.58,295,501.88,211.63,461.82,181.8c-14-10.4-41.69-24.45-52.7-22.7-17.6,2.78-53.3,5.8-66.56,24.49-10.31,14.53-41.31,16.73-55.21,26.18-15.8,10.73-55.32-1.42-75.88-8.78-23.62-8.46-43.3-44.3-38.37-68.3,6.6-32.2-31.22-101.35-83.79-131.56Z"/></g><g class="cls-27"><path class="cls-28" d="M91.26.18C149,33.36,181.88,103.79,174.64,139.12c-5.53,27,11.33,61.66,36.57,70.7,49.7,17.8,111.11,8.28,134-24,14.55-20.51,49.32-26.6,68.79-29.68,12.19-1.92,39.78,11.66,55.17,23.12,44.05,32.8,77.39,117.72,63.05,170.44-14.25,52.43,16.65,130,62.47,153.32,8.76,4.47,26.47,11.71,35.69,10.52,11.22-1.46,35.76.91,48.54-9.12,20.57-16.15,70.26-23.6,90.3-48.5C802.44,414.68,881,399.85,917,397.07c15.13-1.18,44.8,14.28,59,27.21,23.14,21.09,58.19,56.38,58.76,77.36.9,33,5.07,80.58-16.89,102.87-16.5,16.76-13.65,42-12,54.16.77,5.6,11.26,14.5,18.9,18.89,12,6.92,30.93,14.84,38,11.78,11.06-4.78,28.25-12.27,31.91-27.69,3.24-13.65,17.23-19.65,25.24-23,4.28-1.81,15,2.67,21.68,6.62,22.8,13.59,37.69,55.76,36.67,62.29a8.32,8.32,0,0,1-.47,1.64l-.82-.25c.07-.36-11.24-48-36.31-62.92-6.44-3.84-16.82-8.19-20.9-6.46-7.71,3.26-21.44,9.23-24.64,22.72-3.7,15.58-21.1,23.12-32.45,28-2.27,1-7.19-.06-9.91-.06-6,0-20.43-7-28.85-11.85-7.82-4.5-18.61-13.67-19.4-19.48-1.7-12.45-4.64-37.94,12-54.81,21.87-22.21,17.76-69.63,16.87-102.3C1032.81,481,998,445.94,975,425c-14.06-12.8-43.42-28.1-58.35-26.94-35.74,2.76-114,17.59-147.13,58.77-20.06,24.92-69.81,32.38-90.43,48.57-12.6,9.89-37.26,7.52-48.59,9.07-9.51,1.31-27.69-6-36.55-10.53-46.29-23.6-77.44-101.58-63.12-154.26,14.28-52.52-18.87-137.07-62.57-169.61-15.24-11.34-42.51-24.79-54.51-22.89-19.2,3-53.73,9.13-68.2,29.52-11.25,15.85-41.18,20.7-56.34,31C272,229.4,233,218.77,210.58,210.74c-25.77-9.23-42.66-45.44-37.29-71.62C180.5,104,148,34.1,90.68,1.15Z"/></g><g class="cls-29"><path class="cls-28" d="M92.62.2c62.56,35.94,90,107.09,82.18,145.37-6,29.21,8.15,64.19,35.5,74,53.84,19.29,113,4.35,137.81-30.59,15.76-22.21,49.34-31.39,70.43-34.73,13.21-2.08,40.34,10.9,57,23.3,47.73,35.54,74.47,121.62,58.94,178.74-15.44,56.8,9.41,135.34,59,160.65,9.5,4.85,27,11.61,36.94,10.31,12.16-1.58,36.26-.58,50.11-11.45,22.28-17.49,70.47-29.12,92.18-56.09,36-44.72,112.48-66.21,151.49-69.22,16.4-1.27,45.54,13.58,60.92,27.59,25.08,22.84,58.48,58.19,59.09,80.92,1,35.7-.63,83.43-24.42,107.58-17.87,18.15-18.11,43.42-16.31,56.57.83,6.06,11,14.92,19.22,19.68,13,7.49,31.65,14.9,39.33,11.58,12-5.18,28-14.93,32-31.64,3.51-14.79,16.54-22.63,25.22-26.3,4.64-2,15.24,2.23,22.42,6.51,24.71,14.71,37.28,58.15,36.19,65.23a9.71,9.71,0,0,1-.47,1.7l-.85-.24c.08-.4-8.59-49.74-35.75-65.92-7-4.16-17.2-8.22-21.63-6.35-8.35,3.53-21.14,11.32-24.61,25.94-4,16.87-20.21,26.71-32.51,32-2.46,1.06-7.32.23-10.27.23-6.49,0-20.71-6.7-29.83-11.94-8.47-4.87-18.87-14-19.73-20.3-1.84-13.48-1.66-39,16.34-57.26,23.69-24.06,25.33-71.58,24.37-107-.61-22.53-33.79-57.63-58.72-80.33C969,404.9,940.15,390.21,924,391.46c-38.71,3-114.92,24.45-150.84,69.06-21.73,27-70,38.64-92.33,56.19-13.64,10.71-37.87,9.7-50.14,11.39-10.31,1.42-28.24-5.4-37.84-10.3-50.15-25.57-75.21-104.56-59.69-161.64,15.47-56.89-11.13-142.6-58.47-177.85-16.51-12.29-43.32-25.14-56.33-23.08-20.8,3.29-54.15,12.45-69.82,34.54-12.19,17.17-41.05,24.67-57.48,35.83-18.67,12.69-57,3.59-81.34-5.11-27.91-10-42-46.58-36.21-75C181.29,107.48,154.17,36.86,92,1.17Z"/></g><g class="cls-30"><path class="cls-31" d="M94,.21C161.36,38.92,183.42,110.8,175,152c-6.46,31.45,5,66.71,34.41,77.26,58,20.77,115,.4,141.64-37.22,17-23.92,49.36-36.19,72.08-39.78,14.22-2.25,40.89,10.12,58.84,23.48,51.4,38.28,71.56,125.52,54.84,187-16.63,61.17,2.16,140.73,55.62,168,10.23,5.21,27.44,11.49,38.2,10.09,13.09-1.7,36.75-2.07,51.66-13.77,24-18.84,70.7-34.65,94.08-63.69,38.78-48.16,113.2-76.3,155.22-79.55,17.66-1.36,46.28,12.88,62.84,28,27,24.6,58.75,60,59.41,84.48,1,38.44-6.34,86.27-31.95,112.29-19.25,19.55-22.57,44.82-20.64,59,.9,6.53,10.64,15.34,19.56,20.46,14,8.08,32.36,15,40.63,11.39,12.9-5.57,27.74-17.6,32-35.59,3.78-15.93,15.86-25.6,25.2-29.56,5-2.11,15.43,1.78,23.17,6.39,26.6,15.85,36.87,60.56,35.69,68.18a11.4,11.4,0,0,1-.45,1.76l-.89-.24c.09-.42-6-51.48-35.2-68.9-7.52-4.48-17.58-8.26-22.34-6.25A43.14,43.14,0,0,0,1094,664.38c-4.31,18.17-19.33,30.3-32.57,36-2.65,1.15-7.45.53-10.62.53-7,0-21-6.39-30.81-12-9.13-5.25-19.15-14.33-20.07-21.11-2-14.53,1.31-40,20.7-59.71,25.51-25.91,32.9-73.54,31.87-111.65-.67-24.27-32.2-59.42-59-83.87-16.4-14.94-44.71-29-62.14-27.69-41.7,3.22-115.88,31.32-154.55,79.36-23.41,29.07-70.17,44.9-94.23,63.79-14.7,11.53-38.49,11.9-51.71,13.72-11.1,1.53-28.78-4.8-39.13-10.07-54-27.54-73-107.54-56.25-169,16.65-61.27-3.39-148.14-54.38-186.11-17.77-13.23-44.13-25.48-58.14-23.26-22.4,3.54-54.57,15.77-71.44,39.56-13.13,18.49-40.93,28.63-58.62,40.66-20.11,13.66-57.9,6.1-84.06-3.28-30.07-10.76-41.4-47.72-35.14-78.27,8.41-41-13.36-112.35-80.26-150.79Z"/></g><g class="cls-32"><path class="cls-33" d="M95.35.23c72.19,41.47,88.84,114.08,79.78,158.25-6.91,33.7,1.78,69.25,33.34,80.55,62.12,22.25,116.86-3.55,145.46-43.85,18.19-25.63,49.38-41,73.72-44.84,15.24-2.41,41.45,9.35,60.68,23.67C543.4,215,557,303.43,539.06,369.34c-17.82,65.53-5.07,146.1,52.2,175.31,11,5.59,27.93,11.39,39.45,9.89,14-1.83,37.25-3.57,53.23-16.11,25.71-20.18,70.92-40.16,96-71.28,41.54-51.61,113.93-86.39,159-89.87,18.92-1.47,47,12.17,64.76,28.34,28.93,26.35,59,61.81,59.73,88,1.12,41.19-12,89.12-39.48,117-20.62,21-27,46.23-25,61.4,1,7,10.33,15.77,19.88,21.25,15.06,8.66,33.08,15,41.94,11.2,13.82-6,27.49-20.27,32.06-39.55,4-17.06,15.17-28.58,25.18-32.82,5.35-2.26,15.62,1.33,23.91,6.27,28.51,17,36.46,63,35.2,71.13a12.6,12.6,0,0,1-.44,1.82l-.92-.24c.09-.45-3.31-53.21-34.65-71.88-8-4.8-18-8.3-23.06-6.14-9.63,4.08-20.55,15.49-24.55,32.35-4.62,19.47-18.45,33.9-32.64,40-2.85,1.23-7.58.83-11,.83-7.5,0-21.28-6.08-31.8-12.13-9.78-5.62-19.41-14.65-20.4-21.92-2.13-15.56,4.28-41,25.06-62.15,27.33-27.76,40.47-75.5,39.36-116.33-.71-26-30.6-61.21-59.37-87.4-17.57-16-45.36-29.51-64-28.07C894,381.75,821.84,416.48,780.4,468c-25.08,31.15-70.35,51.16-96.13,71.4-15.74,12.36-39.1,14.1-53.26,16-11.89,1.63-29.34-4.19-40.42-9.84C532.73,516.05,519.86,435,537.76,369.18c17.85-65.65,4.36-153.69-50.27-194.36-19-14.19-44.95-25.83-59.95-23.45-24,3.79-55,19.09-73.08,44.57-14.06,19.82-40.8,32.61-59.75,45.5C273.16,256.08,236,250,207.92,240c-32.21-11.54-40.77-48.87-34-81.6,9-43.92-7.41-116-79.09-157.2Z"/></g><g class="cls-34"><path class="cls-33" d="M96.72.24c77,44.24,88.24,117.57,78.58,164.69-7.38,35.94-1.41,71.78,32.25,83.83,66.27,23.74,118.79-7.48,149.29-50.48,19.4-27.33,49.4-45.78,75.36-49.89,16.26-2.56,42,8.59,62.52,23.86,58.75,43.74,65.73,133.32,46.62,203.62-19,69.9-12.31,151.49,48.78,182.64,11.69,6,28.42,11.28,40.71,9.68,15-1.94,37.74-5.06,54.78-18.43,27.43-21.53,71.15-45.69,97.87-78.88,44.31-55.05,114.66-96.49,162.68-100.2,20.18-1.56,47.74,11.48,66.67,28.72,30.87,28.11,59.3,63.62,60.06,91.6,1.2,43.93-17.74,92-47,121.7-22,22.34-31.5,47.63-29.29,63.81,1,7.47,10,16.19,20.22,22,16,9.23,33.79,15.09,43.24,11,14.74-6.37,27.24-22.93,32.11-43.5,4.32-18.2,14.48-31.56,25.16-36.08,5.7-2.41,15.81.89,24.66,6.16,30.4,18.1,36,65.37,34.7,74.08a14.73,14.73,0,0,1-.43,1.87l-1-.24c.1-.48-.66-55-34.09-74.86-8.6-5.12-18.34-8.34-23.78-6-10.28,4.35-20.26,17.58-24.53,35.57-4.93,20.77-17.56,37.48-32.7,44-3,1.31-7.7,1.12-11.33,1.12-8,0-21.55-5.77-32.77-12.22-10.44-6-19.69-15-20.74-22.73-2.27-16.61,7.26-42.1,29.42-64.6,29.15-29.62,48-77.46,46.86-121-.76-27.73-29-63-59.69-90.93-18.75-17.08-46-30-65.94-28.44-47.65,3.68-117.78,45-162,99.95-26.75,33.22-70.52,57.41-98,79-16.8,13.18-39.73,16.3-54.83,18.38-12.68,1.74-29.88-3.59-41.7-9.61C527.76,528,521,445.94,540.08,375.69c19-70,12.1-159.23-46.17-202.62-20.31-15.13-45.76-26.17-61.77-23.63-25.6,4.05-55.41,22.41-74.7,49.59-15,21.14-40.67,36.58-60.9,50.32-23,15.62-59.6,11.11-89.51.4-34.36-12.31-40.14-50-33-84.93C183.67,118,172.6,45.15,96.14,1.22Z"/></g><g class="cls-35"><path class="cls-36" d="M98.08.26c81.81,47,87.65,121.06,77.38,171.12-7.83,38.19-4.58,74.31,31.18,87.12,70.4,25.22,120.7-11.43,153.11-57.11,20.62-29,49.43-50.58,77-54.94,17.27-2.73,42.56,7.81,64.35,24C563.53,217,563.93,307.71,543.62,382.4c-20.19,74.27-19.55,156.87,45.37,190,12.41,6.33,28.89,11.16,42,9.47,15.9-2.07,38.24-6.56,56.34-20.77,29.14-22.87,71.36-51.21,99.75-86.47C834.13,416.12,902.43,368,953.46,364.08c21.44-1.66,48.48,10.78,68.59,29.1,32.79,29.87,59.58,65.43,60.38,95.16,1.27,46.67-23.44,94.82-54.54,126.41-23.37,23.74-36,49-33.61,66.22,1.08,7.94,9.72,16.61,20.54,22.83,17.06,9.81,34.5,15.15,44.55,10.81,15.66-6.77,27-25.61,32.17-47.45,4.59-19.35,13.78-34.55,25.13-39.35,6.06-2.56,16,.44,25.4,6,32.31,19.24,35.64,67.77,34.21,77a17.53,17.53,0,0,1-.42,1.93l-1-.24c.1-.51,2-56.69-33.54-77.85-9.13-5.44-18.71-8.37-24.5-5.92-10.91,4.62-20,19.66-24.49,38.77-5.24,22.07-16.69,41.08-32.77,48-3.23,1.4-7.83,1.41-11.68,1.41-8.5,0-21.83-5.45-33.76-12.3-11.08-6.37-19.95-15.32-21.08-23.55-2.4-17.64,10.24-43.14,33.78-67,31-31.46,55.62-79.41,54.36-125.69-.8-29.47-27.42-64.78-60-94.47-19.92-18.14-46.67-30.44-67.84-28.81-50.62,3.91-118.72,51.9-165.69,110.24-28.42,35.3-70.7,63.67-99.92,86.61-17.84,14-40.34,18.5-56.38,20.7-13.48,1.86-30.43-3-43-9.37-65.58-33.44-66.27-116.48-46-191.12,20.22-74.4,19.85-164.77-42.07-210.87-21.58-16.08-46.58-26.52-63.59-23.82-27.2,4.3-55.83,25.73-76.32,54.61-15.94,22.46-40.55,40.55-62,55.15-24.41,16.59-60.46,13.61-92.24,2.23-36.5-13.07-39.5-51.15-31.89-88.25,10.21-49.77,4.5-123.34-76.74-170Z"/></g><g class="cls-37"><path class="cls-38" d="M99.45.27c86.62,49.78,87.05,124.56,76.18,177.56-8.3,40.44-7.77,76.85,30.09,90.41,74.55,26.7,122.62-15.37,157-63.74,21.82-30.76,49.44-55.38,78.64-60,18.29-2.89,43.12,7,66.2,24.22,66.08,49.21,59.9,141.12,38.4,220.21-21.39,78.64-26.79,162.26,41.94,197.31,13.15,6.7,29.38,11.06,43.21,9.26,16.84-2.19,38.74-8,57.9-23.09,30.85-24.22,71.59-56.74,101.65-94.07,49.86-61.93,116.12-116.68,170.14-120.85,22.71-1.76,49.22,10.07,70.52,29.47,34.72,31.62,59.85,67.24,60.7,98.72,1.35,49.42-29.14,97.67-62.07,131.12-24.75,25.13-40.42,50.43-37.94,68.63,1.15,8.4,9.42,17,20.88,23.62,18.06,10.38,35.21,15.21,45.85,10.61,16.58-7.17,26.73-28.27,32.22-51.4,4.86-20.48,13.09-37.52,25.1-42.61,6.42-2.71,16.21,0,26.16,5.92,34.2,20.37,35.22,70.18,33.71,80-.18,1.15-.4,1.93-.41,2l-1-.23c.11-.55,4.62-58.44-33-80.84-9.67-5.76-19.09-8.41-25.21-5.82-11.56,4.89-19.67,21.75-24.47,42-5.55,23.37-15.8,44.68-32.84,52-3.41,1.47-8,1.7-12,1.7-9,0-22.11-5.14-34.74-12.39-11.73-6.75-20.22-15.65-21.41-24.37-2.55-18.67,13.22-44.17,38.14-69.49,32.81-33.31,63.19-81.37,61.86-130.37-.85-31.2-25.83-66.56-60.34-98-21.09-19.21-47.32-30.92-69.73-29.19C907.09,362.7,841,417.33,791.3,479.09c-30.1,37.38-70.88,69.93-101.82,94.22-18.89,14.83-41,20.69-57.94,23-14.27,2-31-2.36-44.28-9.14-69.44-35.41-64-119.46-42.55-198.5,21.42-78.77,27.6-170.31-38-219.12-22.85-17-47.4-26.86-65.41-24-28.8,4.56-56.25,29.06-77.95,59.64-16.87,23.78-40.42,44.52-63.17,60-25.85,17.57-61.32,16.11-95,4.06-38.66-13.84-38.88-52.29-30.82-91.57,10.81-52.7,10.45-127-75.56-176.43Z"/></g><g class="cls-39"><path class="cls-40" d="M100.81.29c91.44,52.54,86.46,128,75,184C167,227,164.84,263.66,204.81,278c78.69,28.19,124.54-19.31,160.77-70.36,23-32.47,49.46-60.18,80.29-65.06,19.3-3,43.67,6.28,68,24.41,69.76,51.94,57,145,34.29,228.5-22.57,83-34,167.65,38.52,204.64,13.88,7.08,29.87,10.95,44.47,9a122.25,122.25,0,0,0,59.46-25.42c32.56-25.56,71.81-62.25,103.54-101.66C846.8,416.7,911,355.3,968.05,350.89c24-1.85,50,9.37,72.43,29.85,36.65,33.38,60.13,69.05,61,102.28,1.42,52.16-34.84,100.52-69.6,135.82-26.12,26.53-44.89,51.84-42.26,71.06,1.21,8.86,9.1,17.45,21.2,24.4,19.07,11,35.93,15.27,47.15,10.42,17.51-7.57,26.48-30.94,32.28-55.36,5.13-21.62,12.4-40.5,25.08-45.87,6.78-2.86,16.4-.45,26.9,5.8,36.11,21.51,34.82,72.59,33.22,82.93-.19,1.21-.38,2-.4,2l-1-.23c.12-.58,7.26-60.18-32.43-83.82-10.21-6.08-19.48-8.45-25.94-5.71-12.2,5.16-19.37,23.83-24.44,45.19-5.85,24.66-14.92,48.26-32.9,56-3.6,1.56-8.08,2-12.38,2-9.5,0-22.39-4.83-35.72-12.48-12.39-7.12-20.49-16-21.75-25.18-2.69-19.72,16.19-45.22,42.5-71.94,34.63-35.17,70.76-83.33,69.35-135-.89-32.94-24.23-68.35-60.66-101.54-22.26-20.28-48-31.38-71.62-29.56-56.59,4.38-120.63,65.63-173.12,130.83C763.16,522.26,723.87,559,691.21,584.63A124.25,124.25,0,0,1,631.71,610c-15.06,2.07-31.53-1.76-45.57-8.91C512.85,563.7,524.35,478.64,547,395.21c22.61-83.15,35.34-175.85-33.86-227.37-24.12-18-48.21-27.21-67.22-24.2-30.4,4.81-56.68,32.38-79.58,64.66-17.81,25.1-40.3,48.49-64.31,64.81-27.29,18.54-62.18,18.61-97.69,5.9-40.8-14.62-38.24-53.44-29.74-94.91C186,128.48,191,53.44,100.24,1.26Z"/></g><g class="cls-41"><path class="cls-40" d="M102.18.3C198.42,55.61,188,131.84,176,190.73c-9.22,44.93-14.14,81.91,27.93,97,82.83,29.67,126.46-23.25,164.6-77,24.24-34.17,49.48-65,81.93-70.1,20.32-3.21,44.23,5.5,69.87,24.59,73.43,54.67,54.07,148.92,30.18,236.79-23.76,87.38-41.27,173,35.1,212,14.61,7.45,30.36,10.85,45.72,8.85,18.71-2.43,39.73-11,61-27.75,34.28-26.91,72-67.78,105.44-109.26C853.14,417,915.32,348.93,975.35,344.29c25.23-2,50.68,8.67,74.35,30.23,38.58,35.13,60.4,70.86,61.35,105.84,1.5,54.91-40.54,103.37-77.13,140.53-27.5,27.93-49.35,53.24-46.59,73.47,1.28,9.33,8.8,17.87,21.54,25.19,20.07,11.54,36.64,15.33,48.45,10.22,18.43-8,26.23-33.61,32.33-59.31,5.4-22.75,11.72-43.48,25.06-49.13,7.14-3,16.59-.9,27.65,5.69,38,22.63,34.4,75,32.72,85.88-.2,1.27-.37,2-.38,2.1l-1.08-.23c.12-.6,9.91-61.92-31.88-86.81-10.74-6.4-19.85-8.48-26.65-5.6-12.85,5.44-19.08,25.92-24.41,48.4-6.16,26-14,51.86-33,60a32.31,32.31,0,0,1-12.74,2.29c-10,0-22.67-4.52-36.7-12.58-13-7.49-20.76-16.31-22.08-26-2.83-20.75,19.16-46.26,46.86-74.38,36.45-37,78.33-85.29,76.85-139.74-.94-34.66-22.64-70.13-61-105.06-23.43-21.35-48.62-31.86-73.52-29.94C915.83,350,853.81,417.89,798.56,486.52,765.12,528.05,727.33,569,693,596c-21,16.48-42.19,25.09-61.06,27.69C616,625.82,599.81,622.49,585,615c-77.15-39.34-59.56-125.42-35.68-213.23,23.79-87.53,43.08-181.39-29.76-235.63-25.4-18.91-49-27.55-69-24.38-32,5.06-57.09,35.69-81.21,69.67-18.75,26.43-40.16,52.47-65.44,69.64-28.72,19.53-63,21.13-100.42,7.74-42.95-15.38-37.61-54.59-28.66-98.23C186.84,132,197.18,56.2,101.61,1.28Z"/></g><path class="cls-42" d="M1044,738.45c-10.5,0-23-4.2-37.68-12.67-13.7-7.87-21-16.64-22.42-26.81-3-21.79,22.14-47.29,51.22-76.83,38.27-38.86,85.9-87.24,84.35-144.41-1-36.4-21-71.92-61.31-108.6-24.61-22.41-49.28-32.32-75.42-30.3-62.55,4.83-122.53,79.34-180.55,151.4-35.1,43.61-71.41,88.71-107.5,117-40.56,31.84-76.79,38.89-110.77,21.56-81-41.3-57.33-128.4-32.26-220.6,25-91.9,50.83-186.94-25.65-243.89-26.67-19.85-49.85-27.89-70.86-24.56-33.6,5.31-57.51,39-82.83,74.69-19.69,27.75-40,56.44-66.58,74.47-30.16,20.5-63.9,23.63-103.15,9.57C157.5,282.36,165.62,242.78,175,197,187.63,135.48,203.33,59,103,1.3l.56-1c101.06,58.07,85.27,135,72.58,196.86-9.67,47.18-17.32,84.45,26.86,100.27,87,31.15,128.38-27.2,168.42-83.63,25.46-35.88,49.5-69.77,83.58-75.16,21.33-3.37,44.78,4.73,71.7,24.78,77.1,57.41,51.16,152.82,26.07,245.08-24.94,91.75-48.5,178.42,31.68,219.31,34,17.34,68.83,10.53,109.56-21.45,36-28.25,72.25-73.3,107.32-116.86,58.17-72.24,118.31-146.95,181.34-151.82,26.49-2.05,51.42,8,76.26,30.6,40.51,36.89,60.69,72.67,61.68,109.4,1.57,57.65-46.24,106.22-84.67,145.24-28.87,29.32-53.8,54.64-50.9,75.88,1.34,9.8,8.49,18.3,21.86,26,21.08,12.11,37.36,15.39,49.76,10,19.35-8.36,26-36.27,32.38-63.26,5.67-23.89,11-46.46,25-52.38,7.49-3.17,16.78-1.36,28.39,5.56,44.57,26.55,32,90.35,31.86,91l-1.11-.23c.13-.63,12.55-63.65-31.33-89.79-11.28-6.72-20.23-8.52-27.37-5.49-13.48,5.7-18.78,28-24.38,51.6-6.47,27.26-13.16,55.45-33,64A32.61,32.61,0,0,1,1044,738.45Z"/></g></g><g class="cls-43"><g class="cls-44"><g class="cls-7"><polygon points="1115.55 903 557.78 593.21 0 283.42 0.55 282.43 558.33 592.22 1116.1 902.01 1115.55 903"/></g><g class="cls-8"><path class="cls-9" d="M1.72,278.78s64.28,31.83,66.48,33c1.81.92,55.27,32.52,55.31,34.56,0,2.39,75.13,46.77,78.16,48.26.75.37,17.45,9.43,17.78,9.19.64-.46,36.68,18.13,36.47,16.49s41.39,19.64,42.26,19.1c.69-.43,43.8,23.24,45.78,24.57,4.87,3.3,141.16,85.31,139.31,89.85-.83,2,55.05,35.45,54.94,37.08,0,.42,11.2,7,11.26,7.39.21,1.17,35.31,21.09,36.61,21.65,3.69,1.59,62.06,32.38,62.85,31.52.37-.42,15.31,7.34,15.85,7.32l.48.24c.88,0,53.85,29.58,56,31.64,1,.92,32.51,18.32,33.43,18.22,1.93-.22,77.77,38.52,79.51,35.92,2.45-3.69,125.58,59,129.85,60.2,2.19.63,51.67,30,51.34,31.91-.45,2.64,96.84,60.28,101.79,62.72l-.55,1c-5-2.45-103.38-60.73-102.92-63.39.34-2-48.45-30.84-50.59-31.45-4.23-1.22-126.63-63.5-129.08-59.83-1.74,2.62-78-36.34-80-36.12-.93.11-33-17.58-34-18.52-2.14-2-54.77-31.41-55.62-31.41l-.44-.22c-.52,0-15.07-7.53-15.43-7.13-.81.88-59.91-30.29-63.63-31.9-1.28-.55-35.87-20.16-36.11-21.3-.08-.39-12.48-7.69-12.45-8.16.12-1.63-55.92-35.13-55.09-37.18,1.84-4.53-133.83-86.17-138.67-89.43-2-1.32-44.52-24.7-45.19-24.28-.84.52-41.89-20.6-41.66-18.84s-36.41-17.24-37.08-16.76c-.35.24-17.63-9.12-18.4-9.5-3.07-1.51-78.76-46.25-78.81-48.66,0-2-53-33.31-54.76-34.22-2.17-1.11-65.56-32.5-65.6-32.49Z"/></g><g class="cls-10"><path class="cls-9" d="M2.88,275.14c.08,0,65.16,28.44,69.55,30.68,3.62,1.86,54.45,33.89,54.53,38,.09,4.78,71.47,49.79,77.54,52.78,1.5.73,17.92,9.4,18.57,8.94,1.29-.92,35.31,15.11,34.88,11.84-.46-3.55,38.82,14.86,40.57,13.78,1.37-.85,43.69,22.1,47.64,24.77,9.75,6.58,137,89.9,133.33,99C477.83,559,530.1,592.74,529.87,596c-.06.84,10.62,7.52,10.75,8.23.42,2.36,34.54,22.15,37.14,23.28,7.37,3.18,63.85,31.29,65.43,29.56.75-.83,15.28,6.16,16.37,6.13,0,0,.47.22.5.22,1.77,0,53.48,29,57.84,33.15,2,1.86,32.89,18.81,34.73,18.6,3.86-.44,77.63,33.78,81.11,28.56,4.91-7.37,124.8,47.78,133.34,50.23,4.38,1.26,51.09,30.89,50.42,34.8-.9,5.28,90.93,63.5,100.83,68.37l-.54,1c-10-4.91-102.85-63.75-101.94-69.07.69-4-45.38-33.06-49.66-34.29-8.47-2.44-127.66-57.24-132.55-49.9-3.49,5.24-77.66-29.18-81.57-28.73-1.87.21-33.3-17-35.29-18.89-4.29-4-55.7-32.92-57.41-32.92,0,0-.43-.21-.46-.21-1,0-15.2-6.77-15.93-6-1.61,1.76-58.81-26.71-66.25-29.92-2.56-1.11-36.19-20.59-36.67-22.87-.16-.77-12-8.15-11.9-9.09.23-3.27-52.18-37.12-50.52-41.22,3.68-9-123-92-132.7-98.54-3.91-2.63-45.68-25.3-47-24.48-1.69,1.05-40.44-17.1-40-13.58.43,3.3-34.15-13-35.49-12.06-.69.5-17.68-8.47-19.21-9.22-6.13-3-78.1-48.39-78.19-53.2-.08-4-50.41-35.77-54-37.6-4.34-2.22-68.57-30.27-68.65-30.24Z"/></g><g class="cls-11"><path class="cls-12" d="M4.05,271.5c.11-.06,66,25,72.61,28.41,5.42,2.78,53.62,35.26,53.75,41.37.14,7.18,67.82,52.81,76.92,57.29,2.25,1.11,18.38,9.39,19.36,8.69,1.93-1.38,33.94,12.11,33.3,7.2-.7-5.33,36.25,10.08,38.87,8.47,2.06-1.28,43.58,20.95,49.5,24.95C363,457.75,481.25,542.38,475.71,556c-2.49,6.13,46.16,40.26,45.82,45.13-.09,1.26,10.05,8,10.24,9.09.63,3.53,33.76,23.2,37.66,24.89,11.06,4.77,65.66,30.22,68,27.61,1.13-1.24,15.25,5,16.88,4.93,0,0,.48.21.53.21,2.65,0,53.09,28.49,59.64,34.67,3,2.78,33.26,19.28,36,19,5.79-.66,77.5,29,82.72,21.21,7.36-11.05,124,36.57,136.83,40.25,6.57,1.89,50.5,31.83,49.5,37.68-1.36,7.93,85,66.72,99.87,74l-.54,1c-15-7.36-102.32-66.77-101-74.75,1-6-42.3-35.29-48.73-37.14-12.7-3.65-128.68-51-136-40-5.24,7.86-77.33-22-83.19-21.34-2.81.32-33.62-16.45-36.61-19.27-6.43-6.07-56.62-34.43-59.19-34.43,0,0-.44-.19-.49-.19-1.56.06-15.32-6-16.42-4.8-2.41,2.65-57.7-23.11-68.86-27.93-3.85-1.66-36.52-21-37.24-24.43-.24-1.16-11.45-8.63-11.35-10,.34-4.9-48.44-39.12-45.94-45.27,5.51-13.57-112.22-97.82-126.74-107.63-5.86-4-46.84-25.92-48.84-24.68-2.53,1.56-39-13.62-38.29-8.34.65,5-31.89-8.78-33.89-7.34-1,.74-17.73-7.82-20-9-9.19-4.52-77.43-50.52-77.58-57.74-.12-6.06-47.84-38.23-53.18-41-6.52-3.33-71.6-28-71.72-28Z"/></g><g class="cls-13"><path class="cls-14" d="M5.22,267.85c.15-.07,66.89,21.66,75.67,26.15,7.23,3.7,52.8,36.62,53,44.78.19,9.56,64.18,55.82,76.32,61.8,3,1.47,18.83,9.37,20.14,8.44,2.57-1.84,32.56,9.09,31.71,2.55-.93-7.1,33.69,5.31,37.18,3.15,2.75-1.7,43.47,19.81,51.36,25.14C370.07,453,479.32,539,471.93,557.14c-3.32,8.19,41.71,42.67,41.25,49.17-.11,1.68,9.48,8.52,9.74,9.94.84,4.71,33,24.25,38.19,26.5,14.75,6.37,67.45,29.14,70.61,25.66,1.51-1.65,15.22,3.82,17.4,3.74.07,0,.49.2.56.2,3.52,0,52.7,27.93,61.43,36.18,3.94,3.71,33.64,19.76,37.32,19.34,7.73-.88,77.36,24.29,84.32,13.86C842.57,727,956,767.09,973.08,772c8.75,2.51,49.91,32.75,48.57,40.56-1.8,10.57,79.12,69.93,98.92,79.68l-.54,1c-19.94-9.82-101.79-69.79-100-80.43,1.37-8-39.24-37.52-47.82-40-16.93-4.87-129.7-44.71-139.48-30-7,10.48-77-14.84-84.82-13.95C744.2,729.27,714,713,710,709.21c-8.58-8.1-57.55-35.94-61-35.94-.06,0-.45-.19-.51-.19-2.09.08-15.45-5.24-16.92-3.62-3.21,3.52-56.59-19.53-71.48-26-5.12-2.21-36.84-21.43-37.8-26-.32-1.55-10.93-9.1-10.8-11,.46-6.54-44.7-41.11-41.37-49.31,7.35-18.1-101.41-103.66-120.76-116.73-7.82-5.28-48-26.53-50.68-24.88-3.37,2.08-37.52-10.13-36.6-3.09.87,6.6-29.62-4.55-32.3-2.63-1.37,1-17.77-7.18-20.84-8.69-12.25-6-76.76-52.65-77-62.28-.16-8.09-45.28-40.7-52.4-44.35C71,290.15,5,268.78,4.86,268.85Z"/></g><g class="cls-15"><path class="cls-16" d="M6.38,264.21c.19-.09,67.77,18.26,78.74,23.87,9,4.64,52,38,52.18,48.19.24,12,60.53,58.85,75.7,66.31,3.74,1.85,19.3,9.36,20.93,8.19,3.21-2.3,31.19,6.09,30.12-2.09-1.16-8.88,31.12.53,35.49-2.17,3.43-2.12,43.36,18.67,53.23,25.33,24.37,16.46,124.61,103.71,115.38,126.43-4.15,10.23,37.26,45.07,36.69,53.2-.15,2.1,8.91,9,9.23,10.79,1,5.88,32.21,25.31,38.71,28.11,18.44,8,69.26,28.06,73.21,23.72,1.88-2.07,15.19,2.63,17.91,2.54.08,0,.51.18.59.18,4.4,0,52.31,27.39,63.23,37.69,4.91,4.64,34,20.24,38.61,19.72,9.66-1.1,77.23,19.55,85.92,6.5C844.53,722.3,954.72,754.89,976.07,761c10.95,3.15,49.33,33.69,47.66,43.44-2.26,13.22,73.21,73.15,98,85.34l-.54,1c-24.93-12.27-101.26-72.8-99-86.11,1.72-10-36.17-39.74-46.89-42.82-21.16-6.09-130.72-38.44-142.95-20.1-8.73,13.1-76.66-7.68-86.44-6.56-4.68.53-34.25-15.32-39.23-20-10.72-10.12-58.47-37.45-62.75-37.45-.08,0-.47-.17-.54-.17-2.61.1-15.58-4.47-17.42-2.45-4,4.4-55.49-15.94-74.09-24-6.41-2.77-37.17-21.86-38.37-27.55-.4-1.94-10.42-9.57-10.25-11.91.57-8.18-41-43.1-36.8-53.35,9.19-22.63-90.59-109.49-114.79-125.83-9.77-6.6-49.17-27.15-52.51-25.09-4.21,2.61-36.06-6.64-34.9,2.16,1.08,8.26-27.37-.31-30.71,2.08-1.72,1.24-17.82-6.52-21.66-8.41-15.31-7.54-76.1-54.79-76.34-66.83-.2-10.11-42.71-43.16-51.62-47.71-10.85-5.56-77.64-23.59-77.83-23.5Z"/></g><g class="cls-17"><path class="cls-16" d="M7.55,260.56c.23-.1,68.64,14.87,81.8,21.61,10.85,5.56,51.15,39.36,51.4,51.59.28,14.35,56.88,61.87,75.08,70.83,4.49,2.21,19.76,9.34,21.72,7.94,3.85-2.76,29.82,3.07,28.54-6.74-1.4-10.66,28.55-4.25,33.79-7.48,4.12-2.55,43.25,17.52,55.09,25.52,29.25,19.75,120.48,108.3,109.4,135.57-5,12.27,32.81,47.47,32.13,57.23-.18,2.52,8.33,9.5,8.71,11.63,1.27,7.07,31.44,26.37,39.25,29.74,22.12,9.55,71,27,75.79,21.76,2.26-2.48,15.17,1.46,18.43,1.34.1,0,.52.18.61.18,5.29,0,51.94,26.84,65,39.2,5.89,5.57,34.39,20.71,39.9,20.09,11.59-1.32,77.09,14.81,87.53-.85,14.73-22.11,121.68,3,147.31,10.33,13.14,3.78,48.74,34.62,46.74,46.33-2.72,15.86,67.29,76.36,97,91l-.53,1c-29.92-14.73-100.74-75.82-98-91.79,2-12-33.11-42-46-45.66-25.4-7.31-131.75-32.18-146.42-10.17-10.48,15.72-76.33-.51-88.06.83-5.61.64-34.58-14.75-40.55-20.39-12.87-12.15-59.4-39-64.53-39-.09,0-.48-.16-.57-.16-3.13.12-15.7-3.71-17.91-1.29-4.81,5.29-54.38-12.34-76.71-22-7.68-3.32-37.49-22.28-38.92-29.11-.49-2.33-9.91-10-9.72-12.85.69-9.81-37.21-45.1-32.22-57.39,11-27.16-79.78-115.32-108.81-134.93-11.73-7.92-50.34-27.76-54.34-25.29-5.06,3.13-34.6-3.15-33.22,7.41,1.3,9.9-25.1,3.92-29.11,6.79-2.07,1.48-17.87-5.88-22.47-8.14-18.38-9-75.44-56.93-75.73-71.37-.25-12.13-40.15-45.62-50.83-51.09-13-6.67-80.66-21.36-80.89-21.26Z"/></g><g class="cls-18"><path class="cls-19" d="M8.71,256.92c.27-.12,69.51,11.48,84.87,19.34,12.66,6.48,50.33,40.73,50.61,55,.34,16.75,53.24,64.89,74.47,75.35,5.24,2.57,20.22,9.32,22.51,7.68,4.49-3.22,28.45.07,27-11.38-1.63-12.43,26-9,32.1-12.8,4.81-3,43.14,16.38,56.95,25.71,34.13,23,116.35,112.9,103.42,144.72-5.81,14.32,28.36,49.87,27.57,61.25-.21,2.94,7.76,10,8.2,12.49,1.48,8.24,30.66,27.42,39.77,31.35,25.81,11.14,72.86,25.89,78.39,19.81,2.63-2.89,15.13.28,18.94.15.11,0,.53.16.64.16,6.17,0,51.55,26.29,66.83,40.72,6.88,6.49,34.77,21.19,41.2,20.46,13.52-1.53,77,10.06,89.13-8.2,17.19-25.79,120.91-8.24,150.81.35,15.32,4.41,48.15,35.56,45.81,49.21-3.17,18.51,61.39,79.59,96,96.65l-.53,1c-34.9-17.18-100.21-78.84-97-97.47,2.4-14-30-44.19-45-48.51-29.64-8.52-132.78-25.91-149.9-.23-12.22,18.34-76,6.66-89.67,8.21-6.55.75-34.9-14.18-41.86-20.75-15-14.18-60.33-40.47-66.32-40.47-.11,0-.49-.16-.59-.15-3.65.14-15.83-2.95-18.41-.12-5.61,6.16-53.27-8.76-79.32-20-9-3.87-37.82-22.7-39.49-30.68-.57-2.71-9.4-10.51-9.17-13.78.8-11.45-33.47-47.09-27.64-61.44,12.87-31.68-69-121.15-102.85-144-13.68-9.24-51.5-28.38-56.17-25.49-5.91,3.65-33.14.33-31.53,12.65,1.51,11.56-22.84,8.15-27.52,11.51-2.41,1.72-17.91-5.23-23.28-7.88-21.44-10.55-74.78-59.06-75.11-75.91-.29-14.15-37.59-48.08-50-54.46-15.2-7.78-83.68-19.13-83.95-19Z"/></g><g class="cls-20"><path class="cls-21" d="M9.88,253.28c.31-.14,70.38,8.08,87.92,17.07,14.48,7.41,49.51,42.09,49.84,58.4.38,19.13,49.58,67.9,73.85,79.85,6,2.95,20.68,9.31,23.3,7.44,5.13-3.68,27.07-3,25.36-16-1.86-14.22,23.42-13.81,30.41-18.12,5.5-3.4,43,15.23,58.82,25.89,39,26.34,112.2,117.5,97.43,153.87-6.64,16.36,23.91,52.27,23,65.28-.24,3.36,7.18,10.5,7.69,13.34,1.69,9.42,29.89,28.47,40.3,33,29.49,12.73,74.66,24.81,81,17.86,3-3.3,15.1-.89,19.45-1.05.13,0,.54.15.67.15,7.05,0,51.16,25.75,68.63,42.24,7.86,7.42,35.14,21.66,42.5,20.83,15.44-1.75,76.81,5.32,90.72-15.55,19.65-29.48,120.14-19.45,154.3-9.62,17.52,5,47.57,36.48,44.9,52.09-3.62,21.15,55.48,82.8,95.08,102.29l-.53,1c-39.89-19.64-99.68-81.86-96-103.15,2.75-16-27-46.42-44.12-51.35-33.86-9.73-133.79-19.65-153.36,9.7-14,21-75.65,13.83-91.3,15.6-7.48.86-35.21-13.61-43.17-21.13-17.16-16.2-61.25-42-68.1-42-.12,0-.49-.14-.61-.13-4.17.15-16-2.19-18.91,1-6.41,7-52.16-5.16-81.94-18-10.24-4.43-38.14-23.12-40.05-32.24-.65-3.1-8.88-11-8.62-14.72.91-13.08-29.73-49.08-23.07-65.48,14.71-36.21-58.16-127-96.88-153.12-15.63-10.56-52.66-29-58-25.69-6.75,4.17-31.68,3.82-29.84,17.9,1.73,13.21-20.57,12.38-25.92,16.21-2.76,2-18-4.58-24.1-7.6-24.51-12.06-74.11-61.2-74.5-80.46-.32-16.17-35-50.54-49.26-57.83-17.36-8.89-86.7-16.9-87-16.76Z"/></g><g class="cls-22"><path class="cls-21" d="M11.05,249.63c.34-.15,71.24,4.7,91,14.8,16.29,8.34,48.69,43.47,49.06,61.81.43,21.53,45.93,70.92,73.23,84.37,6.73,3.31,21.15,9.29,24.09,7.18,5.78-4.14,25.7-6,23.78-20.66-2.1-16,20.85-18.58,28.71-23.44,6.18-3.82,42.92,14.09,60.68,26.08,43.88,29.63,108.07,122.11,91.46,163-7.48,18.41,19.46,54.69,18.43,69.32-.26,3.78,6.61,11,7.19,14.18,1.9,10.6,29.11,29.53,40.82,34.59,33.18,14.32,76.46,23.72,83.57,15.91,3.39-3.72,15.07-2.08,20-2.25.15,0,.55.14.7.14,7.93,0,50.77,25.19,70.42,43.74,8.85,8.35,35.52,22.15,43.8,21.21,17.38-2,76.68.58,92.33-22.91,22.1-33.16,119.35-30.64,157.79-19.59,19.71,5.66,47,37.41,44,55-4.07,23.79,49.58,86,94.13,107.94l-.53,1c-44.88-22.09-99.15-84.88-95.05-108.83,3.09-18-23.91-48.65-43.2-54.19-38.1-10.95-134.82-13.39-156.83,19.64-15.71,23.57-75.32,21-92.92,23-8.42,1-35.53-13-44.48-21.5-19.31-18.23-62.18-43.49-69.89-43.49-.13,0-.5-.13-.64-.13-4.69.18-16.08-1.42-19.4,2.22-7.21,7.93-51.06-1.58-84.55-16-11.53-5-38.47-23.54-40.62-33.79-.73-3.49-8.36-11.46-8.07-15.67,1-14.71-26-51.07-18.5-69.51C468,522,404.13,429.91,360.58,400.51c-17.59-11.88-53.83-29.61-59.84-25.9-7.59,4.69-30.22,7.31-28.14,23.15,1.94,14.86-18.32,16.62-24.34,20.93-3.09,2.22-18-3.93-24.91-7.33-27.57-13.57-73.45-63.34-73.88-85-.36-18.19-32.45-53-48.47-61.21-19.54-10-89.72-14.66-90.07-14.51Z"/></g><g class="cls-23"><path class="cls-24" d="M12.21,246c.39-.18,72.12,1.3,94.05,12.53,18.1,9.26,47.87,44.83,48.27,65.21.48,23.92,42.29,73.95,72.63,88.88,7.47,3.68,21.6,9.28,24.86,6.94,6.43-4.6,24.34-9,22.2-25.31-2.33-17.77,18.29-23.36,27-28.76,6.87-4.24,42.81,12.95,62.54,26.27,48.76,32.92,103.94,126.71,85.48,172.16-8.31,20.46,15,57.09,13.87,73.35-.29,4.2,6,11.48,6.68,15,2.11,11.78,28.34,30.58,41.35,36.2,36.86,15.91,78.26,22.64,86.16,14,3.76-4.13,15-3.25,20.48-3.44.16,0,.56.12.72.12,8.81,0,50.39,24.65,72.23,45.26,9.83,9.28,35.89,22.62,45.09,21.58,19.31-2.19,76.54-4.17,93.93-30.26,24.56-36.85,118.58-41.85,161.29-29.57,21.89,6.29,46.39,38.35,43,57.86-4.53,26.44,43.66,89.23,93.16,113.6l-.52,1c-49.86-24.55-98.62-87.91-94.07-114.52,3.43-20.05-20.84-50.87-42.27-57-42.33-12.17-135.84-7.12-160.3,29.57-17.46,26.19-75,28.15-94.54,30.37-9.36,1.07-35.85-12.49-45.8-21.88-21.45-20.25-63.1-45-71.67-45-.15,0-.51-.11-.66-.11-5.21.2-16.22-.66-19.89,3.39-8,8.8-50,2-87.17-14.06-12.81-5.53-38.8-24-41.19-35.35-.81-3.88-7.85-11.93-7.52-16.61,1.14-16.34-22.25-53.06-13.93-73.56,18.39-45.26-36.54-138.64-84.93-171.31-19.54-13.2-55-30.22-61.67-26.1-8.43,5.21-28.76,10.8-26.45,28.4,2.16,16.51-16.05,20.85-22.74,25.64-3.44,2.47-18.06-3.29-25.73-7.06-30.63-15.09-72.78-65.48-73.26-89.55-.41-20.21-29.88-55.46-47.69-64.58C83.56,248.15,12.53,246.83,12.14,247Z"/></g><g class="cls-25"><path class="cls-26" d="M13.38,242.34c.42-.19,73-2.09,97.11,10.27,19.91,10.19,47,46.2,47.49,68.61.53,26.31,38.64,77,72,93.4,8.22,4.05,22.06,9.26,25.65,6.68,7.07-5.06,23-12,20.61-29.95-2.56-19.55,15.73-28.14,25.33-34.07,7.56-4.67,42.7,11.8,64.41,26.46C419.62,420,465.79,515,445.48,565c-9.14,22.5,10.56,59.49,9.31,77.38-.32,4.61,5.46,12,6.16,15.88,2.33,13,27.57,31.63,41.88,37.81,40.56,17.51,80.06,21.56,88.75,12,4.14-4.54,15-4.42,21-4.64.18,0,.57.11.75.11,9.69,0,50,24.11,74,46.78,10.81,10.2,36.27,23.1,46.39,22,21.24-2.41,76.41-8.91,95.54-37.61,27-40.53,117.79-53.05,164.78-39.55,24.08,6.93,45.79,39.28,42.12,60.75-5,29.08,37.76,92.44,92.21,119.25l-.52,1c-54.85-27-98.1-90.92-93.09-120.2,3.78-22.05-17.77-53.1-41.34-59.87-46.57-13.39-136.87-.86-163.77,39.5-19.21,28.81-74.65,35.32-96.17,37.76-10.28,1.17-36.16-11.92-47.11-22.25-23.59-22.28-64-46.51-73.44-46.51-.17,0-.53-.11-.69-.1-5.74.22-16.35.1-20.39,4.55-8.82,9.69-48.85,5.61-89.79-12.07C488,690.9,463,672.6,460.33,660.07c-.89-4.27-7.33-12.4-7-17.55,1.25-18-18.51-55-9.35-77.6,20.22-49.79-25.73-144.47-79-180.41-21.5-14.52-56.16-30.84-63.5-26.3-9.28,5.73-27.3,14.28-24.77,33.65,2.38,18.15-13.79,25.08-21.14,30.35-3.79,2.71-18.11-2.64-26.55-6.8-33.69-16.59-72.11-67.6-72.64-94.08-.45-22.24-27.32-57.93-46.91-68-23.88-12.22-95.76-10.2-96.18-10Z"/></g><g class="cls-27"><path class="cls-28" d="M14.55,238.7c.46-.21,73.85-5.48,100.17,8,21.71,11.12,46.22,47.57,46.71,72,.57,28.7,35,80,71.39,97.9,9,4.42,22.52,9.25,26.44,6.44,7.71-5.52,21.59-15,19-34.6-2.8-21.33,13.15-32.91,23.63-39.39,8.24-5.09,42.59,10.66,66.27,26.65,58.5,39.5,95.66,135.91,73.51,190.45-10,24.54,6.11,61.89,4.75,81.4-.36,5,4.89,12.48,5.65,16.74,2.54,14.13,26.79,32.68,42.41,39.42,44.24,19.1,81.86,20.48,91.34,10.06,4.51-4.95,15-5.6,21.51-5.83.2,0,.58.1.78.1,10.57,0,49.62,23.55,75.82,48.28,11.79,11.13,36.64,23.58,47.68,22.33,23.17-2.63,76.27-13.66,97.14-45,29.47-44.22,117-64.26,168.27-49.52,26.28,7.55,45.21,40.21,41.21,63.62-5.43,31.73,31.85,95.67,91.25,124.91l-.52,1c-59.84-29.46-97.57-93.94-92.1-125.88,4.12-24.06-14.71-55.32-40.43-62.72-50.79-14.6-137.88,5.41-167.23,49.44-21,31.43-74.32,42.48-97.79,45.15C720.22,781,695,768.36,683,757.09c-25.74-24.3-65-48-75.23-48-.18,0-.54-.1-.71-.09-6.26.23-16.48.87-20.89,5.72-9.62,10.57-47.75,9.19-92.4-10.09-15.37-6.63-39.45-24.8-42.31-38.47-1-4.66-6.83-12.87-6.44-18.49,1.37-19.61-14.76-57-4.77-81.64,22.06-54.31-14.92-150.31-73-189.52C343.83,360.67,310,345.06,302,350c-10.12,6.25-25.84,17.77-23.08,38.89,2.6,19.81-11.53,29.31-19.55,35.06-4.13,3-18.15-2-27.36-6.52-36.75-18.1-71.45-69.74-72-98.63-.48-24.25-24.75-60.39-46.11-71.33-26.06-13.33-98.79-8-99.25-7.77Z"/></g><g class="cls-29"><path class="cls-28" d="M15.71,235.06c.5-.23,74.73-8.88,103.24,5.72,23.52,12,45.39,48.94,45.93,75.43.62,31.09,31.33,83,70.77,102.42,9.72,4.78,23,9.23,27.23,6.18,8.35-6,20.22-18,17.44-39.24-3-23.1,10.59-37.69,21.94-44.7,8.93-5.52,42.48,9.51,68.13,26.83,63.38,42.8,91.53,140.51,67.53,199.59-10.8,26.6,1.66,64.3.18,85.44-.38,5.46,4.32,13,5.15,17.58,2.75,15.32,26,33.74,42.93,41.05,47.93,20.69,83.66,19.39,93.93,8.11,4.89-5.37,15-6.78,22-7,.21,0,.59.08.81.08,11.45,0,49.23,23,77.62,49.8,12.77,12.06,37,24.06,49,22.71,25.1-2.86,76.14-18.41,98.74-52.33,31.93-47.9,116.25-75.45,171.77-59.49,28.46,8.18,44.62,41.14,40.28,66.51-5.88,34.37,25.94,98.88,90.3,130.56l-.52,1c-64.82-31.92-97-97-91.12-131.56,4.46-26.06-11.64-57.55-39.5-65.56-55-15.82-138.91,11.67-170.7,59.37-22.7,34.05-74,49.65-99.41,52.54-12.16,1.39-36.8-10.79-49.74-23-27.88-26.33-65.88-49.53-77-49.53-.2,0-.55-.08-.74-.08-6.78.26-16.6,1.64-21.38,6.89-10.42,11.45-46.64,12.79-95-8.1-16.65-7.19-39.77-25.23-42.87-40-1.06-5-6.31-13.34-5.89-19.42,1.49-21.25-11-59-.2-85.69,23.9-58.83-4.11-156.13-67-198.61-25.4-17.15-58.48-32.06-67.16-26.7C291.39,348.58,278,363.07,281,386c2.81,21.46-9.27,33.54-18,39.77-4.48,3.21-18.2-1.34-28.17-6.25C195,399.86,164.05,347.59,163.42,316.3c-.53-26.28-22.18-62.86-45.33-74.71-28.22-14.44-101.8-5.74-102.3-5.52Z"/></g><g class="cls-30"><path class="cls-31" d="M16.88,231.41c.54-.24,75.59-12.26,106.3,3.46,25.33,13,44.57,50.3,45.14,78.83.67,33.49,27.69,86,70.16,106.93,10.47,5.16,23.45,9.22,28,5.94,9-6.44,18.85-21,15.85-43.89-3.26-24.88,8-42.47,20.25-50,9.62-5.94,42.36,8.37,70,27,68.25,46.09,87.39,145.11,61.54,208.74-11.63,28.64-2.79,66.7-4.38,89.47-.41,5.88,3.75,13.46,4.64,18.43,3,16.49,25.24,34.79,43.46,42.66,51.61,22.28,85.46,18.31,96.52,6.16,5.26-5.78,14.93-8,22.54-8.23.23,0,.6.07.83.07,12.34,0,48.85,22.46,79.42,51.32,13.76,13,37.4,24.53,50.27,23.08,27-3.08,76-23.15,100.35-59.68,34.38-51.58,115.46-86.66,175.26-69.47,30.65,8.81,44,42.08,39.36,69.39-6.33,37,20,102.1,89.33,136.22l-.51,1c-69.81-34.37-96.51-100-90.13-137.24,4.8-28.07-8.58-59.78-38.58-68.4-59.26-17-139.94,17.93-174.18,69.3-24.44,36.68-73.64,56.82-101,59.93-13.1,1.49-37.12-10.23-51.05-23.38-30-28.35-66.81-51-78.8-51-.21,0-.55-.08-.76-.07-7.3.28-16.73,2.4-21.88,8.06-11.22,12.33-45.53,16.37-97.63-6.12-17.93-7.74-40.1-25.65-43.44-41.6-1.14-5.43-5.8-13.81-5.34-20.36,1.6-22.89-7.28-61,4.38-89.73,25.74-63.36,6.7-162-61.05-207.71-27.36-18.47-59.65-32.67-69-26.9-11.8,7.3-22.92,24.75-19.69,49.39,3,23.11-7,37.78-16.37,44.49-4.82,3.45-18.24-.7-29-6-42.89-21.11-70.13-74-70.8-107.71-.57-28.3-19.62-65.31-44.55-78.07C92,220.15,17.54,232.19,17,232.43Z"/></g><g class="cls-32"><path class="cls-33" d="M18,227.77c.58-.26,76.47-15.66,109.37,1.18,27.14,13.9,43.75,51.67,44.36,82.24.72,35.88,24,89.05,69.55,111.45,11.21,5.52,23.9,9.19,28.8,5.68,9.63-6.9,17.48-24,14.27-48.53-3.5-26.66,5.45-47.24,18.55-55.33,10.3-6.37,42.25,7.22,71.86,27.21,73.13,49.37,83.25,149.7,55.56,217.88-12.47,30.68-7.24,69.1-8.94,93.5-.44,6.3,3.17,14,4.13,19.28,3.17,17.67,24.46,35.85,44,44.27,55.3,23.87,87.27,17.23,99.12,4.21,5.64-6.2,14.89-9.13,23.05-9.42.24,0,.62.06.86.06,13.22,0,48.47,21.91,81.22,52.82,14.74,13.92,37.77,25,51.56,23.46,29-3.3,75.87-27.9,101.95-67C864.13,675.43,942,632.83,1006,651.25c32.84,9.44,43.45,43,38.44,72.28-6.78,39.66,14.13,105.31,88.38,141.87l-.51,1c-74.79-36.83-96-103-89.15-142.92,5.15-30.07-5.51-62-37.65-71.24-63.5-18.26-141,24.2-177.65,79.23-26.19,39.3-73.31,64-102.65,67.32-14,1.6-37.43-9.66-52.36-23.75-32.18-30.38-67.73-52.55-80.58-52.55-.22,0-.56-.06-.78,0-7.83.3-16.86,3.16-22.38,9.22-12,13.22-44.43,20-100.25-4.13-19.21-8.29-40.42-26.07-44-43.16-1.22-5.82-5.28-14.28-4.79-21.3,1.71-24.52-3.54-63,8.95-93.77,27.58-67.89,17.51-167.8-55.08-216.81-29.31-19.79-60.81-33.29-70.82-27.1-12.65,7.82-21.47,28.24-18,54.64,3.24,24.76-4.74,42-14.77,49.19-5.17,3.7-18.29,0-29.8-5.71-46-22.62-69.46-76.15-70.18-112.25-.61-30.33-17.06-67.78-43.76-81.45-32.57-16.68-107.85-1.29-108.42-1Z"/></g><g class="cls-34"><path class="cls-33" d="M19.21,224.12c.62-.27,77.34-19.05,112.43-1.08,29,14.82,42.92,53,43.58,85.65.76,38.27,20.39,92.06,68.93,116,12,5.88,24.36,9.17,29.59,5.43,10.28-7.36,16.1-27,12.68-53.18-3.72-28.43,2.89-52,16.86-60.65,11-6.8,42.14,6.07,73.72,27.4,78,52.67,79.12,154.31,49.58,227-13.3,32.73-11.68,71.51-13.5,97.52-.47,6.72,2.6,14.46,3.62,20.14,3.38,18.84,23.69,36.9,44.51,45.89,59,25.46,89.06,16.14,101.7,2.25a33.83,33.83,0,0,1,23.57-10.62c.26,0,.63,0,.89,0,14.1,0,48.08,21.37,83,54.34,15.73,14.84,38.15,25.49,52.86,23.83,30.9-3.52,75.73-32.64,103.55-74.39,39.3-59,113.91-109.06,182.25-89.42,35,10.07,42.86,44,37.52,75.17C1039.32,757.74,1054.78,824,1134,863l-.51,1c-79.78-39.28-95.45-106-88.17-148.6,5.49-32.08-2.44-64.23-36.73-74.09-67.72-19.47-142,30.47-181.11,89.17-27.94,41.92-73,71.15-104.27,74.71-15,1.7-37.75-9.1-53.68-24.13-34.32-32.4-68.66-54-82.35-54-.24,0-.58-.05-.82,0a33,33,0,0,0-22.87,10.39c-12.82,14.09-43.32,23.56-102.86-2.15-20.49-8.85-40.75-26.5-44.57-44.72-1.3-6.21-4.77-14.76-4.24-22.24,1.82-26.16.2-65,13.52-97.81,29.42-72.42,28.32-173.63-49.1-225.91-31.27-21.11-62-33.9-72.66-27.3-13.49,8.33-20,31.72-16.32,59.88,3.46,26.41-2.48,46.25-13.17,53.91-5.51,3.95-18.34.6-30.62-5.44-49-24.13-68.79-78.29-69.57-116.8-.64-32.34-14.48-70.24-43-84.82-34.74-17.79-110.86.94-111.48,1.22Z"/></g><g class="cls-35"><path class="cls-36" d="M20.38,220.48c.65-.29,78.2-22.44,115.49-3.35,30.76,15.74,42.1,54.4,42.79,89.05.82,40.66,16.75,95.08,68.32,120.47,12.71,6.26,24.83,9.16,30.38,5.19,10.92-7.83,14.73-30,11.09-57.83-3.95-30.21.33-56.8,15.17-66,11.68-7.22,42,4.93,75.59,27.59,82.88,56,75,158.91,43.59,236.18-14.13,34.77-16.13,73.91-18.06,101.55-.5,7.14,2,14.95,3.1,21,3.6,20,22.92,38,45,47.51,62.67,27,90.87,15.06,104.3.31,6.39-7,14.83-11.49,24.09-11.82.27,0,.63,0,.9,0,15,0,47.7,20.82,84.82,55.86,16.7,15.77,38.52,26,54.15,24.2,32.83-3.74,75.6-37.38,105.16-81.74C868.05,666.05,939.43,608.42,1012,629.3c37.22,10.7,42.27,44.87,36.59,78-7.69,44.94,2.31,111.75,86.47,153.18l-.51,1c-84.77-41.74-94.93-109-87.18-154.28,5.83-34.08.62-66.46-35.81-76.93-72-20.69-143,36.73-184.58,99.1-29.68,44.54-72.64,78.32-105.89,82.09-15.9,1.82-38.08-8.52-55-24.49-36.47-34.43-69.59-55.57-84.14-55.57-.26,0-.59,0-.84,0-8.87.33-17.11,4.68-23.37,11.56-13.63,15-42.21,27.14-105.48-.17-21.77-9.4-41.07-26.92-45.13-46.28-1.38-6.6-4.25-15.23-3.69-23.18,1.94-27.79,3.94-67,18.09-101.86,31.26-76.94,39.13-179.45-43.13-235C345.23,314.07,315.3,302,304,309c-14.33,8.86-18.54,35.22-14.62,65.14,3.67,28.06-.22,50.47-11.59,58.62-5.85,4.19-18.38,1.25-31.43-5.17-52.07-25.64-68.13-80.42-68.95-121.35-.69-34.36-11.92-72.69-42.19-88.19-36.9-18.9-113.88,3.17-114.53,3.46Z"/></g><g class="cls-37"><path class="cls-38" d="M21.54,216.84c.7-.31,79.08-25.84,118.56-5.62,32.57,16.67,41.28,55.77,42,92.45.86,43.05,13.1,98.1,67.7,125,13.46,6.62,25.29,9.14,31.17,4.93,11.56-8.28,13.36-33,9.51-62.47-4.19-32-2.25-61.57,13.47-71.28,12.37-7.65,41.92,3.78,77.45,27.77,87.75,59.26,70.84,163.51,37.61,245.32-15,36.82-20.58,76.32-22.63,105.59-.53,7.56,1.45,15.45,2.6,21.83,3.81,21.2,22.14,39,45.57,49.12,66.36,28.65,92.66,14,106.88-1.64,6.77-7.44,14.81-12.67,24.61-13,.28,0,.64,0,.93,0,15.86,0,47.31,20.27,86.61,57.37,17.69,16.69,38.9,26.44,55.46,24.57,34.76-3.95,75.45-42.13,106.75-89.09C870,661.37,938.16,596.22,1015,618.32c39.41,11.33,41.69,45.81,35.68,80.93-8.14,47.58-3.6,115,85.5,158.83l-.5,1c-89.75-44.19-94.4-112.05-86.2-160,6.18-36.09,3.7-68.68-34.88-79.77-76.2-21.91-144,43-188,109-31.43,47.15-72.31,85.47-107.51,89.47-16.84,1.93-38.4-8-56.31-24.87-38.61-36.45-70.51-57.07-85.92-57.07-.27,0-.6,0-.86,0-9.39.36-17.24,5.46-23.87,12.73C537.68,764.5,511,779.38,444,750.46c-23-10-41.4-27.34-45.69-47.85-1.47-7-3.75-15.69-3.16-24.11,2.06-29.43,7.69-69,22.68-105.9,33.09-81.47,49.94-185.29-37.17-244.1-35.17-23.76-64.31-35.13-76.32-27.71-15.18,9.38-17.08,38.7-12.93,70.38,3.89,29.72,2,54.71-10,63.33-6.2,4.45-18.43,1.9-32.25-4.9-55.13-27.14-67.46-82.55-68.33-125.88-.73-36.39-9.35-75.16-41.41-91.57-39.07-20-116.9,5.4-117.59,5.71Z"/></g><g class="cls-39"><path class="cls-40" d="M22.71,213.19c.73-.33,79.94-29.22,121.62-7.89,34.38,17.6,40.45,57.14,41.23,95.86.91,45.45,9.44,101.12,67.08,129.5,14.21,7,25.75,9.13,32,4.69,12.2-8.75,12-36.07,7.92-67.12-4.42-33.76-4.81-66.35,11.78-76.6,13.05-8.07,41.81,2.64,79.31,28,92.63,62.55,66.71,168.11,31.63,254.47-15.79,38.87-25,78.72-27.19,109.62-.56,8,.88,15.94,2.09,22.68,4,22.38,21.37,40.06,46.09,50.73,70,30.24,94.47,12.91,109.48-3.59,7.14-7.85,14.78-13.84,25.12-14.21.3,0,.65,0,1,0,16.74,0,46.92,19.72,88.41,58.88,18.67,17.63,39.27,26.92,56.75,25,36.69-4.17,75.31-46.87,108.35-96.44C872,656.68,936.88,584,1018,607.34c41.6,12,41.1,46.74,34.76,83.81-8.6,50.23-9.51,118.18,84.54,164.49l-.5,1C1042.09,810,1043,741.58,1051.61,691c6.52-38.09,6.77-70.91-33.95-82.61-80.43-23.13-145.06,49.25-191.52,119C793,777.14,754.16,820,717,824.23c-17.77,2-38.71-7.4-57.61-25.24-40.76-38.47-71.44-58.58-87.71-58.58-.28,0-.61,0-.89,0-9.91.38-17.37,6.22-24.35,13.9-15.24,16.73-40,34.32-110.72,3.8-24.33-10.51-41.72-27.76-46.25-49.41-1.55-7.37-3.23-16.17-2.61-25.05,2.17-31.06,11.43-71,27.25-109.94,34.93-86,60.75-191.12-31.19-253.2-37.13-25.08-65.48-35.75-78.15-27.91-16,9.9-15.63,42.19-11.25,75.63,4.11,31.36,4.3,58.94-8.4,68-6.54,4.69-18.48,2.55-33.06-4.63-58.19-28.65-66.8-84.69-67.71-130.43-.77-38.4-6.79-77.62-40.62-94.94-41.25-21.12-119.93,7.64-120.66,8Z"/></g><g class="cls-41"><path class="cls-40" d="M23.88,209.55c.77-.35,80.81-32.62,124.68-10.16,36.19,18.52,39.63,58.51,40.44,99.27,1,47.83,5.8,104.13,66.48,134,15,7.36,26.2,9.11,32.74,4.43,12.84-9.2,10.61-39.07,6.33-71.76-4.65-35.54-7.37-71.12,10.09-81.91,13.74-8.5,41.7,1.49,81.18,28.15,97.5,65.83,62.57,172.71,25.64,263.61C394.84,616.1,382,656.31,379.71,688.84a95.08,95.08,0,0,0,1.58,23.52c4.23,23.56,20.59,41.12,46.62,52.36,73.73,31.83,96.26,11.82,112.06-5.55,7.53-8.26,14.75-15,25.64-15.4h1c17.62,0,46.54,19.18,90.21,60.4,19.65,18.55,39.64,27.4,58,25.32,38.62-4.39,75.18-51.62,110-103.8C873.93,652,935.61,571.81,1021,596.36c43.79,12.59,40.51,47.67,33.83,86.7-9,52.87-15.41,121.39,83.59,170.14l-.5,1c-99.73-49.1-93.34-118.09-84.23-171.32,6.86-40.1,9.83-73.13-33-85.45C936,573.09,874.61,653,825.69,726.34c-34.92,52.39-71.63,99.81-110.75,104.25-18.7,2.14-39-6.83-58.93-25.62-42.9-40.49-72.36-60.09-89.49-60.09h-.91c-10.43.39-17.5,7-24.85,15.06-16,17.62-38.9,37.92-113.33,5.79-25.61-11.06-42.05-28.19-46.82-51a94.8,94.8,0,0,1-2.06-26c2.28-32.69,15.17-73,31.82-114,36.77-90.52,71.56-196.94-25.22-262.29-39.08-26.4-66.64-36.36-80-28.12-16.87,10.43-14.17,45.68-9.56,80.88,4.33,33,6.57,63.18-6.8,72.76-6.89,4.93-18.53,3.19-33.87-4.36-61.27-30.16-66.14-86.83-67.11-135-.81-40.43-4.22-80.09-39.83-98.32-43.42-22.23-122.94,9.87-123.71,10.21Z"/></g><path class="cls-42" d="M1139.07,851.77c-104.71-51.55-92.81-121.11-83.25-177,7.21-42.1,12.9-75.36-32.11-88.3-88.89-25.56-147.1,61.79-198.46,138.84-36.67,55-71.3,107-112.37,111.64-19.64,2.24-39.35-6.27-60.25-26-45-42.52-73.29-61.6-91.27-61.6l-.93,0c-10.95.41-17.63,7.74-25.35,16.23-16.84,18.5-37.79,41.51-115.94,7.77-36.07-15.57-51.6-40.82-48.9-79.47,2.4-34.33,18.91-75,36.39-118,38.61-95.05,82.38-202.78-19.24-271.4-41-27.71-67.81-37-81.82-28.31-17.71,10.95-12.7,49.17-7.86,86.13,4.53,34.66,8.82,67.41-5.21,77.47-7.24,5.18-18.58,3.84-34.69-4.09-64.33-31.67-65.48-89-66.49-139.52-.85-42.45-1.65-82.54-39-101.69-45.58-23.34-126,12.1-126.77,12.46l-.46-1c.81-.37,81.69-36,127.75-12.43,38,19.45,38.8,59.87,39.66,102.67,1,50.23,2.15,107.16,65.86,138.52,15.7,7.73,26.67,9.1,33.53,4.19,13.48-9.67,9.24-42.09,4.75-76.41-4.89-37.31-9.94-75.9,8.39-87.23,14.43-8.92,41.59.35,83,28.34,102.38,69.13,58.43,177.31,19.66,272.76-17.45,42.95-33.93,83.52-36.31,117.67-2.67,38.1,12.66,63,48.21,78.35,77.42,33.42,98.07,10.74,114.66-7.49,7.9-8.68,14.72-16.17,26.15-16.6.33,0,.67,0,1,0,18.51,0,46.16,18.63,92,61.91,20.64,19.48,40,27.87,59.34,25.69,40.55-4.61,75-56.36,111.56-111.15,51.58-77.38,110-165.08,199.71-139.29C1070,598.6,1064,634,1056.94,675c-9.5,55.52-21.33,124.62,82.62,175.79Z"/></g></g><g class="cls-45"><g class="cls-44"><g class="cls-7"><polygon points="1113.35 498.3 715.21 274.45 317.08 50.59 317.63 49.61 715.77 273.46 1113.9 497.31 1113.35 498.3"/></g><g class="cls-8"><path class="cls-9" d="M316.52,52.05c5,2.45,109,64.59,108.58,67.25-.34,2,51.29,32.77,53.43,33.39,4.23,1.21,133.5,68.18,136,64.51,1.74-2.62,82.26,39.25,84.22,39,.54-.06,18.37,9.77,18.92,10s16.4,9.27,16.82,9.67c2.18,2.06,58.22,33.71,59.07,33.68.53,0,15.86,8.08,16.23,7.67.8-.88,63.21,32.55,66.93,34.16,1.11.48,30.88,17.47,31.14,18.27.53,1.67,68.57,42.9,67.15,45.25-2.34,3.9,129,83.64,133.32,87.87l-.54-.24c-4.91-3.32-137.79-84-135.43-87.88,1.41-2.35-66-43.23-66.55-44.87-.25-.79-29.51-17.49-30.6-18-3.69-1.59-65.3-34.6-66.09-33.73-.38.41-16.2-7.94-16.74-7.92,0,0-.49-.26-.51-.26-.88,0-56.78-31.57-59-33.63-.39-.37-15.34-8.85-15.72-9.05-.57-.31-18.87-10.41-19.43-10.35-1.93.22-81.93-41.38-83.67-38.77-2.46,3.69-132.33-63.59-136.6-64.82-2.19-.63-54.47-31.87-54.14-33.83C423.75,116.9,320.91,55.47,316,53Z"/></g><g class="cls-10"><path class="cls-9" d="M315.4,54.49c10,4.91,108.22,67.42,107.31,72.74-.68,4,48.08,34.9,52.37,36.13,8.46,2.43,134.18,61.68,139.07,54.35,3.49-5.24,81.72,31.94,85.63,31.49,1.08-.12,18.58,9.33,19.69,9.9.81.41,16.44,9.34,17.27,10.13,4.37,4.13,59,35.14,60.74,35.08,1,0,15.94,7.28,16.68,6.48,1.6-1.77,61.94,28.84,69.38,32.06,2.21.95,31.19,17.74,31.7,19.34,1.07,3.34,64.3,44.85,61.46,49.56C972,419.54,1094,499.93,1103.21,507.4l-.55-.19c-9.82-6.63-133.24-87.91-128.53-95.74,2.83-4.69-59.83-45.84-60.89-49.14-.5-1.57-29-18.07-31.16-19-7.37-3.18-66.94-33.41-68.52-31.67-.75.83-16.12-6.74-17.21-6.7,0,0-.5-.24-.53-.24-1.76,0-56.25-30.93-60.61-35-.78-.73-15.39-9.09-16.14-9.5-1.14-.61-19.11-10.34-20.22-10.21-3.86.44-81.59-36.49-85.07-31.27-4.91,7.37-131.21-52.16-139.76-54.62-4.37-1.26-53.74-32.71-53.07-36.61.9-5.29-96.2-67.1-106.1-72Z"/></g><g class="cls-11"><path class="cls-12" d="M314.28,56.93c15,7.36,107.41,70.24,106.05,78.22-1,6,44.86,37,51.29,38.88,12.7,3.65,134.87,55.19,142.2,44.18,5.24-7.86,81.17,24.63,87,24,1.62-.18,18.8,8.89,20.46,9.75,1.21.62,16.47,9.41,17.73,10.6,6.55,6.18,59.83,36.57,62.39,36.47,1.56-.06,16,6.49,17.14,5.28,2.4-2.64,60.67,25.15,71.83,30,3.31,1.42,31.49,18,32.26,20.42,1.61,5,60,46.79,55.77,53.85-7,11.69,105.57,92.73,119.7,103.44l-.55-.13C1082.86,501.87,968.88,420,976,408.22c4.24-7-53.65-48.47-55.24-53.41-.75-2.35-28.46-18.66-31.72-20.07-11.06-4.77-68.57-32.21-70.94-29.61-1.13,1.24-16-5.53-17.69-5.47,0,0-.5-.23-.55-.23-2.65,0-55.72-30.28-62.27-36.46-1.17-1.11-15.43-9.34-16.55-10-1.71-.92-19.35-10.27-21-10.08-5.79.66-81.24-31.6-86.46-23.77-7.37,11.05-130.1-40.73-142.91-44.42-6.57-1.88-53-33.54-52-39.4,1.35-7.93-90-70.12-104.87-77.43Z"/></g><g class="cls-13"><path class="cls-14" d="M313.16,59.37c19.94,9.82,106.6,73.07,104.78,83.71-1.37,8,41.66,39.16,50.23,41.62,16.93,4.87,135.54,48.69,145.33,34,7-10.48,80.62,17.31,88.44,16.42,2.16-.24,19,8.46,21.24,9.6,1.61.83,16.5,9.48,18.18,11.06,8.73,8.25,60.63,38,64,37.87,2.09-.08,16.12,5.7,17.6,4.09,3.2-3.53,59.39,21.44,74.28,27.87,4.41,1.9,31.8,18.29,32.82,21.49,2.15,6.68,55.76,48.74,50.08,58.16-9.38,15.58,93.86,97.26,112.89,111.21l-.55-.06c-19.65-13.27-124.17-95.8-114.74-111.46,5.65-9.38-47.46-51.1-49.58-57.68-1-3.14-27.93-19.26-32.27-21.13-14.75-6.37-70.22-31-73.38-27.55-1.5,1.65-16-4.33-18.15-4.24-.07,0-.52-.22-.59-.22-3.52,0-55.18-29.63-63.91-37.88-1.56-1.47-15.47-9.58-17-10.39-2.28-1.24-19.59-10.2-21.81-9.95-7.72.88-80.9-26.71-87.86-16.28-9.82,14.74-129-29.29-146.06-34.2-8.76-2.52-52.29-34.39-51-42.19,1.81-10.57-83.83-73.15-103.63-82.9Z"/></g><g class="cls-15"><path class="cls-16" d="M312,61.81C337,74.08,417.83,137.7,415.55,151c-1.71,10,38.45,41.29,49.17,44.37,21.16,6.08,136.22,42.19,148.45,23.84,8.73-13.1,80.07,10,89.85,8.89,2.7-.3,19.24,8,22,9.44,2,1,16.53,9.56,18.63,11.54,10.92,10.3,61.44,39.42,65.7,39.26,2.61-.1,16.22,4.91,18.06,2.89,4-4.4,58.12,17.74,76.73,25.77,5.51,2.38,32.1,18.58,33.39,22.58,2.67,8.35,51.47,50.68,44.38,62.45-11.73,19.48,82.16,101.81,106.08,119h-.55c-24.56-16.59-119.64-99.74-107.84-119.32,7.06-11.72-41.29-53.73-43.93-62-1.26-3.92-27.4-19.84-32.83-22.18-18.43-8-71.85-29.83-75.81-25.49-1.88,2.06-15.9-3.12-18.62-3-.08,0-.53-.2-.61-.2-4.4,0-54.65-29-65.57-39.29-2-1.84-15.51-9.82-17.39-10.84-2.84-1.55-19.82-10.13-22.59-9.82-9.66,1.1-80.56-21.83-89.26-8.78-12.28,18.42-127.87-17.86-149.22-24-10.94-3.15-51.56-35.22-49.89-45C416.15,138,336.25,75,311.49,62.8Z"/></g><g class="cls-17"><path class="cls-16" d="M310.92,64.25C340.83,79,415.9,143,413.17,158.93c-2.06,12,35.24,43.42,48.09,47.12,25.4,7.3,136.91,35.69,151.58,13.68,10.48-15.72,79.53,2.69,91.26,1.36,3.24-.37,19.46,7.57,22.78,9.28,2.42,1.25,16.57,9.63,19.09,12,13.09,12.37,62.24,40.86,67.35,40.66,3.13-.12,16.31,4.12,18.51,1.7,4.81-5.29,56.86,14,79.19,23.67,6.61,2.86,32.41,18.85,34,23.66,3.21,10,47.2,52.62,38.69,66.75-14.08,23.37,70.45,106.35,99.27,126.78l-.56,0C1052.9,505.74,967.28,422,981.43,398.47c8.47-14.07-35.1-56.35-38.27-66.23-1.51-4.71-26.87-20.43-33.39-23.25-22.12-9.54-73.49-28.63-78.23-23.42-2.26,2.48-15.83-1.92-19.09-1.79-.1,0-.54-.19-.64-.19-5.29,0-54.12-28.34-67.22-40.7-2.34-2.21-15.56-10.07-17.81-11.29-3.41-1.86-20.06-10.07-23.39-9.69-11.58,1.32-80.21-16.94-90.64-1.28C598,242.73,486,214.2,460.37,206.83c-13.14-3.77-50.84-36.05-48.83-47.76,2.71-15.86-71.46-79.21-101.16-93.83Z"/></g><g class="cls-18"><path class="cls-19" d="M309.8,66.69c34.9,17.18,104.17,81.54,101,100.17-2.4,14,32,45.55,47,49.86,29.64,8.52,137.58,29.19,154.7,3.51,12.23-18.34,79-4.62,92.67-6.17,3.79-.43,19.68,7.14,23.55,9.13,2.83,1.46,16.61,9.7,19.54,12.47,15.28,14.42,63.05,42.28,69,42,3.65-.14,16.39,3.33,19,.5,5.61-6.16,55.58,10.33,81.64,21.58,7.71,3.33,32.71,19.13,34.51,24.73,3.75,11.69,42.93,54.57,33,71.05-16.42,27.27,58.75,110.9,92.47,134.57l-.57.11c-34.38-23.22-110.56-107.63-94-135,9.89-16.41-28.91-59-32.61-70.5-1.76-5.5-26.34-21-33.95-24.31C890.89,289.27,841.56,273,836,279.05c-2.63,2.89-15.75-.71-19.56-.57-.11,0-.55-.17-.66-.17-6.17,0-53.59-27.69-68.88-42.12-2.73-2.58-15.59-10.31-18.22-11.73-4-2.17-20.3-10-24.18-9.56-13.52,1.54-79.87-12.05-92,6.21-17.19,25.79-125.64,5-155.54-3.59-15.32-4.4-50.1-36.89-47.77-50.55,3.17-18.5-65.27-82.23-99.92-99.29Z"/></g><g class="cls-20"><path class="cls-21" d="M308.68,69.13C348.57,88.76,412,153.5,408.39,174.79c-2.74,16,28.82,47.68,46,52.6,33.87,9.74,138.26,22.7,157.83-6.65,14-21,78.43-11.93,94.07-13.71,4.33-.49,19.9,6.7,24.33,9,3.22,1.66,16.63,9.77,20,12.93,17.46,16.49,63.85,43.71,70.67,43.45,4.17-.16,16.48,2.54,19.42-.69,6.41-7.05,54.31,6.63,84.08,19.48,8.82,3.8,33,19.41,35.08,25.81,4.29,13.35,38.66,56.51,27.31,75.35-18.77,31.16,47,115.43,85.66,142.35l-.57.17c-39.3-26.53-106-111.57-87.15-142.89,11.3-18.76-22.73-61.61-27-74.78-2-6.27-25.82-21.61-34.51-25.36-29.49-12.73-76.76-26.25-83.08-19.3-3,3.3-15.68.49-20,.66-.13,0-.55-.16-.68-.16-7,0-53.06-27-70.53-43.53-3.12-2.95-15.64-10.56-18.64-12.19-4.56-2.47-20.54-9.92-25-9.41-15.44,1.75-79.52-7.17-93.43,13.7C592.58,251.08,487.7,238,453.54,228.22c-17.51-5-49.38-37.73-46.71-53.34,3.62-21.15-59.09-85.26-98.69-104.76Z"/></g><g class="cls-22"><path class="cls-21" d="M307.56,71.56c44.87,22.1,102.54,87.2,98.45,111.15-3.09,18,25.61,49.81,44.9,55.36,38.1,11,138.94,16.19,161-16.83C627.57,197.66,689.74,202,707.34,200c4.87-.55,20.12,6.26,25.1,8.83,3.63,1.87,16.67,9.84,20.44,13.4,19.65,18.54,64.66,45.14,72.33,44.84,4.7-.18,16.57,1.75,19.88-1.89,7.21-7.93,53,2.93,86.53,17.39,9.92,4.28,33.33,19.68,35.64,26.88,4.82,15,34.39,58.46,21.62,79.65-21.12,35,35.34,120,78.85,150.14l-.58.23C1023,509.62,965.68,424,986.9,388.72c12.71-21.11-16.54-64.23-21.3-79.05-2.26-7.06-25.29-22.2-35.06-26.42C897.36,268.93,852.13,258.19,845,266c-3.39,3.72-15.61,1.7-20.5,1.88-.15,0-.57-.14-.72-.14-7.93,0-52.52-26.4-72.17-44.95-3.52-3.31-15.69-10.8-19.06-12.63-5.13-2.78-20.78-9.85-25.77-9.28-17.38,2-79.18-2.29-94.83,21.2-22.1,33.16-123.41,27.87-161.84,16.82-19.71-5.66-48.66-38.57-45.65-56.13C408.55,159,351.58,94.5,307,72.56Z"/></g><g class="cls-23"><path class="cls-24" d="M306.44,74c49.86,24.55,101.73,90,97.18,116.64-3.43,20.05,22.4,51.94,43.83,58.1,42.34,12.16,139.62,9.7,164.08-27C629,195.55,688.86,195.19,708.42,193c5.41-.62,20.34,5.83,25.87,8.68,4,2.07,16.7,9.9,20.9,13.86,21.83,20.61,65.46,46.57,74,46.24,5.22-.2,16.66,1,20.34-3.09,8-8.8,51.76-.77,89,15.3,11,4.75,33.63,20,36.2,28,5.36,16.7,30.12,60.4,15.93,83.95-23.46,38.94,23.63,124.52,72,157.92l-.58.28c-49.12-33.16-96.94-119.45-73.35-158.61,14.12-23.44-10.36-66.85-15.65-83.31-2.51-7.85-24.76-22.79-35.62-27.48-36.86-15.92-80-23.86-88-15.18-3.76,4.13-15.53,2.9-21,3.11-.16,0-.58-.13-.74-.13-8.81,0-52-25.75-73.83-46.36-3.9-3.68-15.73-11-19.48-13.08-5.69-3.09-21-9.78-26.55-9.15-19.31,2.19-78.84,2.6-96.23,28.69-24.56,36.85-122.29,39.31-165,27-21.89-6.29-47.92-39.4-44.58-58.91,4.52-26.44-46.72-91.32-96.22-115.69Z"/></g><g class="cls-25"><path class="cls-26" d="M305.32,76.44c54.84,27,100.92,92.85,95.91,122.13-3.77,22.05,19.2,54.06,42.77,60.84,46.57,13.38,140.3,3.2,167.2-37.16,19.21-28.82,76.79-33.86,98.3-36.31,6-.68,20.56,5.39,26.64,8.52,4.44,2.29,16.74,10,21.35,14.34,24,22.66,66.27,48,75.64,47.63,5.74-.22,16.75.17,20.79-4.28,8.82-9.69,50.5-4.48,91.44,13.19,12.12,5.24,33.94,20.24,36.77,29.05,5.89,18.36,25.84,62.34,10.23,88.24-25.81,42.84,11.93,129.07,65.23,165.7l-.58.35c-54-36.48-92.4-123.4-66.46-166.47,15.53-25.79-4.18-69.48-10-87.59-2.77-8.63-24.23-23.38-36.18-28.53C903.83,248.58,862.7,243.42,854,253c-4.14,4.54-15.46,4.11-21.45,4.33-.17,0-.58-.11-.76-.11-9.69,0-51.47-25.11-75.48-47.78-4.3-4-15.77-11.28-19.9-13.52-6.26-3.4-21.25-9.72-27.35-9-21.24,2.41-78.49,7.49-97.62,36.19-27,40.53-121.18,50.74-168.15,37.23-24.08-6.92-47.2-40.23-43.53-61.7,5-29.08-40.53-94.34-95-121.15Z"/></g><g class="cls-27"><path class="cls-28" d="M304.2,78.88c59.83,29.46,100.11,95.68,94.64,127.61-4.11,24.06,16,56.2,41.71,63.59,50.8,14.6,141-3.3,170.33-47.33,21-31.43,76.23-41.17,99.7-43.84,6.49-.74,20.77,5,27.42,8.37,4.84,2.5,16.77,10.05,21.8,14.8,26.19,24.73,67.07,49.43,77.3,49,6.26-.24,16.83-.63,21.24-5.48,9.62-10.56,49.23-8.18,93.89,11.1,13.22,5.71,34.24,20.52,37.33,30.12,6.43,20,21.56,64.29,4.54,92.55-28.15,46.73.23,133.6,58.42,173.48l-.59.41C993,513.49,964.07,425.94,992.37,379c17-28.13,2-72.11-4.33-91.86-3-9.42-23.7-24-36.74-29.6C907.07,238.41,868,236,858.5,246.44c-4.51,5-15.38,5.32-21.91,5.57-.2,0-.6-.11-.79-.11-10.58,0-50.94-24.45-77.14-49.18-4.68-4.42-15.81-11.53-20.31-14-6.83-3.71-21.49-9.65-28.14-8.89-23.17,2.63-78.15,12.38-99,43.69C581.73,267.76,491.13,285.72,439.89,271c-26.28-7.55-46.47-41.08-42.47-64.49,5.43-31.73-34.34-97.37-93.75-126.62Z"/></g><g class="cls-29"><path class="cls-28" d="M303.08,81.32c64.82,31.92,99.3,98.5,93.38,133.1-4.46,26.07,12.77,58.33,40.63,66.34,55,15.81,141.67-9.8,173.46-57.5,22.7-34.06,75.69-48.49,101.11-51.38,7-.8,21,4.52,28.19,8.22,5.24,2.7,16.8,10.12,22.26,15.27,28.37,26.78,67.87,50.85,78.95,50.42,6.78-.26,16.92-1.42,21.7-6.67,10.42-11.45,48-11.89,96.34,9,14.32,6.18,34.55,20.79,37.89,31.2,7,21.7,17.29,66.22-1.15,96.84-30.5,50.63-11.48,138.15,51.61,181.27l-.59.47C983,514.78,963.54,426.61,994.2,375.71c18.36-30.48,8.19-74.73,1.32-96.13-3.27-10.2-23.17-24.56-37.3-30.66-47.92-20.69-85-20.28-95.23-9-4.88,5.38-15.31,6.53-22.38,6.8-.21,0-.6-.1-.81-.1-11.46,0-50.41-23.8-78.79-50.59-5.08-4.79-15.86-11.78-20.73-14.42-7.4-4-21.73-9.58-28.93-8.76-25.11,2.85-77.81,17.27-100.41,51.18-31.93,47.9-119,73.61-174.47,57.65-28.46-8.18-45.74-41.91-41.4-67.28C401,180,366.91,114,302.56,82.33Z"/></g><g class="cls-30"><path class="cls-31" d="M302,83.76c69.8,34.37,98.49,101.33,92.11,138.59-4.8,28.07,9.57,60.45,39.57,69.08,59.27,17,142.34-16.3,176.58-67.67,24.45-36.67,75.14-55.79,102.52-58.9,7.57-.87,21.21,4.07,29,8.06,5.65,2.91,16.84,10.19,22.71,15.73C795,217.5,833.09,240.93,845,240.47c7.3-.28,17-2.21,22.16-7.87C878.4,220.28,913.86,217,966,239.51c15.42,6.66,34.85,21.07,38.45,32.27,7.5,23.38,13,68.17-6.84,101.15C964.73,427.45,974.4,515.62,1042.39,562l-.6.52C973,516.07,963,427.27,996,372.46c19.77-32.82,14.38-77.36,7-100.41-3.52-11-22.64-25.14-37.85-31.71-51.61-22.28-86.6-19.09-97.66-6.94-5.27,5.79-15.24,7.73-22.86,8-.22,0-.61-.08-.84-.08-12.33,0-49.87-23.16-80.44-52-5.46-5.16-15.89-12-21.14-14.87-8-4.32-22-9.5-29.73-8.62-27,3.07-77.46,22.15-101.8,58.68-34.38,51.58-117.84,85-177.62,67.85-30.65-8.81-45-42.74-40.34-70.06,6.33-37-22-103.42-91.28-137.54Z"/></g><g class="cls-32"><path class="cls-33" d="M300.84,86.2c74.79,36.82,97.67,104.15,90.84,144.07-5.14,30.08,6.36,62.59,38.51,71.83,63.5,18.25,143-22.79,179.7-77.83,26.2-39.3,74.6-63.11,103.94-66.44,8.1-.93,21.42,3.63,29.72,7.91,6.06,3.12,16.87,10.26,23.17,16.2,32.74,30.91,69.48,53.7,82.26,53.21,7.83-.3,17.1-3,22.62-9.06,12-13.21,45.41-19.29,101.24,4.81,16.52,7.13,35.16,21.35,39,33.35,8,25,8.75,70.11-12.53,105.44-35.19,58.42-34.89,147.24,38,196.84l-.61.58c-73.67-49.75-74.24-139.18-38.87-197.9,21.19-35.17,20.57-80,12.64-104.68-3.77-11.77-22.12-25.74-38.41-32.77-55.29-23.87-88.24-17.9-100.09-4.88-5.64,6.2-15.16,8.94-23.32,9.25-.24,0-.62-.07-.87-.07-13.22,0-49.34-22.51-82.09-53.42-5.85-5.53-15.94-12.26-21.56-15.32-8.55-4.63-22.21-9.43-30.52-8.49-29,3.29-77.12,27-103.2,66.18-36.84,55.26-116.72,96.47-180.78,78.05-32.84-9.43-44.28-43.58-39.28-72.85,6.79-39.65-15.79-106.45-90-143Z"/></g><g class="cls-34"><path class="cls-33" d="M299.72,88.64c79.78,39.28,96.86,107,89.58,149.56-5.49,32.08,3.15,64.72,37.44,74.57,67.73,19.47,143.7-29.29,182.83-88,27.93-41.91,74-70.41,105.34-74,8.65-1,21.64,3.2,30.5,7.76A120.64,120.64,0,0,1,769,175.22c34.93,33,70.29,55.14,83.92,54.61,8.35-.32,17.19-3.79,23.08-10.26,12.82-14.09,44.13-23,103.68,2.72,17.63,7.61,35.47,21.62,39.58,34.43,8.58,26.71,4.48,72-18.22,109.74-37.54,62.31-46.59,151.77,31.19,204.62l-.61.64c-78.59-53.07-69.71-143.12-32-205.76,22.59-37.52,26.75-82.61,18.29-108.95-4-12.56-21.59-26.33-39-33.83-59-25.47-89.87-16.71-102.52-2.82-6,6.61-15.08,10.14-23.79,10.47-.26,0-.63-.05-.89-.05-14.1,0-48.81-21.86-83.75-54.84a122.16,122.16,0,0,0-22-15.76c-9.11-4.94-22.44-9.37-31.31-8.36-30.89,3.51-76.76,31.93-104.59,73.67-39.29,58.95-115.6,107.91-183.93,88.27-35-10.07-43.56-44.42-38.22-75.64,7.24-42.3-9.6-109.48-88.8-148.47Z"/></g><g class="cls-35"><path class="cls-36" d="M298.6,91.08c84.76,41.73,96,109.8,88.31,155.05-5.83,34.08-.06,66.84,36.37,77.31,72,20.69,144.38-35.78,186-98.16,29.68-44.54,73.5-77.73,106.75-81.51,9.19-1.05,21.86,2.76,31.27,7.61a118.85,118.85,0,0,1,24.07,17.13c37.11,35,71.09,56.56,85.58,56a33.83,33.83,0,0,0,23.52-11.45c13.63-15,42.87-26.7,106.14.61,18.73,8.09,35.78,21.91,40.15,35.51,9.1,28.38.2,74-23.92,114-39.89,66.21-58.3,156.32,24.38,212.41l-.61.7c-83.5-56.39-65.17-147.07-25.08-213.62,24-39.86,32.94-85.24,24-113.23-4.28-13.33-21.06-26.91-39.53-34.89-62.66-27.05-91.51-15.51-104.94-.75a34.67,34.67,0,0,1-24.27,11.7c-.27,0-.64,0-.91,0-15,0-48.28-21.22-85.4-56.25A120.21,120.21,0,0,0,748,153c-9.68-5.25-22.68-9.3-32.1-8.23-32.83,3.73-76.42,36.82-106,81.17-41.74,62.64-114.49,119.34-187.08,98.47C385.59,313.75,380,279.19,385.66,246c7.69-44.94-3.42-112.5-87.57-153.93Z"/></g><g class="cls-37"><path class="cls-38" d="M297.48,93.52c89.75,44.19,95.24,112.63,87,160.53-6.17,36.09-3.27,69,35.31,80.07C496,356,564.89,291.83,608.91,225.78c31.43-47.15,73-85,108.16-89,9.73-1.11,22.08,2.32,32,7.45a118,118,0,0,1,24.52,17.6c39.29,37.09,71.9,58,87.24,57.4,9.39-.36,17.36-5.37,24-12.65,14.43-15.85,41.6-30.4,108.59-1.48,19.83,8.56,36.08,22.18,40.71,36.59,9.64,30-4.07,75.94-29.61,118.34-42.23,70.1-70,160.86,17.57,220.18l-.62.76c-88.41-59.7-60.63-151-18.17-221.48,25.42-42.2,39.11-87.86,29.6-117.49-4.53-14.12-20.53-27.51-40.08-36-66.36-28.64-93.15-14.31-107.38,1.31-6.77,7.44-14.94,12.55-24.73,12.92-.29,0-.65,0-1,0-15.85,0-47.74-20.57-87-57.67a119.15,119.15,0,0,0-22.82-16.65c-10.25-5.56-22.92-9.23-32.89-8.09-34.76,3.95-76.08,41.69-107.38,88.66C565.44,292.79,496.27,357.24,419.4,335.14c-39.41-11.32-42.1-46.09-36.09-81.21,8.14-47.59,2.76-115.53-86.34-159.4Z"/></g><g class="cls-39"><path class="cls-40" d="M296.36,96c94.74,46.64,94.43,115.46,85.78,166-6.52,38.1-6.48,71.11,34.24,82.81,80.43,23.11,145.74-48.79,192.2-118.5,33.18-49.77,72.41-92.35,109.57-96.58,10.27-1.17,22.3,1.89,32.81,7.3a116.76,116.76,0,0,1,25,18.07c41.47,39.15,72.7,59.42,88.89,58.79,9.91-.37,17.45-6.16,24.44-13.84,15.23-16.73,40.33-34.11,111-3.58,20.93,9,36.39,22.46,41.27,37.66,10.18,31.72-8.35,77.89-35.3,122.64-44.58,74-81.7,165.41,10.76,228l-.62.82c-93.33-63-56.09-154.95-11.28-229.34,26.83-44.54,45.3-90.48,35.26-121.76-4.78-14.91-20-28.1-40.64-37-70-30.23-94.79-13.12-109.8,3.37-7.15,7.85-14.87,13.76-25.21,14.15-.3,0-.66,0-1,0-16.74,0-47.21-19.92-88.7-59.08a117.77,117.77,0,0,0-23.23-17.1c-10.82-5.87-23.16-9.16-33.69-8C681.47,135,642.43,177.38,609.39,227,562.73,297,497.13,369.16,416,345.84c-41.6-12-41.38-46.93-35-84,8.6-50.23,9-118.55-85.1-164.86Z"/></g><g class="cls-41"><path class="cls-40" d="M295.24,98.4c99.72,49.1,93.62,118.28,84.51,171.51-6.86,40.1-9.69,73.23,33.17,85.55,84.67,24.33,146.42-55.28,195.34-128.67,34.92-52.39,71.85-99.66,111-104.11,10.81-1.23,22.52,1.45,33.59,7.15a116.2,116.2,0,0,1,25.42,18.53c43.66,41.21,73.51,60.85,90.55,60.19,10.44-.39,17.54-7,24.9-15,16-17.61,39-37.8,113.49-5.67,22,9.51,36.69,22.73,41.83,38.74,10.72,33.39-12.62,79.83-41,126.94-46.92,77.89-93.41,169.94,4,235.75l-.62.88C913.11,523.82,959.8,431.25,1007,353c28.25-46.89,51.49-93.11,40.92-126-5-15.7-19.47-28.69-41.2-38.07C933,157,910.25,176.92,894.45,194.28c-7.52,8.26-14.79,15-25.67,15.37-.33,0-.67,0-1,0-17.62,0-46.68-19.28-90.35-60.49a117.36,117.36,0,0,0-23.65-17.55c-11.39-6.19-23.4-9.1-34.48-7.83-38.62,4.39-75.39,51.47-110.17,103.65C560,301.13,498,381.08,412.57,356.53c-43.79-12.59-40.65-47.77-34-86.79,9-52.88,15.14-121.59-83.86-170.33Z"/></g><path class="cls-42" d="M1006.27,594.76c-103.15-69.65-47-162.84,2.52-245.06,29.65-49.24,57.67-95.74,46.57-130.31-5.28-16.48-18.95-29.27-41.76-39.12-77.41-33.42-98.06-10.74-114.66,7.49-7.89,8.68-14.71,16.17-26.14,16.6l-1,0c-18.5,0-46.16-18.63-92-61.91-20.64-19.48-40-27.89-59.34-25.69-40.55,4.61-75,56.36-111.56,111.15C557.3,305.3,498.84,393,409.16,367.22c-46-13.21-39.92-48.6-32.91-89.58,9.5-55.51,21.32-124.61-82.63-175.79l.5-1c104.71,51.55,92.81,121.11,83.24,177-7.2,42.11-12.89,75.37,32.11,88.3,88.9,25.55,147.1-61.78,198.46-138.83,36.67-55,71.3-107,112.38-111.64,19.62-2.24,39.34,6.26,60.24,26,45.84,43.27,74.31,62.27,92.2,61.58,11-.41,17.63-7.74,25.36-16.23,16.83-18.49,37.78-41.51,115.94-7.77,23.13,10,37,23,42.39,39.82,11.25,35-16.89,81.77-46.69,131.23-49.26,81.79-105.1,174.49-2.84,243.54Z"/></g></g></g></g></g></svg>