<svg xmlns="http://www.w3.org/2000/svg" xmlns:xlink="http://www.w3.org/1999/xlink" viewBox="0 0 484.62 426.58"><defs><style>.cls-1{fill:none;}.cls-2{clip-path:url(#clip-path);}.cls-3{fill:#f3f1ec;}.cls-4{fill:#fff;}.cls-5{fill:#ddcdaf;}.cls-6{opacity:0.82;}.cls-7{opacity:0.86;}.cls-8{font-size:57.41px;font-family:AraHamahKilania-Regular, Ara Hamah Kilania;}</style><clipPath id="clip-path"><path class="cls-1" d="M425.81,177.49a28.27,28.27,0,0,1,11.33,10.88A29.08,29.08,0,0,1,441,202.9a28.53,28.53,0,0,1-10,21.83L227.27,400.06,108.76,304.49c28.52-4.32,53.83-16.58,75-31.05,26.45-18.12,46.65-39.81,59.23-55.12,18.46-22.48,42.15-40,69.2-49.69a139.57,139.57,0,0,1,47.16-8.42c26.19,0,48.78,7.84,66.48,17.28"/></clipPath></defs><g id="Layer_2" data-name="Layer 2"><g id="Layer_1-2" data-name="Layer 1"><g class="cls-2"><rect class="cls-3" x="47.19" y="134.96" width="437.42" height="291.62"/><g id="Maternity_services" data-name="Maternity services"><path d="M287.84,198.43l13.67-7.16a147.5,147.5,0,0,0,30.76-21.5l1.08-3.71s5,.19,6,.11a4.73,4.73,0,0,1,3.61,1.24A161.41,161.41,0,0,0,377.67,191l9.18,4.49c2.13,1,3,2.95,2.39,5.75l-10.53,50.31c-4.78,14.12-25,33.38-36.47,43.42a11.25,11.25,0,0,1-7.23,2.82c-1.15,0-5.89.29-5.89.29a15.55,15.55,0,0,0-2.43-3.29c-10.77-10.39-29.72-30.43-33.87-46.5l-7.36-44.53A4.71,4.71,0,0,1,287.84,198.43Z"/><path class="cls-4" d="M282.6,198.84l13.56-7.11a146.21,146.21,0,0,0,30.52-21.33l3.46-3.15a4.69,4.69,0,0,1,6.34,0,146.38,146.38,0,0,0,35.25,24.2l9.11,4.45a4.7,4.7,0,0,1,2.38,5.71l-10.45,49.92c-4.75,14-25.07,33.3-36.41,43.27a11.23,11.23,0,0,1-15.21-.36c-10.69-10.31-29.49-30.2-33.61-46.14l-7.3-44.18A4.66,4.66,0,0,1,282.6,198.84Z"/><path d="M329,298a11.58,11.58,0,0,1-8.06-3.23c-10.81-10.43-29.57-30.32-33.71-46.31l-7.31-44.21a5,5,0,0,1,2.55-5.71l13.57-7.1a146,146,0,0,0,30.44-21.28L329.9,167a5,5,0,0,1,6.83,0,145.36,145.36,0,0,0,35.16,24.14l9.11,4.46a5.07,5.07,0,0,1,2.57,6.13l-10.45,49.89s0,0,0,0c-4.76,14-24.92,33.23-36.51,43.43A11.55,11.55,0,0,1,329,298ZM282.6,198.84l.17.32a4.29,4.29,0,0,0-2.18,4.91l7.31,44.21c4.08,15.79,22.74,35.56,33.5,45.94a10.93,10.93,0,0,0,14.72.35c11.54-10.15,31.58-29.23,36.3-43.1l10.44-49.89a.06.06,0,0,0,0,0,4.32,4.32,0,0,0-2.19-5.27l-9.11-4.46a146.55,146.55,0,0,1-35.34-24.26,4.29,4.29,0,0,0-5.84,0l-3.47,3.15a146.25,146.25,0,0,1-30.59,21.38l-13.56,7.11Z"/><path class="cls-5" d="M291.19,204.51l11.24-5.89A120.64,120.64,0,0,0,327.69,181l2.87-2.6a3.88,3.88,0,0,1,5.25,0,120.64,120.64,0,0,0,29.18,20l7.54,3.69a3.87,3.87,0,0,1,2,4.73l-8.65,41.33c-3.93,11.6-20.75,27.57-30.14,35.82a9.29,9.29,0,0,1-12.59-.29c-8.85-8.54-24.42-25-27.83-38.21l-6.05-36.58A3.88,3.88,0,0,1,291.19,204.51Z"/><path class="cls-5" d="M329.58,286.65a9.63,9.63,0,0,1-6.71-2.69c-9-8.64-24.51-25.12-27.93-38.38L288.88,209a4.2,4.2,0,0,1,2.15-4.78l11.23-5.89a120.6,120.6,0,0,0,25.19-17.61l2.87-2.6a4.2,4.2,0,0,1,5.73,0,120.64,120.64,0,0,0,29.1,20l7.54,3.69a4.24,4.24,0,0,1,2.16,5.15l-8.65,41.3s0,0,0,0c-3.94,11.63-20.64,27.54-30.24,36A9.59,9.59,0,0,1,329.58,286.65Zm3.59-108.95a3.54,3.54,0,0,0-2.37.92l-2.86,2.61a121.07,121.07,0,0,1-25.35,17.71l-11.23,5.89h0a3.5,3.5,0,0,0-1.77,4l6.05,36.61c3.38,13.06,18.82,29.42,27.73,38a9,9,0,0,0,12.1.28c9.54-8.39,26.13-24.18,30-35.65l8.65-41.3s0,0,0-.05a3.5,3.5,0,0,0-1.79-4.28l-7.54-3.69a121.57,121.57,0,0,1-29.27-20.1A3.52,3.52,0,0,0,333.17,177.7Zm-42,26.81h0Z"/><path class="cls-4" d="M357.63,219.4H342.79l.74-15a2.82,2.82,0,0,0-2.82-3h-13a2.81,2.81,0,0,0-2.81,2.64l-.76,15.4h-15a2.82,2.82,0,0,0-2.82,2.65l-.41,12.7a2.83,2.83,0,0,0,2.82,3h14.47l-.72,14.72a2.82,2.82,0,0,0,2.81,3h13a2.83,2.83,0,0,0,2.82-2.64l.74-15.09h15.33A2.82,2.82,0,0,0,360,235.1l.41-12.71A2.82,2.82,0,0,0,357.63,219.4Z"/><path d="M338.33,255.84h-13a3.15,3.15,0,0,1-2.32-1,3.11,3.11,0,0,1-.85-2.38l.7-14.34H308.74a3.18,3.18,0,0,1-3.18-3.38L306,222a3.2,3.2,0,0,1,3.18-3h14.62l.74-15.05a3.18,3.18,0,0,1,3.17-3h13a3.2,3.2,0,0,1,3.18,3.39L343.17,219h14.46a3.2,3.2,0,0,1,3.18,3.38l-.41,12.7a3.19,3.19,0,0,1-3.18,3h-15l-.72,14.74A3.2,3.2,0,0,1,338.33,255.84Zm-29.18-36.08a2.45,2.45,0,0,0-2.45,2.31l-.41,12.7a2.4,2.4,0,0,0,.66,1.84,2.45,2.45,0,0,0,1.79.78h14.47a.36.36,0,0,1,.26.11.34.34,0,0,1,.1.27l-.72,14.72a2.46,2.46,0,0,0,2.45,2.63h13a2.47,2.47,0,0,0,2.45-2.31l.75-15.08a.35.35,0,0,1,.36-.34h15.33a2.47,2.47,0,0,0,2.46-2.32l.41-12.69a2.46,2.46,0,0,0-.67-1.85,2.42,2.42,0,0,0-1.79-.77H342.79a.35.35,0,0,1-.26-.11.35.35,0,0,1-.1-.27l.74-15a2.45,2.45,0,0,0-.67-1.85,2.42,2.42,0,0,0-1.79-.77h-13a2.46,2.46,0,0,0-2.45,2.3l-.76,15.39a.36.36,0,0,1-.36.35Z"/><path d="M295.81,276.62s-1.14,15.81,12.72,30.77,19.5,14.72,19.19,38.46l-25.94,2.85a7,7,0,0,1-4.87-1.32,4.28,4.28,0,0,1-1.72-3.25c-1.07-19.12-7.12-21.45-18.73-31.07-12.15-10.06-13.18-24.51-13-30.33a2.81,2.81,0,0,1,2.37-2.81Z"/><path class="cls-4" d="M325.09,348.52h0a1.48,1.48,0,0,1-1.42-1.55c0-13-.17-18.07-.71-24.07-.5-5.6-1.17-9-9-13.78-1.63-1-2.39-.49-2.63-.32-2.71,1.81-3.47,11.09-3.31,16.52a1.52,1.52,0,0,1-1.39,1.62,1.5,1.5,0,0,1-1.48-1.52,68.15,68.15,0,0,1,.35-8.08c.66-6,2.07-9.7,4.34-11.21,1.1-.74,3-1.29,5.51.26,8.86,5.4,9.89,9.93,10.46,16.22.55,6.11.77,11.3.72,24.37A1.49,1.49,0,0,1,325.09,348.52Z"/><path d="M325.09,348.7h0a1.54,1.54,0,0,1-1.1-.46,1.77,1.77,0,0,1-.51-1.27c.06-13.21-.18-18.28-.7-24.05-.5-5.54-1.16-8.91-8.92-13.64-1.53-.93-2.21-.48-2.43-.33-2.65,1.77-3.39,11-3.23,16.37a1.71,1.71,0,0,1-1.56,1.8,1.55,1.55,0,0,1-1.11-.42,1.86,1.86,0,0,1-.56-1.27,66.23,66.23,0,0,1,.35-8.11c.66-6.09,2.11-9.8,4.42-11.35,1.15-.76,3.07-1.34,5.71.27,8.93,5.44,10,10,10.54,16.35.53,5.9.77,11.05.72,24.39A1.65,1.65,0,0,1,325.09,348.7Zm-12.88-40.36A3.61,3.61,0,0,1,314,309c7.91,4.82,8.58,8.26,9.09,13.92s.76,10.86.71,24.08a1.41,1.41,0,0,0,.4,1,1.19,1.19,0,0,0,.84.36h0a1.31,1.31,0,0,0,1.25-1.36c.05-13.33-.19-18.47-.72-24.36-.56-6.23-1.59-10.72-10.37-16.07-2.48-1.51-4.26-1-5.32-.27-2.22,1.48-3.61,5.1-4.26,11.08a64.27,64.27,0,0,0-.34,8.06,1.43,1.43,0,0,0,.44,1,1.19,1.19,0,0,0,.84.33,1.34,1.34,0,0,0,1.21-1.43c-.16-5.47.62-14.83,3.4-16.68A1.61,1.61,0,0,1,312.21,308.34Z"/><path class="cls-4" d="M312.54,306.77c-12.83-10.43-13.43-21-13-25.25a3.69,3.69,0,0,0-1.37-3.27L296,276.62,265.78,280a2.45,2.45,0,0,0-2.08,2.26h0a2.08,2.08,0,0,1,2.64,0,2.91,2.91,0,0,1,1.09,2.43c-.18,4.13.53,16,12.91,26.74,15.58,13.48,18.38,13.32,19.06,34.63a2.31,2.31,0,0,0,2.44,2.34l28.08-3.09a2.13,2.13,0,0,0,1.81-2.18C331.81,321.16,327.72,319.1,312.54,306.77Z"/><path d="M301.63,348.49a2.25,2.25,0,0,1-1.5-.57,2.66,2.66,0,0,1-.9-1.95c-.61-18.92-3-20.92-14.36-30.55-1.38-1.17-2.95-2.49-4.64-3.95A37.71,37.71,0,0,1,269,295.55a29.77,29.77,0,0,1-1.75-11,2.72,2.72,0,0,0-1-2.29,1.93,1.93,0,0,0-2.42,0,.17.17,0,0,1-.2,0,.16.16,0,0,1-.1-.17,2.63,2.63,0,0,1,2.24-2.42L296,276.44a.19.19,0,0,1,.13,0l2.13,1.63a3.9,3.9,0,0,1,1.44,3.43c-.37,4.08.14,14.67,13,25.1l2.35,1.9c6.56,5.3,10.89,8.79,13.47,13.49s3.49,10.47,3.45,21a2.31,2.31,0,0,1-2,2.36l-28.08,3.09Zm-36.57-67a2.3,2.3,0,0,1,1.4.48,3.07,3.07,0,0,1,1.16,2.59c-.19,4.49.68,16.06,12.85,26.59,1.69,1.46,3.25,2.79,4.63,3.95,11.49,9.72,13.88,11.74,14.49,30.82a2.35,2.35,0,0,0,.78,1.69,1.9,1.9,0,0,0,1.46.47L329.91,345a2,2,0,0,0,1.65-2c.06-20.61-3.51-23.49-16.79-34.22l-2.35-1.9c-13-10.54-13.48-21.28-13.1-25.41a3.53,3.53,0,0,0-1.3-3.11L296,276.81l-30.15,3.32a2.24,2.24,0,0,0-1.85,1.68A2.32,2.32,0,0,1,265.06,281.53Z"/><path d="M268.82,283.16a.18.18,0,0,1-.18-.16.19.19,0,0,1,.17-.2l28.06-3.09a.18.18,0,0,1,0,.36l-28.07,3.09Z"/><path class="cls-4" d="M291.32,352.7h0a1.59,1.59,0,0,1-1.43-1.65c.06-13-.16-18.13-.7-24.12-.5-5.61-1.17-9-9-13.81-1.63-1-2.39-.5-2.63-.34-2.71,1.81-3.47,11.09-3.32,16.52a1.44,1.44,0,1,1-2.86.09,68.15,68.15,0,0,1,.35-8.08c.65-6,2.07-9.71,4.34-11.22,1.1-.73,3-1.29,5.51.27,8.86,5.4,9.89,9.93,10.46,16.22.55,6.1.77,11.4.72,24.48A1.59,1.59,0,0,1,291.32,352.7Z"/><path d="M291.32,352.88h0a1.51,1.51,0,0,1-1.05-.45,2,2,0,0,1-.56-1.39c.06-13.24-.18-18.32-.7-24.1-.5-5.56-1.16-8.94-8.92-13.66-1.54-.95-2.21-.5-2.43-.35-2.65,1.77-3.39,11-3.23,16.36a1.71,1.71,0,0,1-1.56,1.8,1.5,1.5,0,0,1-1.11-.42,1.84,1.84,0,0,1-.56-1.27,66.23,66.23,0,0,1,.35-8.11c.66-6.09,2.1-9.8,4.42-11.35,1.15-.76,3.07-1.34,5.71.27,8.93,5.44,10,10,10.54,16.35.53,5.9.77,11.07.72,24.5A1.75,1.75,0,0,1,291.32,352.88Zm-12.9-40.55a3.67,3.67,0,0,1,1.85.63c7.91,4.82,8.58,8.27,9.09,14s.76,10.87.71,24.14a1.56,1.56,0,0,0,.45,1.12,1.12,1.12,0,0,0,.79.35h0a1.4,1.4,0,0,0,1.24-1.46c.06-13.42-.18-18.58-.71-24.47-.56-6.23-1.59-10.72-10.37-16.07-2.48-1.51-4.26-1-5.32-.27-2.22,1.47-3.61,5.1-4.26,11.08a64.27,64.27,0,0,0-.34,8.06,1.43,1.43,0,0,0,.44,1,1.19,1.19,0,0,0,.84.33,1.32,1.32,0,0,0,1.21-1.43c-.16-5.46.62-14.82,3.39-16.67A1.66,1.66,0,0,1,278.42,312.33Z"/><path class="cls-4" d="M322.47,340.18c0,.18,4.07,8.45,4.07,8.45l-4.15.57-3.17-7.08Z"/><path d="M322.39,349.39a.2.2,0,0,1-.17-.11l-3.17-7.08a.19.19,0,0,1,.08-.23l3.25-1.94a.19.19,0,0,1,.18,0,.24.24,0,0,1,.09.13c.11.33,2.48,5.19,4.05,8.4a.17.17,0,0,1,0,.17.19.19,0,0,1-.14.09l-4.14.57Zm-2.94-7.19L322.5,349l3.76-.52c-2.22-4.54-3.52-7.24-3.87-8Z"/><path class="cls-4" d="M323,346.43a2,2,0,0,1,1.06-.75,1.84,1.84,0,0,1,2,.79,49.25,49.25,0,0,1,5.53,10.18c.49,1.4-.32,2.81-2.14,2.22a20.33,20.33,0,0,1-10.33-8.58,2,2,0,0,1-.14-1.86,10.1,10.1,0,0,1,.9-1.65,1.22,1.22,0,0,1,1.59-.37l.48.27A.85.85,0,0,0,323,346.43Z"/><path d="M330.2,359.19a2.72,2.72,0,0,1-.85-.15,20.41,20.41,0,0,1-10.44-8.66,2.21,2.21,0,0,1-.14-2,10.35,10.35,0,0,1,.91-1.67,1.39,1.39,0,0,1,1.82-.43l.49.27a.66.66,0,0,0,.84-.2h0a2.2,2.2,0,0,1,1.16-.82,2,2,0,0,1,2.17.87,48.66,48.66,0,0,1,5.55,10.22,2.05,2.05,0,0,1-.33,2.14A1.61,1.61,0,0,1,330.2,359.19Zm-9.37-12.75a1,1,0,0,0-.85.45,9.23,9.23,0,0,0-.88,1.61,1.84,1.84,0,0,0,.12,1.69,20.11,20.11,0,0,0,10.24,8.51,1.55,1.55,0,0,0,1.66-.23,1.7,1.7,0,0,0,.25-1.76,48.54,48.54,0,0,0-5.51-10.13,1.67,1.67,0,0,0-1.77-.73,1.8,1.8,0,0,0-1,.69,1,1,0,0,1-1.3.29l-.49-.26A1,1,0,0,0,320.83,346.44Z"/><path d="M330.21,357.48c-1.19,0-4.73-.71-10.11-7.8a.18.18,0,0,1,0-.25.19.19,0,0,1,.26,0c6.4,8.43,10.14,7.63,10.18,7.62a.18.18,0,0,1,.09.35A1.59,1.59,0,0,1,330.21,357.48Z"/><path d="M326.73,352.87a.18.18,0,0,1-.11-.33l1.95-1.34a.18.18,0,1,1,.2.3l-1.94,1.34A.19.19,0,0,1,326.73,352.87Z"/><path d="M325.65,351.34a.18.18,0,0,1-.15-.09.18.18,0,0,1,.06-.25l2.1-1.35a.18.18,0,1,1,.2.31l-2.11,1.35A.17.17,0,0,1,325.65,351.34Z"/><polygon class="cls-4" points="309.8 340.67 306.15 348.29 303.84 345.23 307 337.82 309.8 340.67"/><path d="M306.15,348.47a.18.18,0,0,1-.15-.07l-2.31-3.06a.17.17,0,0,1,0-.18l3.16-7.41a.16.16,0,0,1,.13-.11.22.22,0,0,1,.17.05l2.8,2.86a.17.17,0,0,1,0,.2l-3.66,7.62a.15.15,0,0,1-.14.1ZM304,345.2l2.07,2.74,3.47-7.23-2.52-2.57Z"/><path class="cls-4" d="M307.48,347.09c-.77,2.46-2.39,7.41-5,10.52-.71.83-2.58.26-2.95-1.23a20.57,20.57,0,0,1,.9-13.56,1.36,1.36,0,0,1,1-.8,8.55,8.55,0,0,1,2.34-.12,1,1,0,0,1,.85,1.09l-.24,2,.31-.27a1.27,1.27,0,0,1,1.63,0l.8.66A1.55,1.55,0,0,1,307.48,347.09Z"/><path d="M301.52,358.17a2.49,2.49,0,0,1-.46-.05,2.37,2.37,0,0,1-1.74-1.7,20.51,20.51,0,0,1,.92-13.68,1.55,1.55,0,0,1,1.11-.9,8.65,8.65,0,0,1,2.38-.12,1.09,1.09,0,0,1,.76.39,1.22,1.22,0,0,1,.26.9l-.19,1.58a1.45,1.45,0,0,1,1.82,0l.8.66a1.73,1.73,0,0,1,.48,1.87h0c-.62,2-2.28,7.31-5.06,10.58A1.35,1.35,0,0,1,301.52,358.17ZM303,342.05a8.59,8.59,0,0,0-1.54.14,1.22,1.22,0,0,0-.85.7,20.06,20.06,0,0,0-.89,13.44,2,2,0,0,0,1.46,1.43,1.15,1.15,0,0,0,1.17-.27c2.74-3.22,4.38-8.48,5-10.46a1.36,1.36,0,0,0-.36-1.48l-.8-.66a1.09,1.09,0,0,0-1.39,0l-.32.27a.18.18,0,0,1-.2,0,.17.17,0,0,1-.09-.18l.24-2a.84.84,0,0,0-.18-.63.73.73,0,0,0-.5-.26Zm4.52,5Z"/><path d="M301.1,356.45a.17.17,0,0,1-.17-.13,22,22,0,0,1,.33-12.76.18.18,0,0,1,.24-.1.17.17,0,0,1,.1.23,21.54,21.54,0,0,0-.33,12.52.18.18,0,0,1-.12.23Z"/><path d="M306.08,350.56a.19.19,0,0,1-.1,0l-2.06-1.27a.19.19,0,0,1-.06-.25.19.19,0,0,1,.25-.06l2.06,1.27a.17.17,0,0,1,.06.25A.16.16,0,0,1,306.08,350.56Z"/><path d="M305.17,352.49a.2.2,0,0,1-.11,0l-1.9-1.4a.18.18,0,1,1,.21-.29l1.91,1.39a.19.19,0,0,1,0,.26A.16.16,0,0,1,305.17,352.49Z"/><path d="M299.16,298.63A34.47,34.47,0,0,1,318.3,308a9.51,9.51,0,0,1,2.25,8.56c-1.41,5.83-4.52,16.33-10.09,24.69a.93.93,0,0,1-1.38.21l-3.84-3.16a1.06,1.06,0,0,1-.37-.89c.19-2.23,1.05-10.64,3.52-16.25,2.87-6.52-16.27-19.3-16.27-19.3Z"/><path d="M323.3,341.92l-4.48,1.65a.62.62,0,0,1-.78-.32c-1.72-3.37-11.43-22.33-14.31-25.24-3.15-3.19-4.66-5.51-10.91-7.12s-6.49-6.55-6.49-6.55l10.35-3.73s10.39,3.09,15.58,10.42c4.68,6.61,10.38,26.29,11.44,30.05A.69.69,0,0,1,323.3,341.92Z"/><path class="cls-4" d="M318.62,324.53a.18.18,0,0,1-.17-.11c-1.69-4.52-4.53-10.73-6.34-13.29-2-2.78-5.55-5.67-10.67-8.6a.18.18,0,0,1,.18-.32c5.16,3,8.79,5.89,10.79,8.71,1.83,2.59,4.68,8.83,6.38,13.37a.17.17,0,0,1-.1.23Z"/><path d="M291.15,306.91s-3.8,2.63-5.72,1.65,1.73-4.31,2.74-4.37S291.15,306.91,291.15,306.91Z"/><path d="M296.25,262.65c1.63-.11,3.38,1.52,3,4.07-.29,2.07-2.39,2.55-3.42,3.59-3.33,3.37-2,6.8-3.29,10.93-1.92,6.15-16.77,7.83-20.4,2.73-3.45-4.84-3.85-11.75.22-14.75,3.66-2.71,5.87.94,9.75-1.57s3-5.2,5.36-6.18C290.7,260.14,291.61,263,296.25,262.65Z"/><path class="cls-4" d="M298.37,278.34s2.62,1.83,5.31,3.8a19.64,19.64,0,0,1,4.07,3.89c1.21,1.77-.28,5.76-2.9,6.13a7.56,7.56,0,0,1-3.86-.29,10.2,10.2,0,0,0,2.24-2.57c.56-1.17-7.74-5.27-7.74-5.27Z"/><path d="M303.4,292.44a6.59,6.59,0,0,1-2.49-.4.21.21,0,0,1-.1-.14.18.18,0,0,1,.06-.17,10,10,0,0,0,2.2-2.51c0-.06.17-.64-3.59-2.84-2-1.16-4.05-2.18-4.07-2.19a.14.14,0,0,1-.09-.11.14.14,0,0,1,0-.14l2.88-5.69a.22.22,0,0,1,.12-.09.2.2,0,0,1,.15,0s2.65,1.85,5.31,3.81a19.31,19.31,0,0,1,4.11,3.93,4.08,4.08,0,0,1,0,3.8,4.16,4.16,0,0,1-3,2.61A11.46,11.46,0,0,1,303.4,292.44Zm-2.06-.64a8.23,8.23,0,0,0,3.48.18,4.36,4.36,0,0,0,2.78-5.85,19.8,19.8,0,0,0-4-3.84c-2.26-1.66-4.5-3.24-5.13-3.68l-2.71,5.33c.53.27,2.27,1.15,3.93,2.13,3.68,2.15,3.93,2.9,3.74,3.31A9.14,9.14,0,0,1,301.34,291.8Z"/><path class="cls-4" d="M275.37,286.73a29.61,29.61,0,0,1,1.07-3.73c1.15-3,1.92-4.94,5.28-6.51a9.38,9.38,0,0,1,1.56-.57l2-.54s7.45-1.59,12.68,1.77L301.7,280s-5.05,3.3-4.59,6.48,1.3,6.67,2.68,8c.87.84,3.35,3.65,3.35,3.65s1.51,2-4.87,3.74c-6.36,2.25-9.66.41-13,5.72-.69,1.48-1.07-1.69-2-9-.29-2.23-.41-5.67-.64-9a3.31,3.31,0,0,0-3.39-3Z"/><path d="M285,308.14h-.05c-.59-.09-.87-2-1.76-8.77l-.09-.73c-.19-1.46-.31-3.46-.43-5.58-.07-1.12-.13-2.28-.21-3.42a3.15,3.15,0,0,0-3.21-2.82l-3.83.09a.16.16,0,0,1-.14-.07.17.17,0,0,1,0-.15,30.14,30.14,0,0,1,1.08-3.76c1.11-2.89,1.91-5,5.37-6.61a9,9,0,0,1,1.59-.57l2-.54c.08,0,7.59-1.58,12.82,1.79l3.76,2.87a.16.16,0,0,1,.07.15.18.18,0,0,1-.08.15c-.05,0-4.95,3.27-4.51,6.3.58,4,1.51,6.83,2.62,7.9.87.83,3.26,3.55,3.37,3.66a1.27,1.27,0,0,1,.12,1.14c-.4,1.13-2.11,2.1-5.09,2.89a29.37,29.37,0,0,1-5.48,1.31c-3,.51-5.23.87-7.41,4.32C285.36,307.83,285.21,308.14,285,308.14Zm-5.68-21.68a3.5,3.5,0,0,1,3.5,3.15c.08,1.15.15,2.31.21,3.43.12,2.11.24,4.1.43,5.55l.1.74c.61,4.69,1.06,8.11,1.44,8.44a.88.88,0,0,0,.15-.24v0c2.27-3.6,4.53-4,7.66-4.5a29.12,29.12,0,0,0,5.44-1.3c3.57-.94,4.6-2,4.84-2.66a.86.86,0,0,0-.06-.79s-2.48-2.81-3.33-3.63c-1.5-1.44-2.31-5.2-2.73-8.11s3.48-5.83,4.46-6.51l-3.55-2.71c-5.09-3.28-12.45-1.76-12.53-1.74l-2,.54a8.73,8.73,0,0,0-1.52.55c-3.33,1.56-4.07,3.49-5.19,6.41a29.74,29.74,0,0,0-1,3.48l3.59-.08Z"/><path class="cls-4" d="M297.4,282s-1.35,3.37-3.8,8-1.85,6.09.07,7.45,7.53-1.6,11.25-10.13-1.31-10-2.94-9.94C298.91,277.51,297.4,282,297.4,282Z"/><path d="M294.79,298a2.12,2.12,0,0,1-1.23-.35c-2-1.42-2.57-3-.12-7.69,2.37-4.51,3.73-7.86,3.79-8s1.61-4.61,4.74-4.7a4.49,4.49,0,0,1,3.67,1.89c1.24,1.83,1.05,4.63-.55,8.31-2.87,6.56-6.77,9.7-9.23,10.39A4.34,4.34,0,0,1,294.79,298Zm7.26-20.39H302c-2.9.08-4.4,4.41-4.41,4.46h0s-1.39,3.43-3.8,8-1.87,5.9,0,7.22a2.38,2.38,0,0,0,2,.14c2.39-.67,6.18-3.74,9-10.19,1.53-3.51,1.73-6.26.59-8A4.17,4.17,0,0,0,302.05,277.6ZM297.4,282Z"/><path class="cls-4" d="M300.73,280.26a5.65,5.65,0,0,0-1.13,3.12c.12,1.47,1.78,2,3.64.37s1.19-3.11.39-3.73A2,2,0,0,0,300.73,280.26Z"/><path d="M301.05,284.93a1.67,1.67,0,0,1-.67-.13,1.59,1.59,0,0,1-1-1.4,5.76,5.76,0,0,1,1.17-3.25,2.28,2.28,0,0,1,1.42-.83,2.42,2.42,0,0,1,2.61,2.24,3,3,0,0,1-1.26,2.33A3.69,3.69,0,0,1,301.05,284.93Zm1.21-5.27-.2,0a2,2,0,0,0-1.18.69h0a5.43,5.43,0,0,0-1.09,3,1.22,1.22,0,0,0,.73,1.1,3.46,3.46,0,0,0,3.73-2.9,1.85,1.85,0,0,0-.73-1.41A2,2,0,0,0,302.26,279.66Zm-1.53.6Z"/><path class="cls-4" d="M282.64,289.39a3,3,0,0,0-2.77-2.74l-3.28.08s.08,8.75,2.33,11.62c0,0,3.17,4.4,13.35-3a4.46,4.46,0,0,0,1.44-2.71c.21-1.18,2-1.7,2.78-2.48a.42.42,0,0,0-.34-.71l-3.06.6a1.32,1.32,0,0,0-1,.87l-.64,1.75a1.4,1.4,0,0,1-.66.77,18.56,18.56,0,0,1-5.4,1.29,2,2,0,0,1-2.14-1.64C283.07,292.29,282.92,291.12,282.64,289.39Z"/><path d="M282.34,299.83a6.21,6.21,0,0,1-1-.08,3.9,3.9,0,0,1-2.55-1.29c-2.26-2.88-2.36-11.37-2.36-11.73a.19.19,0,0,1,.18-.19l3.28-.07a3.18,3.18,0,0,1,2.95,2.89c.1.61.18,1.15.26,1.63.13.87.23,1.56.35,2.09a1.85,1.85,0,0,0,1.94,1.5,18.06,18.06,0,0,0,5.34-1.28,1.17,1.17,0,0,0,.57-.66l.64-1.75a1.53,1.53,0,0,1,1.13-1l3.07-.59a.54.54,0,0,1,.6.29.6.6,0,0,1-.1.72,6.69,6.69,0,0,1-1.12.79c-.73.44-1.49.9-1.61,1.59a4.56,4.56,0,0,1-1.51,2.82C287.64,299,284.4,299.83,282.34,299.83Zm-5.56-12.93c0,1.26.27,8.77,2.28,11.34a3.89,3.89,0,0,0,2.77,1.21c1.86.15,5.15-.46,10.34-4.22a4.33,4.33,0,0,0,1.36-2.59c.15-.85,1-1.36,1.78-1.84a5.81,5.81,0,0,0,1.05-.74.25.25,0,0,0,0-.29.19.19,0,0,0-.21-.11l-3.07.59a1.17,1.17,0,0,0-.86.77l-.64,1.75a1.55,1.55,0,0,1-.75.86,18.73,18.73,0,0,1-5.47,1.31,2.21,2.21,0,0,1-2.32-1.78c-.13-.54-.23-1.24-.36-2.11-.08-.48-.16-1-.26-1.63a2.86,2.86,0,0,0-2.59-2.59Z"/><path class="cls-4" d="M304.46,288.67h0a1.22,1.22,0,0,1-1.63.58,5.34,5.34,0,0,1-1.21-.75L301,288c-.46-.34-1.24-.3-1.41.19-.24.7-.69,1.75,2.71,4.14,2,1.39,3.31-1.47,3.25-2.95a1.19,1.19,0,0,0-.36-.83A.48.48,0,0,0,304.46,288.67Z"/><path d="M303.35,292.92a2,2,0,0,1-1.14-.4c-3.43-2.42-3-3.55-2.79-4.3l0-.05a.81.81,0,0,1,.54-.49,1.36,1.36,0,0,1,1.15.22l.6.46a4.58,4.58,0,0,0,1.18.73,1,1,0,0,0,.79.05,1,1,0,0,0,.59-.54h0a.56.56,0,0,1,.44-.31.69.69,0,0,1,.6.18,1.43,1.43,0,0,1,.42,1,4.05,4.05,0,0,1-1.64,3.31A1.59,1.59,0,0,1,303.35,292.92Zm-3-4.92-.24,0a.45.45,0,0,0-.3.26v0c-.23.64-.56,1.62,2.65,3.88a1.37,1.37,0,0,0,1.53.18,3.67,3.67,0,0,0,1.44-3,1,1,0,0,0-.31-.7.35.35,0,0,0-.28-.09.29.29,0,0,0-.18.12h0a1.39,1.39,0,0,1-1.87.66,5,5,0,0,1-1.24-.77l-.6-.46A1,1,0,0,0,300.32,288Z"/><path class="cls-4" d="M286.59,274.65c.7-1.69,2.09-5,2.2-5.56a1.29,1.29,0,0,1-.36-1.24c.27-1.64,1.71-.61,1.71-.61l.15.06a4.54,4.54,0,0,0,2.7.23l1.9-.41a2.81,2.81,0,0,1-.32,2.05,5.06,5.06,0,0,0-.33,2.18.38.38,0,0,1-.36.39l-.49,0a3.52,3.52,0,0,1-1.07,1.26.58.58,0,0,1-.44.1,2.67,2.67,0,0,1-.87-.34l-.46,1.91a.67.67,0,0,0,.3.71l.56.33a.5.5,0,0,1,.14.73,3.85,3.85,0,0,1-2.07,1.2,8.44,8.44,0,0,1-5-.37.44.44,0,0,1,0-.8l.84-.43A2.76,2.76,0,0,0,286.59,274.65Z"/><path d="M287.66,278.07a8.8,8.8,0,0,1-3.25-.61.61.61,0,0,1-.38-.55.63.63,0,0,1,.34-.58l.84-.43a2.56,2.56,0,0,0,1.21-1.32c1.23-2.95,2-4.9,2.17-5.44a1.52,1.52,0,0,1-.34-1.32,1.2,1.2,0,0,1,.64-1,1.62,1.62,0,0,1,1.34.27l.13.05a4.34,4.34,0,0,0,2.59.23l1.9-.42a.18.18,0,0,1,.21.11,3,3,0,0,1-.33,2.2,5,5,0,0,0-.31,2.1.56.56,0,0,1-.53.58h-.39a3.74,3.74,0,0,1-1.08,1.23.75.75,0,0,1-.58.13,3.4,3.4,0,0,1-.71-.25l-.4,1.68a.47.47,0,0,0,.21.51l.56.33a.65.65,0,0,1,.32.45.67.67,0,0,1-.13.55,4,4,0,0,1-2.16,1.26A6.8,6.8,0,0,1,287.66,278.07Zm1.59-11a.54.54,0,0,0-.22,0c-.21.09-.35.34-.42.74a1.09,1.09,0,0,0,.29,1.06.18.18,0,0,1,.07.18c-.11.52-1.43,3.73-2.22,5.6a2.89,2.89,0,0,1-1.38,1.5l-.84.43a.28.28,0,0,0,0,.48,8.15,8.15,0,0,0,4.88.35,3.66,3.66,0,0,0,2-1.13.3.3,0,0,0,.06-.26.31.31,0,0,0-.14-.21l-.57-.33a.83.83,0,0,1-.37-.91l.46-1.91a.17.17,0,0,1,.1-.12.2.2,0,0,1,.17,0,2.43,2.43,0,0,0,.8.32.36.36,0,0,0,.3-.07,3.24,3.24,0,0,0,1-1.2.2.2,0,0,1,.15-.1h.5a.19.19,0,0,0,.18-.2,5.15,5.15,0,0,1,.34-2.26,3,3,0,0,0,.35-1.77l-1.72.38a4.75,4.75,0,0,1-2.81-.24l-.14-.06,0,0A1.62,1.62,0,0,0,289.25,267.1Zm-2.66,7.55Z"/><path d="M291,273a.19.19,0,0,1-.1,0l-.31-.21a.19.19,0,0,1-.05-.26.18.18,0,0,1,.25,0l.32.21a.18.18,0,0,1-.11.33Z"/><polygon class="cls-4" points="230.49 350.58 229.4 358.19 226.63 358.2 226.5 350.71 230.49 350.58"/><path d="M226.63,358.4a.2.2,0,0,1-.2-.2l-.13-7.48a.19.19,0,0,1,.19-.2l4-.14a.21.21,0,0,1,.15.07.18.18,0,0,1,.05.16l-1.09,7.61a.19.19,0,0,1-.19.16l-2.77,0Zm.06-7.5.13,7.11h2.41l1-7.22Z"/><path class="cls-4" d="M229.5,365.47a26.37,26.37,0,0,1-4.88,0,1.34,1.34,0,0,1-1.2-1.55c.34-2.07,1.28-5.71,2.76-7.39l.73,1.05.43-1.08c.07-.12,1.91-.19,1.95,0l.11,1.06,1-1.17-.05,3.84a5.38,5.38,0,0,0,.12,1.26l.27,1.33a2.51,2.51,0,0,1-.6,2.24A1.24,1.24,0,0,1,229.5,365.47Z"/><path d="M227.39,365.76c-.78,0-1.71,0-2.79-.13a1.46,1.46,0,0,1-1.06-.58,1.52,1.52,0,0,1-.31-1.2c.09-.54.92-5.34,2.8-7.47a.2.2,0,0,1,.16-.07.19.19,0,0,1,.15.08l.52.75.3-.74,0,0c.16-.27,1.67-.21,1.94-.16.09,0,.33.06.36.25l.07.63.75-.84a.22.22,0,0,1,.22-.06.21.21,0,0,1,.12.19l-.06,3.84a6.23,6.23,0,0,0,.12,1.22l.27,1.33a2.74,2.74,0,0,1-.64,2.41,1.38,1.38,0,0,1-.81.48A18.9,18.9,0,0,1,227.39,365.76Zm-1.23-8.94c-1.38,1.75-2.24,5.25-2.54,7.1a1.14,1.14,0,0,0,.22.89,1.16,1.16,0,0,0,.8.44,25.26,25.26,0,0,0,4.83,0,1,1,0,0,0,.57-.36,2.3,2.3,0,0,0,.55-2.06l-.27-1.33a6.4,6.4,0,0,1-.13-1.31l.05-3.31-.69.78a.23.23,0,0,1-.21.05.2.2,0,0,1-.13-.16l-.1-1a5.86,5.86,0,0,0-1.62,0l-.4,1a.22.22,0,0,1-.16.12.18.18,0,0,1-.18-.08Z"/><path d="M227.51,364.41a15.89,15.89,0,0,1-2.77-.25.2.2,0,0,1-.16-.23.2.2,0,0,1,.23-.15,13.93,13.93,0,0,0,4.62.09.19.19,0,0,1,.23.15.2.2,0,0,1-.15.23A10.68,10.68,0,0,1,227.51,364.41Z"/><path d="M228.4,361.49h-2.52a.19.19,0,0,1-.19-.2.18.18,0,0,1,.19-.19h2.52a.18.18,0,0,1,.19.19A.19.19,0,0,1,228.4,361.49Z"/><polygon class="cls-4" points="250.4 351.26 251.37 360.13 255.1 360.91 254.88 350.51 250.4 351.26"/><path d="M255.1,361.11h0l-3.73-.78a.2.2,0,0,1-.15-.17l-1-8.87a.19.19,0,0,1,.16-.21l4.48-.75a.18.18,0,0,1,.16,0,.19.19,0,0,1,.07.14l.23,10.41a.2.2,0,0,1-.2.2ZM251.55,360l3.35.7-.21-9.93-4.08.68Z"/><path class="cls-4" d="M249.79,364.36c-.08-1.55-.08-4.42.87-5.8l3,1.07V359a.38.38,0,0,1,.34-.39l1.66-.09a3.58,3.58,0,0,1,1.81.37c1.67.82,6.76,2.93,7.47,5.31a1.13,1.13,0,0,1-1.07,1.42c-1.67,0-5.7.1-12.93-.15A1.17,1.17,0,0,1,249.79,364.36Z"/><path d="M260.51,365.84c-2.22,0-5.36,0-9.6-.19a1.34,1.34,0,0,1-1.31-1.28c-.08-1.6-.08-4.49.9-5.92a.19.19,0,0,1,.22-.07l2.73,1V359a.56.56,0,0,1,.51-.58l1.67-.1a3.91,3.91,0,0,1,1.9.39l.74.35c2.16,1,6.19,2.91,6.84,5.08a1.27,1.27,0,0,1-.2,1.11,1.34,1.34,0,0,1-1.05.56C263.14,365.82,262,365.84,260.51,365.84Zm-9.77-7c-.83,1.37-.83,4.05-.75,5.55a1,1,0,0,0,.93.92c7.16.24,11.17.19,12.93.14a1,1,0,0,0,.75-.4.88.88,0,0,0,.13-.77c-.59-2-4.67-3.92-6.63-4.84l-.74-.35a3.51,3.51,0,0,0-1.71-.35l-1.66.1a.17.17,0,0,0-.15.19v.64a.16.16,0,0,1-.09.15.17.17,0,0,1-.17,0Z"/><path d="M259.35,364.37a72.14,72.14,0,0,1-8.1-.46.2.2,0,0,1-.17-.21.19.19,0,0,1,.22-.17,70.31,70.31,0,0,0,11.67.35.19.19,0,1,1,0,.38S261.57,364.37,259.35,364.37Z"/><path d="M258.43,361.83a.15.15,0,0,1-.11,0l-2.88-2.07a.19.19,0,0,1,.23-.31l2.87,2.07a.19.19,0,0,1,0,.27A.21.21,0,0,1,258.43,361.83Z"/><path d="M251.56,288.78s5.35,39.63,4.21,66.08l-1.67.18a16.24,16.24,0,0,1-2.7.07l-1.58-.08s-6.38-40.18-9.57-46.85c0,0-8.66,35.73-9,45.41,0,0-3.85.42-5.39-.18-.82-9.34-1.06-19-1.1-25.08-.12-17.38,1.42-25.27,2.26-29,.77-3.44,1.6-6.24,2.21-8.12l2-6.24Z"/><path class="cls-4" d="M231.14,255.81c3.54-.4,9.76-1.68,17-.22a8,8,0,0,1,3.94,1.86c3.51,3,1.13,28,2.19,37.52,1,8.81-26.71,2.36-26.71,2.36S229.68,256,231.14,255.81Z"/><path d="M245.05,299.81c-7.54,0-16.93-2.16-17.51-2.3a.19.19,0,0,1-.15-.19c0-.11.53-10.46,1.23-20.71,1.42-20.88,2.15-21,2.5-21l1.79-.23a45,45,0,0,1,15.29,0,8.33,8.33,0,0,1,4,1.92c2.29,2,2.15,12.57,2,22.82a145.6,145.6,0,0,0,.23,14.82,3.25,3.25,0,0,1-1.09,2.95C251.79,299.32,248.62,299.81,245.05,299.81Zm-17.26-2.64c1.93.44,20.74,4.52,25.34.44a2.85,2.85,0,0,0,1-2.62,143.16,143.16,0,0,1-.24-14.86c.13-9.69.27-20.67-1.89-22.53a7.77,7.77,0,0,0-3.85-1.82,44.22,44.22,0,0,0-15.16,0c-.64.08-1.23.17-1.77.23C230.17,257.08,228.6,281.11,227.79,297.17Zm3.35-41.36Z"/><path class="cls-4" d="M237,274.66c-1.82-8.5-3.88-16.52-5.3-19.56a12.52,12.52,0,0,0-1.53.17,12.82,12.82,0,0,0-5,2.41c-5.33,4.34-7.86,12.76-9.77,17.61a4,4,0,0,0,2.49,5.3l.72.24,8.12,1.07-5,34.44a2.73,2.73,0,0,0,3,3,132.56,132.56,0,0,0,13.47.6C239.17,310.47,239.27,285.21,237,274.66Z"/><path d="M236.71,320.11c-5.18,0-10.35-.46-11.92-.61h-.06a2.72,2.72,0,0,1-2.14-.67,3.15,3.15,0,0,1-1-2.48v0l4.94-34.24-7.91-1h0l-.73-.24a4.25,4.25,0,0,1-2.6-5.56c.27-.68.55-1.43.85-2.23,1.84-4.94,4.35-11.69,9-15.46a13,13,0,0,1,5.09-2.45,6.16,6.16,0,0,1,1-.13l.53,0a.18.18,0,0,1,.2.11c1.29,2.78,3.28,10.11,5.31,19.6,2.3,10.73,2.15,36.15,1.19,45.3a.19.19,0,0,1-.19.17Zm1.48-.21Zm-13.47-.8h.11a129.66,129.66,0,0,0,13.18.6c.94-9.27,1.08-34.38-1.2-45-2-9.32-3.94-16.54-5.22-19.39l-.41,0a6.52,6.52,0,0,0-1,.11,12.74,12.74,0,0,0-4.93,2.39c-4.54,3.69-7,10.39-8.86,15.28-.29.8-.58,1.56-.84,2.24a3.8,3.8,0,0,0,.09,3,3.84,3.84,0,0,0,2.27,2l.7.23,8.1,1.07a.22.22,0,0,1,.13.08.18.18,0,0,1,0,.14l-5,34.42a2.82,2.82,0,0,0,.9,2.18,2.28,2.28,0,0,0,1.84.57Z"/><path class="cls-4" d="M258,281.82a6.56,6.56,0,0,0,7.56.37,7.86,7.86,0,0,0,1.23-1l3.63-3.68c3.22-3.15-.14-7.38-2.13-9.38a2,2,0,0,0-2.55-.23l-2.53,1.76a2.12,2.12,0,0,1-3.2-1c-1-2.81-2.17-7.76-4.8-10.15,0,0-1.41-1.64-6.87-3.39-2.72,4.36-8.25,15-6.63,24.29,1.68,9.76.24,31.08,0,39.72a16.15,16.15,0,0,1,4.67,1c6.21,2.61,12.48-1.39,12.67-3.05s-3.62-37.17-3.62-37.17Z"/><path d="M250.67,321.11a11.4,11.4,0,0,1-4.38-.87,15.6,15.6,0,0,0-4.6-1,.18.18,0,0,1-.18-.2c.05-1.73.14-3.95.25-6.52.44-10.1,1.09-25.37-.26-33.15-1.72-10,4.67-21.22,6.67-24.44a.19.19,0,0,1,.22-.08c5.3,1.7,6.81,3.29,7,3.44,2.16,2,3.31,5.55,4.24,8.42.21.66.41,1.27.61,1.8a1.91,1.91,0,0,0,2.9.94l2.53-1.76a2.19,2.19,0,0,1,2.8.25c1.32,1.34,3.54,3.95,3.52,6.53a4.35,4.35,0,0,1-1.39,3.13l-3.63,3.68a8.22,8.22,0,0,1-1.26,1,6.75,6.75,0,0,1-7.79-.38l-2.21-1.69c.46,4.31,3.76,35.17,3.58,36.75-.08.7-1,1.62-2.36,2.42A12.59,12.59,0,0,1,250.67,321.11Zm-8.77-2.2a15.73,15.73,0,0,1,4.54,1,11.73,11.73,0,0,0,10.24-.77c1.42-.82,2.12-1.68,2.17-2.12.19-1.62-3.59-36.77-3.63-37.12a.2.2,0,0,1,.1-.2.22.22,0,0,1,.22,0l2.56,2a6.36,6.36,0,0,0,7.34.35,7,7,0,0,0,1.2-1l3.63-3.67a4,4,0,0,0,1.28-2.86c0-2.44-2.13-5-3.41-6.25a1.79,1.79,0,0,0-2.3-.21l-2.53,1.75a2.3,2.3,0,0,1-3.49-1.11c-.19-.54-.4-1.16-.61-1.82-.91-2.83-2-6.35-4.14-8.26v0s-1.44-1.59-6.64-3.28c-2.07,3.34-8.21,14.33-6.53,24,1.35,7.82.69,23.12.26,33.24C242,315.06,242,317.21,241.9,318.91Z"/><path d="M249.64,304.3a11.45,11.45,0,0,1-4.44-1,.21.21,0,0,1-.1-.26.2.2,0,0,1,.26-.1c6,2.55,9.06-.79,9.09-.83a.19.19,0,0,1,.27,0,.2.2,0,0,1,0,.28A7.08,7.08,0,0,1,249.64,304.3Z"/><path d="M255.58,280.21a.2.2,0,0,1-.14-.06,21.34,21.34,0,0,1-4.78-8.52.19.19,0,0,1,.37-.09,21.34,21.34,0,0,0,4.69,8.34.19.19,0,0,1,0,.27A.16.16,0,0,1,255.58,280.21Z"/><path class="cls-4" d="M267.62,268.51c2-1.86,4.79-4.06,4.83-4.15.28-.67,1.23-2.63,2.73-3.1,1.82-.57,4-2.68,4.74-2.1s-2,2.09-1.88,2.42,2.12-.49,2.91-1.14,2-2.05,2.63-1.73c.88.44.53,1.89-1.75,4.11s-6.3,1.25-7.28,2.83a36.45,36.45,0,0,1-3.82,7c-.66.88-1.66.75-2.56-.14C268.17,272.53,265.79,270.21,267.62,268.51Z"/><path d="M269.64,273.46a2.41,2.41,0,0,1-1.61-.79,4.4,4.4,0,0,1-1.3-2.69,2.21,2.21,0,0,1,.76-1.61h0c1.29-1.2,2.92-2.56,3.9-3.36.43-.36.8-.67.89-.76.35-.82,1.31-2.7,2.84-3.18a11.4,11.4,0,0,0,2.32-1.2c1.16-.72,2.07-1.28,2.6-.86a.49.49,0,0,1,.2.39c0,.45-.56.94-1.34,1.58-.19.15-.43.35-.57.48a7.2,7.2,0,0,0,2.5-1.17c.18-.15.38-.34.6-.54.8-.75,1.63-1.52,2.24-1.21a1,1,0,0,1,.54.73c.13.85-.67,2.16-2.25,3.69a8.07,8.07,0,0,1-4.4,1.7c-1.3.22-2.43.42-2.85,1.09a1.31,1.31,0,0,1-.08.21,33,33,0,0,1-3.74,6.83,1.55,1.55,0,0,1-1.15.67Zm-1.89-4.8a1.79,1.79,0,0,0-.63,1.32,4.09,4.09,0,0,0,1.18,2.41,2,2,0,0,0,1.42.68,1.18,1.18,0,0,0,.86-.51,32.81,32.81,0,0,0,3.69-6.76,2.13,2.13,0,0,1,.11-.25c.51-.83,1.72-1,3.11-1.28a7.76,7.76,0,0,0,4.2-1.59c2.08-2,2.18-3,2.13-3.35a.56.56,0,0,0-.33-.44c-.36-.19-1.19.58-1.79,1.14-.23.21-.44.41-.63.56-.66.55-2.49,1.4-3,1.24a.29.29,0,0,1-.21-.19c-.08-.24.17-.45.8-1,.45-.37,1.2-1,1.2-1.28a.1.1,0,0,0-.05-.08c-.32-.26-1.25.32-2.15.88a11.26,11.26,0,0,1-2.41,1.24c-1.44.46-2.36,2.41-2.61,3,0,.07,0,.08-1,.87S269,267.46,267.75,268.66Z"/><path class="cls-5" d="M234.08,288.33H221.4a1.19,1.19,0,0,1-1.16-.91l-4.39-17.69a1.2,1.2,0,0,1,1.16-1.49h12.68a1.22,1.22,0,0,1,1.17.91l4.38,17.7A1.19,1.19,0,0,1,234.08,288.33Z"/><path class="cls-4" d="M217.91,277.29l.43,1.78,1.53-.51a11.82,11.82,0,0,0,2.42-1.12l.88-.53a1.2,1.2,0,0,1,1.76.64c.54,1.54.44,4.11-5.09,5.73-3,.9-3.92-3-3.52-5.18A1.83,1.83,0,0,1,217,277,.59.59,0,0,1,217.91,277.29Z"/><path d="M219,283.61a2.34,2.34,0,0,1-1.61-.62c-1.16-1-1.55-3.32-1.26-4.92a2,2,0,0,1,.72-1.25.76.76,0,0,1,.74-.13.78.78,0,0,1,.51.55h0l.38,1.58,1.33-.44a12.23,12.23,0,0,0,2.38-1.1l.88-.54a1.38,1.38,0,0,1,1.19-.12,1.46,1.46,0,0,1,.86.86,3.42,3.42,0,0,1-.14,2.74c-.71,1.38-2.41,2.47-5.08,3.25A3.23,3.23,0,0,1,219,283.61ZM217.34,277a.46.46,0,0,0-.25.08,1.64,1.64,0,0,0-.58,1c-.27,1.5.08,3.61,1.14,4.56a2.1,2.1,0,0,0,2.14.4c2.56-.75,4.19-1.78,4.84-3.05a3,3,0,0,0,.12-2.44,1,1,0,0,0-1.48-.53l-.88.53a12.22,12.22,0,0,1-2.46,1.14l-1.53.51a.23.23,0,0,1-.16,0,.19.19,0,0,1-.09-.12l-.43-1.79a.38.38,0,0,0-.25-.27A.32.32,0,0,0,217.34,277Z"/><path class="cls-4" d="M242.84,249.52a.15.15,0,0,1,.08.11l.38,5.34a1.73,1.73,0,0,0,1.28,1.47l.53.13a.48.48,0,0,1,0,.91,14,14,0,0,1-4.9.93,8.48,8.48,0,0,1-4.11-1.38.46.46,0,0,1,.15-.84l.16,0a2.06,2.06,0,0,0,1.27-1.67l1-7a.14.14,0,0,1,.2-.1Z"/><path d="M240.56,258.61h-.32a8.52,8.52,0,0,1-4.2-1.41.63.63,0,0,1-.29-.66.64.64,0,0,1,.5-.53l.15,0a1.87,1.87,0,0,0,1.12-1.51l1-7a.31.31,0,0,1,.18-.25.34.34,0,0,1,.31,0l3.91,2.1a.32.32,0,0,1,.17.27l.38,5.34a1.54,1.54,0,0,0,1.14,1.29l.53.14a.67.67,0,0,1,.06,1.27A14.52,14.52,0,0,1,240.56,258.61Zm-1.65-11-1,6.89a2.27,2.27,0,0,1-1.42,1.83l-.15,0a.27.27,0,0,0-.21.22.26.26,0,0,0,.12.27,8.31,8.31,0,0,0,4,1.34,13.39,13.39,0,0,0,4.82-.92.28.28,0,0,0,.19-.27.29.29,0,0,0-.21-.26l-.53-.13a1.9,1.9,0,0,1-1.42-1.63l-.39-5.32Zm3.84,2.06Z"/><path d="M249.07,242c-1.31-.69-.26,1.46-4.54-2.25-1.71-1.48-1.77,1.28-2.21.9-1.64-1.41-1.58-1.37-2.62-1.55-.68-.11-1.59.83-1.87,1.72-.36,1.18.43,1.89.16,4.6-.19,1.91-.79,2.85-.24,3.39s1.46-.12,2.12.43c.84.72-.12,2.31.5,3.43.39.72,1.68,1.55,4.4,1.49a.92.92,0,0,0,.88-.77c.09-.56.21-1.27.26-1.95.24-3.26-.46-4.34.23-4.9,1.06-.85,2.86.74,3.62,0S250.85,243,249.07,242Z"/><path class="cls-4" d="M242.59,243.84l0,.89a8.83,8.83,0,0,1,0,1.26c-.06.79-.15,2.14-.15,2.9,0,1.12,3.46,1.34,3.46,1.34l.44-.49.4,0a.46.46,0,0,0,.23,0,.43.43,0,0,0,.23-.46,15.72,15.72,0,0,1-.13-4.86A4.73,4.73,0,0,0,242.59,243.84Z"/><path d="M245.94,250.42h0c-.61,0-3.64-.29-3.64-1.53,0-.77.09-2.16.15-2.91a10.1,10.1,0,0,0,0-1.23l-.06-.89a.21.21,0,0,1,.13-.2,4.86,4.86,0,0,1,4.71.58.18.18,0,0,1,.07.19,15.68,15.68,0,0,0,.14,4.79.63.63,0,0,1-.34.66.56.56,0,0,1-.32.07h-.32l-.37.42A.2.2,0,0,1,245.94,250.42ZM242.79,244l.05.74a9.26,9.26,0,0,1,0,1.29c0,.75-.15,2.12-.15,2.88s1.84,1,3.19,1.14l.37-.42a.22.22,0,0,1,.16-.07l.4,0,.13,0a.24.24,0,0,0,.13-.26,16.07,16.07,0,0,1-.15-4.8A4.58,4.58,0,0,0,242.79,244Z"/><path class="cls-4" d="M242,246.59s-.13-2.14-1.09-1.87A1.08,1.08,0,1,0,242,246.59Z"/><path d="M265.49,221.05a.2.2,0,0,1-.16-.07l-1-1a.23.23,0,0,1,.32-.32l1,1a.22.22,0,0,1,0,.32A.21.21,0,0,1,265.49,221.05Z"/><path d="M269,224.53a.28.28,0,0,1-.16-.07l-1-1a.24.24,0,0,1,0-.33.22.22,0,0,1,.32,0l1,1a.24.24,0,0,1,0,.32A.28.28,0,0,1,269,224.53Z"/><path d="M264.49,224.53a.28.28,0,0,1-.16-.07.22.22,0,0,1,0-.32l1-1a.22.22,0,0,1,.32,0,.24.24,0,0,1,0,.33l-1,1A.24.24,0,0,1,264.49,224.53Z"/><path d="M268,221.05a.2.2,0,0,1-.16-.07.22.22,0,0,1,0-.32l1-1a.24.24,0,0,1,.33,0,.24.24,0,0,1,0,.32l-1,1A.2.2,0,0,1,268,221.05Z"/><circle cx="257.92" cy="229.37" r="2.1"/><path d="M261.39,238.48a1.61,1.61,0,1,1,1.61-1.61A1.61,1.61,0,0,1,261.39,238.48Zm0-2.76a1.15,1.15,0,1,0,1.15,1.15A1.14,1.14,0,0,0,261.39,235.72Z"/><circle cx="266.69" cy="249.77" r="2.51"/></g></g><g class="cls-6"><g class="cls-7"><circle class="cls-4" cx="230.1" cy="75.04" r="75.04" transform="translate(-11.74 65.5) rotate(-15.8)"/><path class="cls-5" d="M28.76,162.62c52-26.05,133.57-37.6,225.1,57.82a3.43,3.43,0,0,1-.09,4.85c-16.08,15.09-107,97.52-163.2,85.79a3.52,3.52,0,0,1-1.61-.81L18,248.72C-10,224.37-4.46,179.27,28.76,162.62Z"/><path class="cls-4" d="M453.72,178.66a47.8,47.8,0,0,0-19.05-18.34h0c-19.67-10.49-45.26-19.46-75.24-19.46a158.2,158.2,0,0,0-53.42,9.5c-30.56,10.9-56.92,30.57-77.27,55.36-11.67,14.23-30.63,34.49-54.67,50.93s-53,29-85,29c-1.29,0-2.6,0-3.91-.06l-29.37-.91,173,139.53L443.39,239.54a48,48,0,0,0,16.81-36.6A48.56,48.56,0,0,0,453.72,178.66Zm-23.2,45.94-202.11,174L110.83,303.74c28.3-4.29,53.41-16.45,74.39-30.81,26.23-18,46.28-39.5,58.76-54.69,18.32-22.31,41.82-39.73,68.65-49.3a138.37,138.37,0,0,1,46.8-8.35c26,0,48.4,7.77,66,17.14L430,169l-4.63,8.71a28.08,28.08,0,0,1,11.24,10.79,28.88,28.88,0,0,1,3.84,14.42A28.29,28.29,0,0,1,430.52,224.6Z"/></g></g><text class="cls-8" transform="translate(188.06 61.62)">ةياعر<tspan x="-1.87" y="49.85">ةيبط</tspan></text></g></g></svg>